<svg width="282" height="114" viewBox="0 0 282 114" fill="none" xmlns="http://www.w3.org/2000/svg">
<g filter="url(#filter0_d_1752_5607)">
<rect x="18" y="15" width="242" height="74" rx="10" fill="white"/>
</g>
<g filter="url(#filter1_d_1752_5607)">
<path d="M35.083 36.156C33.783 36.156 32.6997 35.74 31.833 34.908C30.9663 34.0673 30.533 32.9883 30.533 31.671C30.533 30.3537 30.9663 29.279 31.833 28.447C32.6997 27.6063 33.783 27.186 35.083 27.186C36.591 27.186 37.7523 27.836 38.567 29.136L37.267 29.799C37.0503 29.4263 36.7427 29.123 36.344 28.889C35.954 28.655 35.5337 28.538 35.083 28.538C34.225 28.538 33.51 28.8327 32.938 29.422C32.3747 30.0113 32.093 30.761 32.093 31.671C32.093 32.581 32.3747 33.3307 32.938 33.92C33.51 34.5093 34.225 34.804 35.083 34.804C35.5423 34.804 35.967 34.687 36.357 34.453C36.747 34.219 37.0503 33.9157 37.267 33.543L38.567 34.206C37.735 35.506 36.5737 36.156 35.083 36.156ZM42.5793 36.156C41.6087 36.156 40.8287 35.8397 40.2393 35.207C39.65 34.5657 39.3553 33.7813 39.3553 32.854C39.3553 31.9267 39.65 31.1467 40.2393 30.514C40.8287 29.8813 41.6087 29.565 42.5793 29.565C43.5587 29.565 44.343 29.8813 44.9323 30.514C45.5217 31.1467 45.8163 31.9267 45.8163 32.854C45.8163 33.79 45.5217 34.5743 44.9323 35.207C44.343 35.8397 43.5587 36.156 42.5793 36.156ZM42.5793 34.947C43.1427 34.947 43.5847 34.7477 43.9053 34.349C44.2347 33.9417 44.3993 33.4433 44.3993 32.854C44.3993 32.2733 44.2347 31.7837 43.9053 31.385C43.5847 30.9777 43.1427 30.774 42.5793 30.774C42.0247 30.774 41.5827 30.9777 41.2533 31.385C40.9327 31.7837 40.7723 32.2733 40.7723 32.854C40.7723 33.4433 40.9327 33.9417 41.2533 34.349C41.5827 34.7477 42.0247 34.947 42.5793 34.947ZM52.8005 36H51.4355V32.074C51.4355 31.2073 51.0151 30.774 50.1745 30.774C49.8451 30.774 49.5375 30.8563 49.2515 31.021C48.9655 31.1857 48.7358 31.385 48.5625 31.619V36H47.1975V29.721H48.5625V30.579C48.7965 30.3017 49.1085 30.0633 49.4985 29.864C49.8885 29.6647 50.3131 29.565 50.7725 29.565C51.4398 29.565 51.9425 29.7383 52.2805 30.085C52.6271 30.4317 52.8005 30.93 52.8005 31.58V36ZM60.1765 36H58.8115V32.074C58.8115 31.2073 58.3911 30.774 57.5505 30.774C57.2211 30.774 56.9135 30.8563 56.6275 31.021C56.3415 31.1857 56.1118 31.385 55.9385 31.619V36H54.5735V29.721H55.9385V30.579C56.1725 30.3017 56.4845 30.0633 56.8745 29.864C57.2645 29.6647 57.6891 29.565 58.1485 29.565C58.8158 29.565 59.3185 29.7383 59.6565 30.085C60.0031 30.4317 60.1765 30.93 60.1765 31.58V36ZM64.8484 36.156C63.8951 36.156 63.1064 35.8527 62.4824 35.246C61.8671 34.6307 61.5594 33.8333 61.5594 32.854C61.5594 31.9353 61.8584 31.1597 62.4564 30.527C63.0631 29.8857 63.8258 29.565 64.7444 29.565C65.6718 29.565 66.4171 29.8857 66.9804 30.527C67.5524 31.1683 67.8384 31.9873 67.8384 32.984V33.309H62.9894C63.0414 33.803 63.2451 34.2147 63.6004 34.544C63.9558 34.8733 64.4194 35.038 64.9914 35.038C65.3121 35.038 65.6328 34.9773 65.9534 34.856C66.2828 34.7347 66.5558 34.5657 66.7724 34.349L67.3964 35.246C66.7638 35.8527 65.9144 36.156 64.8484 36.156ZM66.5124 32.347C66.4951 31.9137 66.3348 31.528 66.0314 31.19C65.7368 30.852 65.3078 30.683 64.7444 30.683C64.2071 30.683 63.7868 30.852 63.4834 31.19C63.1801 31.5193 63.0111 31.905 62.9764 32.347H66.5124ZM72.0458 36.156C71.0924 36.156 70.3124 35.8483 69.7058 35.233C69.0991 34.609 68.7958 33.816 68.7958 32.854C68.7958 31.9007 69.0991 31.1163 69.7058 30.501C70.3124 29.877 71.0924 29.565 72.0458 29.565C73.0944 29.565 73.8961 29.9377 74.4508 30.683L73.5538 31.515C73.2071 31.021 72.7261 30.774 72.1108 30.774C71.5388 30.774 71.0794 30.969 70.7328 31.359C70.3861 31.7403 70.2128 32.2387 70.2128 32.854C70.2128 33.4693 70.3861 33.972 70.7328 34.362C71.0794 34.752 71.5388 34.947 72.1108 34.947C72.7088 34.947 73.1898 34.7 73.5538 34.206L74.4508 35.038C73.8961 35.7833 73.0944 36.156 72.0458 36.156ZM77.5327 36.156C77.004 36.156 76.601 36.0173 76.3237 35.74C76.055 35.4627 75.9207 35.064 75.9207 34.544V30.917H74.8807V29.721H75.9207V28.005H77.2857V29.721H78.5597V30.917H77.2857V34.206C77.2857 34.4313 77.3377 34.6133 77.4417 34.752C77.5457 34.882 77.693 34.947 77.8837 34.947C78.161 34.947 78.3647 34.8733 78.4947 34.726L78.8197 35.753C78.5337 36.0217 78.1047 36.156 77.5327 36.156ZM88.3379 36H86.9729V35.324C86.4876 35.8787 85.8116 36.156 84.9449 36.156C84.3729 36.156 83.8659 35.974 83.4239 35.61C82.9819 35.2373 82.7609 34.726 82.7609 34.076C82.7609 33.4087 82.9776 32.9017 83.4109 32.555C83.8529 32.2083 84.3642 32.035 84.9449 32.035C85.8376 32.035 86.5136 32.3037 86.9729 32.841V31.905C86.9729 31.541 86.8386 31.255 86.5699 31.047C86.3012 30.839 85.9459 30.735 85.5039 30.735C84.8019 30.735 84.1822 30.9993 83.6449 31.528L83.0859 30.579C83.7966 29.903 84.6762 29.565 85.7249 29.565C86.4962 29.565 87.1246 29.747 87.6099 30.111C88.0952 30.475 88.3379 31.0513 88.3379 31.84V36ZM85.4779 35.22C86.1626 35.22 86.6609 35.0033 86.9729 34.57V33.621C86.6609 33.1877 86.1626 32.971 85.4779 32.971C85.0879 32.971 84.7672 33.075 84.5159 33.283C84.2646 33.491 84.1389 33.764 84.1389 34.102C84.1389 34.44 84.2646 34.713 84.5159 34.921C84.7672 35.1203 85.0879 35.22 85.4779 35.22ZM101 36H99.5305L95.0065 29.812V36H93.4855V27.329H95.0455L99.4785 33.348V27.329H101V36ZM105.702 36.156C104.749 36.156 103.96 35.8527 103.336 35.246C102.721 34.6307 102.413 33.8333 102.413 32.854C102.413 31.9353 102.712 31.1597 103.31 30.527C103.917 29.8857 104.679 29.565 105.598 29.565C106.525 29.565 107.271 29.8857 107.834 30.527C108.406 31.1683 108.692 31.9873 108.692 32.984V33.309H103.843C103.895 33.803 104.099 34.2147 104.454 34.544C104.809 34.8733 105.273 35.038 105.845 35.038C106.166 35.038 106.486 34.9773 106.807 34.856C107.136 34.7347 107.409 34.5657 107.626 34.349L108.25 35.246C107.617 35.8527 106.768 36.156 105.702 36.156ZM107.366 32.347C107.349 31.9137 107.188 31.528 106.885 31.19C106.59 30.852 106.161 30.683 105.598 30.683C105.061 30.683 104.64 30.852 104.337 31.19C104.034 31.5193 103.865 31.905 103.83 32.347H107.366ZM116.942 36H115.512L114.056 31.398L112.6 36H111.17L109.22 29.721H110.637L111.963 34.284L113.458 29.721H114.654L116.149 34.284L117.475 29.721H118.892L116.942 36ZM126.182 36.156C124.691 36.156 123.517 35.6967 122.659 34.778L123.504 33.608C124.249 34.4053 125.164 34.804 126.247 34.804C126.828 34.804 127.261 34.687 127.547 34.453C127.842 34.219 127.989 33.9417 127.989 33.621C127.989 33.2917 127.816 33.0317 127.469 32.841C127.122 32.6417 126.702 32.4857 126.208 32.373C125.714 32.2603 125.216 32.126 124.713 31.97C124.219 31.814 123.799 31.5497 123.452 31.177C123.105 30.8043 122.932 30.3233 122.932 29.734C122.932 29.006 123.222 28.4037 123.803 27.927C124.392 27.4417 125.155 27.199 126.091 27.199C127.426 27.199 128.509 27.602 129.341 28.408L128.47 29.539C127.811 28.8803 126.975 28.551 125.961 28.551C125.51 28.551 125.151 28.6507 124.882 28.85C124.622 29.0407 124.492 29.3007 124.492 29.63C124.492 29.8467 124.583 30.0287 124.765 30.176C124.956 30.3233 125.198 30.4447 125.493 30.54C125.788 30.6267 126.113 30.7133 126.468 30.8C126.832 30.8867 127.192 30.995 127.547 31.125C127.911 31.2463 128.24 31.398 128.535 31.58C128.83 31.762 129.068 32.0133 129.25 32.334C129.441 32.6547 129.536 33.036 129.536 33.478C129.536 34.258 129.254 34.8993 128.691 35.402C128.128 35.9047 127.291 36.156 126.182 36.156ZM133.732 36.156C132.761 36.156 131.981 35.8397 131.392 35.207C130.802 34.5657 130.508 33.7813 130.508 32.854C130.508 31.9267 130.802 31.1467 131.392 30.514C131.981 29.8813 132.761 29.565 133.732 29.565C134.711 29.565 135.495 29.8813 136.085 30.514C136.674 31.1467 136.969 31.9267 136.969 32.854C136.969 33.79 136.674 34.5743 136.085 35.207C135.495 35.8397 134.711 36.156 133.732 36.156ZM133.732 34.947C134.295 34.947 134.737 34.7477 135.058 34.349C135.387 33.9417 135.552 33.4433 135.552 32.854C135.552 32.2733 135.387 31.7837 135.058 31.385C134.737 30.9777 134.295 30.774 133.732 30.774C133.177 30.774 132.735 30.9777 132.406 31.385C132.085 31.7837 131.925 32.2733 131.925 32.854C131.925 33.4433 132.085 33.9417 132.406 34.349C132.735 34.7477 133.177 34.947 133.732 34.947ZM143.953 36H142.588V35.168C141.998 35.8267 141.257 36.156 140.365 36.156C139.021 36.156 138.35 35.493 138.35 34.167V29.721H139.715V33.673C139.715 34.1323 139.823 34.4617 140.04 34.661C140.256 34.8517 140.568 34.947 140.976 34.947C141.305 34.947 141.613 34.869 141.899 34.713C142.185 34.557 142.414 34.362 142.588 34.128V29.721H143.953V36ZM147.091 36H145.726V29.721H147.091V30.644C147.333 30.332 147.637 30.0763 148.001 29.877C148.365 29.6777 148.742 29.578 149.132 29.578V30.93C149.01 30.904 148.867 30.891 148.703 30.891C148.417 30.891 148.109 30.9777 147.78 31.151C147.459 31.3157 147.229 31.5063 147.091 31.723V36ZM153.093 36.156C152.139 36.156 151.359 35.8483 150.753 35.233C150.146 34.609 149.843 33.816 149.843 32.854C149.843 31.9007 150.146 31.1163 150.753 30.501C151.359 29.877 152.139 29.565 153.093 29.565C154.141 29.565 154.943 29.9377 155.498 30.683L154.601 31.515C154.254 31.021 153.773 30.774 153.158 30.774C152.586 30.774 152.126 30.969 151.78 31.359C151.433 31.7403 151.26 32.2387 151.26 32.854C151.26 33.4693 151.433 33.972 151.78 34.362C152.126 34.752 152.586 34.947 153.158 34.947C153.756 34.947 154.237 34.7 154.601 34.206L155.498 35.038C154.943 35.7833 154.141 36.156 153.093 36.156ZM159.594 36.156C158.64 36.156 157.852 35.8527 157.228 35.246C156.612 34.6307 156.305 33.8333 156.305 32.854C156.305 31.9353 156.604 31.1597 157.202 30.527C157.808 29.8857 158.571 29.565 159.49 29.565C160.417 29.565 161.162 29.8857 161.726 30.527C162.298 31.1683 162.584 31.9873 162.584 32.984V33.309H157.735C157.787 33.803 157.99 34.2147 158.346 34.544C158.701 34.8733 159.165 35.038 159.737 35.038C160.057 35.038 160.378 34.9773 160.699 34.856C161.028 34.7347 161.301 34.5657 161.518 34.349L162.142 35.246C161.509 35.8527 160.66 36.156 159.594 36.156ZM161.258 32.347C161.24 31.9137 161.08 31.528 160.777 31.19C160.482 30.852 160.053 30.683 159.49 30.683C158.952 30.683 158.532 30.852 158.229 31.19C157.925 31.5193 157.756 31.905 157.722 32.347H161.258Z" fill="#252531"/>
</g>
<g filter="url(#filter2_d_1752_5607)">
<path d="M34.692 58.144C33.492 58.144 32.492 57.76 31.692 56.992C30.892 56.216 30.492 55.22 30.492 54.004C30.492 52.788 30.892 51.796 31.692 51.028C32.492 50.252 33.492 49.864 34.692 49.864C36.084 49.864 37.156 50.464 37.908 51.664L36.708 52.276C36.508 51.932 36.224 51.652 35.856 51.436C35.496 51.22 35.108 51.112 34.692 51.112C33.9 51.112 33.24 51.384 32.712 51.928C32.192 52.472 31.932 53.164 31.932 54.004C31.932 54.844 32.192 55.536 32.712 56.08C33.24 56.624 33.9 56.896 34.692 56.896C35.116 56.896 35.508 56.788 35.868 56.572C36.228 56.356 36.508 56.076 36.708 55.732L37.908 56.344C37.14 57.544 36.068 58.144 34.692 58.144ZM40.2557 58H38.9957V52.204H40.2557V53.056C40.4797 52.768 40.7597 52.532 41.0957 52.348C41.4317 52.164 41.7797 52.072 42.1397 52.072V53.32C42.0277 53.296 41.8957 53.284 41.7437 53.284C41.4797 53.284 41.1957 53.364 40.8917 53.524C40.5957 53.676 40.3837 53.852 40.2557 54.052V58ZM45.8318 58.144C44.9518 58.144 44.2238 57.864 43.6478 57.304C43.0798 56.736 42.7958 56 42.7958 55.096C42.7958 54.248 43.0718 53.532 43.6238 52.948C44.1838 52.356 44.8878 52.06 45.7358 52.06C46.5918 52.06 47.2798 52.356 47.7998 52.948C48.3278 53.54 48.5918 54.296 48.5918 55.216V55.516H44.1158C44.1638 55.972 44.3518 56.352 44.6798 56.656C45.0078 56.96 45.4358 57.112 45.9638 57.112C46.2598 57.112 46.5558 57.056 46.8518 56.944C47.1558 56.832 47.4078 56.676 47.6078 56.476L48.1838 57.304C47.5998 57.864 46.8158 58.144 45.8318 58.144ZM47.3678 54.628C47.3518 54.228 47.2038 53.872 46.9238 53.56C46.6518 53.248 46.2558 53.092 45.7358 53.092C45.2398 53.092 44.8518 53.248 44.5718 53.56C44.2918 53.864 44.1358 54.22 44.1038 54.628H47.3678ZM54.6355 58H53.3755V57.376C52.9275 57.888 52.3035 58.144 51.5035 58.144C50.9755 58.144 50.5075 57.976 50.0995 57.64C49.6915 57.296 49.4875 56.824 49.4875 56.224C49.4875 55.608 49.6875 55.14 50.0875 54.82C50.4955 54.5 50.9675 54.34 51.5035 54.34C52.3275 54.34 52.9515 54.588 53.3755 55.084V54.22C53.3755 53.884 53.2515 53.62 53.0035 53.428C52.7555 53.236 52.4275 53.14 52.0195 53.14C51.3715 53.14 50.7995 53.384 50.3035 53.872L49.7875 52.996C50.4435 52.372 51.2555 52.06 52.2235 52.06C52.9355 52.06 53.5155 52.228 53.9635 52.564C54.4115 52.9 54.6355 53.432 54.6355 54.16V58ZM51.9955 57.28C52.6275 57.28 53.0875 57.08 53.3755 56.68V55.804C53.0875 55.404 52.6275 55.204 51.9955 55.204C51.6355 55.204 51.3395 55.3 51.1075 55.492C50.8755 55.684 50.7595 55.936 50.7595 56.248C50.7595 56.56 50.8755 56.812 51.1075 57.004C51.3395 57.188 51.6355 57.28 51.9955 57.28ZM58.0091 58.144C57.5211 58.144 57.1491 58.016 56.8931 57.76C56.6451 57.504 56.5211 57.136 56.5211 56.656V53.308H55.5611V52.204H56.5211V50.62H57.7811V52.204H58.9571V53.308H57.7811V56.344C57.7811 56.552 57.8291 56.72 57.9251 56.848C58.0211 56.968 58.1571 57.028 58.3331 57.028C58.5891 57.028 58.7771 56.96 58.8971 56.824L59.1971 57.772C58.9331 58.02 58.5371 58.144 58.0091 58.144ZM62.7772 58.144C61.8972 58.144 61.1692 57.864 60.5932 57.304C60.0252 56.736 59.7412 56 59.7412 55.096C59.7412 54.248 60.0172 53.532 60.5692 52.948C61.1292 52.356 61.8332 52.06 62.6812 52.06C63.5372 52.06 64.2252 52.356 64.7452 52.948C65.2732 53.54 65.5372 54.296 65.5372 55.216V55.516H61.0612C61.1092 55.972 61.2972 56.352 61.6252 56.656C61.9532 56.96 62.3812 57.112 62.9092 57.112C63.2052 57.112 63.5012 57.056 63.7972 56.944C64.1012 56.832 64.3532 56.676 64.5532 56.476L65.1292 57.304C64.5452 57.864 63.7612 58.144 62.7772 58.144ZM64.3132 54.628C64.2972 54.228 64.1492 53.872 63.8692 53.56C63.5972 53.248 63.2012 53.092 62.6812 53.092C62.1852 53.092 61.7972 53.248 61.5172 53.56C61.2372 53.864 61.0812 54.22 61.0492 54.628H64.3132ZM74.6629 58H73.4029V57.376C72.9549 57.888 72.3309 58.144 71.5309 58.144C71.0029 58.144 70.5349 57.976 70.1269 57.64C69.7189 57.296 69.5149 56.824 69.5149 56.224C69.5149 55.608 69.7149 55.14 70.1149 54.82C70.5229 54.5 70.9949 54.34 71.5309 54.34C72.3549 54.34 72.9789 54.588 73.4029 55.084V54.22C73.4029 53.884 73.2789 53.62 73.0309 53.428C72.7829 53.236 72.4549 53.14 72.0469 53.14C71.3989 53.14 70.8269 53.384 70.3309 53.872L69.8149 52.996C70.4709 52.372 71.2829 52.06 72.2509 52.06C72.9629 52.06 73.5429 52.228 73.9909 52.564C74.4389 52.9 74.6629 53.432 74.6629 54.16V58ZM72.0229 57.28C72.6549 57.28 73.1149 57.08 73.4029 56.68V55.804C73.1149 55.404 72.6549 55.204 72.0229 55.204C71.6629 55.204 71.3669 55.3 71.1349 55.492C70.9029 55.684 70.7869 55.936 70.7869 56.248C70.7869 56.56 70.9029 56.812 71.1349 57.004C71.3669 57.188 71.6629 57.28 72.0229 57.28ZM82.0185 58.144C81.1385 58.144 80.4185 57.86 79.8585 57.292C79.2985 56.716 79.0185 55.984 79.0185 55.096C79.0185 54.216 79.2985 53.492 79.8585 52.924C80.4185 52.348 81.1385 52.06 82.0185 52.06C82.9865 52.06 83.7265 52.404 84.2385 53.092L83.4105 53.86C83.0905 53.404 82.6465 53.176 82.0785 53.176C81.5505 53.176 81.1265 53.356 80.8065 53.716C80.4865 54.068 80.3265 54.528 80.3265 55.096C80.3265 55.664 80.4865 56.128 80.8065 56.488C81.1265 56.848 81.5505 57.028 82.0785 57.028C82.6305 57.028 83.0745 56.8 83.4105 56.344L84.2385 57.112C83.7265 57.8 82.9865 58.144 82.0185 58.144ZM87.9593 58.144C87.0633 58.144 86.3433 57.852 85.7993 57.268C85.2553 56.676 84.9833 55.952 84.9833 55.096C84.9833 54.24 85.2553 53.52 85.7993 52.936C86.3433 52.352 87.0633 52.06 87.9593 52.06C88.8633 52.06 89.5873 52.352 90.1313 52.936C90.6753 53.52 90.9473 54.24 90.9473 55.096C90.9473 55.96 90.6753 56.684 90.1313 57.268C89.5873 57.852 88.8633 58.144 87.9593 58.144ZM87.9593 57.028C88.4793 57.028 88.8873 56.844 89.1833 56.476C89.4873 56.1 89.6393 55.64 89.6393 55.096C89.6393 54.56 89.4873 54.108 89.1833 53.74C88.8873 53.364 88.4793 53.176 87.9593 53.176C87.4473 53.176 87.0393 53.364 86.7353 53.74C86.4393 54.108 86.2913 54.56 86.2913 55.096C86.2913 55.64 86.4393 56.1 86.7353 56.476C87.0393 56.844 87.4473 57.028 87.9593 57.028ZM97.3943 58H96.1343V54.376C96.1343 53.576 95.7463 53.176 94.9703 53.176C94.6663 53.176 94.3823 53.252 94.1183 53.404C93.8543 53.556 93.6423 53.74 93.4823 53.956V58H92.2223V52.204H93.4823V52.996C93.6983 52.74 93.9863 52.52 94.3463 52.336C94.7063 52.152 95.0983 52.06 95.5223 52.06C96.1383 52.06 96.6023 52.22 96.9143 52.54C97.2343 52.86 97.3943 53.32 97.3943 53.92V58ZM104.203 58H102.943V54.376C102.943 53.576 102.555 53.176 101.779 53.176C101.475 53.176 101.191 53.252 100.927 53.404C100.663 53.556 100.451 53.74 100.291 53.956V58H99.0308V52.204H100.291V52.996C100.507 52.74 100.795 52.52 101.155 52.336C101.515 52.152 101.907 52.06 102.331 52.06C102.947 52.06 103.411 52.22 103.723 52.54C104.043 52.86 104.203 53.32 104.203 53.92V58ZM108.515 58.144C107.635 58.144 106.907 57.864 106.331 57.304C105.763 56.736 105.479 56 105.479 55.096C105.479 54.248 105.755 53.532 106.307 52.948C106.867 52.356 107.571 52.06 108.419 52.06C109.275 52.06 109.963 52.356 110.483 52.948C111.011 53.54 111.275 54.296 111.275 55.216V55.516H106.799C106.847 55.972 107.035 56.352 107.363 56.656C107.691 56.96 108.119 57.112 108.647 57.112C108.943 57.112 109.239 57.056 109.535 56.944C109.839 56.832 110.091 56.676 110.291 56.476L110.867 57.304C110.283 57.864 109.499 58.144 108.515 58.144ZM110.051 54.628C110.035 54.228 109.887 53.872 109.607 53.56C109.335 53.248 108.939 53.092 108.419 53.092C107.923 53.092 107.535 53.248 107.255 53.56C106.975 53.864 106.819 54.22 106.787 54.628H110.051ZM115.159 58.144C114.279 58.144 113.559 57.86 112.999 57.292C112.439 56.716 112.159 55.984 112.159 55.096C112.159 54.216 112.439 53.492 112.999 52.924C113.559 52.348 114.279 52.06 115.159 52.06C116.127 52.06 116.867 52.404 117.379 53.092L116.551 53.86C116.231 53.404 115.787 53.176 115.219 53.176C114.691 53.176 114.267 53.356 113.947 53.716C113.627 54.068 113.467 54.528 113.467 55.096C113.467 55.664 113.627 56.128 113.947 56.488C114.267 56.848 114.691 57.028 115.219 57.028C115.771 57.028 116.215 56.8 116.551 56.344L117.379 57.112C116.867 57.8 116.127 58.144 115.159 58.144ZM120.224 58.144C119.736 58.144 119.364 58.016 119.108 57.76C118.86 57.504 118.736 57.136 118.736 56.656V53.308H117.776V52.204H118.736V50.62H119.996V52.204H121.172V53.308H119.996V56.344C119.996 56.552 120.044 56.72 120.14 56.848C120.236 56.968 120.372 57.028 120.548 57.028C120.804 57.028 120.992 56.96 121.112 56.824L121.412 57.772C121.148 58.02 120.752 58.144 120.224 58.144ZM122.94 51.496C122.732 51.496 122.548 51.42 122.388 51.268C122.236 51.116 122.16 50.932 122.16 50.716C122.16 50.5 122.236 50.316 122.388 50.164C122.548 50.012 122.732 49.936 122.94 49.936C123.156 49.936 123.34 50.012 123.492 50.164C123.644 50.316 123.72 50.5 123.72 50.716C123.72 50.932 123.644 51.116 123.492 51.268C123.34 51.42 123.156 51.496 122.94 51.496ZM123.576 58H122.316V52.204H123.576V58ZM127.827 58.144C126.931 58.144 126.211 57.852 125.667 57.268C125.123 56.676 124.851 55.952 124.851 55.096C124.851 54.24 125.123 53.52 125.667 52.936C126.211 52.352 126.931 52.06 127.827 52.06C128.731 52.06 129.455 52.352 129.999 52.936C130.543 53.52 130.815 54.24 130.815 55.096C130.815 55.96 130.543 56.684 129.999 57.268C129.455 57.852 128.731 58.144 127.827 58.144ZM127.827 57.028C128.347 57.028 128.755 56.844 129.051 56.476C129.355 56.1 129.507 55.64 129.507 55.096C129.507 54.56 129.355 54.108 129.051 53.74C128.755 53.364 128.347 53.176 127.827 53.176C127.315 53.176 126.907 53.364 126.603 53.74C126.307 54.108 126.159 54.56 126.159 55.096C126.159 55.64 126.307 56.1 126.603 56.476C126.907 56.844 127.315 57.028 127.827 57.028ZM137.261 58H136.001V54.376C136.001 53.576 135.613 53.176 134.837 53.176C134.533 53.176 134.249 53.252 133.985 53.404C133.721 53.556 133.509 53.74 133.349 53.956V58H132.089V52.204H133.349V52.996C133.565 52.74 133.853 52.52 134.213 52.336C134.573 52.152 134.965 52.06 135.389 52.06C136.005 52.06 136.469 52.22 136.781 52.54C137.101 52.86 137.261 53.32 137.261 53.92V58ZM148.352 58H147.032L145.688 53.752L144.344 58H143.024L141.224 52.204H142.532L143.756 56.416L145.136 52.204H146.24L147.62 56.416L148.844 52.204H150.152L148.352 58ZM151.651 51.496C151.443 51.496 151.259 51.42 151.099 51.268C150.947 51.116 150.871 50.932 150.871 50.716C150.871 50.5 150.947 50.316 151.099 50.164C151.259 50.012 151.443 49.936 151.651 49.936C151.867 49.936 152.051 50.012 152.203 50.164C152.355 50.316 152.431 50.5 152.431 50.716C152.431 50.932 152.355 51.116 152.203 51.268C152.051 51.42 151.867 51.496 151.651 51.496ZM152.287 58H151.027V52.204H152.287V58ZM155.661 58.144C155.173 58.144 154.801 58.016 154.545 57.76C154.297 57.504 154.173 57.136 154.173 56.656V53.308H153.213V52.204H154.173V50.62H155.433V52.204H156.609V53.308H155.433V56.344C155.433 56.552 155.481 56.72 155.577 56.848C155.673 56.968 155.809 57.028 155.985 57.028C156.241 57.028 156.429 56.96 156.549 56.824L156.849 57.772C156.585 58.02 156.189 58.144 155.661 58.144ZM162.938 58H161.678V54.352C161.678 53.928 161.574 53.628 161.366 53.452C161.166 53.268 160.878 53.176 160.502 53.176C160.206 53.176 159.926 53.252 159.662 53.404C159.398 53.556 159.182 53.74 159.014 53.956V58H157.754V49.996H159.014V52.996C159.23 52.74 159.518 52.52 159.878 52.336C160.246 52.152 160.642 52.06 161.066 52.06C162.314 52.06 162.938 52.672 162.938 53.896V58ZM167.404 60.268L167.596 59.14C167.74 59.204 167.9 59.236 168.076 59.236C168.484 59.236 168.76 59.068 168.904 58.732L169.192 58.072L166.816 52.204H168.16L169.852 56.548L171.544 52.204H172.9L170.104 59.044C169.76 59.9 169.096 60.336 168.112 60.352C167.848 60.352 167.612 60.324 167.404 60.268ZM176.307 58.144C175.411 58.144 174.691 57.852 174.147 57.268C173.603 56.676 173.331 55.952 173.331 55.096C173.331 54.24 173.603 53.52 174.147 52.936C174.691 52.352 175.411 52.06 176.307 52.06C177.211 52.06 177.935 52.352 178.479 52.936C179.023 53.52 179.295 54.24 179.295 55.096C179.295 55.96 179.023 56.684 178.479 57.268C177.935 57.852 177.211 58.144 176.307 58.144ZM176.307 57.028C176.827 57.028 177.235 56.844 177.531 56.476C177.835 56.1 177.987 55.64 177.987 55.096C177.987 54.56 177.835 54.108 177.531 53.74C177.235 53.364 176.827 53.176 176.307 53.176C175.795 53.176 175.387 53.364 175.083 53.74C174.787 54.108 174.639 54.56 174.639 55.096C174.639 55.64 174.787 56.1 175.083 56.476C175.387 56.844 175.795 57.028 176.307 57.028ZM185.742 58H184.482V57.232C183.938 57.84 183.254 58.144 182.43 58.144C181.19 58.144 180.57 57.532 180.57 56.308V52.204H181.83V55.852C181.83 56.276 181.93 56.58 182.13 56.764C182.33 56.94 182.618 57.028 182.994 57.028C183.298 57.028 183.582 56.956 183.846 56.812C184.11 56.668 184.322 56.488 184.482 56.272V52.204H185.742V58ZM188.639 58H187.379V52.204H188.639V53.056C188.863 52.768 189.143 52.532 189.479 52.348C189.815 52.164 190.163 52.072 190.523 52.072V53.32C190.411 53.296 190.279 53.284 190.127 53.284C189.863 53.284 189.579 53.364 189.275 53.524C188.979 53.676 188.767 53.852 188.639 54.052V58ZM197.297 58.144C196.417 58.144 195.689 57.864 195.113 57.304C194.545 56.736 194.261 56 194.261 55.096C194.261 54.248 194.537 53.532 195.089 52.948C195.649 52.356 196.353 52.06 197.201 52.06C198.057 52.06 198.745 52.356 199.265 52.948C199.793 53.54 200.057 54.296 200.057 55.216V55.516H195.581C195.629 55.972 195.817 56.352 196.145 56.656C196.473 56.96 196.901 57.112 197.429 57.112C197.725 57.112 198.021 57.056 198.317 56.944C198.621 56.832 198.873 56.676 199.073 56.476L199.649 57.304C199.065 57.864 198.281 58.144 197.297 58.144ZM198.833 54.628C198.817 54.228 198.669 53.872 198.389 53.56C198.117 53.248 197.721 53.092 197.201 53.092C196.705 53.092 196.317 53.248 196.037 53.56C195.757 53.864 195.601 54.22 195.569 54.628H198.833ZM206.376 58H204.96L203.46 55.864L201.948 58H200.544L202.668 55.024L200.664 52.204H202.08L203.46 54.172L204.828 52.204H206.244L204.24 55.024L206.376 58ZM208.994 58.144C208.506 58.144 208.134 58.016 207.878 57.76C207.63 57.504 207.506 57.136 207.506 56.656V53.308H206.546V52.204H207.506V50.62H208.766V52.204H209.942V53.308H208.766V56.344C208.766 56.552 208.814 56.72 208.91 56.848C209.006 56.968 209.142 57.028 209.318 57.028C209.574 57.028 209.762 56.96 209.882 56.824L210.182 57.772C209.918 58.02 209.522 58.144 208.994 58.144ZM213.762 58.144C212.882 58.144 212.154 57.864 211.578 57.304C211.01 56.736 210.726 56 210.726 55.096C210.726 54.248 211.002 53.532 211.554 52.948C212.114 52.356 212.818 52.06 213.666 52.06C214.522 52.06 215.21 52.356 215.73 52.948C216.258 53.54 216.522 54.296 216.522 55.216V55.516H212.046C212.094 55.972 212.282 56.352 212.61 56.656C212.938 56.96 213.366 57.112 213.894 57.112C214.19 57.112 214.486 57.056 214.782 56.944C215.086 56.832 215.338 56.676 215.538 56.476L216.114 57.304C215.53 57.864 214.746 58.144 213.762 58.144ZM215.298 54.628C215.282 54.228 215.134 53.872 214.854 53.56C214.582 53.248 214.186 53.092 213.666 53.092C213.17 53.092 212.782 53.248 212.502 53.56C212.222 53.864 212.066 54.22 212.034 54.628H215.298ZM219.025 58H217.765V52.204H219.025V53.056C219.249 52.768 219.529 52.532 219.865 52.348C220.201 52.164 220.549 52.072 220.909 52.072V53.32C220.797 53.296 220.665 53.284 220.513 53.284C220.249 53.284 219.965 53.364 219.661 53.524C219.365 53.676 219.153 53.852 219.025 54.052V58ZM227.097 58H225.837V54.376C225.837 53.576 225.449 53.176 224.673 53.176C224.369 53.176 224.085 53.252 223.821 53.404C223.557 53.556 223.345 53.74 223.185 53.956V58H221.925V52.204H223.185V52.996C223.401 52.74 223.689 52.52 224.049 52.336C224.409 52.152 224.801 52.06 225.225 52.06C225.841 52.06 226.305 52.22 226.617 52.54C226.937 52.86 227.097 53.32 227.097 53.92V58ZM233.534 58H232.274V57.376C231.826 57.888 231.202 58.144 230.402 58.144C229.874 58.144 229.406 57.976 228.998 57.64C228.59 57.296 228.386 56.824 228.386 56.224C228.386 55.608 228.586 55.14 228.986 54.82C229.394 54.5 229.866 54.34 230.402 54.34C231.226 54.34 231.85 54.588 232.274 55.084V54.22C232.274 53.884 232.15 53.62 231.902 53.428C231.654 53.236 231.326 53.14 230.918 53.14C230.27 53.14 229.698 53.384 229.202 53.872L228.686 52.996C229.342 52.372 230.154 52.06 231.122 52.06C231.834 52.06 232.414 52.228 232.862 52.564C233.31 52.9 233.534 53.432 233.534 54.16V58ZM230.894 57.28C231.526 57.28 231.986 57.08 232.274 56.68V55.804C231.986 55.404 231.526 55.204 230.894 55.204C230.534 55.204 230.238 55.3 230.006 55.492C229.774 55.684 229.658 55.936 229.658 56.248C229.658 56.56 229.774 56.812 230.006 57.004C230.238 57.188 230.534 57.28 230.894 57.28ZM236.428 58H235.168V49.996H236.428V58ZM39.18 73H37.92V69.22C37.92 68.524 37.604 68.176 36.972 68.176C36.708 68.176 36.452 68.252 36.204 68.404C35.956 68.556 35.764 68.736 35.628 68.944V73H34.368V69.22C34.368 68.524 34.048 68.176 33.408 68.176C33.152 68.176 32.9 68.252 32.652 68.404C32.412 68.556 32.22 68.74 32.076 68.956V73H30.816V67.204H32.076V67.996C32.22 67.78 32.468 67.572 32.82 67.372C33.18 67.164 33.56 67.06 33.96 67.06C34.8 67.06 35.328 67.416 35.544 68.128C35.728 67.84 36 67.592 36.36 67.384C36.72 67.168 37.104 67.06 37.512 67.06C38.624 67.06 39.18 67.644 39.18 68.812V73ZM45.6121 73H44.3521V72.376C43.9041 72.888 43.2801 73.144 42.4801 73.144C41.9521 73.144 41.4841 72.976 41.0761 72.64C40.6681 72.296 40.4641 71.824 40.4641 71.224C40.4641 70.608 40.6641 70.14 41.0641 69.82C41.4721 69.5 41.9441 69.34 42.4801 69.34C43.3041 69.34 43.9281 69.588 44.3521 70.084V69.22C44.3521 68.884 44.2281 68.62 43.9801 68.428C43.7321 68.236 43.4041 68.14 42.9961 68.14C42.3481 68.14 41.7761 68.384 41.2801 68.872L40.7641 67.996C41.4201 67.372 42.2321 67.06 43.2001 67.06C43.9121 67.06 44.4921 67.228 44.9401 67.564C45.3881 67.9 45.6121 68.432 45.6121 69.16V73ZM42.9721 72.28C43.6041 72.28 44.0641 72.08 44.3521 71.68V70.804C44.0641 70.404 43.6041 70.204 42.9721 70.204C42.6121 70.204 42.3161 70.3 42.0841 70.492C41.8521 70.684 41.7361 70.936 41.7361 71.248C41.7361 71.56 41.8521 71.812 42.0841 72.004C42.3161 72.188 42.6121 72.28 42.9721 72.28ZM48.5057 73H47.2457V67.204H48.5057V68.056C48.7297 67.768 49.0097 67.532 49.3457 67.348C49.6817 67.164 50.0297 67.072 50.3897 67.072V68.32C50.2777 68.296 50.1457 68.284 49.9937 68.284C49.7297 68.284 49.4457 68.364 49.1417 68.524C48.8457 68.676 48.6337 68.852 48.5057 69.052V73ZM56.8298 73H55.2458L53.4698 70.612L52.6658 71.44V73H51.4058V64.996H52.6658V70L55.2218 67.204H56.7818L54.3698 69.832L56.8298 73ZM60.3397 73.144C59.4597 73.144 58.7317 72.864 58.1557 72.304C57.5877 71.736 57.3037 71 57.3037 70.096C57.3037 69.248 57.5797 68.532 58.1317 67.948C58.6917 67.356 59.3957 67.06 60.2437 67.06C61.0997 67.06 61.7877 67.356 62.3077 67.948C62.8357 68.54 63.0997 69.296 63.0997 70.216V70.516H58.6237C58.6717 70.972 58.8597 71.352 59.1877 71.656C59.5157 71.96 59.9437 72.112 60.4717 72.112C60.7677 72.112 61.0637 72.056 61.3597 71.944C61.6637 71.832 61.9157 71.676 62.1157 71.476L62.6917 72.304C62.1077 72.864 61.3237 73.144 60.3397 73.144ZM61.8757 69.628C61.8597 69.228 61.7117 68.872 61.4317 68.56C61.1597 68.248 60.7637 68.092 60.2437 68.092C59.7477 68.092 59.3597 68.248 59.0797 68.56C58.7997 68.864 58.6437 69.22 58.6117 69.628H61.8757ZM66.0833 73.144C65.5953 73.144 65.2233 73.016 64.9673 72.76C64.7193 72.504 64.5953 72.136 64.5953 71.656V68.308H63.6353V67.204H64.5953V65.62H65.8553V67.204H67.0313V68.308H65.8553V71.344C65.8553 71.552 65.9033 71.72 65.9993 71.848C66.0953 71.968 66.2313 72.028 66.4073 72.028C66.6633 72.028 66.8513 71.96 66.9713 71.824L67.2713 72.772C67.0073 73.02 66.6113 73.144 66.0833 73.144ZM68.7994 66.496C68.5914 66.496 68.4074 66.42 68.2474 66.268C68.0954 66.116 68.0194 65.932 68.0194 65.716C68.0194 65.5 68.0954 65.316 68.2474 65.164C68.4074 65.012 68.5914 64.936 68.7994 64.936C69.0154 64.936 69.1994 65.012 69.3514 65.164C69.5034 65.316 69.5794 65.5 69.5794 65.716C69.5794 65.932 69.5034 66.116 69.3514 66.268C69.1994 66.42 69.0154 66.496 68.7994 66.496ZM69.4354 73H68.1754V67.204H69.4354V73ZM76.2419 73H74.9819V69.376C74.9819 68.576 74.5939 68.176 73.8179 68.176C73.5139 68.176 73.2299 68.252 72.9659 68.404C72.7019 68.556 72.4899 68.74 72.3299 68.956V73H71.0699V67.204H72.3299V67.996C72.5459 67.74 72.8339 67.52 73.1939 67.336C73.5539 67.152 73.9459 67.06 74.3699 67.06C74.9859 67.06 75.4499 67.22 75.7619 67.54C76.0819 67.86 76.2419 68.32 76.2419 68.92V73ZM80.2305 75.352C79.2465 75.352 78.4385 75.064 77.8065 74.488L78.3945 73.576C78.8265 74.072 79.4385 74.32 80.2305 74.32C80.7105 74.32 81.1145 74.192 81.4425 73.936C81.7785 73.688 81.9465 73.292 81.9465 72.748V72.052C81.4505 72.692 80.8305 73.012 80.0865 73.012C79.3265 73.012 78.7065 72.748 78.2265 72.22C77.7545 71.692 77.5185 70.964 77.5185 70.036C77.5185 69.116 77.7545 68.392 78.2265 67.864C78.7065 67.328 79.3265 67.06 80.0865 67.06C80.8465 67.06 81.4665 67.376 81.9465 68.008V67.204H83.2065V72.7C83.2065 73.196 83.1185 73.624 82.9425 73.984C82.7745 74.352 82.5425 74.628 82.2465 74.812C81.9505 75.004 81.6345 75.14 81.2985 75.22C80.9705 75.308 80.6145 75.352 80.2305 75.352ZM80.4585 71.896C80.7465 71.896 81.0305 71.82 81.3105 71.668C81.5905 71.516 81.8025 71.332 81.9465 71.116V68.956C81.8025 68.74 81.5905 68.556 81.3105 68.404C81.0305 68.252 80.7465 68.176 80.4585 68.176C79.9625 68.176 79.5665 68.348 79.2705 68.692C78.9745 69.028 78.8265 69.476 78.8265 70.036C78.8265 70.596 78.9745 71.048 79.2705 71.392C79.5665 71.728 79.9625 71.896 80.4585 71.896ZM90.5615 73.144C89.6815 73.144 88.9615 72.86 88.4015 72.292C87.8415 71.716 87.5615 70.984 87.5615 70.096C87.5615 69.216 87.8415 68.492 88.4015 67.924C88.9615 67.348 89.6815 67.06 90.5615 67.06C91.5295 67.06 92.2695 67.404 92.7815 68.092L91.9535 68.86C91.6335 68.404 91.1895 68.176 90.6215 68.176C90.0935 68.176 89.6695 68.356 89.3495 68.716C89.0295 69.068 88.8695 69.528 88.8695 70.096C88.8695 70.664 89.0295 71.128 89.3495 71.488C89.6695 71.848 90.0935 72.028 90.6215 72.028C91.1735 72.028 91.6175 71.8 91.9535 71.344L92.7815 72.112C92.2695 72.8 91.5295 73.144 90.5615 73.144ZM99.0703 73H97.8103V69.352C97.8103 68.928 97.7063 68.628 97.4983 68.452C97.2983 68.268 97.0103 68.176 96.6343 68.176C96.3383 68.176 96.0583 68.252 95.7943 68.404C95.5303 68.556 95.3143 68.74 95.1463 68.956V73H93.8863V64.996H95.1463V67.996C95.3623 67.74 95.6503 67.52 96.0103 67.336C96.3783 67.152 96.7743 67.06 97.1983 67.06C98.4463 67.06 99.0703 67.672 99.0703 68.896V73ZM105.507 73H104.247V72.376C103.799 72.888 103.175 73.144 102.375 73.144C101.847 73.144 101.379 72.976 100.971 72.64C100.563 72.296 100.359 71.824 100.359 71.224C100.359 70.608 100.559 70.14 100.959 69.82C101.367 69.5 101.839 69.34 102.375 69.34C103.199 69.34 103.823 69.588 104.247 70.084V69.22C104.247 68.884 104.123 68.62 103.875 68.428C103.627 68.236 103.299 68.14 102.891 68.14C102.243 68.14 101.671 68.384 101.175 68.872L100.659 67.996C101.315 67.372 102.127 67.06 103.095 67.06C103.807 67.06 104.387 67.228 104.835 67.564C105.283 67.9 105.507 68.432 105.507 69.16V73ZM102.867 72.28C103.499 72.28 103.959 72.08 104.247 71.68V70.804C103.959 70.404 103.499 70.204 102.867 70.204C102.507 70.204 102.211 70.3 101.979 70.492C101.747 70.684 101.631 70.936 101.631 71.248C101.631 71.56 101.747 71.812 101.979 72.004C102.211 72.188 102.507 72.28 102.867 72.28ZM112.312 73H111.052V69.376C111.052 68.576 110.664 68.176 109.888 68.176C109.584 68.176 109.3 68.252 109.036 68.404C108.772 68.556 108.56 68.74 108.4 68.956V73H107.14V67.204H108.4V67.996C108.616 67.74 108.904 67.52 109.264 67.336C109.624 67.152 110.016 67.06 110.44 67.06C111.056 67.06 111.52 67.22 111.832 67.54C112.152 67.86 112.312 68.32 112.312 68.92V73ZM119.121 73H117.861V69.376C117.861 68.576 117.473 68.176 116.697 68.176C116.393 68.176 116.109 68.252 115.845 68.404C115.581 68.556 115.369 68.74 115.209 68.956V73H113.949V67.204H115.209V67.996C115.425 67.74 115.713 67.52 116.073 67.336C116.433 67.152 116.825 67.06 117.249 67.06C117.865 67.06 118.329 67.22 118.641 67.54C118.961 67.86 119.121 68.32 119.121 68.92V73ZM123.433 73.144C122.553 73.144 121.825 72.864 121.249 72.304C120.681 71.736 120.397 71 120.397 70.096C120.397 69.248 120.673 68.532 121.225 67.948C121.785 67.356 122.489 67.06 123.337 67.06C124.193 67.06 124.881 67.356 125.401 67.948C125.929 68.54 126.193 69.296 126.193 70.216V70.516H121.717C121.765 70.972 121.953 71.352 122.281 71.656C122.609 71.96 123.037 72.112 123.565 72.112C123.861 72.112 124.157 72.056 124.453 71.944C124.757 71.832 125.009 71.676 125.209 71.476L125.785 72.304C125.201 72.864 124.417 73.144 123.433 73.144ZM124.969 69.628C124.953 69.228 124.805 68.872 124.525 68.56C124.253 68.248 123.857 68.092 123.337 68.092C122.841 68.092 122.453 68.248 122.173 68.56C121.893 68.864 121.737 69.22 121.705 69.628H124.969ZM128.697 73H127.437V64.996H128.697V73ZM132.312 73.144C131.272 73.144 130.444 72.844 129.828 72.244L130.404 71.332C130.62 71.556 130.912 71.748 131.28 71.908C131.648 72.068 132.012 72.148 132.372 72.148C132.74 72.148 133.02 72.076 133.212 71.932C133.412 71.788 133.512 71.6 133.512 71.368C133.512 71.16 133.392 71 133.152 70.888C132.912 70.768 132.62 70.676 132.276 70.612C131.932 70.54 131.588 70.456 131.244 70.36C130.9 70.256 130.608 70.076 130.368 69.82C130.128 69.564 130.008 69.232 130.008 68.824C130.008 68.328 130.212 67.912 130.62 67.576C131.028 67.232 131.584 67.06 132.288 67.06C133.176 67.06 133.928 67.332 134.544 67.876L134.016 68.764C133.832 68.556 133.588 68.388 133.284 68.26C132.98 68.132 132.652 68.068 132.3 68.068C131.972 68.068 131.708 68.136 131.508 68.272C131.316 68.4 131.22 68.568 131.22 68.776C131.22 68.936 131.304 69.068 131.472 69.172C131.648 69.268 131.864 69.34 132.12 69.388C132.384 69.436 132.668 69.504 132.972 69.592C133.276 69.672 133.556 69.768 133.812 69.88C134.076 69.992 134.292 70.176 134.46 70.432C134.636 70.68 134.724 70.984 134.724 71.344C134.724 71.872 134.512 72.304 134.088 72.64C133.664 72.976 133.072 73.144 132.312 73.144ZM143.874 73H142.614V72.376C142.166 72.888 141.542 73.144 140.742 73.144C140.214 73.144 139.746 72.976 139.338 72.64C138.93 72.296 138.726 71.824 138.726 71.224C138.726 70.608 138.926 70.14 139.326 69.82C139.734 69.5 140.206 69.34 140.742 69.34C141.566 69.34 142.19 69.588 142.614 70.084V69.22C142.614 68.884 142.49 68.62 142.242 68.428C141.994 68.236 141.666 68.14 141.258 68.14C140.61 68.14 140.038 68.384 139.542 68.872L139.026 67.996C139.682 67.372 140.494 67.06 141.462 67.06C142.174 67.06 142.754 67.228 143.202 67.564C143.65 67.9 143.874 68.432 143.874 69.16V73ZM141.234 72.28C141.866 72.28 142.326 72.08 142.614 71.68V70.804C142.326 70.404 141.866 70.204 141.234 70.204C140.874 70.204 140.578 70.3 140.346 70.492C140.114 70.684 139.998 70.936 139.998 71.248C139.998 71.56 140.114 71.812 140.346 72.004C140.578 72.188 140.874 72.28 141.234 72.28ZM150.679 73H149.419V69.376C149.419 68.576 149.031 68.176 148.255 68.176C147.951 68.176 147.667 68.252 147.403 68.404C147.139 68.556 146.927 68.74 146.767 68.956V73H145.507V67.204H146.767V67.996C146.983 67.74 147.271 67.52 147.631 67.336C147.991 67.152 148.383 67.06 148.807 67.06C149.423 67.06 149.887 67.22 150.199 67.54C150.519 67.86 150.679 68.32 150.679 68.92V73ZM157.656 73H156.396V72.208C155.916 72.832 155.296 73.144 154.536 73.144C153.776 73.144 153.156 72.872 152.676 72.328C152.196 71.784 151.956 71.044 151.956 70.108C151.956 69.18 152.196 68.44 152.676 67.888C153.156 67.336 153.776 67.06 154.536 67.06C155.296 67.06 155.916 67.376 156.396 68.008V64.996H157.656V73ZM154.896 72.028C155.192 72.028 155.48 71.956 155.76 71.812C156.04 71.668 156.252 71.484 156.396 71.26V68.956C156.252 68.732 156.04 68.548 155.76 68.404C155.48 68.252 155.192 68.176 154.896 68.176C154.4 68.176 154.004 68.356 153.708 68.716C153.412 69.076 153.264 69.54 153.264 70.108C153.264 70.676 153.412 71.14 153.708 71.5C154.004 71.852 154.4 72.028 154.896 72.028ZM166.451 73H162.407V64.996H166.343C167.055 64.996 167.611 65.192 168.011 65.584C168.419 65.968 168.623 66.452 168.623 67.036C168.623 67.516 168.487 67.924 168.215 68.26C167.951 68.588 167.623 68.792 167.231 68.872C167.663 68.936 168.027 69.16 168.323 69.544C168.627 69.92 168.779 70.352 168.779 70.84C168.779 71.48 168.571 72 168.155 72.4C167.747 72.8 167.179 73 166.451 73ZM166.055 68.308C166.407 68.308 166.683 68.212 166.883 68.02C167.083 67.828 167.183 67.58 167.183 67.276C167.183 66.964 167.083 66.712 166.883 66.52C166.683 66.328 166.407 66.232 166.055 66.232H163.811V68.308H166.055ZM166.115 71.764C166.499 71.764 166.799 71.668 167.015 71.476C167.231 71.276 167.339 71 167.339 70.648C167.339 70.336 167.231 70.076 167.015 69.868C166.799 69.652 166.499 69.544 166.115 69.544H163.811V71.764H166.115ZM174.952 73H173.692V72.376C173.244 72.888 172.62 73.144 171.82 73.144C171.292 73.144 170.824 72.976 170.416 72.64C170.008 72.296 169.804 71.824 169.804 71.224C169.804 70.608 170.004 70.14 170.404 69.82C170.812 69.5 171.284 69.34 171.82 69.34C172.644 69.34 173.268 69.588 173.692 70.084V69.22C173.692 68.884 173.568 68.62 173.32 68.428C173.072 68.236 172.744 68.14 172.336 68.14C171.688 68.14 171.116 68.384 170.62 68.872L170.104 67.996C170.76 67.372 171.572 67.06 172.54 67.06C173.252 67.06 173.832 67.228 174.28 67.564C174.728 67.9 174.952 68.432 174.952 69.16V73ZM172.312 72.28C172.944 72.28 173.404 72.08 173.692 71.68V70.804C173.404 70.404 172.944 70.204 172.312 70.204C171.952 70.204 171.656 70.3 171.424 70.492C171.192 70.684 171.076 70.936 171.076 71.248C171.076 71.56 171.192 71.812 171.424 72.004C171.656 72.188 171.952 72.28 172.312 72.28ZM181.758 73H180.498V69.376C180.498 68.576 180.11 68.176 179.334 68.176C179.03 68.176 178.746 68.252 178.482 68.404C178.218 68.556 178.006 68.74 177.846 68.956V73H176.586V67.204H177.846V67.996C178.062 67.74 178.35 67.52 178.71 67.336C179.07 67.152 179.462 67.06 179.886 67.06C180.502 67.06 180.966 67.22 181.278 67.54C181.598 67.86 181.758 68.32 181.758 68.92V73ZM188.194 73H186.934V72.376C186.486 72.888 185.862 73.144 185.062 73.144C184.534 73.144 184.066 72.976 183.658 72.64C183.25 72.296 183.046 71.824 183.046 71.224C183.046 70.608 183.246 70.14 183.646 69.82C184.054 69.5 184.526 69.34 185.062 69.34C185.886 69.34 186.51 69.588 186.934 70.084V69.22C186.934 68.884 186.81 68.62 186.562 68.428C186.314 68.236 185.986 68.14 185.578 68.14C184.93 68.14 184.358 68.384 183.862 68.872L183.346 67.996C184.002 67.372 184.814 67.06 185.782 67.06C186.494 67.06 187.074 67.228 187.522 67.564C187.97 67.9 188.194 68.432 188.194 69.16V73ZM185.554 72.28C186.186 72.28 186.646 72.08 186.934 71.68V70.804C186.646 70.404 186.186 70.204 185.554 70.204C185.194 70.204 184.898 70.3 184.666 70.492C184.434 70.684 184.318 70.936 184.318 71.248C184.318 71.56 184.434 71.812 184.666 72.004C184.898 72.188 185.194 72.28 185.554 72.28ZM191.088 71.26C191.224 71.476 191.432 71.66 191.712 71.812C192 71.956 192.288 72.028 192.576 72.028C193.072 72.028 193.468 71.852 193.764 71.5C194.068 71.14 194.22 70.676 194.22 70.108C194.22 69.54 194.068 69.076 193.764 68.716C193.468 68.356 193.072 68.176 192.576 68.176C192.288 68.176 192.004 68.252 191.724 68.404C191.444 68.556 191.232 68.744 191.088 68.968V71.26ZM191.088 73H189.828V64.996H191.088V68.008C191.56 67.376 192.18 67.06 192.948 67.06C193.7 67.06 194.316 67.34 194.796 67.9C195.276 68.452 195.516 69.188 195.516 70.108C195.516 71.044 195.276 71.784 194.796 72.328C194.316 72.872 193.7 73.144 192.948 73.144C192.188 73.144 191.568 72.832 191.088 72.208V73ZM199.416 73.144C198.52 73.144 197.8 72.852 197.256 72.268C196.712 71.676 196.44 70.952 196.44 70.096C196.44 69.24 196.712 68.52 197.256 67.936C197.8 67.352 198.52 67.06 199.416 67.06C200.32 67.06 201.044 67.352 201.588 67.936C202.132 68.52 202.404 69.24 202.404 70.096C202.404 70.96 202.132 71.684 201.588 72.268C201.044 72.852 200.32 73.144 199.416 73.144ZM199.416 72.028C199.936 72.028 200.344 71.844 200.64 71.476C200.944 71.1 201.096 70.64 201.096 70.096C201.096 69.56 200.944 69.108 200.64 68.74C200.344 68.364 199.936 68.176 199.416 68.176C198.904 68.176 198.496 68.364 198.192 68.74C197.896 69.108 197.748 69.56 197.748 70.096C197.748 70.64 197.896 71.1 198.192 71.476C198.496 71.844 198.904 72.028 199.416 72.028Z" fill="#88879B"/>
</g>
<defs>
<filter id="filter0_d_1752_5607" x="0" y="0" width="282" height="114" filterUnits="userSpaceOnUse" color-interpolation-filters="sRGB">
<feFlood flood-opacity="0" result="BackgroundImageFix"/>
<feColorMatrix in="SourceAlpha" type="matrix" values="0 0 0 0 0 0 0 0 0 0 0 0 0 0 0 0 0 0 127 0" result="hardAlpha"/>
<feOffset dx="2" dy="5"/>
<feGaussianBlur stdDeviation="10"/>
<feComposite in2="hardAlpha" operator="out"/>
<feColorMatrix type="matrix" values="0 0 0 0 0.945833 0 0 0 0 0.945833 0 0 0 0 0.945833 0 0 0 1 0"/>
<feBlend mode="normal" in2="BackgroundImageFix" result="effect1_dropShadow_1752_5607"/>
<feBlend mode="normal" in="SourceGraphic" in2="effect1_dropShadow_1752_5607" result="shape"/>
</filter>
<filter id="filter1_d_1752_5607" x="12.5332" y="12.186" width="172.051" height="48.97" filterUnits="userSpaceOnUse" color-interpolation-filters="sRGB">
<feFlood flood-opacity="0" result="BackgroundImageFix"/>
<feColorMatrix in="SourceAlpha" type="matrix" values="0 0 0 0 0 0 0 0 0 0 0 0 0 0 0 0 0 0 127 0" result="hardAlpha"/>
<feOffset dx="2" dy="5"/>
<feGaussianBlur stdDeviation="10"/>
<feComposite in2="hardAlpha" operator="out"/>
<feColorMatrix type="matrix" values="0 0 0 0 0.945833 0 0 0 0 0.945833 0 0 0 0 0.945833 0 0 0 1 0"/>
<feBlend mode="normal" in2="BackgroundImageFix" result="effect1_dropShadow_1752_5607"/>
<feBlend mode="normal" in="SourceGraphic" in2="effect1_dropShadow_1752_5607" result="shape"/>
</filter>
<filter id="filter2_d_1752_5607" x="12.4922" y="34.864" width="245.936" height="65.488" filterUnits="userSpaceOnUse" color-interpolation-filters="sRGB">
<feFlood flood-opacity="0" result="BackgroundImageFix"/>
<feColorMatrix in="SourceAlpha" type="matrix" values="0 0 0 0 0 0 0 0 0 0 0 0 0 0 0 0 0 0 127 0" result="hardAlpha"/>
<feOffset dx="2" dy="5"/>
<feGaussianBlur stdDeviation="10"/>
<feComposite in2="hardAlpha" operator="out"/>
<feColorMatrix type="matrix" values="0 0 0 0 0.945833 0 0 0 0 0.945833 0 0 0 0 0.945833 0 0 0 1 0"/>
<feBlend mode="normal" in2="BackgroundImageFix" result="effect1_dropShadow_1752_5607"/>
<feBlend mode="normal" in="SourceGraphic" in2="effect1_dropShadow_1752_5607" result="shape"/>
</filter>
</defs>
</svg>
