<svg width="75" height="26" viewBox="0 0 75 26" fill="none" xmlns="http://www.w3.org/2000/svg">
<rect width="75" height="26" rx="10" fill="#EEEEF4"/>
<path d="M58 8.4V8.4C58 8.0284 58 7.8426 57.9754 7.68713C57.8398 6.83135 57.1687 6.16017 56.3129 6.02462C56.1574 6 55.9716 6 55.6 6H54C52.1144 6 51.1716 6 50.5858 6.58579C50 7.17157 50 8.11438 50 10V11.6C50 11.9716 50 12.1574 50.0246 12.3129C50.1602 13.1687 50.8313 13.8398 51.6871 13.9754C51.8426 14 52.0284 14 52.4 14V14" stroke="#88879B" stroke-width="2"/>
<rect x="55" y="11" width="8" height="8" rx="2" stroke="#88879B" stroke-width="2"/>
<path d="M15.474 17.168C14.074 17.168 12.9073 16.72 11.974 15.824C11.0407 14.9187 10.574 13.7567 10.574 12.338C10.574 10.9193 11.0407 9.762 11.974 8.866C12.9073 7.96067 14.074 7.508 15.474 7.508C17.098 7.508 18.3487 8.208 19.226 9.608L17.826 10.322C17.5927 9.92067 17.2613 9.594 16.832 9.342C16.412 9.09 15.9593 8.964 15.474 8.964C14.55 8.964 13.78 9.28133 13.164 9.916C12.5573 10.5507 12.254 11.358 12.254 12.338C12.254 13.318 12.5573 14.1253 13.164 14.76C13.78 15.3947 14.55 15.712 15.474 15.712C15.9687 15.712 16.426 15.586 16.846 15.334C17.266 15.082 17.5927 14.7553 17.826 14.354L19.226 15.068C18.33 16.468 17.0793 17.168 15.474 17.168ZM23.547 17.168C22.5016 17.168 21.6616 16.8273 21.027 16.146C20.3923 15.4553 20.075 14.6107 20.075 13.612C20.075 12.6133 20.3923 11.7733 21.027 11.092C21.6616 10.4107 22.5016 10.07 23.547 10.07C24.6016 10.07 25.4463 10.4107 26.081 11.092C26.7156 11.7733 27.033 12.6133 27.033 13.612C27.033 14.62 26.7156 15.4647 26.081 16.146C25.4463 16.8273 24.6016 17.168 23.547 17.168ZM23.547 15.866C24.1536 15.866 24.6296 15.6513 24.975 15.222C25.3296 14.7833 25.507 14.2467 25.507 13.612C25.507 12.9867 25.3296 12.4593 24.975 12.03C24.6296 11.5913 24.1536 11.372 23.547 11.372C22.9496 11.372 22.4736 11.5913 22.119 12.03C21.7736 12.4593 21.601 12.9867 21.601 13.612C21.601 14.2467 21.7736 14.7833 22.119 15.222C22.4736 15.6513 22.9496 15.866 23.547 15.866ZM32.1604 17.168C31.2644 17.168 30.541 16.7993 29.9904 16.062V19.576H28.5204V10.238H29.9904V11.162C30.5317 10.434 31.255 10.07 32.1604 10.07C33.047 10.07 33.7657 10.3873 34.3164 11.022C34.8764 11.6567 35.1564 12.52 35.1564 13.612C35.1564 14.704 34.8764 15.572 34.3164 16.216C33.7657 16.8507 33.047 17.168 32.1604 17.168ZM31.7264 15.866C32.305 15.866 32.767 15.656 33.1124 15.236C33.4577 14.816 33.6304 14.2747 33.6304 13.612C33.6304 12.9493 33.4577 12.4127 33.1124 12.002C32.767 11.582 32.305 11.372 31.7264 11.372C31.3904 11.372 31.059 11.4607 30.7324 11.638C30.4057 11.8153 30.1584 12.03 29.9904 12.282V14.956C30.1584 15.208 30.4057 15.4227 30.7324 15.6C31.059 15.7773 31.3904 15.866 31.7264 15.866ZM36.3201 19.646L36.5441 18.33C36.7121 18.4047 36.8988 18.442 37.1041 18.442C37.5801 18.442 37.9021 18.246 38.0701 17.854L38.4061 17.084L35.6341 10.238H37.2021L39.1761 15.306L41.1501 10.238H42.7321L39.4701 18.218C39.0688 19.2167 38.2941 19.7253 37.1461 19.744C36.8381 19.744 36.5628 19.7113 36.3201 19.646Z" fill="#88879B"/>
</svg>
