<svg width="234" height="151" viewBox="0 0 234 151" fill="none" xmlns="http://www.w3.org/2000/svg">
<path d="M9.144 11V10.112H5.22C7.452 8.348 9.108 6.86 9.108 5.228C9.108 3.632 7.752 2.876 6.42 2.876C5.292 2.876 4.248 3.332 3.636 4.136L4.248 4.772C4.716 4.172 5.46 3.764 6.42 3.764C7.248 3.764 8.088 4.208 8.088 5.228C8.088 6.608 6.528 7.94 3.648 10.208V11H9.144ZM13.5467 11.144C15.1187 11.144 16.4147 10.328 16.4147 8.972C16.4147 7.904 15.5027 7.172 14.5067 6.872C15.4307 6.608 16.2947 6.008 16.2947 4.952C16.2947 3.512 14.8667 2.876 13.5467 2.876C12.2147 2.876 10.8107 3.512 10.8107 4.952C10.8107 6.008 11.6627 6.608 12.5867 6.872C11.5907 7.172 10.6787 7.904 10.6787 8.972C10.6787 10.34 11.9627 11.144 13.5467 11.144ZM13.5467 6.464C13.0667 6.38 11.8067 6.056 11.8067 5.084C11.8067 4.256 12.5747 3.764 13.5467 3.764C14.5067 3.764 15.2867 4.256 15.2867 5.084C15.2867 6.056 14.0387 6.38 13.5467 6.464ZM13.5467 10.256C12.5507 10.256 11.6747 9.728 11.6747 8.864C11.6747 7.82 13.0547 7.376 13.5467 7.316C14.0387 7.376 15.4067 7.82 15.4067 8.864C15.4067 9.728 14.5307 10.256 13.5467 10.256Z" fill="#252531"/>
<path d="M47.144 11V10.112H43.22C45.452 8.348 47.108 6.86 47.108 5.228C47.108 3.632 45.752 2.876 44.42 2.876C43.292 2.876 42.248 3.332 41.636 4.136L42.248 4.772C42.716 4.172 43.46 3.764 44.42 3.764C45.248 3.764 46.088 4.208 46.088 5.228C46.088 6.608 44.528 7.94 41.648 10.208V11H47.144ZM51.2827 11.132C53.5267 11.132 54.5347 9.164 54.5347 7.004C54.5347 4.82 53.6827 2.864 51.4387 2.864C49.6987 2.864 48.6427 4.1 48.6427 5.48C48.6427 7.184 49.8307 8.036 51.2707 8.036C52.2907 8.036 53.1787 7.34 53.5267 6.788C53.5387 6.896 53.5387 7.004 53.5387 7.112C53.5387 8.624 52.9027 10.244 51.2827 10.244C50.4547 10.244 49.9747 9.908 49.5667 9.428L49.0627 10.172C49.5667 10.748 50.2627 11.132 51.2827 11.132ZM51.4987 7.172C50.4667 7.172 49.6507 6.62 49.6507 5.444C49.6507 4.688 50.2627 3.752 51.4867 3.752C52.8787 3.752 53.4067 4.988 53.4907 5.984C53.0707 6.692 52.2907 7.172 51.4987 7.172Z" fill="#252531"/>
<path d="M80.192 11.144C81.956 11.144 83.024 10.172 83.024 8.84C83.024 7.556 81.908 6.932 81.176 6.872C81.932 6.74 82.904 6.164 82.904 5.012C82.904 3.656 81.728 2.876 80.192 2.876C78.956 2.876 78.032 3.416 77.456 4.112L78.008 4.736C78.596 4.1 79.244 3.764 80.12 3.764C81.092 3.764 81.908 4.244 81.908 5.132C81.908 6.056 81.056 6.452 80.048 6.452C79.724 6.452 79.352 6.452 79.22 6.44V7.352C79.34 7.34 79.712 7.34 80.048 7.34C81.224 7.34 82.04 7.76 82.04 8.756C82.04 9.68 81.332 10.256 80.168 10.256C79.22 10.256 78.404 9.824 77.936 9.2L77.348 9.824C77.84 10.544 78.836 11.144 80.192 11.144ZM87.3517 11.144C89.5357 11.144 90.4117 8.948 90.4117 7.004C90.4117 5.048 89.5357 2.876 87.3517 2.876C85.1557 2.876 84.2917 5.048 84.2917 7.004C84.2917 8.948 85.1557 11.144 87.3517 11.144ZM87.3517 10.256C85.8277 10.256 85.3117 8.6 85.3117 7.004C85.3117 5.408 85.8277 3.764 87.3517 3.764C88.8757 3.764 89.3917 5.408 89.3917 7.004C89.3917 8.6 88.8757 10.256 87.3517 10.256Z" fill="#252531"/>
<path d="M118.192 11.144C119.956 11.144 121.024 10.172 121.024 8.84C121.024 7.556 119.908 6.932 119.176 6.872C119.932 6.74 120.904 6.164 120.904 5.012C120.904 3.656 119.728 2.876 118.192 2.876C116.956 2.876 116.032 3.416 115.456 4.112L116.008 4.736C116.596 4.1 117.244 3.764 118.12 3.764C119.092 3.764 119.908 4.244 119.908 5.132C119.908 6.056 119.056 6.452 118.048 6.452C117.724 6.452 117.352 6.452 117.22 6.44V7.352C117.34 7.34 117.712 7.34 118.048 7.34C119.224 7.34 120.04 7.76 120.04 8.756C120.04 9.68 119.332 10.256 118.168 10.256C117.22 10.256 116.404 9.824 115.936 9.2L115.348 9.824C115.84 10.544 116.836 11.144 118.192 11.144ZM124.812 11V2.996H123.936L121.932 5.06L122.532 5.672L123.816 4.316V11H124.812Z" fill="#252531"/>
<path d="M158.132 11V2.996H157.256L155.252 5.06L155.852 5.672L157.136 4.316V11H158.132Z" fill="#252531"/>
<path d="M192.144 11V10.112H188.22C190.452 8.348 192.108 6.86 192.108 5.228C192.108 3.632 190.752 2.876 189.42 2.876C188.292 2.876 187.248 3.332 186.636 4.136L187.248 4.772C187.716 4.172 188.46 3.764 189.42 3.764C190.248 3.764 191.088 4.208 191.088 5.228C191.088 6.608 189.528 7.94 186.648 10.208V11H192.144Z" fill="#252531"/>
<path d="M218.192 11.144C219.956 11.144 221.024 10.172 221.024 8.84C221.024 7.556 219.908 6.932 219.176 6.872C219.932 6.74 220.904 6.164 220.904 5.012C220.904 3.656 219.728 2.876 218.192 2.876C216.956 2.876 216.032 3.416 215.456 4.112L216.008 4.736C216.596 4.1 217.244 3.764 218.12 3.764C219.092 3.764 219.908 4.244 219.908 5.132C219.908 6.056 219.056 6.452 218.048 6.452C217.724 6.452 217.352 6.452 217.22 6.44V7.352C217.34 7.34 217.712 7.34 218.048 7.34C219.224 7.34 220.04 7.76 220.04 8.756C220.04 9.68 219.332 10.256 218.168 10.256C217.22 10.256 216.404 9.824 215.936 9.2L215.348 9.824C215.84 10.544 216.836 11.144 218.192 11.144Z" fill="#252531"/>
<path d="M12.184 42V39.972H13.312V39.096H12.184V33.996H10.816L7.384 39.144V39.972H11.188V42H12.184ZM11.188 39.096H8.38L11.188 34.92V39.096Z" fill="#252531"/>
<path d="M48.612 42.144C50.22 42.144 51.456 41.136 51.456 39.504C51.456 37.86 50.244 36.948 48.912 36.948C48.108 36.948 47.424 37.284 47.04 37.668V34.884H50.94V33.996H46.044V38.316L46.776 38.568C47.316 38.04 47.916 37.812 48.624 37.812C49.704 37.812 50.46 38.484 50.46 39.54C50.46 40.512 49.704 41.256 48.612 41.256C47.628 41.256 46.932 40.872 46.404 40.2L45.792 40.86C46.392 41.652 47.256 42.144 48.612 42.144Z" fill="#252531"/>
<path d="M82.696 42.144C84.448 42.144 85.504 40.92 85.504 39.528C85.504 37.824 84.328 36.972 82.888 36.972C81.856 36.972 80.968 37.668 80.62 38.22C80.608 38.112 80.608 38.016 80.608 37.908C80.608 36.336 81.316 34.764 82.864 34.764C83.704 34.764 84.172 35.1 84.58 35.58L85.084 34.836C84.592 34.272 83.896 33.876 82.864 33.876C80.62 33.876 79.612 35.844 79.612 38.016C79.612 40.188 80.464 42.144 82.696 42.144ZM82.66 41.256C81.268 41.256 80.74 40.032 80.644 39.036C81.088 38.328 81.856 37.836 82.648 37.836C83.68 37.836 84.496 38.388 84.496 39.564C84.496 40.332 83.896 41.256 82.66 41.256Z" fill="#252531"/>
<path d="M119.556 42L122.832 34.68V33.996H117.372V34.884H121.68L118.452 42H119.556Z" fill="#252531"/>
<path d="M157.492 42.144C159.064 42.144 160.36 41.328 160.36 39.972C160.36 38.904 159.448 38.172 158.452 37.872C159.376 37.608 160.24 37.008 160.24 35.952C160.24 34.512 158.812 33.876 157.492 33.876C156.16 33.876 154.756 34.512 154.756 35.952C154.756 37.008 155.608 37.608 156.532 37.872C155.536 38.172 154.624 38.904 154.624 39.972C154.624 41.34 155.908 42.144 157.492 42.144ZM157.492 37.464C157.012 37.38 155.752 37.056 155.752 36.084C155.752 35.256 156.52 34.764 157.492 34.764C158.452 34.764 159.232 35.256 159.232 36.084C159.232 37.056 157.984 37.38 157.492 37.464ZM157.492 41.256C156.496 41.256 155.62 40.728 155.62 39.864C155.62 38.82 157 38.376 157.492 38.316C157.984 38.376 159.352 38.82 159.352 39.864C159.352 40.728 158.476 41.256 157.492 41.256Z" fill="#252531"/>
<path d="M189.228 42.132C191.472 42.132 192.48 40.164 192.48 38.004C192.48 35.82 191.628 33.864 189.384 33.864C187.644 33.864 186.588 35.1 186.588 36.48C186.588 38.184 187.776 39.036 189.216 39.036C190.236 39.036 191.124 38.34 191.472 37.788C191.484 37.896 191.484 38.004 191.484 38.112C191.484 39.624 190.848 41.244 189.228 41.244C188.4 41.244 187.92 40.908 187.512 40.428L187.008 41.172C187.512 41.748 188.208 42.132 189.228 42.132ZM189.444 38.172C188.412 38.172 187.596 37.62 187.596 36.444C187.596 35.688 188.208 34.752 189.432 34.752C190.824 34.752 191.352 35.988 191.436 36.984C191.016 37.692 190.236 38.172 189.444 38.172Z" fill="#252531"/>
<path d="M216.132 42V33.996H215.256L213.252 36.06L213.852 36.672L215.136 35.316V42H216.132ZM220.738 42.144C222.922 42.144 223.798 39.948 223.798 38.004C223.798 36.048 222.922 33.876 220.738 33.876C218.542 33.876 217.678 36.048 217.678 38.004C217.678 39.948 218.542 42.144 220.738 42.144ZM220.738 41.256C219.214 41.256 218.698 39.6 218.698 38.004C218.698 36.408 219.214 34.764 220.738 34.764C222.262 34.764 222.778 36.408 222.778 38.004C222.778 39.6 222.262 41.256 220.738 41.256Z" fill="#252531"/>
<path d="M10.132 73V64.996H9.256L7.252 67.06L7.852 67.672L9.136 66.316V73H10.132ZM14.1984 73V64.996H13.3224L11.3184 67.06L11.9184 67.672L13.2024 66.316V73H14.1984Z" fill="#252531"/>
<path d="M48.132 73V64.996H47.256L45.252 67.06L45.852 67.672L47.136 66.316V73H48.132ZM55.2104 73V72.112H51.2864C53.5184 70.348 55.1744 68.86 55.1744 67.228C55.1744 65.632 53.8184 64.876 52.4864 64.876C51.3584 64.876 50.3144 65.332 49.7024 66.136L50.3144 66.772C50.7824 66.172 51.5264 65.764 52.4864 65.764C53.3144 65.764 54.1544 66.208 54.1544 67.228C54.1544 68.608 52.5944 69.94 49.7144 72.208V73H55.2104Z" fill="#252531"/>
<path d="M82.132 73V64.996H81.256L79.252 67.06L79.852 67.672L81.136 66.316V73H82.132ZM86.2584 73.144C88.0224 73.144 89.0904 72.172 89.0904 70.84C89.0904 69.556 87.9744 68.932 87.2424 68.872C87.9984 68.74 88.9704 68.164 88.9704 67.012C88.9704 65.656 87.7944 64.876 86.2584 64.876C85.0224 64.876 84.0984 65.416 83.5224 66.112L84.0744 66.736C84.6624 66.1 85.3104 65.764 86.1864 65.764C87.1584 65.764 87.9744 66.244 87.9744 67.132C87.9744 68.056 87.1224 68.452 86.1144 68.452C85.7904 68.452 85.4184 68.452 85.2864 68.44V69.352C85.4064 69.34 85.7784 69.34 86.1144 69.34C87.2904 69.34 88.1064 69.76 88.1064 70.756C88.1064 71.68 87.3984 72.256 86.2344 72.256C85.2864 72.256 84.4704 71.824 84.0024 71.2L83.4144 71.824C83.9064 72.544 84.9024 73.144 86.2584 73.144Z" fill="#252531"/>
<path d="M157.132 73V64.996H156.256L154.252 67.06L154.852 67.672L156.136 66.316V73H157.132ZM161.678 73.144C163.286 73.144 164.522 72.136 164.522 70.504C164.522 68.86 163.31 67.948 161.978 67.948C161.174 67.948 160.49 68.284 160.106 68.668V65.884H164.006V64.996H159.11V69.316L159.842 69.568C160.382 69.04 160.982 68.812 161.69 68.812C162.77 68.812 163.526 69.484 163.526 70.54C163.526 71.512 162.77 72.256 161.678 72.256C160.694 72.256 159.998 71.872 159.47 71.2L158.858 71.86C159.458 72.652 160.322 73.144 161.678 73.144Z" fill="#252531"/>
<path d="M189.132 73V64.996H188.256L186.252 67.06L186.852 67.672L188.136 66.316V73H189.132ZM193.762 73.144C195.514 73.144 196.57 71.92 196.57 70.528C196.57 68.824 195.394 67.972 193.954 67.972C192.922 67.972 192.034 68.668 191.686 69.22C191.674 69.112 191.674 69.016 191.674 68.908C191.674 67.336 192.382 65.764 193.93 65.764C194.77 65.764 195.238 66.1 195.646 66.58L196.15 65.836C195.658 65.272 194.962 64.876 193.93 64.876C191.686 64.876 190.678 66.844 190.678 69.016C190.678 71.188 191.53 73.144 193.762 73.144ZM193.726 72.256C192.334 72.256 191.806 71.032 191.71 70.036C192.154 69.328 192.922 68.836 193.714 68.836C194.746 68.836 195.562 69.388 195.562 70.564C195.562 71.332 194.962 72.256 193.726 72.256Z" fill="#252531"/>
<path d="M216.132 73V64.996H215.256L213.252 67.06L213.852 67.672L215.136 66.316V73H216.132ZM219.622 73L222.898 65.68V64.996H217.438V65.884H221.746L218.518 73H219.622Z" fill="#252531"/>
<path d="M10.132 108V99.996H9.256L7.252 102.06L7.852 102.672L9.136 101.316V108H10.132ZM14.5584 108.144C16.1304 108.144 17.4264 107.328 17.4264 105.972C17.4264 104.904 16.5144 104.172 15.5184 103.872C16.4424 103.608 17.3064 103.008 17.3064 101.952C17.3064 100.512 15.8784 99.876 14.5584 99.876C13.2264 99.876 11.8224 100.512 11.8224 101.952C11.8224 103.008 12.6744 103.608 13.5984 103.872C12.6024 104.172 11.6904 104.904 11.6904 105.972C11.6904 107.34 12.9744 108.144 14.5584 108.144ZM14.5584 103.464C14.0784 103.38 12.8184 103.056 12.8184 102.084C12.8184 101.256 13.5864 100.764 14.5584 100.764C15.5184 100.764 16.2984 101.256 16.2984 102.084C16.2984 103.056 15.0504 103.38 14.5584 103.464ZM14.5584 107.256C13.5624 107.256 12.6864 106.728 12.6864 105.864C12.6864 104.82 14.0664 104.376 14.5584 104.316C15.0504 104.376 16.4184 104.82 16.4184 105.864C16.4184 106.728 15.5424 107.256 14.5584 107.256Z" fill="#252531"/>
<path d="M48.132 108V99.996H47.256L45.252 102.06L45.852 102.672L47.136 101.316V108H48.132ZM52.2944 108.132C54.5384 108.132 55.5464 106.164 55.5464 104.004C55.5464 101.82 54.6944 99.864 52.4504 99.864C50.7104 99.864 49.6544 101.1 49.6544 102.48C49.6544 104.184 50.8424 105.036 52.2824 105.036C53.3024 105.036 54.1904 104.34 54.5384 103.788C54.5504 103.896 54.5504 104.004 54.5504 104.112C54.5504 105.624 53.9144 107.244 52.2944 107.244C51.4664 107.244 50.9864 106.908 50.5784 106.428L50.0744 107.172C50.5784 107.748 51.2744 108.132 52.2944 108.132ZM52.5104 104.172C51.4784 104.172 50.6624 103.62 50.6624 102.444C50.6624 101.688 51.2744 100.752 52.4984 100.752C53.8904 100.752 54.4184 101.988 54.5024 102.984C54.0824 103.692 53.3024 104.172 52.5104 104.172Z" fill="#252531"/>
<path d="M118.132 73V64.996H117.256L115.252 67.06L115.852 67.672L117.136 66.316V73H118.132ZM124.25 73V70.972H125.378V70.096H124.25V64.996H122.882L119.45 70.144V70.972H123.254V73H124.25ZM123.254 70.096H120.446L123.254 65.92V70.096Z" fill="#252531"/>
<rect x="86" y="89" width="148" height="30" fill="#E4F2FF"/>
<rect y="121" width="234" height="30" fill="#E4F2FF"/>
<path d="M160.144 108V107.112H156.22C158.452 105.348 160.108 103.86 160.108 102.228C160.108 100.632 158.752 99.876 157.42 99.876C156.292 99.876 155.248 100.332 154.636 101.136L155.248 101.772C155.716 101.172 156.46 100.764 157.42 100.764C158.248 100.764 159.088 101.208 159.088 102.228C159.088 103.608 157.528 104.94 154.648 107.208V108H160.144ZM167.199 108V107.112H163.275C165.507 105.348 167.163 103.86 167.163 102.228C167.163 100.632 165.807 99.876 164.475 99.876C163.347 99.876 162.303 100.332 161.691 101.136L162.303 101.772C162.771 101.172 163.515 100.764 164.475 100.764C165.303 100.764 166.143 101.208 166.143 102.228C166.143 103.608 164.583 104.94 161.703 107.208V108H167.199Z" fill="#252531"/>
<path d="M192.144 108V107.112H188.22C190.452 105.348 192.108 103.86 192.108 102.228C192.108 100.632 190.752 99.876 189.42 99.876C188.292 99.876 187.248 100.332 186.636 101.136L187.248 101.772C187.716 101.172 188.46 100.764 189.42 100.764C190.248 100.764 191.088 101.208 191.088 102.228C191.088 103.608 189.528 104.94 186.648 107.208V108H192.144ZM196.247 108.144C198.011 108.144 199.079 107.172 199.079 105.84C199.079 104.556 197.963 103.932 197.231 103.872C197.987 103.74 198.959 103.164 198.959 102.012C198.959 100.656 197.783 99.876 196.247 99.876C195.011 99.876 194.087 100.416 193.511 101.112L194.063 101.736C194.651 101.1 195.299 100.764 196.175 100.764C197.147 100.764 197.963 101.244 197.963 102.132C197.963 103.056 197.111 103.452 196.103 103.452C195.779 103.452 195.407 103.452 195.275 103.44V104.352C195.395 104.34 195.767 104.34 196.103 104.34C197.279 104.34 198.095 104.76 198.095 105.756C198.095 106.68 197.387 107.256 196.223 107.256C195.275 107.256 194.459 106.824 193.991 106.2L193.403 106.824C193.895 107.544 194.891 108.144 196.247 108.144Z" fill="#252531"/>
<path d="M219.144 108V107.112H215.22C217.452 105.348 219.108 103.86 219.108 102.228C219.108 100.632 217.752 99.876 216.42 99.876C215.292 99.876 214.248 100.332 213.636 101.136L214.248 101.772C214.716 101.172 215.46 100.764 216.42 100.764C217.248 100.764 218.088 101.208 218.088 102.228C218.088 103.608 216.528 104.94 213.648 107.208V108H219.144ZM225.239 108V105.972H226.367V105.096H225.239V99.996H223.871L220.439 105.144V105.972H224.243V108H225.239ZM224.243 105.096H221.435L224.243 100.92V105.096Z" fill="#252531"/>
<path d="M123.144 108V107.112H119.22C121.452 105.348 123.108 103.86 123.108 102.228C123.108 100.632 121.752 99.876 120.42 99.876C119.292 99.876 118.248 100.332 117.636 101.136L118.248 101.772C118.716 101.172 119.46 100.764 120.42 100.764C121.248 100.764 122.088 101.208 122.088 102.228C122.088 103.608 120.528 104.94 117.648 107.208V108H123.144ZM127.187 108V99.996H126.311L124.307 102.06L124.907 102.672L126.191 101.316V108H127.187Z" fill="#252531"/>
<rect x="71" y="89" width="30" height="30" rx="15" fill="#24A3FF"/>
<path d="M85.396 108H79.6V106.896C81.272 105.632 82.408 104.696 83.008 104.088C83.616 103.472 83.92 102.892 83.92 102.348C83.92 101.956 83.776 101.656 83.488 101.448C83.208 101.232 82.868 101.124 82.468 101.124C81.588 101.124 80.868 101.444 80.308 102.084L79.492 101.16C79.836 100.744 80.268 100.428 80.788 100.212C81.316 99.988 81.868 99.876 82.444 99.876C83.26 99.876 83.948 100.096 84.508 100.536C85.068 100.976 85.348 101.58 85.348 102.348C85.348 103.036 85.06 103.72 84.484 104.4C83.908 105.08 83.028 105.868 81.844 106.764H85.396V108ZM91.2727 107.784C90.8487 108.024 90.3687 108.144 89.8327 108.144C89.2967 108.144 88.8167 108.024 88.3927 107.784C87.9687 107.544 87.6327 107.224 87.3847 106.824C87.1367 106.424 86.9487 105.984 86.8207 105.504C86.6927 105.024 86.6287 104.524 86.6287 104.004C86.6287 103.484 86.6927 102.984 86.8207 102.504C86.9487 102.024 87.1367 101.588 87.3847 101.196C87.6327 100.796 87.9687 100.476 88.3927 100.236C88.8167 99.996 89.2967 99.876 89.8327 99.876C90.3687 99.876 90.8487 99.996 91.2727 100.236C91.6967 100.476 92.0327 100.796 92.2807 101.196C92.5287 101.588 92.7167 102.024 92.8447 102.504C92.9727 102.984 93.0367 103.484 93.0367 104.004C93.0367 104.524 92.9727 105.024 92.8447 105.504C92.7167 105.984 92.5287 106.424 92.2807 106.824C92.0327 107.224 91.6967 107.544 91.2727 107.784ZM88.4887 106.08C88.7767 106.624 89.2247 106.896 89.8327 106.896C90.4407 106.896 90.8887 106.624 91.1767 106.08C91.4647 105.536 91.6087 104.844 91.6087 104.004C91.6087 103.468 91.5527 102.992 91.4407 102.576C91.3367 102.16 91.1447 101.816 90.8647 101.544C90.5927 101.264 90.2487 101.124 89.8327 101.124C89.4167 101.124 89.0687 101.264 88.7887 101.544C88.5167 101.816 88.3247 102.16 88.2127 102.576C88.1087 102.992 88.0567 103.468 88.0567 104.004C88.0567 104.844 88.2007 105.536 88.4887 106.08Z" fill="white"/>
<path d="M51.144 139V138.112H47.22C49.452 136.348 51.108 134.86 51.108 133.228C51.108 131.632 49.752 130.876 48.42 130.876C47.292 130.876 46.248 131.332 45.636 132.136L46.248 132.772C46.716 132.172 47.46 131.764 48.42 131.764C49.248 131.764 50.088 132.208 50.088 133.228C50.088 134.608 48.528 135.94 45.648 138.208V139H51.144ZM55.7507 139.144C57.5027 139.144 58.5587 137.92 58.5587 136.528C58.5587 134.824 57.3827 133.972 55.9427 133.972C54.9107 133.972 54.0227 134.668 53.6747 135.22C53.6627 135.112 53.6627 135.016 53.6627 134.908C53.6627 133.336 54.3707 131.764 55.9187 131.764C56.7587 131.764 57.2267 132.1 57.6347 132.58L58.1387 131.836C57.6467 131.272 56.9507 130.876 55.9187 130.876C53.6747 130.876 52.6667 132.844 52.6667 135.016C52.6667 137.188 53.5187 139.144 55.7507 139.144ZM55.7147 138.256C54.3227 138.256 53.7947 137.032 53.6987 136.036C54.1427 135.328 54.9107 134.836 55.7027 134.836C56.7347 134.836 57.5507 135.388 57.5507 136.564C57.5507 137.332 56.9507 138.256 55.7147 138.256Z" fill="#252531"/>
<path d="M85.144 139V138.112H81.22C83.452 136.348 85.108 134.86 85.108 133.228C85.108 131.632 83.752 130.876 82.42 130.876C81.292 130.876 80.248 131.332 79.636 132.136L80.248 132.772C80.716 132.172 81.46 131.764 82.42 131.764C83.248 131.764 84.088 132.208 84.088 133.228C84.088 134.608 82.528 135.94 79.648 138.208V139H85.144ZM88.6107 139L91.8867 131.68V130.996H86.4267V131.884H90.7347L87.5067 139H88.6107Z" fill="#252531"/>
<path d="M123.144 139V138.112H119.22C121.452 136.348 123.108 134.86 123.108 133.228C123.108 131.632 121.752 130.876 120.42 130.876C119.292 130.876 118.248 131.332 117.636 132.136L118.248 132.772C118.716 132.172 119.46 131.764 120.42 131.764C121.248 131.764 122.088 132.208 122.088 133.228C122.088 134.608 120.528 135.94 117.648 138.208V139H123.144ZM127.547 139.144C129.119 139.144 130.415 138.328 130.415 136.972C130.415 135.904 129.503 135.172 128.507 134.872C129.431 134.608 130.295 134.008 130.295 132.952C130.295 131.512 128.867 130.876 127.547 130.876C126.215 130.876 124.811 131.512 124.811 132.952C124.811 134.008 125.663 134.608 126.587 134.872C125.591 135.172 124.679 135.904 124.679 136.972C124.679 138.34 125.963 139.144 127.547 139.144ZM127.547 134.464C127.067 134.38 125.807 134.056 125.807 133.084C125.807 132.256 126.575 131.764 127.547 131.764C128.507 131.764 129.287 132.256 129.287 133.084C129.287 134.056 128.039 134.38 127.547 134.464ZM127.547 138.256C126.551 138.256 125.675 137.728 125.675 136.864C125.675 135.82 127.055 135.376 127.547 135.316C128.039 135.376 129.407 135.82 129.407 136.864C129.407 137.728 128.531 138.256 127.547 138.256Z" fill="#252531"/>
<path d="M160.144 139V138.112H156.22C158.452 136.348 160.108 134.86 160.108 133.228C160.108 131.632 158.752 130.876 157.42 130.876C156.292 130.876 155.248 131.332 154.636 132.136L155.248 132.772C155.716 132.172 156.46 131.764 157.42 131.764C158.248 131.764 159.088 132.208 159.088 133.228C159.088 134.608 157.528 135.94 154.648 138.208V139H160.144ZM164.283 139.132C166.527 139.132 167.535 137.164 167.535 135.004C167.535 132.82 166.683 130.864 164.439 130.864C162.699 130.864 161.643 132.1 161.643 133.48C161.643 135.184 162.831 136.036 164.271 136.036C165.291 136.036 166.179 135.34 166.527 134.788C166.539 134.896 166.539 135.004 166.539 135.112C166.539 136.624 165.903 138.244 164.283 138.244C163.455 138.244 162.975 137.908 162.567 137.428L162.063 138.172C162.567 138.748 163.263 139.132 164.283 139.132ZM164.499 135.172C163.467 135.172 162.651 134.62 162.651 133.444C162.651 132.688 163.263 131.752 164.487 131.752C165.879 131.752 166.407 132.988 166.491 133.984C166.071 134.692 165.291 135.172 164.499 135.172Z" fill="#252531"/>
<path d="M189.192 139.144C190.956 139.144 192.024 138.172 192.024 136.84C192.024 135.556 190.908 134.932 190.176 134.872C190.932 134.74 191.904 134.164 191.904 133.012C191.904 131.656 190.728 130.876 189.192 130.876C187.956 130.876 187.032 131.416 186.456 132.112L187.008 132.736C187.596 132.1 188.244 131.764 189.12 131.764C190.092 131.764 190.908 132.244 190.908 133.132C190.908 134.056 190.056 134.452 189.048 134.452C188.724 134.452 188.352 134.452 188.22 134.44V135.352C188.34 135.34 188.712 135.34 189.048 135.34C190.224 135.34 191.04 135.76 191.04 136.756C191.04 137.68 190.332 138.256 189.168 138.256C188.22 138.256 187.404 137.824 186.936 137.2L186.348 137.824C186.84 138.544 187.836 139.144 189.192 139.144ZM196.352 139.144C198.536 139.144 199.412 136.948 199.412 135.004C199.412 133.048 198.536 130.876 196.352 130.876C194.156 130.876 193.292 133.048 193.292 135.004C193.292 136.948 194.156 139.144 196.352 139.144ZM196.352 138.256C194.828 138.256 194.312 136.6 194.312 135.004C194.312 133.408 194.828 131.764 196.352 131.764C197.876 131.764 198.392 133.408 198.392 135.004C198.392 136.6 197.876 138.256 196.352 138.256Z" fill="#252531"/>
<path d="M216.192 139.144C217.956 139.144 219.024 138.172 219.024 136.84C219.024 135.556 217.908 134.932 217.176 134.872C217.932 134.74 218.904 134.164 218.904 133.012C218.904 131.656 217.728 130.876 216.192 130.876C214.956 130.876 214.032 131.416 213.456 132.112L214.008 132.736C214.596 132.1 215.244 131.764 216.12 131.764C217.092 131.764 217.908 132.244 217.908 133.132C217.908 134.056 217.056 134.452 216.048 134.452C215.724 134.452 215.352 134.452 215.22 134.44V135.352C215.34 135.34 215.712 135.34 216.048 135.34C217.224 135.34 218.04 135.76 218.04 136.756C218.04 137.68 217.332 138.256 216.168 138.256C215.22 138.256 214.404 137.824 213.936 137.2L213.348 137.824C213.84 138.544 214.836 139.144 216.192 139.144ZM222.812 139V130.996H221.936L219.932 133.06L220.532 133.672L221.816 132.316V139H222.812Z" fill="#252531"/>
<path d="M13.144 139V138.112H9.22C11.452 136.348 13.108 134.86 13.108 133.228C13.108 131.632 11.752 130.876 10.42 130.876C9.292 130.876 8.248 131.332 7.636 132.136L8.248 132.772C8.716 132.172 9.46 131.764 10.42 131.764C11.248 131.764 12.088 132.208 12.088 133.228C12.088 134.608 10.528 135.94 7.648 138.208V139H13.144ZM17.6667 139.144C19.2747 139.144 20.5107 138.136 20.5107 136.504C20.5107 134.86 19.2987 133.948 17.9667 133.948C17.1627 133.948 16.4787 134.284 16.0947 134.668V131.884H19.9947V130.996H15.0987V135.316L15.8307 135.568C16.3707 135.04 16.9707 134.812 17.6787 134.812C18.7587 134.812 19.5147 135.484 19.5147 136.54C19.5147 137.512 18.7587 138.256 17.6667 138.256C16.6827 138.256 15.9867 137.872 15.4587 137.2L14.8467 137.86C15.4467 138.652 16.3107 139.144 17.6667 139.144Z" fill="#252531"/>
</svg>
