<svg width="237" height="153" viewBox="0 0 237 153" fill="none" xmlns="http://www.w3.org/2000/svg">
<rect y="30" width="237" height="28" fill="#E4F2FF"/>
<rect width="237" height="28" fill="#E4F2FF"/>
<rect y="60" width="54" height="30" fill="#E4F2FF"/>
<path d="M11.144 17V16.112H7.22C9.452 14.348 11.108 12.86 11.108 11.228C11.108 9.632 9.752 8.876 8.42 8.876C7.292 8.876 6.248 9.332 5.636 10.136L6.248 10.772C6.716 10.172 7.46 9.764 8.42 9.764C9.248 9.764 10.088 10.208 10.088 11.228C10.088 12.608 8.528 13.94 5.648 16.208V17H11.144ZM15.5467 17.144C17.1187 17.144 18.4147 16.328 18.4147 14.972C18.4147 13.904 17.5027 13.172 16.5067 12.872C17.4307 12.608 18.2947 12.008 18.2947 10.952C18.2947 9.512 16.8667 8.876 15.5467 8.876C14.2147 8.876 12.8107 9.512 12.8107 10.952C12.8107 12.008 13.6627 12.608 14.5867 12.872C13.5907 13.172 12.6787 13.904 12.6787 14.972C12.6787 16.34 13.9627 17.144 15.5467 17.144ZM15.5467 12.464C15.0667 12.38 13.8067 12.056 13.8067 11.084C13.8067 10.256 14.5747 9.764 15.5467 9.764C16.5067 9.764 17.2867 10.256 17.2867 11.084C17.2867 12.056 16.0387 12.38 15.5467 12.464ZM15.5467 16.256C14.5507 16.256 13.6747 15.728 13.6747 14.864C13.6747 13.82 15.0547 13.376 15.5467 13.316C16.0387 13.376 17.4067 13.82 17.4067 14.864C17.4067 15.728 16.5307 16.256 15.5467 16.256Z" fill="#252531"/>
<path d="M49.144 17V16.112H45.22C47.452 14.348 49.108 12.86 49.108 11.228C49.108 9.632 47.752 8.876 46.42 8.876C45.292 8.876 44.248 9.332 43.636 10.136L44.248 10.772C44.716 10.172 45.46 9.764 46.42 9.764C47.248 9.764 48.088 10.208 48.088 11.228C48.088 12.608 46.528 13.94 43.648 16.208V17H49.144ZM53.2827 17.132C55.5267 17.132 56.5347 15.164 56.5347 13.004C56.5347 10.82 55.6827 8.864 53.4387 8.864C51.6987 8.864 50.6427 10.1 50.6427 11.48C50.6427 13.184 51.8307 14.036 53.2707 14.036C54.2907 14.036 55.1787 13.34 55.5267 12.788C55.5387 12.896 55.5387 13.004 55.5387 13.112C55.5387 14.624 54.9027 16.244 53.2827 16.244C52.4547 16.244 51.9747 15.908 51.5667 15.428L51.0627 16.172C51.5667 16.748 52.2627 17.132 53.2827 17.132ZM53.4987 13.172C52.4667 13.172 51.6507 12.62 51.6507 11.444C51.6507 10.688 52.2627 9.752 53.4867 9.752C54.8787 9.752 55.4067 10.988 55.4907 11.984C55.0707 12.692 54.2907 13.172 53.4987 13.172Z" fill="#252531"/>
<path d="M82.192 17.144C83.956 17.144 85.024 16.172 85.024 14.84C85.024 13.556 83.908 12.932 83.176 12.872C83.932 12.74 84.904 12.164 84.904 11.012C84.904 9.656 83.728 8.876 82.192 8.876C80.956 8.876 80.032 9.416 79.456 10.112L80.008 10.736C80.596 10.1 81.244 9.764 82.12 9.764C83.092 9.764 83.908 10.244 83.908 11.132C83.908 12.056 83.056 12.452 82.048 12.452C81.724 12.452 81.352 12.452 81.22 12.44V13.352C81.34 13.34 81.712 13.34 82.048 13.34C83.224 13.34 84.04 13.76 84.04 14.756C84.04 15.68 83.332 16.256 82.168 16.256C81.22 16.256 80.404 15.824 79.936 15.2L79.348 15.824C79.84 16.544 80.836 17.144 82.192 17.144ZM89.3517 17.144C91.5357 17.144 92.4117 14.948 92.4117 13.004C92.4117 11.048 91.5357 8.876 89.3517 8.876C87.1557 8.876 86.2917 11.048 86.2917 13.004C86.2917 14.948 87.1557 17.144 89.3517 17.144ZM89.3517 16.256C87.8277 16.256 87.3117 14.6 87.3117 13.004C87.3117 11.408 87.8277 9.764 89.3517 9.764C90.8757 9.764 91.3917 11.408 91.3917 13.004C91.3917 14.6 90.8757 16.256 89.3517 16.256Z" fill="#252531"/>
<path d="M120.192 17.144C121.956 17.144 123.024 16.172 123.024 14.84C123.024 13.556 121.908 12.932 121.176 12.872C121.932 12.74 122.904 12.164 122.904 11.012C122.904 9.656 121.728 8.876 120.192 8.876C118.956 8.876 118.032 9.416 117.456 10.112L118.008 10.736C118.596 10.1 119.244 9.764 120.12 9.764C121.092 9.764 121.908 10.244 121.908 11.132C121.908 12.056 121.056 12.452 120.048 12.452C119.724 12.452 119.352 12.452 119.22 12.44V13.352C119.34 13.34 119.712 13.34 120.048 13.34C121.224 13.34 122.04 13.76 122.04 14.756C122.04 15.68 121.332 16.256 120.168 16.256C119.22 16.256 118.404 15.824 117.936 15.2L117.348 15.824C117.84 16.544 118.836 17.144 120.192 17.144ZM126.812 17V8.996H125.936L123.932 11.06L124.532 11.672L125.816 10.316V17H126.812Z" fill="#252531"/>
<path d="M160.132 17V8.996H159.256L157.252 11.06L157.852 11.672L159.136 10.316V17H160.132Z" fill="#252531"/>
<path d="M194.144 17V16.112H190.22C192.452 14.348 194.108 12.86 194.108 11.228C194.108 9.632 192.752 8.876 191.42 8.876C190.292 8.876 189.248 9.332 188.636 10.136L189.248 10.772C189.716 10.172 190.46 9.764 191.42 9.764C192.248 9.764 193.088 10.208 193.088 11.228C193.088 12.608 191.528 13.94 188.648 16.208V17H194.144Z" fill="#252531"/>
<path d="M220.192 17.144C221.956 17.144 223.024 16.172 223.024 14.84C223.024 13.556 221.908 12.932 221.176 12.872C221.932 12.74 222.904 12.164 222.904 11.012C222.904 9.656 221.728 8.876 220.192 8.876C218.956 8.876 218.032 9.416 217.456 10.112L218.008 10.736C218.596 10.1 219.244 9.764 220.12 9.764C221.092 9.764 221.908 10.244 221.908 11.132C221.908 12.056 221.056 12.452 220.048 12.452C219.724 12.452 219.352 12.452 219.22 12.44V13.352C219.34 13.34 219.712 13.34 220.048 13.34C221.224 13.34 222.04 13.76 222.04 14.756C222.04 15.68 221.332 16.256 220.168 16.256C219.22 16.256 218.404 15.824 217.936 15.2L217.348 15.824C217.84 16.544 218.836 17.144 220.192 17.144Z" fill="#252531"/>
<path d="M14.184 48V45.972H15.312V45.096H14.184V39.996H12.816L9.384 45.144V45.972H13.188V48H14.184ZM13.188 45.096H10.38L13.188 40.92V45.096Z" fill="#252531"/>
<path d="M50.612 48.144C52.22 48.144 53.456 47.136 53.456 45.504C53.456 43.86 52.244 42.948 50.912 42.948C50.108 42.948 49.424 43.284 49.04 43.668V40.884H52.94V39.996H48.044V44.316L48.776 44.568C49.316 44.04 49.916 43.812 50.624 43.812C51.704 43.812 52.46 44.484 52.46 45.54C52.46 46.512 51.704 47.256 50.612 47.256C49.628 47.256 48.932 46.872 48.404 46.2L47.792 46.86C48.392 47.652 49.256 48.144 50.612 48.144Z" fill="#252531"/>
<path d="M84.696 48.144C86.448 48.144 87.504 46.92 87.504 45.528C87.504 43.824 86.328 42.972 84.888 42.972C83.856 42.972 82.968 43.668 82.62 44.22C82.608 44.112 82.608 44.016 82.608 43.908C82.608 42.336 83.316 40.764 84.864 40.764C85.704 40.764 86.172 41.1 86.58 41.58L87.084 40.836C86.592 40.272 85.896 39.876 84.864 39.876C82.62 39.876 81.612 41.844 81.612 44.016C81.612 46.188 82.464 48.144 84.696 48.144ZM84.66 47.256C83.268 47.256 82.74 46.032 82.644 45.036C83.088 44.328 83.856 43.836 84.648 43.836C85.68 43.836 86.496 44.388 86.496 45.564C86.496 46.332 85.896 47.256 84.66 47.256Z" fill="#252531"/>
<path d="M121.556 48L124.832 40.68V39.996H119.372V40.884H123.68L120.452 48H121.556Z" fill="#252531"/>
<path d="M159.492 48.144C161.064 48.144 162.36 47.328 162.36 45.972C162.36 44.904 161.448 44.172 160.452 43.872C161.376 43.608 162.24 43.008 162.24 41.952C162.24 40.512 160.812 39.876 159.492 39.876C158.16 39.876 156.756 40.512 156.756 41.952C156.756 43.008 157.608 43.608 158.532 43.872C157.536 44.172 156.624 44.904 156.624 45.972C156.624 47.34 157.908 48.144 159.492 48.144ZM159.492 43.464C159.012 43.38 157.752 43.056 157.752 42.084C157.752 41.256 158.52 40.764 159.492 40.764C160.452 40.764 161.232 41.256 161.232 42.084C161.232 43.056 159.984 43.38 159.492 43.464ZM159.492 47.256C158.496 47.256 157.62 46.728 157.62 45.864C157.62 44.82 159 44.376 159.492 44.316C159.984 44.376 161.352 44.82 161.352 45.864C161.352 46.728 160.476 47.256 159.492 47.256Z" fill="#252531"/>
<path d="M191.228 48.132C193.472 48.132 194.48 46.164 194.48 44.004C194.48 41.82 193.628 39.864 191.384 39.864C189.644 39.864 188.588 41.1 188.588 42.48C188.588 44.184 189.776 45.036 191.216 45.036C192.236 45.036 193.124 44.34 193.472 43.788C193.484 43.896 193.484 44.004 193.484 44.112C193.484 45.624 192.848 47.244 191.228 47.244C190.4 47.244 189.92 46.908 189.512 46.428L189.008 47.172C189.512 47.748 190.208 48.132 191.228 48.132ZM191.444 44.172C190.412 44.172 189.596 43.62 189.596 42.444C189.596 41.688 190.208 40.752 191.432 40.752C192.824 40.752 193.352 41.988 193.436 42.984C193.016 43.692 192.236 44.172 191.444 44.172Z" fill="#252531"/>
<path d="M218.132 48V39.996H217.256L215.252 42.06L215.852 42.672L217.136 41.316V48H218.132ZM222.738 48.144C224.922 48.144 225.798 45.948 225.798 44.004C225.798 42.048 224.922 39.876 222.738 39.876C220.542 39.876 219.678 42.048 219.678 44.004C219.678 45.948 220.542 48.144 222.738 48.144ZM222.738 47.256C221.214 47.256 220.698 45.6 220.698 44.004C220.698 42.408 221.214 40.764 222.738 40.764C224.262 40.764 224.778 42.408 224.778 44.004C224.778 45.6 224.262 47.256 222.738 47.256Z" fill="#252531"/>
<path d="M12.132 79V70.996H11.256L9.252 73.06L9.852 73.672L11.136 72.316V79H12.132ZM16.1984 79V70.996H15.3224L13.3184 73.06L13.9184 73.672L15.2024 72.316V79H16.1984Z" fill="#252531"/>
<path d="M162.144 114V113.112H158.22C160.452 111.348 162.108 109.86 162.108 108.228C162.108 106.632 160.752 105.876 159.42 105.876C158.292 105.876 157.248 106.332 156.636 107.136L157.248 107.772C157.716 107.172 158.46 106.764 159.42 106.764C160.248 106.764 161.088 107.208 161.088 108.228C161.088 109.608 159.528 110.94 156.648 113.208V114H162.144ZM169.199 114V113.112H165.275C167.507 111.348 169.163 109.86 169.163 108.228C169.163 106.632 167.807 105.876 166.475 105.876C165.347 105.876 164.303 106.332 163.691 107.136L164.303 107.772C164.771 107.172 165.515 106.764 166.475 106.764C167.303 106.764 168.143 107.208 168.143 108.228C168.143 109.608 166.583 110.94 163.703 113.208V114H169.199Z" fill="#252531"/>
<path d="M194.144 114V113.112H190.22C192.452 111.348 194.108 109.86 194.108 108.228C194.108 106.632 192.752 105.876 191.42 105.876C190.292 105.876 189.248 106.332 188.636 107.136L189.248 107.772C189.716 107.172 190.46 106.764 191.42 106.764C192.248 106.764 193.088 107.208 193.088 108.228C193.088 109.608 191.528 110.94 188.648 113.208V114H194.144ZM198.247 114.144C200.011 114.144 201.079 113.172 201.079 111.84C201.079 110.556 199.963 109.932 199.231 109.872C199.987 109.74 200.959 109.164 200.959 108.012C200.959 106.656 199.783 105.876 198.247 105.876C197.011 105.876 196.087 106.416 195.511 107.112L196.063 107.736C196.651 107.1 197.299 106.764 198.175 106.764C199.147 106.764 199.963 107.244 199.963 108.132C199.963 109.056 199.111 109.452 198.103 109.452C197.779 109.452 197.407 109.452 197.275 109.44V110.352C197.395 110.34 197.767 110.34 198.103 110.34C199.279 110.34 200.095 110.76 200.095 111.756C200.095 112.68 199.387 113.256 198.223 113.256C197.275 113.256 196.459 112.824 195.991 112.2L195.403 112.824C195.895 113.544 196.891 114.144 198.247 114.144Z" fill="#252531"/>
<path d="M221.144 114V113.112H217.22C219.452 111.348 221.108 109.86 221.108 108.228C221.108 106.632 219.752 105.876 218.42 105.876C217.292 105.876 216.248 106.332 215.636 107.136L216.248 107.772C216.716 107.172 217.46 106.764 218.42 106.764C219.248 106.764 220.088 107.208 220.088 108.228C220.088 109.608 218.528 110.94 215.648 113.208V114H221.144ZM227.239 114V111.972H228.367V111.096H227.239V105.996H225.871L222.439 111.144V111.972H226.243V114H227.239ZM226.243 111.096H223.435L226.243 106.92V111.096Z" fill="#252531"/>
<path d="M125.144 114V113.112H121.22C123.452 111.348 125.108 109.86 125.108 108.228C125.108 106.632 123.752 105.876 122.42 105.876C121.292 105.876 120.248 106.332 119.636 107.136L120.248 107.772C120.716 107.172 121.46 106.764 122.42 106.764C123.248 106.764 124.088 107.208 124.088 108.228C124.088 109.608 122.528 110.94 119.648 113.208V114H125.144ZM129.187 114V105.996H128.311L126.307 108.06L126.907 108.672L128.191 107.316V114H129.187Z" fill="#252531"/>
<path d="M50.132 79V70.996H49.256L47.252 73.06L47.852 73.672L49.136 72.316V79H50.132ZM57.2104 79V78.112H53.2864C55.5184 76.348 57.1744 74.86 57.1744 73.228C57.1744 71.632 55.8184 70.876 54.4864 70.876C53.3584 70.876 52.3144 71.332 51.7024 72.136L52.3144 72.772C52.7824 72.172 53.5264 71.764 54.4864 71.764C55.3144 71.764 56.1544 72.208 56.1544 73.228C56.1544 74.608 54.5944 75.94 51.7144 78.208V79H57.2104Z" fill="#252531"/>
<path d="M84.132 79V70.996H83.256L81.252 73.06L81.852 73.672L83.136 72.316V79H84.132ZM88.2584 79.144C90.0224 79.144 91.0904 78.172 91.0904 76.84C91.0904 75.556 89.9744 74.932 89.2424 74.872C89.9984 74.74 90.9704 74.164 90.9704 73.012C90.9704 71.656 89.7944 70.876 88.2584 70.876C87.0224 70.876 86.0984 71.416 85.5224 72.112L86.0744 72.736C86.6624 72.1 87.3104 71.764 88.1864 71.764C89.1584 71.764 89.9744 72.244 89.9744 73.132C89.9744 74.056 89.1224 74.452 88.1144 74.452C87.7904 74.452 87.4184 74.452 87.2864 74.44V75.352C87.4064 75.34 87.7784 75.34 88.1144 75.34C89.2904 75.34 90.1064 75.76 90.1064 76.756C90.1064 77.68 89.3984 78.256 88.2344 78.256C87.2864 78.256 86.4704 77.824 86.0024 77.2L85.4144 77.824C85.9064 78.544 86.9024 79.144 88.2584 79.144Z" fill="#252531"/>
<path d="M159.132 79V70.996H158.256L156.252 73.06L156.852 73.672L158.136 72.316V79H159.132ZM163.678 79.144C165.286 79.144 166.522 78.136 166.522 76.504C166.522 74.86 165.31 73.948 163.978 73.948C163.174 73.948 162.49 74.284 162.106 74.668V71.884H166.006V70.996H161.11V75.316L161.842 75.568C162.382 75.04 162.982 74.812 163.69 74.812C164.77 74.812 165.526 75.484 165.526 76.54C165.526 77.512 164.77 78.256 163.678 78.256C162.694 78.256 161.998 77.872 161.47 77.2L160.858 77.86C161.458 78.652 162.322 79.144 163.678 79.144Z" fill="#252531"/>
<path d="M191.132 79V70.996H190.256L188.252 73.06L188.852 73.672L190.136 72.316V79H191.132ZM195.762 79.144C197.514 79.144 198.57 77.92 198.57 76.528C198.57 74.824 197.394 73.972 195.954 73.972C194.922 73.972 194.034 74.668 193.686 75.22C193.674 75.112 193.674 75.016 193.674 74.908C193.674 73.336 194.382 71.764 195.93 71.764C196.77 71.764 197.238 72.1 197.646 72.58L198.15 71.836C197.658 71.272 196.962 70.876 195.93 70.876C193.686 70.876 192.678 72.844 192.678 75.016C192.678 77.188 193.53 79.144 195.762 79.144ZM195.726 78.256C194.334 78.256 193.806 77.032 193.71 76.036C194.154 75.328 194.922 74.836 195.714 74.836C196.746 74.836 197.562 75.388 197.562 76.564C197.562 77.332 196.962 78.256 195.726 78.256Z" fill="#252531"/>
<path d="M219.132 79V70.996H218.256L216.252 73.06L216.852 73.672L218.136 72.316V79H219.132ZM222.622 79L225.898 71.68V70.996H220.438V71.884H224.746L221.518 79H222.622Z" fill="#252531"/>
<path d="M12.132 114V105.996H11.256L9.252 108.06L9.852 108.672L11.136 107.316V114H12.132ZM16.5584 114.144C18.1304 114.144 19.4264 113.328 19.4264 111.972C19.4264 110.904 18.5144 110.172 17.5184 109.872C18.4424 109.608 19.3064 109.008 19.3064 107.952C19.3064 106.512 17.8784 105.876 16.5584 105.876C15.2264 105.876 13.8224 106.512 13.8224 107.952C13.8224 109.008 14.6744 109.608 15.5984 109.872C14.6024 110.172 13.6904 110.904 13.6904 111.972C13.6904 113.34 14.9744 114.144 16.5584 114.144ZM16.5584 109.464C16.0784 109.38 14.8184 109.056 14.8184 108.084C14.8184 107.256 15.5864 106.764 16.5584 106.764C17.5184 106.764 18.2984 107.256 18.2984 108.084C18.2984 109.056 17.0504 109.38 16.5584 109.464ZM16.5584 113.256C15.5624 113.256 14.6864 112.728 14.6864 111.864C14.6864 110.82 16.0664 110.376 16.5584 110.316C17.0504 110.376 18.4184 110.82 18.4184 111.864C18.4184 112.728 17.5424 113.256 16.5584 113.256Z" fill="#252531"/>
<path d="M50.132 114V105.996H49.256L47.252 108.06L47.852 108.672L49.136 107.316V114H50.132ZM54.2944 114.132C56.5384 114.132 57.5464 112.164 57.5464 110.004C57.5464 107.82 56.6944 105.864 54.4504 105.864C52.7104 105.864 51.6544 107.1 51.6544 108.48C51.6544 110.184 52.8424 111.036 54.2824 111.036C55.3024 111.036 56.1904 110.34 56.5384 109.788C56.5504 109.896 56.5504 110.004 56.5504 110.112C56.5504 111.624 55.9144 113.244 54.2944 113.244C53.4664 113.244 52.9864 112.908 52.5784 112.428L52.0744 113.172C52.5784 113.748 53.2744 114.132 54.2944 114.132ZM54.5104 110.172C53.4784 110.172 52.6624 109.62 52.6624 108.444C52.6624 107.688 53.2744 106.752 54.4984 106.752C55.8904 106.752 56.4184 107.988 56.5024 108.984C56.0824 109.692 55.3024 110.172 54.5104 110.172Z" fill="#252531"/>
<path d="M87.144 114V113.112H83.22C85.452 111.348 87.108 109.86 87.108 108.228C87.108 106.632 85.752 105.876 84.42 105.876C83.292 105.876 82.248 106.332 81.636 107.136L82.248 107.772C82.716 107.172 83.46 106.764 84.42 106.764C85.248 106.764 86.088 107.208 86.088 108.228C86.088 109.608 84.528 110.94 81.648 113.208V114H87.144ZM91.7267 114.144C93.9107 114.144 94.7867 111.948 94.7867 110.004C94.7867 108.048 93.9107 105.876 91.7267 105.876C89.5307 105.876 88.6667 108.048 88.6667 110.004C88.6667 111.948 89.5307 114.144 91.7267 114.144ZM91.7267 113.256C90.2027 113.256 89.6867 111.6 89.6867 110.004C89.6867 108.408 90.2027 106.764 91.7267 106.764C93.2507 106.764 93.7667 108.408 93.7667 110.004C93.7667 111.6 93.2507 113.256 91.7267 113.256Z" fill="#252531"/>
<path d="M53.144 149V148.112H49.22C51.452 146.348 53.108 144.86 53.108 143.228C53.108 141.632 51.752 140.876 50.42 140.876C49.292 140.876 48.248 141.332 47.636 142.136L48.248 142.772C48.716 142.172 49.46 141.764 50.42 141.764C51.248 141.764 52.088 142.208 52.088 143.228C52.088 144.608 50.528 145.94 47.648 148.208V149H53.144ZM57.7507 149.144C59.5027 149.144 60.5587 147.92 60.5587 146.528C60.5587 144.824 59.3827 143.972 57.9427 143.972C56.9107 143.972 56.0227 144.668 55.6747 145.22C55.6627 145.112 55.6627 145.016 55.6627 144.908C55.6627 143.336 56.3707 141.764 57.9187 141.764C58.7587 141.764 59.2267 142.1 59.6347 142.58L60.1387 141.836C59.6467 141.272 58.9507 140.876 57.9187 140.876C55.6747 140.876 54.6667 142.844 54.6667 145.016C54.6667 147.188 55.5187 149.144 57.7507 149.144ZM57.7147 148.256C56.3227 148.256 55.7947 147.032 55.6987 146.036C56.1427 145.328 56.9107 144.836 57.7027 144.836C58.7347 144.836 59.5507 145.388 59.5507 146.564C59.5507 147.332 58.9507 148.256 57.7147 148.256Z" fill="#252531"/>
<path d="M87.144 149V148.112H83.22C85.452 146.348 87.108 144.86 87.108 143.228C87.108 141.632 85.752 140.876 84.42 140.876C83.292 140.876 82.248 141.332 81.636 142.136L82.248 142.772C82.716 142.172 83.46 141.764 84.42 141.764C85.248 141.764 86.088 142.208 86.088 143.228C86.088 144.608 84.528 145.94 81.648 148.208V149H87.144ZM90.6107 149L93.8867 141.68V140.996H88.4267V141.884H92.7347L89.5067 149H90.6107Z" fill="#252531"/>
<path d="M125.144 149V148.112H121.22C123.452 146.348 125.108 144.86 125.108 143.228C125.108 141.632 123.752 140.876 122.42 140.876C121.292 140.876 120.248 141.332 119.636 142.136L120.248 142.772C120.716 142.172 121.46 141.764 122.42 141.764C123.248 141.764 124.088 142.208 124.088 143.228C124.088 144.608 122.528 145.94 119.648 148.208V149H125.144ZM129.547 149.144C131.119 149.144 132.415 148.328 132.415 146.972C132.415 145.904 131.503 145.172 130.507 144.872C131.431 144.608 132.295 144.008 132.295 142.952C132.295 141.512 130.867 140.876 129.547 140.876C128.215 140.876 126.811 141.512 126.811 142.952C126.811 144.008 127.663 144.608 128.587 144.872C127.591 145.172 126.679 145.904 126.679 146.972C126.679 148.34 127.963 149.144 129.547 149.144ZM129.547 144.464C129.067 144.38 127.807 144.056 127.807 143.084C127.807 142.256 128.575 141.764 129.547 141.764C130.507 141.764 131.287 142.256 131.287 143.084C131.287 144.056 130.039 144.38 129.547 144.464ZM129.547 148.256C128.551 148.256 127.675 147.728 127.675 146.864C127.675 145.82 129.055 145.376 129.547 145.316C130.039 145.376 131.407 145.82 131.407 146.864C131.407 147.728 130.531 148.256 129.547 148.256Z" fill="#252531"/>
<path d="M162.144 149V148.112H158.22C160.452 146.348 162.108 144.86 162.108 143.228C162.108 141.632 160.752 140.876 159.42 140.876C158.292 140.876 157.248 141.332 156.636 142.136L157.248 142.772C157.716 142.172 158.46 141.764 159.42 141.764C160.248 141.764 161.088 142.208 161.088 143.228C161.088 144.608 159.528 145.94 156.648 148.208V149H162.144ZM166.283 149.132C168.527 149.132 169.535 147.164 169.535 145.004C169.535 142.82 168.683 140.864 166.439 140.864C164.699 140.864 163.643 142.1 163.643 143.48C163.643 145.184 164.831 146.036 166.271 146.036C167.291 146.036 168.179 145.34 168.527 144.788C168.539 144.896 168.539 145.004 168.539 145.112C168.539 146.624 167.903 148.244 166.283 148.244C165.455 148.244 164.975 147.908 164.567 147.428L164.063 148.172C164.567 148.748 165.263 149.132 166.283 149.132ZM166.499 145.172C165.467 145.172 164.651 144.62 164.651 143.444C164.651 142.688 165.263 141.752 166.487 141.752C167.879 141.752 168.407 142.988 168.491 143.984C168.071 144.692 167.291 145.172 166.499 145.172Z" fill="#252531"/>
<path d="M191.192 149.144C192.956 149.144 194.024 148.172 194.024 146.84C194.024 145.556 192.908 144.932 192.176 144.872C192.932 144.74 193.904 144.164 193.904 143.012C193.904 141.656 192.728 140.876 191.192 140.876C189.956 140.876 189.032 141.416 188.456 142.112L189.008 142.736C189.596 142.1 190.244 141.764 191.12 141.764C192.092 141.764 192.908 142.244 192.908 143.132C192.908 144.056 192.056 144.452 191.048 144.452C190.724 144.452 190.352 144.452 190.22 144.44V145.352C190.34 145.34 190.712 145.34 191.048 145.34C192.224 145.34 193.04 145.76 193.04 146.756C193.04 147.68 192.332 148.256 191.168 148.256C190.22 148.256 189.404 147.824 188.936 147.2L188.348 147.824C188.84 148.544 189.836 149.144 191.192 149.144ZM198.352 149.144C200.536 149.144 201.412 146.948 201.412 145.004C201.412 143.048 200.536 140.876 198.352 140.876C196.156 140.876 195.292 143.048 195.292 145.004C195.292 146.948 196.156 149.144 198.352 149.144ZM198.352 148.256C196.828 148.256 196.312 146.6 196.312 145.004C196.312 143.408 196.828 141.764 198.352 141.764C199.876 141.764 200.392 143.408 200.392 145.004C200.392 146.6 199.876 148.256 198.352 148.256Z" fill="#252531"/>
<path d="M218.192 149.144C219.956 149.144 221.024 148.172 221.024 146.84C221.024 145.556 219.908 144.932 219.176 144.872C219.932 144.74 220.904 144.164 220.904 143.012C220.904 141.656 219.728 140.876 218.192 140.876C216.956 140.876 216.032 141.416 215.456 142.112L216.008 142.736C216.596 142.1 217.244 141.764 218.12 141.764C219.092 141.764 219.908 142.244 219.908 143.132C219.908 144.056 219.056 144.452 218.048 144.452C217.724 144.452 217.352 144.452 217.22 144.44V145.352C217.34 145.34 217.712 145.34 218.048 145.34C219.224 145.34 220.04 145.76 220.04 146.756C220.04 147.68 219.332 148.256 218.168 148.256C217.22 148.256 216.404 147.824 215.936 147.2L215.348 147.824C215.84 148.544 216.836 149.144 218.192 149.144ZM224.812 149V140.996H223.936L221.932 143.06L222.532 143.672L223.816 142.316V149H224.812Z" fill="#252531"/>
<path d="M15.144 149V148.112H11.22C13.452 146.348 15.108 144.86 15.108 143.228C15.108 141.632 13.752 140.876 12.42 140.876C11.292 140.876 10.248 141.332 9.636 142.136L10.248 142.772C10.716 142.172 11.46 141.764 12.42 141.764C13.248 141.764 14.088 142.208 14.088 143.228C14.088 144.608 12.528 145.94 9.648 148.208V149H15.144ZM19.6667 149.144C21.2747 149.144 22.5107 148.136 22.5107 146.504C22.5107 144.86 21.2987 143.948 19.9667 143.948C19.1627 143.948 18.4787 144.284 18.0947 144.668V141.884H21.9947V140.996H17.0987V145.316L17.8307 145.568C18.3707 145.04 18.9707 144.812 19.6787 144.812C20.7587 144.812 21.5147 145.484 21.5147 146.54C21.5147 147.512 20.7587 148.256 19.6667 148.256C18.6827 148.256 17.9867 147.872 17.4587 147.2L16.8467 147.86C17.4467 148.652 18.3107 149.144 19.6667 149.144Z" fill="#252531"/>
<rect x="38" y="60" width="30" height="30" rx="15" fill="#24A3FF"/>
<path d="M50.708 79H49.304V72.82L47.996 74.176L47.18 73.324L49.484 70.996H50.708V79ZM57.9546 79H52.1586V77.896C53.8306 76.632 54.9666 75.696 55.5666 75.088C56.1746 74.472 56.4786 73.892 56.4786 73.348C56.4786 72.956 56.3346 72.656 56.0466 72.448C55.7666 72.232 55.4266 72.124 55.0266 72.124C54.1466 72.124 53.4266 72.444 52.8666 73.084L52.0506 72.16C52.3946 71.744 52.8266 71.428 53.3466 71.212C53.8746 70.988 54.4266 70.876 55.0026 70.876C55.8186 70.876 56.5066 71.096 57.0666 71.536C57.6266 71.976 57.9066 72.58 57.9066 73.348C57.9066 74.036 57.6186 74.72 57.0426 75.4C56.4666 76.08 55.5866 76.868 54.4026 77.764H57.9546V79Z" fill="white"/>
<path d="M120.132 79V70.996H119.256L117.252 73.06L117.852 73.672L119.136 72.316V79H120.132ZM126.25 79V76.972H127.378V76.096H126.25V70.996H124.882L121.45 76.144V76.972H125.254V79H126.25ZM125.254 76.096H122.446L125.254 71.92V76.096Z" fill="#252531"/>
</svg>
