<svg width="224" height="151" viewBox="0 0 224 151" fill="none" xmlns="http://www.w3.org/2000/svg">
<path d="M6.144 11V10.112H2.22C4.452 8.348 6.108 6.86 6.108 5.228C6.108 3.632 4.752 2.876 3.42 2.876C2.292 2.876 1.248 3.332 0.636 4.136L1.248 4.772C1.716 4.172 2.46 3.764 3.42 3.764C4.248 3.764 5.088 4.208 5.088 5.228C5.088 6.608 3.528 7.94 0.648 10.208V11H6.144ZM10.5467 11.144C12.1187 11.144 13.4147 10.328 13.4147 8.972C13.4147 7.904 12.5027 7.172 11.5067 6.872C12.4307 6.608 13.2947 6.008 13.2947 4.952C13.2947 3.512 11.8667 2.876 10.5467 2.876C9.21469 2.876 7.81069 3.512 7.81069 4.952C7.81069 6.008 8.66269 6.608 9.58669 6.872C8.59069 7.172 7.67869 7.904 7.67869 8.972C7.67869 10.34 8.96269 11.144 10.5467 11.144ZM10.5467 6.464C10.0667 6.38 8.80669 6.056 8.80669 5.084C8.80669 4.256 9.57469 3.764 10.5467 3.764C11.5067 3.764 12.2867 4.256 12.2867 5.084C12.2867 6.056 11.0387 6.38 10.5467 6.464ZM10.5467 10.256C9.55069 10.256 8.67469 9.728 8.67469 8.864C8.67469 7.82 10.0547 7.376 10.5467 7.316C11.0387 7.376 12.4067 7.82 12.4067 8.864C12.4067 9.728 11.5307 10.256 10.5467 10.256Z" fill="#252531"/>
<path d="M44.144 11V10.112H40.22C42.452 8.348 44.108 6.86 44.108 5.228C44.108 3.632 42.752 2.876 41.42 2.876C40.292 2.876 39.248 3.332 38.636 4.136L39.248 4.772C39.716 4.172 40.46 3.764 41.42 3.764C42.248 3.764 43.088 4.208 43.088 5.228C43.088 6.608 41.528 7.94 38.648 10.208V11H44.144ZM48.2827 11.132C50.5267 11.132 51.5347 9.164 51.5347 7.004C51.5347 4.82 50.6827 2.864 48.4387 2.864C46.6987 2.864 45.6427 4.1 45.6427 5.48C45.6427 7.184 46.8307 8.036 48.2707 8.036C49.2907 8.036 50.1787 7.34 50.5267 6.788C50.5387 6.896 50.5387 7.004 50.5387 7.112C50.5387 8.624 49.9027 10.244 48.2827 10.244C47.4547 10.244 46.9747 9.908 46.5667 9.428L46.0627 10.172C46.5667 10.748 47.2627 11.132 48.2827 11.132ZM48.4987 7.172C47.4667 7.172 46.6507 6.62 46.6507 5.444C46.6507 4.688 47.2627 3.752 48.4867 3.752C49.8787 3.752 50.4067 4.988 50.4907 5.984C50.0707 6.692 49.2907 7.172 48.4987 7.172Z" fill="#252531"/>
<path d="M77.192 11.144C78.956 11.144 80.024 10.172 80.024 8.84C80.024 7.556 78.908 6.932 78.176 6.872C78.932 6.74 79.904 6.164 79.904 5.012C79.904 3.656 78.728 2.876 77.192 2.876C75.956 2.876 75.032 3.416 74.456 4.112L75.008 4.736C75.596 4.1 76.244 3.764 77.12 3.764C78.092 3.764 78.908 4.244 78.908 5.132C78.908 6.056 78.056 6.452 77.048 6.452C76.724 6.452 76.352 6.452 76.22 6.44V7.352C76.34 7.34 76.712 7.34 77.048 7.34C78.224 7.34 79.04 7.76 79.04 8.756C79.04 9.68 78.332 10.256 77.168 10.256C76.22 10.256 75.404 9.824 74.936 9.2L74.348 9.824C74.84 10.544 75.836 11.144 77.192 11.144ZM84.3517 11.144C86.5357 11.144 87.4117 8.948 87.4117 7.004C87.4117 5.048 86.5357 2.876 84.3517 2.876C82.1557 2.876 81.2917 5.048 81.2917 7.004C81.2917 8.948 82.1557 11.144 84.3517 11.144ZM84.3517 10.256C82.8277 10.256 82.3117 8.6 82.3117 7.004C82.3117 5.408 82.8277 3.764 84.3517 3.764C85.8757 3.764 86.3917 5.408 86.3917 7.004C86.3917 8.6 85.8757 10.256 84.3517 10.256Z" fill="#252531"/>
<path d="M115.192 11.144C116.956 11.144 118.024 10.172 118.024 8.84C118.024 7.556 116.908 6.932 116.176 6.872C116.932 6.74 117.904 6.164 117.904 5.012C117.904 3.656 116.728 2.876 115.192 2.876C113.956 2.876 113.032 3.416 112.456 4.112L113.008 4.736C113.596 4.1 114.244 3.764 115.12 3.764C116.092 3.764 116.908 4.244 116.908 5.132C116.908 6.056 116.056 6.452 115.048 6.452C114.724 6.452 114.352 6.452 114.22 6.44V7.352C114.34 7.34 114.712 7.34 115.048 7.34C116.224 7.34 117.04 7.76 117.04 8.756C117.04 9.68 116.332 10.256 115.168 10.256C114.22 10.256 113.404 9.824 112.936 9.2L112.348 9.824C112.84 10.544 113.836 11.144 115.192 11.144ZM121.812 11V2.996H120.936L118.932 5.06L119.532 5.672L120.816 4.316V11H121.812Z" fill="#252531"/>
<path d="M155.132 11V2.996H154.256L152.252 5.06L152.852 5.672L154.136 4.316V11H155.132Z" fill="#252531"/>
<path d="M189.144 11V10.112H185.22C187.452 8.348 189.108 6.86 189.108 5.228C189.108 3.632 187.752 2.876 186.42 2.876C185.292 2.876 184.248 3.332 183.636 4.136L184.248 4.772C184.716 4.172 185.46 3.764 186.42 3.764C187.248 3.764 188.088 4.208 188.088 5.228C188.088 6.608 186.528 7.94 183.648 10.208V11H189.144Z" fill="#252531"/>
<path d="M215.192 11.144C216.956 11.144 218.024 10.172 218.024 8.84C218.024 7.556 216.908 6.932 216.176 6.872C216.932 6.74 217.904 6.164 217.904 5.012C217.904 3.656 216.728 2.876 215.192 2.876C213.956 2.876 213.032 3.416 212.456 4.112L213.008 4.736C213.596 4.1 214.244 3.764 215.12 3.764C216.092 3.764 216.908 4.244 216.908 5.132C216.908 6.056 216.056 6.452 215.048 6.452C214.724 6.452 214.352 6.452 214.22 6.44V7.352C214.34 7.34 214.712 7.34 215.048 7.34C216.224 7.34 217.04 7.76 217.04 8.756C217.04 9.68 216.332 10.256 215.168 10.256C214.22 10.256 213.404 9.824 212.936 9.2L212.348 9.824C212.84 10.544 213.836 11.144 215.192 11.144Z" fill="#252531"/>
<path d="M9.184 46V43.972H10.312V43.096H9.184V37.996H7.816L4.384 43.144V43.972H8.188V46H9.184ZM8.188 43.096H5.38L8.188 38.92V43.096Z" fill="#252531"/>
<path d="M45.612 46.144C47.22 46.144 48.456 45.136 48.456 43.504C48.456 41.86 47.244 40.948 45.912 40.948C45.108 40.948 44.424 41.284 44.04 41.668V38.884H47.94V37.996H43.044V42.316L43.776 42.568C44.316 42.04 44.916 41.812 45.624 41.812C46.704 41.812 47.46 42.484 47.46 43.54C47.46 44.512 46.704 45.256 45.612 45.256C44.628 45.256 43.932 44.872 43.404 44.2L42.792 44.86C43.392 45.652 44.256 46.144 45.612 46.144Z" fill="#252531"/>
<path d="M79.696 46.144C81.448 46.144 82.504 44.92 82.504 43.528C82.504 41.824 81.328 40.972 79.888 40.972C78.856 40.972 77.968 41.668 77.62 42.22C77.608 42.112 77.608 42.016 77.608 41.908C77.608 40.336 78.316 38.764 79.864 38.764C80.704 38.764 81.172 39.1 81.58 39.58L82.084 38.836C81.592 38.272 80.896 37.876 79.864 37.876C77.62 37.876 76.612 39.844 76.612 42.016C76.612 44.188 77.464 46.144 79.696 46.144ZM79.66 45.256C78.268 45.256 77.74 44.032 77.644 43.036C78.088 42.328 78.856 41.836 79.648 41.836C80.68 41.836 81.496 42.388 81.496 43.564C81.496 44.332 80.896 45.256 79.66 45.256Z" fill="#252531"/>
<path d="M116.556 46L119.832 38.68V37.996H114.372V38.884H118.68L115.452 46H116.556Z" fill="#252531"/>
<path d="M154.492 46.144C156.064 46.144 157.36 45.328 157.36 43.972C157.36 42.904 156.448 42.172 155.452 41.872C156.376 41.608 157.24 41.008 157.24 39.952C157.24 38.512 155.812 37.876 154.492 37.876C153.16 37.876 151.756 38.512 151.756 39.952C151.756 41.008 152.608 41.608 153.532 41.872C152.536 42.172 151.624 42.904 151.624 43.972C151.624 45.34 152.908 46.144 154.492 46.144ZM154.492 41.464C154.012 41.38 152.752 41.056 152.752 40.084C152.752 39.256 153.52 38.764 154.492 38.764C155.452 38.764 156.232 39.256 156.232 40.084C156.232 41.056 154.984 41.38 154.492 41.464ZM154.492 45.256C153.496 45.256 152.62 44.728 152.62 43.864C152.62 42.82 154 42.376 154.492 42.316C154.984 42.376 156.352 42.82 156.352 43.864C156.352 44.728 155.476 45.256 154.492 45.256Z" fill="#252531"/>
<path d="M186.228 46.132C188.472 46.132 189.48 44.164 189.48 42.004C189.48 39.82 188.628 37.864 186.384 37.864C184.644 37.864 183.588 39.1 183.588 40.48C183.588 42.184 184.776 43.036 186.216 43.036C187.236 43.036 188.124 42.34 188.472 41.788C188.484 41.896 188.484 42.004 188.484 42.112C188.484 43.624 187.848 45.244 186.228 45.244C185.4 45.244 184.92 44.908 184.512 44.428L184.008 45.172C184.512 45.748 185.208 46.132 186.228 46.132ZM186.444 42.172C185.412 42.172 184.596 41.62 184.596 40.444C184.596 39.688 185.208 38.752 186.432 38.752C187.824 38.752 188.352 39.988 188.436 40.984C188.016 41.692 187.236 42.172 186.444 42.172Z" fill="#252531"/>
<path d="M213.132 46V37.996H212.256L210.252 40.06L210.852 40.672L212.136 39.316V46H213.132ZM217.738 46.144C219.922 46.144 220.798 43.948 220.798 42.004C220.798 40.048 219.922 37.876 217.738 37.876C215.542 37.876 214.678 40.048 214.678 42.004C214.678 43.948 215.542 46.144 217.738 46.144ZM217.738 45.256C216.214 45.256 215.698 43.6 215.698 42.004C215.698 40.408 216.214 38.764 217.738 38.764C219.262 38.764 219.778 40.408 219.778 42.004C219.778 43.6 219.262 45.256 217.738 45.256Z" fill="#252531"/>
<path d="M7.132 77V68.996H6.256L4.252 71.06L4.852 71.672L6.136 70.316V77H7.132ZM11.1984 77V68.996H10.3224L8.31841 71.06L8.91841 71.672L10.2024 70.316V77H11.1984Z" fill="#252531"/>
<path d="M157.144 112V111.112H153.22C155.452 109.348 157.108 107.86 157.108 106.228C157.108 104.632 155.752 103.876 154.42 103.876C153.292 103.876 152.248 104.332 151.636 105.136L152.248 105.772C152.716 105.172 153.46 104.764 154.42 104.764C155.248 104.764 156.088 105.208 156.088 106.228C156.088 107.608 154.528 108.94 151.648 111.208V112H157.144ZM164.199 112V111.112H160.275C162.507 109.348 164.163 107.86 164.163 106.228C164.163 104.632 162.807 103.876 161.475 103.876C160.347 103.876 159.303 104.332 158.691 105.136L159.303 105.772C159.771 105.172 160.515 104.764 161.475 104.764C162.303 104.764 163.143 105.208 163.143 106.228C163.143 107.608 161.583 108.94 158.703 111.208V112H164.199Z" fill="#252531"/>
<path d="M189.144 112V111.112H185.22C187.452 109.348 189.108 107.86 189.108 106.228C189.108 104.632 187.752 103.876 186.42 103.876C185.292 103.876 184.248 104.332 183.636 105.136L184.248 105.772C184.716 105.172 185.46 104.764 186.42 104.764C187.248 104.764 188.088 105.208 188.088 106.228C188.088 107.608 186.528 108.94 183.648 111.208V112H189.144ZM193.247 112.144C195.011 112.144 196.079 111.172 196.079 109.84C196.079 108.556 194.963 107.932 194.231 107.872C194.987 107.74 195.959 107.164 195.959 106.012C195.959 104.656 194.783 103.876 193.247 103.876C192.011 103.876 191.087 104.416 190.511 105.112L191.063 105.736C191.651 105.1 192.299 104.764 193.175 104.764C194.147 104.764 194.963 105.244 194.963 106.132C194.963 107.056 194.111 107.452 193.103 107.452C192.779 107.452 192.407 107.452 192.275 107.44V108.352C192.395 108.34 192.767 108.34 193.103 108.34C194.279 108.34 195.095 108.76 195.095 109.756C195.095 110.68 194.387 111.256 193.223 111.256C192.275 111.256 191.459 110.824 190.991 110.2L190.403 110.824C190.895 111.544 191.891 112.144 193.247 112.144Z" fill="#252531"/>
<path d="M216.144 112V111.112H212.22C214.452 109.348 216.108 107.86 216.108 106.228C216.108 104.632 214.752 103.876 213.42 103.876C212.292 103.876 211.248 104.332 210.636 105.136L211.248 105.772C211.716 105.172 212.46 104.764 213.42 104.764C214.248 104.764 215.088 105.208 215.088 106.228C215.088 107.608 213.528 108.94 210.648 111.208V112H216.144ZM222.239 112V109.972H223.367V109.096H222.239V103.996H220.871L217.439 109.144V109.972H221.243V112H222.239ZM221.243 109.096H218.435L221.243 104.92V109.096Z" fill="#252531"/>
<path d="M120.144 112V111.112H116.22C118.452 109.348 120.108 107.86 120.108 106.228C120.108 104.632 118.752 103.876 117.42 103.876C116.292 103.876 115.248 104.332 114.636 105.136L115.248 105.772C115.716 105.172 116.46 104.764 117.42 104.764C118.248 104.764 119.088 105.208 119.088 106.228C119.088 107.608 117.528 108.94 114.648 111.208V112H120.144ZM124.187 112V103.996H123.311L121.307 106.06L121.907 106.672L123.191 105.316V112H124.187Z" fill="#252531"/>
<path d="M45.132 77V68.996H44.256L42.252 71.06L42.852 71.672L44.136 70.316V77H45.132ZM52.2104 77V76.112H48.2864C50.5184 74.348 52.1744 72.86 52.1744 71.228C52.1744 69.632 50.8184 68.876 49.4864 68.876C48.3584 68.876 47.3144 69.332 46.7024 70.136L47.3144 70.772C47.7824 70.172 48.5264 69.764 49.4864 69.764C50.3144 69.764 51.1544 70.208 51.1544 71.228C51.1544 72.608 49.5944 73.94 46.7144 76.208V77H52.2104Z" fill="#252531"/>
<path d="M79.132 77V68.996H78.256L76.252 71.06L76.852 71.672L78.136 70.316V77H79.132ZM83.2584 77.144C85.0224 77.144 86.0904 76.172 86.0904 74.84C86.0904 73.556 84.9744 72.932 84.2424 72.872C84.9984 72.74 85.9704 72.164 85.9704 71.012C85.9704 69.656 84.7944 68.876 83.2584 68.876C82.0224 68.876 81.0984 69.416 80.5224 70.112L81.0744 70.736C81.6624 70.1 82.3104 69.764 83.1864 69.764C84.1584 69.764 84.9744 70.244 84.9744 71.132C84.9744 72.056 84.1224 72.452 83.1144 72.452C82.7904 72.452 82.4184 72.452 82.2864 72.44V73.352C82.4064 73.34 82.7784 73.34 83.1144 73.34C84.2904 73.34 85.1064 73.76 85.1064 74.756C85.1064 75.68 84.3984 76.256 83.2344 76.256C82.2864 76.256 81.4704 75.824 81.0024 75.2L80.4144 75.824C80.9064 76.544 81.9024 77.144 83.2584 77.144Z" fill="#252531"/>
<path d="M154.132 77V68.996H153.256L151.252 71.06L151.852 71.672L153.136 70.316V77H154.132ZM158.678 77.144C160.286 77.144 161.522 76.136 161.522 74.504C161.522 72.86 160.31 71.948 158.978 71.948C158.174 71.948 157.49 72.284 157.106 72.668V69.884H161.006V68.996H156.11V73.316L156.842 73.568C157.382 73.04 157.982 72.812 158.69 72.812C159.77 72.812 160.526 73.484 160.526 74.54C160.526 75.512 159.77 76.256 158.678 76.256C157.694 76.256 156.998 75.872 156.47 75.2L155.858 75.86C156.458 76.652 157.322 77.144 158.678 77.144Z" fill="#252531"/>
<path d="M186.132 77V68.996H185.256L183.252 71.06L183.852 71.672L185.136 70.316V77H186.132ZM190.762 77.144C192.514 77.144 193.57 75.92 193.57 74.528C193.57 72.824 192.394 71.972 190.954 71.972C189.922 71.972 189.034 72.668 188.686 73.22C188.674 73.112 188.674 73.016 188.674 72.908C188.674 71.336 189.382 69.764 190.93 69.764C191.77 69.764 192.238 70.1 192.646 70.58L193.15 69.836C192.658 69.272 191.962 68.876 190.93 68.876C188.686 68.876 187.678 70.844 187.678 73.016C187.678 75.188 188.53 77.144 190.762 77.144ZM190.726 76.256C189.334 76.256 188.806 75.032 188.71 74.036C189.154 73.328 189.922 72.836 190.714 72.836C191.746 72.836 192.562 73.388 192.562 74.564C192.562 75.332 191.962 76.256 190.726 76.256Z" fill="#252531"/>
<path d="M213.132 77V68.996H212.256L210.252 71.06L210.852 71.672L212.136 70.316V77H213.132ZM216.622 77L219.898 69.68V68.996H214.438V69.884H218.746L215.518 77H216.622Z" fill="#252531"/>
<path d="M7.132 112V103.996H6.256L4.252 106.06L4.852 106.672L6.136 105.316V112H7.132ZM11.5584 112.144C13.1304 112.144 14.4264 111.328 14.4264 109.972C14.4264 108.904 13.5144 108.172 12.5184 107.872C13.4424 107.608 14.3064 107.008 14.3064 105.952C14.3064 104.512 12.8784 103.876 11.5584 103.876C10.2264 103.876 8.82241 104.512 8.82241 105.952C8.82241 107.008 9.67441 107.608 10.5984 107.872C9.60241 108.172 8.69041 108.904 8.69041 109.972C8.69041 111.34 9.97441 112.144 11.5584 112.144ZM11.5584 107.464C11.0784 107.38 9.81841 107.056 9.81841 106.084C9.81841 105.256 10.5864 104.764 11.5584 104.764C12.5184 104.764 13.2984 105.256 13.2984 106.084C13.2984 107.056 12.0504 107.38 11.5584 107.464ZM11.5584 111.256C10.5624 111.256 9.68641 110.728 9.68641 109.864C9.68641 108.82 11.0664 108.376 11.5584 108.316C12.0504 108.376 13.4184 108.82 13.4184 109.864C13.4184 110.728 12.5424 111.256 11.5584 111.256Z" fill="#252531"/>
<path d="M45.132 112V103.996H44.256L42.252 106.06L42.852 106.672L44.136 105.316V112H45.132ZM49.2944 112.132C51.5384 112.132 52.5464 110.164 52.5464 108.004C52.5464 105.82 51.6944 103.864 49.4504 103.864C47.7104 103.864 46.6544 105.1 46.6544 106.48C46.6544 108.184 47.8424 109.036 49.2824 109.036C50.3024 109.036 51.1904 108.34 51.5384 107.788C51.5504 107.896 51.5504 108.004 51.5504 108.112C51.5504 109.624 50.9144 111.244 49.2944 111.244C48.4664 111.244 47.9864 110.908 47.5784 110.428L47.0744 111.172C47.5784 111.748 48.2744 112.132 49.2944 112.132ZM49.5104 108.172C48.4784 108.172 47.6624 107.62 47.6624 106.444C47.6624 105.688 48.2744 104.752 49.4984 104.752C50.8904 104.752 51.4184 105.988 51.5024 106.984C51.0824 107.692 50.3024 108.172 49.5104 108.172Z" fill="#252531"/>
<path d="M48.144 147V146.112H44.22C46.452 144.348 48.108 142.86 48.108 141.228C48.108 139.632 46.752 138.876 45.42 138.876C44.292 138.876 43.248 139.332 42.636 140.136L43.248 140.772C43.716 140.172 44.46 139.764 45.42 139.764C46.248 139.764 47.088 140.208 47.088 141.228C47.088 142.608 45.528 143.94 42.648 146.208V147H48.144ZM52.7507 147.144C54.5027 147.144 55.5587 145.92 55.5587 144.528C55.5587 142.824 54.3827 141.972 52.9427 141.972C51.9107 141.972 51.0227 142.668 50.6747 143.22C50.6627 143.112 50.6627 143.016 50.6627 142.908C50.6627 141.336 51.3707 139.764 52.9187 139.764C53.7587 139.764 54.2267 140.1 54.6347 140.58L55.1387 139.836C54.6467 139.272 53.9507 138.876 52.9187 138.876C50.6747 138.876 49.6667 140.844 49.6667 143.016C49.6667 145.188 50.5187 147.144 52.7507 147.144ZM52.7147 146.256C51.3227 146.256 50.7947 145.032 50.6987 144.036C51.1427 143.328 51.9107 142.836 52.7027 142.836C53.7347 142.836 54.5507 143.388 54.5507 144.564C54.5507 145.332 53.9507 146.256 52.7147 146.256Z" fill="#252531"/>
<path d="M82.144 147V146.112H78.22C80.452 144.348 82.108 142.86 82.108 141.228C82.108 139.632 80.752 138.876 79.42 138.876C78.292 138.876 77.248 139.332 76.636 140.136L77.248 140.772C77.716 140.172 78.46 139.764 79.42 139.764C80.248 139.764 81.088 140.208 81.088 141.228C81.088 142.608 79.528 143.94 76.648 146.208V147H82.144ZM85.6107 147L88.8867 139.68V138.996H83.4267V139.884H87.7347L84.5067 147H85.6107Z" fill="#252531"/>
<path d="M120.144 147V146.112H116.22C118.452 144.348 120.108 142.86 120.108 141.228C120.108 139.632 118.752 138.876 117.42 138.876C116.292 138.876 115.248 139.332 114.636 140.136L115.248 140.772C115.716 140.172 116.46 139.764 117.42 139.764C118.248 139.764 119.088 140.208 119.088 141.228C119.088 142.608 117.528 143.94 114.648 146.208V147H120.144ZM124.547 147.144C126.119 147.144 127.415 146.328 127.415 144.972C127.415 143.904 126.503 143.172 125.507 142.872C126.431 142.608 127.295 142.008 127.295 140.952C127.295 139.512 125.867 138.876 124.547 138.876C123.215 138.876 121.811 139.512 121.811 140.952C121.811 142.008 122.663 142.608 123.587 142.872C122.591 143.172 121.679 143.904 121.679 144.972C121.679 146.34 122.963 147.144 124.547 147.144ZM124.547 142.464C124.067 142.38 122.807 142.056 122.807 141.084C122.807 140.256 123.575 139.764 124.547 139.764C125.507 139.764 126.287 140.256 126.287 141.084C126.287 142.056 125.039 142.38 124.547 142.464ZM124.547 146.256C123.551 146.256 122.675 145.728 122.675 144.864C122.675 143.82 124.055 143.376 124.547 143.316C125.039 143.376 126.407 143.82 126.407 144.864C126.407 145.728 125.531 146.256 124.547 146.256Z" fill="#252531"/>
<path d="M157.144 147V146.112H153.22C155.452 144.348 157.108 142.86 157.108 141.228C157.108 139.632 155.752 138.876 154.42 138.876C153.292 138.876 152.248 139.332 151.636 140.136L152.248 140.772C152.716 140.172 153.46 139.764 154.42 139.764C155.248 139.764 156.088 140.208 156.088 141.228C156.088 142.608 154.528 143.94 151.648 146.208V147H157.144ZM161.283 147.132C163.527 147.132 164.535 145.164 164.535 143.004C164.535 140.82 163.683 138.864 161.439 138.864C159.699 138.864 158.643 140.1 158.643 141.48C158.643 143.184 159.831 144.036 161.271 144.036C162.291 144.036 163.179 143.34 163.527 142.788C163.539 142.896 163.539 143.004 163.539 143.112C163.539 144.624 162.903 146.244 161.283 146.244C160.455 146.244 159.975 145.908 159.567 145.428L159.063 146.172C159.567 146.748 160.263 147.132 161.283 147.132ZM161.499 143.172C160.467 143.172 159.651 142.62 159.651 141.444C159.651 140.688 160.263 139.752 161.487 139.752C162.879 139.752 163.407 140.988 163.491 141.984C163.071 142.692 162.291 143.172 161.499 143.172Z" fill="#252531"/>
<path d="M186.192 147.144C187.956 147.144 189.024 146.172 189.024 144.84C189.024 143.556 187.908 142.932 187.176 142.872C187.932 142.74 188.904 142.164 188.904 141.012C188.904 139.656 187.728 138.876 186.192 138.876C184.956 138.876 184.032 139.416 183.456 140.112L184.008 140.736C184.596 140.1 185.244 139.764 186.12 139.764C187.092 139.764 187.908 140.244 187.908 141.132C187.908 142.056 187.056 142.452 186.048 142.452C185.724 142.452 185.352 142.452 185.22 142.44V143.352C185.34 143.34 185.712 143.34 186.048 143.34C187.224 143.34 188.04 143.76 188.04 144.756C188.04 145.68 187.332 146.256 186.168 146.256C185.22 146.256 184.404 145.824 183.936 145.2L183.348 145.824C183.84 146.544 184.836 147.144 186.192 147.144ZM193.352 147.144C195.536 147.144 196.412 144.948 196.412 143.004C196.412 141.048 195.536 138.876 193.352 138.876C191.156 138.876 190.292 141.048 190.292 143.004C190.292 144.948 191.156 147.144 193.352 147.144ZM193.352 146.256C191.828 146.256 191.312 144.6 191.312 143.004C191.312 141.408 191.828 139.764 193.352 139.764C194.876 139.764 195.392 141.408 195.392 143.004C195.392 144.6 194.876 146.256 193.352 146.256Z" fill="#252531"/>
<path d="M213.192 147.144C214.956 147.144 216.024 146.172 216.024 144.84C216.024 143.556 214.908 142.932 214.176 142.872C214.932 142.74 215.904 142.164 215.904 141.012C215.904 139.656 214.728 138.876 213.192 138.876C211.956 138.876 211.032 139.416 210.456 140.112L211.008 140.736C211.596 140.1 212.244 139.764 213.12 139.764C214.092 139.764 214.908 140.244 214.908 141.132C214.908 142.056 214.056 142.452 213.048 142.452C212.724 142.452 212.352 142.452 212.22 142.44V143.352C212.34 143.34 212.712 143.34 213.048 143.34C214.224 143.34 215.04 143.76 215.04 144.756C215.04 145.68 214.332 146.256 213.168 146.256C212.22 146.256 211.404 145.824 210.936 145.2L210.348 145.824C210.84 146.544 211.836 147.144 213.192 147.144ZM219.812 147V138.996H218.936L216.932 141.06L217.532 141.672L218.816 140.316V147H219.812Z" fill="#252531"/>
<path d="M10.144 147V146.112H6.22C8.452 144.348 10.108 142.86 10.108 141.228C10.108 139.632 8.752 138.876 7.42 138.876C6.292 138.876 5.248 139.332 4.636 140.136L5.248 140.772C5.716 140.172 6.46 139.764 7.42 139.764C8.248 139.764 9.088 140.208 9.088 141.228C9.088 142.608 7.528 143.94 4.648 146.208V147H10.144ZM14.6667 147.144C16.2747 147.144 17.5107 146.136 17.5107 144.504C17.5107 142.86 16.2987 141.948 14.9667 141.948C14.1627 141.948 13.4787 142.284 13.0947 142.668V139.884H16.9947V138.996H12.0987V143.316L12.8307 143.568C13.3707 143.04 13.9707 142.812 14.6787 142.812C15.7587 142.812 16.5147 143.484 16.5147 144.54C16.5147 145.512 15.7587 146.256 14.6667 146.256C13.6827 146.256 12.9867 145.872 12.4587 145.2L11.8467 145.86C12.4467 146.652 13.3107 147.144 14.6667 147.144Z" fill="#252531"/>
<rect x="68" y="93" width="30" height="30" rx="15" fill="#24A3FF"/>
<path d="M115.132 77V68.996H114.256L112.252 71.06L112.852 71.672L114.136 70.316V77H115.132ZM121.25 77V74.972H122.378V74.096H121.25V68.996H119.882L116.45 74.144V74.972H120.254V77H121.25ZM120.254 74.096H117.446L120.254 69.92V74.096Z" fill="#252531"/>
<path d="M82.396 112H76.6V110.896C78.272 109.632 79.408 108.696 80.008 108.088C80.616 107.472 80.92 106.892 80.92 106.348C80.92 105.956 80.776 105.656 80.488 105.448C80.208 105.232 79.868 105.124 79.468 105.124C78.588 105.124 77.868 105.444 77.308 106.084L76.492 105.16C76.836 104.744 77.268 104.428 77.788 104.212C78.316 103.988 78.868 103.876 79.444 103.876C80.26 103.876 80.948 104.096 81.508 104.536C82.068 104.976 82.348 105.58 82.348 106.348C82.348 107.036 82.06 107.72 81.484 108.4C80.908 109.08 80.028 109.868 78.844 110.764H82.396V112ZM88.2727 111.784C87.8487 112.024 87.3687 112.144 86.8327 112.144C86.2967 112.144 85.8167 112.024 85.3927 111.784C84.9687 111.544 84.6327 111.224 84.3847 110.824C84.1367 110.424 83.9487 109.984 83.8207 109.504C83.6927 109.024 83.6287 108.524 83.6287 108.004C83.6287 107.484 83.6927 106.984 83.8207 106.504C83.9487 106.024 84.1367 105.588 84.3847 105.196C84.6327 104.796 84.9687 104.476 85.3927 104.236C85.8167 103.996 86.2967 103.876 86.8327 103.876C87.3687 103.876 87.8487 103.996 88.2727 104.236C88.6967 104.476 89.0327 104.796 89.2807 105.196C89.5287 105.588 89.7167 106.024 89.8447 106.504C89.9727 106.984 90.0367 107.484 90.0367 108.004C90.0367 108.524 89.9727 109.024 89.8447 109.504C89.7167 109.984 89.5287 110.424 89.2807 110.824C89.0327 111.224 88.6967 111.544 88.2727 111.784ZM85.4887 110.08C85.7767 110.624 86.2247 110.896 86.8327 110.896C87.4407 110.896 87.8887 110.624 88.1767 110.08C88.4647 109.536 88.6087 108.844 88.6087 108.004C88.6087 107.468 88.5527 106.992 88.4407 106.576C88.3367 106.16 88.1447 105.816 87.8647 105.544C87.5927 105.264 87.2487 105.124 86.8327 105.124C86.4167 105.124 86.0687 105.264 85.7887 105.544C85.5167 105.816 85.3247 106.16 85.2127 106.576C85.1087 106.992 85.0567 107.468 85.0567 108.004C85.0567 108.844 85.2007 109.536 85.4887 110.08Z" fill="white"/>
</svg>
