<svg width="175" height="38" viewBox="0 0 175 38" fill="none" xmlns="http://www.w3.org/2000/svg">
<rect width="175" height="38" rx="4" fill="#EEEEF4"/>
<path d="M47.9 24L43.925 13.995H42.05L38.075 24H39.785L40.595 21.93H45.38L46.19 24H47.9ZM44.945 20.595H41.03L42.98 15.525L44.945 20.595ZM55.5802 24V13.995H54.2302V17.805C53.6452 17.025 52.7902 16.575 51.8602 16.575C49.9702 16.575 48.6202 18.06 48.6202 20.385C48.6202 22.755 49.9702 24.18 51.8602 24.18C52.8202 24.18 53.6902 23.685 54.2302 22.965V24H55.5802ZM52.2202 22.98C50.8702 22.98 50.0302 21.885 50.0302 20.385C50.0302 18.87 50.8702 17.775 52.2202 17.775C53.0452 17.775 53.8552 18.255 54.2302 18.84V21.93C53.8552 22.515 53.0452 22.98 52.2202 22.98ZM64.2521 24V13.995H62.9021V17.805C62.3171 17.025 61.4621 16.575 60.5321 16.575C58.6421 16.575 57.2921 18.06 57.2921 20.385C57.2921 22.755 58.6421 24.18 60.5321 24.18C61.4921 24.18 62.3621 23.685 62.9021 22.965V24H64.2521ZM60.8921 22.98C59.5421 22.98 58.7021 21.885 58.7021 20.385C58.7021 18.87 59.5421 17.775 60.8921 17.775C61.7171 17.775 62.5271 18.255 62.9021 18.84V21.93C62.5271 22.515 61.7171 22.98 60.8921 22.98ZM79.5812 24L82.4312 13.995H80.7512L78.6812 22.02L76.5062 13.995H75.2912L73.1012 22.02L71.0312 13.995H69.3512L72.2162 24H73.8212L75.8912 16.275L77.9762 24H79.5812ZM86.3693 24.18C87.5393 24.18 88.5593 23.805 89.2793 23.1L88.6493 22.215C88.1093 22.77 87.2693 23.07 86.5043 23.07C85.0493 23.07 84.1493 22.05 84.0443 20.82H89.7743V20.49C89.7743 18.27 88.4243 16.575 86.2493 16.575C84.1343 16.575 82.6193 18.27 82.6193 20.37C82.6193 22.65 84.2093 24.18 86.3693 24.18ZM88.4543 19.845H84.0293C84.1043 18.855 84.7943 17.685 86.2493 17.685C87.7793 17.685 88.4243 18.885 88.4543 19.845ZM92.8128 21.93V18.855C93.1728 18.27 93.9978 17.775 94.8228 17.775C96.1728 17.775 97.0128 18.87 97.0128 20.385C97.0128 21.9 96.1728 22.98 94.8228 22.98C93.9978 22.98 93.1728 22.515 92.8128 21.93ZM92.8128 24V22.965C93.3528 23.685 94.2078 24.18 95.1828 24.18C97.0578 24.18 98.4078 22.755 98.4078 20.385C98.4078 18.06 97.0728 16.575 95.1828 16.575C94.2378 16.575 93.3828 17.025 92.8128 17.805V13.995H91.4628V24H92.8128ZM110.752 24V22.68H105.532V19.56H110.647V18.24H105.532V15.315H110.752V13.995H104.032V24H110.752ZM113.951 24V13.995H112.601V24H113.951ZM119.401 24.18C120.571 24.18 121.591 23.805 122.311 23.1L121.681 22.215C121.141 22.77 120.301 23.07 119.536 23.07C118.081 23.07 117.181 22.05 117.076 20.82H122.806V20.49C122.806 18.27 121.456 16.575 119.281 16.575C117.166 16.575 115.651 18.27 115.651 20.37C115.651 22.65 117.241 24.18 119.401 24.18ZM121.486 19.845H117.061C117.136 18.855 117.826 17.685 119.281 17.685C120.811 17.685 121.456 18.885 121.486 19.845ZM134.65 24V18.765C134.65 17.31 133.93 16.575 132.595 16.575C131.53 16.575 130.57 17.25 130.15 17.925C129.925 17.145 129.28 16.575 128.185 16.575C127.105 16.575 126.145 17.325 125.845 17.775V16.755H124.495V24H125.845V18.825C126.205 18.3 126.91 17.775 127.615 17.775C128.53 17.775 128.89 18.33 128.89 19.17V24H130.24V18.81C130.585 18.285 131.305 17.775 132.04 17.775C132.925 17.775 133.3 18.33 133.3 19.17V24H134.65ZM140.1 24.18C141.27 24.18 142.29 23.805 143.01 23.1L142.38 22.215C141.84 22.77 141 23.07 140.235 23.07C138.78 23.07 137.88 22.05 137.775 20.82H143.505V20.49C143.505 18.27 142.155 16.575 139.98 16.575C137.865 16.575 136.35 18.27 136.35 20.37C136.35 22.65 137.94 24.18 140.1 24.18ZM142.185 19.845H137.76C137.835 18.855 138.525 17.685 139.98 17.685C141.51 17.685 142.155 18.885 142.185 19.845ZM151.433 24V18.915C151.433 17.385 150.638 16.575 149.108 16.575C147.983 16.575 147.023 17.19 146.543 17.775V16.755H145.193V24H146.543V18.825C146.933 18.285 147.698 17.775 148.538 17.775C149.468 17.775 150.083 18.165 150.083 19.365V24H151.433ZM155.567 24.18C156.272 24.18 156.692 23.985 156.977 23.715L156.632 22.695C156.497 22.845 156.212 22.98 155.897 22.98C155.432 22.98 155.192 22.605 155.192 22.095V17.94H156.662V16.755H155.192V14.775H153.842V16.755H152.642V17.94H153.842V22.395C153.842 23.535 154.427 24.18 155.567 24.18Z" fill="#252531"/>
<path d="M19 13.7144L19 25.7251" stroke="#252531" stroke-width="2" stroke-linecap="round"/>
<path d="M25 19.7197L13 19.7197" stroke="#252531" stroke-width="2" stroke-linecap="round"/>
</svg>
