<svg width="126" height="90" viewBox="0 0 126 90" fill="none" xmlns="http://www.w3.org/2000/svg">
<rect x="0.5" y="26.5" width="125" height="63" rx="9.5" fill="#598AC4" fill-opacity="0.2" stroke="#598AC4"/>
<rect width="72" height="22" rx="8" fill="#598AC4"/>
<path d="M17.994 15V13.375H13.704V11.412H17.903V9.787H13.704V7.954H17.994V6.329H11.858V15H17.994ZM21.0491 15V6.329H19.3981V15H21.0491ZM25.6372 15.156C26.6122 15.156 27.6002 14.857 28.2242 14.285L27.4962 13.219C27.0932 13.609 26.3522 13.843 25.8192 13.843C24.7532 13.843 24.1162 13.18 24.0122 12.387H28.6792V12.023C28.6792 9.969 27.4052 8.565 25.5332 8.565C23.6222 8.565 22.2832 10.034 22.2832 11.854C22.2832 13.869 23.7262 15.156 25.6372 15.156ZM27.0802 11.269H23.9862C24.0642 10.645 24.5062 9.878 25.5332 9.878C26.6252 9.878 27.0412 10.671 27.0802 11.269ZM39.3227 15V10.463C39.3227 9.176 38.6337 8.565 37.4767 8.565C36.5147 8.565 35.6827 9.137 35.3187 9.709C35.0847 8.994 34.4997 8.565 33.5767 8.565C32.6147 8.565 31.7827 9.163 31.5227 9.54V8.721H29.8717V15H31.5227V10.775C31.7697 10.424 32.2507 10.034 32.8227 10.034C33.4987 10.034 33.7587 10.45 33.7587 11.035V15H35.4227V10.762C35.6567 10.424 36.1377 10.034 36.7227 10.034C37.3987 10.034 37.6587 10.45 37.6587 11.035V15H39.3227ZM43.893 15.156C44.868 15.156 45.856 14.857 46.48 14.285L45.752 13.219C45.349 13.609 44.608 13.843 44.075 13.843C43.009 13.843 42.372 13.18 42.268 12.387H46.935V12.023C46.935 9.969 45.661 8.565 43.789 8.565C41.878 8.565 40.539 10.034 40.539 11.854C40.539 13.869 41.982 15.156 43.893 15.156ZM45.336 11.269H42.242C42.32 10.645 42.762 9.878 43.789 9.878C44.881 9.878 45.297 10.671 45.336 11.269ZM54.0166 15V10.567C54.0166 9.345 53.3536 8.565 51.9756 8.565C50.9486 8.565 50.1816 9.059 49.7786 9.54V8.721H48.1276V15H49.7786V10.775C50.0516 10.398 50.5586 10.034 51.2086 10.034C51.9106 10.034 52.3656 10.333 52.3656 11.204V15H54.0166ZM57.7619 15.156C58.4509 15.156 58.8929 14.974 59.1399 14.753L58.7889 13.505C58.6979 13.596 58.4639 13.687 58.2169 13.687C57.8529 13.687 57.6449 13.388 57.6449 12.998V10.164H58.9189V8.721H57.6449V7.005H55.9809V8.721H54.9409V10.164H55.9809V13.44C55.9809 14.558 56.6049 15.156 57.7619 15.156Z" fill="white"/>
</svg>
