<svg width="170" height="99" viewBox="0 0 170 99" fill="none" xmlns="http://www.w3.org/2000/svg">
<rect x="0.5" y="29.5" width="169" height="69" rx="9.5" fill="#598AC4" fill-opacity="0.6" stroke="#598AC4"/>
<rect width="102" height="25" rx="8" fill="#598AC4"/>
<path d="M16.242 17.168C18.762 17.168 19.98 15.88 19.98 14.172C19.98 10.686 14.618 11.68 14.618 10.196C14.618 9.636 15.094 9.258 15.948 9.258C16.9 9.258 17.908 9.58 18.664 10.28L19.77 8.824C18.846 7.97 17.614 7.522 16.13 7.522C13.932 7.522 12.588 8.81 12.588 10.364C12.588 13.878 17.964 12.744 17.964 14.396C17.964 14.928 17.432 15.432 16.34 15.432C15.052 15.432 14.03 14.858 13.372 14.172L12.294 15.684C13.162 16.566 14.45 17.168 16.242 17.168ZM24.4545 17.168C25.5045 17.168 26.5685 16.846 27.2405 16.23L26.4565 15.082C26.0225 15.502 25.2245 15.754 24.6505 15.754C23.5025 15.754 22.8165 15.04 22.7045 14.186H27.7305V13.794C27.7305 11.582 26.3585 10.07 24.3425 10.07C22.2845 10.07 20.8425 11.652 20.8425 13.612C20.8425 15.782 22.3965 17.168 24.4545 17.168ZM26.0085 12.982H22.6765C22.7605 12.31 23.2365 11.484 24.3425 11.484C25.5185 11.484 25.9665 12.338 26.0085 12.982ZM30.7928 17V7.662H29.0148V17H30.7928ZM35.7338 17.168C36.7838 17.168 37.8478 16.846 38.5198 16.23L37.7358 15.082C37.3018 15.502 36.5038 15.754 35.9298 15.754C34.7818 15.754 34.0958 15.04 33.9838 14.186H39.0098V13.794C39.0098 11.582 37.6378 10.07 35.6218 10.07C33.5638 10.07 32.1218 11.652 32.1218 13.612C32.1218 15.782 33.6758 17.168 35.7338 17.168ZM37.2878 12.982H33.9558C34.0398 12.31 34.5158 11.484 35.6218 11.484C36.7978 11.484 37.2458 12.338 37.2878 12.982ZM43.4441 17.168C44.8301 17.168 45.6701 16.566 46.1181 15.936L44.9561 14.858C44.6341 15.306 44.1441 15.586 43.5281 15.586C42.4501 15.586 41.6941 14.788 41.6941 13.612C41.6941 12.436 42.4501 11.652 43.5281 11.652C44.1441 11.652 44.6341 11.904 44.9561 12.38L46.1181 11.288C45.6701 10.672 44.8301 10.07 43.4441 10.07C41.3581 10.07 39.8601 11.54 39.8601 13.612C39.8601 15.698 41.3581 17.168 43.4441 17.168ZM49.5484 17.168C50.2904 17.168 50.7664 16.972 51.0324 16.734L50.6544 15.39C50.5564 15.488 50.3044 15.586 50.0384 15.586C49.6464 15.586 49.4224 15.264 49.4224 14.844V11.792H50.7944V10.238H49.4224V8.39H47.6304V10.238H46.5104V11.792H47.6304V15.32C47.6304 16.524 48.3024 17.168 49.5484 17.168ZM55.1889 17.168C56.2389 17.168 57.3029 16.846 57.9749 16.23L57.1909 15.082C56.7569 15.502 55.9589 15.754 55.3849 15.754C54.2369 15.754 53.5509 15.04 53.4389 14.186H58.4649V13.794C58.4649 11.582 57.0929 10.07 55.0769 10.07C53.0189 10.07 51.5769 11.652 51.5769 13.612C51.5769 15.782 53.1309 17.168 55.1889 17.168ZM56.7429 12.982H53.4109C53.4949 12.31 53.9709 11.484 55.0769 11.484C56.2529 11.484 56.7009 12.338 56.7429 12.982ZM66.1892 17V7.662H64.3972V11.106C63.8652 10.42 63.1092 10.07 62.3112 10.07C60.5892 10.07 59.3152 11.414 59.3152 13.626C59.3152 15.88 60.6032 17.168 62.3112 17.168C63.1232 17.168 63.8652 16.804 64.3972 16.132V17H66.1892ZM62.8572 15.586C61.8492 15.586 61.1492 14.788 61.1492 13.626C61.1492 12.45 61.8492 11.652 62.8572 11.652C63.4592 11.652 64.1032 11.974 64.3972 12.422V14.816C64.1032 15.264 63.4592 15.586 62.8572 15.586Z" fill="white"/>
<path d="M87.125 9L80 16.125" stroke="white" stroke-width="1.2" stroke-linecap="round" stroke-linejoin="round"/>
<path d="M80 9L87.125 16.125" stroke="white" stroke-width="1.2" stroke-linecap="round" stroke-linejoin="round"/>
</svg>
