<svg width="126" height="90" viewBox="0 0 126 90" fill="none" xmlns="http://www.w3.org/2000/svg">
<rect x="0.5" y="26.5" width="125" height="63" rx="9.5" fill="#598AC4" fill-opacity="0.6" stroke="#598AC4"/>
<rect width="90" height="22" rx="8" fill="#598AC4"/>
<path d="M14.939 15.156C17.279 15.156 18.41 13.96 18.41 12.374C18.41 9.137 13.431 10.06 13.431 8.682C13.431 8.162 13.873 7.811 14.666 7.811C15.55 7.811 16.486 8.11 17.188 8.76L18.215 7.408C17.357 6.615 16.213 6.199 14.835 6.199C12.794 6.199 11.546 7.395 11.546 8.838C11.546 12.101 16.538 11.048 16.538 12.582C16.538 13.076 16.044 13.544 15.03 13.544C13.834 13.544 12.885 13.011 12.274 12.374L11.273 13.778C12.079 14.597 13.275 15.156 14.939 15.156ZM22.5649 15.156C23.5399 15.156 24.5279 14.857 25.1519 14.285L24.4239 13.219C24.0209 13.609 23.2799 13.843 22.7469 13.843C21.6809 13.843 21.0439 13.18 20.9399 12.387H25.6069V12.023C25.6069 9.969 24.3329 8.565 22.4609 8.565C20.5499 8.565 19.2109 10.034 19.2109 11.854C19.2109 13.869 20.6539 15.156 22.5649 15.156ZM24.0079 11.269H20.9139C20.9919 10.645 21.4339 9.878 22.4609 9.878C23.5529 9.878 23.9689 10.671 24.0079 11.269ZM28.4505 15V6.329H26.7995V15H28.4505ZM33.0386 15.156C34.0136 15.156 35.0016 14.857 35.6256 14.285L34.8976 13.219C34.4946 13.609 33.7536 13.843 33.2206 13.843C32.1546 13.843 31.5176 13.18 31.4136 12.387H36.0806V12.023C36.0806 9.969 34.8066 8.565 32.9346 8.565C31.0236 8.565 29.6846 10.034 29.6846 11.854C29.6846 13.869 31.1276 15.156 33.0386 15.156ZM34.4816 11.269H31.3876C31.4656 10.645 31.9076 9.878 32.9346 9.878C34.0266 9.878 34.4426 10.671 34.4816 11.269ZM40.1981 15.156C41.4851 15.156 42.2651 14.597 42.6811 14.012L41.6021 13.011C41.3031 13.427 40.8481 13.687 40.2761 13.687C39.2751 13.687 38.5731 12.946 38.5731 11.854C38.5731 10.762 39.2751 10.034 40.2761 10.034C40.8481 10.034 41.3031 10.268 41.6021 10.71L42.6811 9.696C42.2651 9.124 41.4851 8.565 40.1981 8.565C38.2611 8.565 36.8701 9.93 36.8701 11.854C36.8701 13.791 38.2611 15.156 40.1981 15.156ZM45.8664 15.156C46.5554 15.156 46.9974 14.974 47.2444 14.753L46.8934 13.505C46.8024 13.596 46.5684 13.687 46.3214 13.687C45.9574 13.687 45.7494 13.388 45.7494 12.998V10.164H47.0234V8.721H45.7494V7.005H44.0854V8.721H43.0454V10.164H44.0854V13.44C44.0854 14.558 44.7094 15.156 45.8664 15.156ZM51.104 15.156C52.079 15.156 53.067 14.857 53.691 14.285L52.963 13.219C52.56 13.609 51.819 13.843 51.286 13.843C50.22 13.843 49.583 13.18 49.479 12.387H54.146V12.023C54.146 9.969 52.872 8.565 51 8.565C49.089 8.565 47.75 10.034 47.75 11.854C47.75 13.869 49.193 15.156 51.104 15.156ZM52.547 11.269H49.453C49.531 10.645 49.973 9.878 51 9.878C52.092 9.878 52.508 10.671 52.547 11.269ZM61.3185 15V6.329H59.6545V9.527C59.1605 8.89 58.4585 8.565 57.7175 8.565C56.1185 8.565 54.9355 9.813 54.9355 11.867C54.9355 13.96 56.1315 15.156 57.7175 15.156C58.4715 15.156 59.1605 14.818 59.6545 14.194V15H61.3185ZM58.2245 13.687C57.2885 13.687 56.6385 12.946 56.6385 11.867C56.6385 10.775 57.2885 10.034 58.2245 10.034C58.7835 10.034 59.3815 10.333 59.6545 10.749V12.972C59.3815 13.388 58.7835 13.687 58.2245 13.687Z" fill="white"/>
<path d="M79.125 7L71.125 15" stroke="white" stroke-width="1.2" stroke-linecap="round" stroke-linejoin="round"/>
<path d="M71.125 7L79.125 15" stroke="white" stroke-width="1.2" stroke-linecap="round" stroke-linejoin="round"/>
</svg>
