<svg width="170" height="99" viewBox="0 0 170 99" fill="none" xmlns="http://www.w3.org/2000/svg">
<rect x="0.5" y="29.5" width="169" height="69" rx="9.5" fill="#598AC4" fill-opacity="0.2" stroke="#598AC4"/>
<rect width="102" height="25" rx="8" fill="#598AC4"/>
<path d="M32.532 17V15.25H27.912V13.136H32.434V11.386H27.912V9.412H32.532V7.662H25.924V17H32.532ZM35.8221 17V7.662H34.0441V17H35.8221ZM40.7631 17.168C41.8131 17.168 42.8771 16.846 43.5491 16.23L42.7651 15.082C42.3311 15.502 41.5331 15.754 40.9591 15.754C39.8111 15.754 39.1251 15.04 39.0131 14.186H44.0391V13.794C44.0391 11.582 42.6671 10.07 40.6511 10.07C38.5931 10.07 37.1511 11.652 37.1511 13.612C37.1511 15.782 38.7051 17.168 40.7631 17.168ZM42.3171 12.982H38.9851C39.0691 12.31 39.5451 11.484 40.6511 11.484C41.8271 11.484 42.2751 12.338 42.3171 12.982ZM55.5014 17V12.114C55.5014 10.728 54.7594 10.07 53.5134 10.07C52.4774 10.07 51.5814 10.686 51.1894 11.302C50.9374 10.532 50.3074 10.07 49.3134 10.07C48.2774 10.07 47.3814 10.714 47.1014 11.12V10.238H45.3234V17H47.1014V12.45C47.3674 12.072 47.8854 11.652 48.5014 11.652C49.2294 11.652 49.5094 12.1 49.5094 12.73V17H51.3014V12.436C51.5534 12.072 52.0714 11.652 52.7014 11.652C53.4294 11.652 53.7094 12.1 53.7094 12.73V17H55.5014ZM60.4233 17.168C61.4733 17.168 62.5373 16.846 63.2093 16.23L62.4253 15.082C61.9913 15.502 61.1933 15.754 60.6193 15.754C59.4713 15.754 58.7853 15.04 58.6733 14.186H63.6993V13.794C63.6993 11.582 62.3273 10.07 60.3113 10.07C58.2533 10.07 56.8113 11.652 56.8113 13.612C56.8113 15.782 58.3653 17.168 60.4233 17.168ZM61.9773 12.982H58.6453C58.7293 12.31 59.2053 11.484 60.3113 11.484C61.4873 11.484 61.9353 12.338 61.9773 12.982ZM71.3256 17V12.226C71.3256 10.91 70.6116 10.07 69.1276 10.07C68.0216 10.07 67.1956 10.602 66.7616 11.12V10.238H64.9836V17H66.7616V12.45C67.0556 12.044 67.6016 11.652 68.3016 11.652C69.0576 11.652 69.5476 11.974 69.5476 12.912V17H71.3256ZM75.359 17.168C76.101 17.168 76.577 16.972 76.843 16.734L76.465 15.39C76.367 15.488 76.115 15.586 75.849 15.586C75.457 15.586 75.233 15.264 75.233 14.844V11.792H76.605V10.238H75.233V8.39H73.441V10.238H72.321V11.792H73.441V15.32C73.441 16.524 74.113 17.168 75.359 17.168Z" fill="white"/>
</svg>
