<svg width="572" height="181" viewBox="0 0 572 181" fill="none" xmlns="http://www.w3.org/2000/svg">
<path d="M14.298 48.4789C7.66204 45.3201 0 50.1588 0 57.5082V127C0 132.523 4.47715 137 10 137H562C567.523 137 572 132.523 572 127V45.9994C572 40.9636 568.257 36.6714 563.233 36.3259C560.141 36.1133 557.03 36 553.898 36C536.019 36 517.307 40.2802 498.266 44.6355C485.878 47.469 473.352 50.3343 460.825 52.0734C442.476 54.8169 423.25 54.758 404.237 54.6997C392.671 54.6643 381.184 54.6291 370.022 55.2251C340.687 56.3887 313.287 61.5801 284.25 67.0814C281.828 67.5402 279.395 68.0011 276.949 68.462C247.438 74.135 215.657 80.1231 183.876 83.2748C154.365 86.1113 122.584 86.1113 93.073 78.5473C65.2344 72.1977 39.1376 60.0444 22.4112 52.2549C20.0425 51.1518 17.8617 50.1362 15.8905 49.2369L14.298 48.4789Z" fill="url(#paint0_linear_1825_441)" fill-opacity="0.6"/>
<path d="M0 171C0 176.523 4.47715 181 10 181H562C567.523 181 572 176.523 572 171V96.0435C572 91.5942 569.065 87.6634 564.778 86.4717C553.036 83.2072 541.409 80.5549 529.253 80.5549C517.83 80.5549 506.874 82.8971 495.85 85.2537C487.609 87.0155 479.33 88.7853 470.79 89.5906C452.253 91.4731 432.29 87.7082 413.753 82.4374C393.79 77.1665 373.827 70.0133 355.29 59.4717C350.859 57.1317 346.498 54.6248 342.176 52.1404C327.028 43.4322 312.359 35 296.827 35C285.597 35 273.843 40.113 261.883 45.3157C254.101 48.7005 246.233 52.1233 238.364 54.2008C226.839 57.4781 214.762 57.4077 202.819 57.3381C195.554 57.2958 188.339 57.2537 181.327 57.9657C162.901 59.3557 145.689 65.5572 127.45 72.1289C125.929 72.677 124.401 73.2276 122.864 73.7782C104.327 80.5549 84.3643 87.7082 64.4013 91.473C45.8643 94.8614 25.9013 94.8614 7.3643 85.8257V85.8257C3.9715 84.3541 0 86.7201 0 90.4183V171Z" fill="url(#paint1_linear_1825_441)"/>
<path d="M568.28 83.6513C570.375 83.8791 572 85.6226 572 87.7303V171C572 176.523 567.523 181 562 181H10C4.47715 181 0 176.523 0 171V10.11C0 5.31877 3.393 1.13906 8.15307 0.593568C16.0229 -0.308296 23.9613 -0.247456 32.0784 1.22741C43.9076 3.79929 56.1769 9.72966 68.6735 15.7699C82.015 22.2185 95.6156 28.7923 109.216 31.5381C122.403 34.1184 136.136 32.3707 149.826 30.6285C161.529 29.1392 173.201 27.6539 184.473 28.8793C208.852 31.3403 231.62 44.2794 255.76 57.9983C257.701 59.1012 259.65 60.2091 261.61 61.3171C263.913 62.6186 266.2 63.9201 268.477 65.2148C292.24 78.7323 314.71 91.5144 338.748 95.882C363.206 101.2 389.546 95.882 414.004 88.4372C420.138 86.7037 426.169 84.826 432.146 82.9652C451.836 76.835 470.935 70.8889 491.142 70.8889C506.214 70.8889 520.67 74.1971 535.215 77.5257C546.088 80.0141 557.012 82.5139 568.28 83.6513V83.6513Z" fill="url(#paint2_linear_1825_441)"/>
<path d="M15.368 63.3605C8.71075 59.1249 0 63.9071 0 71.7976V171C0 176.523 4.47715 181 10 181H562C567.523 181 572 176.523 572 171V56.0348C572 51.1577 568.485 46.9372 563.63 46.4729C560.407 46.1646 557.164 46 553.898 46C536.019 46 517.307 51.721 498.266 57.5425C485.878 61.3298 473.352 65.1597 460.825 67.4843C442.476 71.1513 423.25 71.0725 404.237 70.9946C392.671 70.9473 381.184 70.9002 370.022 71.6969C340.687 73.2522 313.287 80.1912 284.249 87.5445C281.828 88.1577 279.395 88.7738 276.949 89.3898C247.438 96.9725 215.657 104.976 183.876 109.189C154.365 112.98 122.584 112.98 93.073 102.87C65.2344 94.3831 39.1376 78.1385 22.4112 67.7268C20.0425 66.2523 17.8617 64.8949 15.8905 63.6929L15.368 63.3605Z" fill="url(#paint3_linear_1825_441)"/>
<path d="M5.17824 100.956C1.9842 102.714 0 106.071 0 109.717V171C0 176.523 4.47715 181 10 181H562C567.523 181 572 176.523 572 171V98.9929C572 93.9146 568.195 89.6043 563.126 89.2902C560.069 89.1008 556.994 89 553.898 89C536.019 89 517.307 92.8988 498.266 96.866C485.878 99.447 472.792 120.87 460.265 122.455C441.916 124.954 415.723 112.949 396.71 112.896C385.144 112.864 376.094 127.213 364.932 127.756C335.597 128.816 313.287 112.301 284.249 117.312C281.828 117.73 279.395 118.15 276.949 118.569C247.438 123.737 215.657 129.191 183.876 132.062C154.365 134.646 122.584 134.646 93.073 127.756C65.6351 122.055 55.8479 108.443 39.5574 101.259C39.0825 101.049 38.6229 100.803 38.1623 100.564C33.1788 97.9752 23.3537 97.5977 17.391 97.313C14.3535 97.1679 11.0589 97.7198 8.39476 99.1861L5.17824 100.956Z" fill="url(#paint4_linear_1825_441)" fill-opacity="0.9"/>
<path d="M30.008 162H28.136V151.328H35.448V152.976H30.008V155.744H35.336V157.392H30.008V162ZM44.4324 162H37.1204V151.328H44.4324V152.976H38.9924V155.744H44.3204V157.392H38.9924V160.352H44.4324V162ZM51.7468 162H46.3548V151.328H51.6028C52.5521 151.328 53.2934 151.589 53.8268 152.112C54.3708 152.624 54.6428 153.269 54.6428 154.048C54.6428 154.688 54.4614 155.232 54.0988 155.68C53.7468 156.117 53.3094 156.389 52.7868 156.496C53.3628 156.581 53.8481 156.88 54.2428 157.392C54.6481 157.893 54.8508 158.469 54.8508 159.12C54.8508 159.973 54.5734 160.667 54.0188 161.2C53.4748 161.733 52.7174 162 51.7468 162ZM51.2188 155.744C51.6881 155.744 52.0561 155.616 52.3228 155.36C52.5894 155.104 52.7228 154.773 52.7228 154.368C52.7228 153.952 52.5894 153.616 52.3228 153.36C52.0561 153.104 51.6881 152.976 51.2188 152.976H48.2268V155.744H51.2188ZM51.2988 160.352C51.8108 160.352 52.2108 160.224 52.4988 159.968C52.7868 159.701 52.9308 159.333 52.9308 158.864C52.9308 158.448 52.7868 158.101 52.4988 157.824C52.2108 157.536 51.8108 157.392 51.2988 157.392H48.2268V160.352H51.2988ZM63.6871 162H61.6391L65.6711 152.976H60.1351V151.328H67.8311V152.624L63.6871 162Z" fill="white"/>
<path d="M99.008 162H97.136V151.328H104.448V152.976H99.008V155.744H104.336V157.392H99.008V162ZM113.432 162H106.12V151.328H113.432V152.976H107.992V155.744H113.32V157.392H107.992V160.352H113.432V162ZM120.747 162H115.355V151.328H120.603C121.552 151.328 122.293 151.589 122.827 152.112C123.371 152.624 123.643 153.269 123.643 154.048C123.643 154.688 123.461 155.232 123.099 155.68C122.747 156.117 122.309 156.389 121.787 156.496C122.363 156.581 122.848 156.88 123.243 157.392C123.648 157.893 123.851 158.469 123.851 159.12C123.851 159.973 123.573 160.667 123.019 161.2C122.475 161.733 121.717 162 120.747 162ZM120.219 155.744C120.688 155.744 121.056 155.616 121.323 155.36C121.589 155.104 121.723 154.773 121.723 154.368C121.723 153.952 121.589 153.616 121.323 153.36C121.056 153.104 120.688 152.976 120.219 152.976H117.227V155.744H120.219ZM120.299 160.352C120.811 160.352 121.211 160.224 121.499 159.968C121.787 159.701 121.931 159.333 121.931 158.864C121.931 158.448 121.787 158.101 121.499 157.824C121.211 157.536 120.811 157.392 120.299 157.392H117.227V160.352H120.299ZM133.647 162H131.775V153.76L130.031 155.568L128.943 154.432L132.015 151.328H133.647V162ZM142.189 162H140.317V159.584H135.229V158.08L139.613 151.328H142.189V157.936H143.613V159.584H142.189V162ZM140.317 157.936V153.008L137.069 157.936H140.317Z" fill="white"/>
<path d="M177.008 162H175.136V151.328H182.448V152.976H177.008V155.744H182.336V157.392H177.008V162ZM191.432 162H184.12V151.328H191.432V152.976H185.992V155.744H191.32V157.392H185.992V160.352H191.432V162ZM198.747 162H193.355V151.328H198.603C199.552 151.328 200.293 151.589 200.827 152.112C201.371 152.624 201.643 153.269 201.643 154.048C201.643 154.688 201.461 155.232 201.099 155.68C200.747 156.117 200.309 156.389 199.787 156.496C200.363 156.581 200.848 156.88 201.243 157.392C201.648 157.893 201.851 158.469 201.851 159.12C201.851 159.973 201.573 160.667 201.019 161.2C200.475 161.733 199.717 162 198.747 162ZM198.219 155.744C198.688 155.744 199.056 155.616 199.323 155.36C199.589 155.104 199.723 154.773 199.723 154.368C199.723 153.952 199.589 153.616 199.323 153.36C199.056 153.104 198.688 152.976 198.219 152.976H195.227V155.744H198.219ZM198.299 160.352C198.811 160.352 199.211 160.224 199.499 159.968C199.787 159.701 199.931 159.333 199.931 158.864C199.931 158.448 199.787 158.101 199.499 157.824C199.211 157.536 198.811 157.392 198.299 157.392H195.227V160.352H198.299ZM215.231 162H207.503V160.528C209.732 158.843 211.247 157.595 212.047 156.784C212.858 155.963 213.263 155.189 213.263 154.464C213.263 153.941 213.071 153.541 212.687 153.264C212.314 152.976 211.86 152.832 211.327 152.832C210.154 152.832 209.194 153.259 208.447 154.112L207.359 152.88C207.818 152.325 208.394 151.904 209.087 151.616C209.791 151.317 210.527 151.168 211.295 151.168C212.383 151.168 213.3 151.461 214.047 152.048C214.794 152.635 215.167 153.44 215.167 154.464C215.167 155.381 214.783 156.293 214.015 157.2C213.247 158.107 212.074 159.157 210.495 160.352H215.231V162ZM221.163 162H219.291V153.76L217.547 155.568L216.459 154.432L219.531 151.328H221.163V162Z" fill="white"/>
<path d="M255.008 162H253.136V151.328H260.448V152.976H255.008V155.744H260.336V157.392H255.008V162ZM269.432 162H262.12V151.328H269.432V152.976H263.992V155.744H269.32V157.392H263.992V160.352H269.432V162ZM276.747 162H271.355V151.328H276.603C277.552 151.328 278.293 151.589 278.827 152.112C279.371 152.624 279.643 153.269 279.643 154.048C279.643 154.688 279.461 155.232 279.099 155.68C278.747 156.117 278.309 156.389 277.787 156.496C278.363 156.581 278.848 156.88 279.243 157.392C279.648 157.893 279.851 158.469 279.851 159.12C279.851 159.973 279.573 160.667 279.019 161.2C278.475 161.733 277.717 162 276.747 162ZM276.219 155.744C276.688 155.744 277.056 155.616 277.323 155.36C277.589 155.104 277.723 154.773 277.723 154.368C277.723 153.952 277.589 153.616 277.323 153.36C277.056 153.104 276.688 152.976 276.219 152.976H273.227V155.744H276.219ZM276.299 160.352C276.811 160.352 277.211 160.224 277.499 159.968C277.787 159.701 277.931 159.333 277.931 158.864C277.931 158.448 277.787 158.101 277.499 157.824C277.211 157.536 276.811 157.392 276.299 157.392H273.227V160.352H276.299ZM293.231 162H285.503V160.528C287.732 158.843 289.247 157.595 290.047 156.784C290.858 155.963 291.263 155.189 291.263 154.464C291.263 153.941 291.071 153.541 290.687 153.264C290.314 152.976 289.86 152.832 289.327 152.832C288.154 152.832 287.194 153.259 286.447 154.112L285.359 152.88C285.818 152.325 286.394 151.904 287.087 151.616C287.791 151.317 288.527 151.168 289.295 151.168C290.383 151.168 291.3 151.461 292.047 152.048C292.794 152.635 293.167 153.44 293.167 154.464C293.167 155.381 292.783 156.293 292.015 157.2C291.247 158.107 290.074 159.157 288.495 160.352H293.231V162ZM301.883 161.424C301.104 161.936 300.139 162.192 298.987 162.192C297.835 162.192 296.864 161.936 296.075 161.424C295.285 160.901 294.891 160.181 294.891 159.264C294.891 158.613 295.115 158.048 295.563 157.568C296.021 157.088 296.597 156.731 297.291 156.496C296.629 156.283 296.091 155.968 295.675 155.552C295.269 155.136 295.067 154.608 295.067 153.968C295.067 153.499 295.179 153.077 295.403 152.704C295.637 152.331 295.941 152.037 296.315 151.824C296.699 151.611 297.115 151.451 297.563 151.344C298.021 151.227 298.496 151.168 298.987 151.168C299.477 151.168 299.947 151.227 300.395 151.344C300.843 151.451 301.259 151.611 301.643 151.824C302.027 152.037 302.331 152.331 302.555 152.704C302.789 153.077 302.907 153.499 302.907 153.968C302.907 155.173 302.16 156.016 300.667 156.496C301.36 156.731 301.931 157.088 302.379 157.568C302.837 158.048 303.067 158.613 303.067 159.264C303.067 160.181 302.672 160.901 301.883 161.424ZM298.987 155.76C299.275 155.707 299.552 155.637 299.819 155.552C300.085 155.456 300.347 155.296 300.603 155.072C300.869 154.837 301.003 154.565 301.003 154.256C301.003 153.819 300.811 153.472 300.427 153.216C300.053 152.96 299.573 152.832 298.987 152.832C298.389 152.832 297.899 152.96 297.515 153.216C297.141 153.472 296.955 153.819 296.955 154.256C296.955 154.565 297.088 154.837 297.355 155.072C297.621 155.296 297.888 155.456 298.155 155.552C298.421 155.637 298.699 155.707 298.987 155.76ZM298.987 160.528C299.595 160.528 300.112 160.389 300.539 160.112C300.965 159.835 301.179 159.472 301.179 159.024C301.179 158.544 300.928 158.16 300.427 157.872C299.936 157.573 299.456 157.397 298.987 157.344C298.709 157.376 298.416 157.451 298.107 157.568C297.797 157.675 297.499 157.861 297.211 158.128C296.923 158.384 296.779 158.683 296.779 159.024C296.779 159.472 296.987 159.835 297.403 160.112C297.829 160.389 298.357 160.528 298.987 160.528Z" fill="white"/>
<path d="M343.224 162H341.352V154.08L338.072 162H337.272L334.008 154.08V162H332.136V151.328H334.776L337.672 158.352L340.584 151.328H343.224V162ZM355.095 162H352.967L352.183 159.952H347.287L346.503 162H344.375L348.567 151.328H350.903L355.095 162ZM351.655 158.304L349.735 153.216L347.815 158.304H351.655ZM364.517 162H362.357L359.989 158.016H358.133V162H356.261V151.328H360.949C361.994 151.328 362.837 151.637 363.477 152.256C364.117 152.875 364.437 153.68 364.437 154.672C364.437 155.568 364.192 156.288 363.701 156.832C363.21 157.365 362.613 157.691 361.909 157.808L364.517 162ZM360.693 156.368C361.226 156.368 361.664 156.213 362.005 155.904C362.346 155.595 362.517 155.184 362.517 154.672C362.517 154.16 362.346 153.749 362.005 153.44C361.664 153.131 361.226 152.976 360.693 152.976H358.133V156.368H360.693ZM373.265 162H371.217L375.249 152.976H369.713V151.328H377.409V152.624L373.265 162Z" fill="white"/>
<path d="M423.224 162H421.352V154.08L418.072 162H417.272L414.008 154.08V162H412.136V151.328H414.776L417.672 158.352L420.584 151.328H423.224V162ZM435.095 162H432.967L432.183 159.952H427.287L426.503 162H424.375L428.567 151.328H430.903L435.095 162ZM431.655 158.304L429.735 153.216L427.815 158.304H431.655ZM444.517 162H442.357L439.989 158.016H438.133V162H436.261V151.328H440.949C441.994 151.328 442.837 151.637 443.477 152.256C444.117 152.875 444.437 153.68 444.437 154.672C444.437 155.568 444.192 156.288 443.701 156.832C443.21 157.365 442.613 157.691 441.909 157.808L444.517 162ZM440.693 156.368C441.226 156.368 441.664 156.213 442.005 155.904C442.346 155.595 442.517 155.184 442.517 154.672C442.517 154.16 442.346 153.749 442.005 153.44C441.664 153.131 441.226 152.976 440.693 152.976H438.133V156.368H440.693ZM454.225 162H452.353V153.76L450.609 155.568L449.521 154.432L452.593 151.328H454.225V162ZM462.767 162H460.895V159.584H455.807V158.08L460.191 151.328H462.767V157.936H464.191V159.584H462.767V162ZM460.895 157.936V153.008L457.647 157.936H460.895Z" fill="white"/>
<path d="M501.224 162H499.352V154.08L496.072 162H495.272L492.008 154.08V162H490.136V151.328H492.776L495.672 158.352L498.584 151.328H501.224V162ZM513.095 162H510.967L510.183 159.952H505.287L504.503 162H502.375L506.567 151.328H508.903L513.095 162ZM509.655 158.304L507.735 153.216L505.815 158.304H509.655ZM522.517 162H520.357L517.989 158.016H516.133V162H514.261V151.328H518.949C519.994 151.328 520.837 151.637 521.477 152.256C522.117 152.875 522.437 153.68 522.437 154.672C522.437 155.568 522.192 156.288 521.701 156.832C521.21 157.365 520.613 157.691 519.909 157.808L522.517 162ZM518.693 156.368C519.226 156.368 519.664 156.213 520.005 155.904C520.346 155.595 520.517 155.184 520.517 154.672C520.517 154.16 520.346 153.749 520.005 153.44C519.664 153.131 519.226 152.976 518.693 152.976H516.133V156.368H518.693ZM535.809 162H528.081V160.528C530.311 158.843 531.825 157.595 532.625 156.784C533.436 155.963 533.841 155.189 533.841 154.464C533.841 153.941 533.649 153.541 533.265 153.264C532.892 152.976 532.439 152.832 531.905 152.832C530.732 152.832 529.772 153.259 529.025 154.112L527.937 152.88C528.396 152.325 528.972 151.904 529.665 151.616C530.369 151.317 531.105 151.168 531.873 151.168C532.961 151.168 533.879 151.461 534.625 152.048C535.372 152.635 535.745 153.44 535.745 154.464C535.745 155.381 535.361 156.293 534.593 157.2C533.825 158.107 532.652 159.157 531.073 160.352H535.809V162ZM541.741 162H539.869V153.76L538.125 155.568L537.037 154.432L540.109 151.328H541.741V162Z" fill="white"/>
<defs>
<linearGradient id="paint0_linear_1825_441" x1="461.015" y1="-62.1945" x2="307.024" y2="288.661" gradientUnits="userSpaceOnUse">
<stop stop-color="#AB28FB"/>
<stop offset="1" stop-color="#EE11F2" stop-opacity="0.7"/>
</linearGradient>
<linearGradient id="paint1_linear_1825_441" x1="276.609" y1="-72.4174" x2="207.498" y2="288.505" gradientUnits="userSpaceOnUse">
<stop stop-color="#A21ECD"/>
<stop offset="1" stop-color="white"/>
</linearGradient>
<linearGradient id="paint2_linear_1825_441" x1="3.1436e-05" y1="-92.995" x2="271.536" y2="453.776" gradientUnits="userSpaceOnUse">
<stop stop-color="#CB5B66"/>
<stop offset="1" stop-color="#FF919D" stop-opacity="0"/>
</linearGradient>
<linearGradient id="paint3_linear_1825_441" x1="461.015" y1="-85.25" x2="251.575" y2="368.298" gradientUnits="userSpaceOnUse">
<stop stop-color="#FF650F"/>
<stop offset="0.183819" stop-color="#FF7D0C" stop-opacity="0.816181"/>
<stop offset="1" stop-color="#FFE600" stop-opacity="0"/>
</linearGradient>
<linearGradient id="paint4_linear_1825_441" x1="105.978" y1="139.488" x2="431.004" y2="63.4007" gradientUnits="userSpaceOnUse">
<stop stop-color="#4E9CF7" stop-opacity="0.8"/>
<stop offset="1" stop-color="#4FBBF7" stop-opacity="0.85"/>
</linearGradient>
</defs>
</svg>
