<svg width="76" height="73" viewBox="0 0 76 73" fill="none" xmlns="http://www.w3.org/2000/svg">
<rect width="76" height="73" rx="10" fill="white"/>
<circle cx="37.5" cy="36.5" r="16.5" fill="#5DBD3C"/>
<path d="M37 39.4704H32.3799C30.9714 39.4704 30.2672 39.4704 29.9723 39.0089C29.6774 38.5473 29.9732 37.9083 30.5649 36.6301L36.5463 23.7105C36.9205 22.9022 37.1075 22.4981 37.3038 22.5413C37.5 22.5845 37.5 23.0299 37.5 23.9205V33.0304C37.5 33.2661 37.5 33.3839 37.5732 33.4572C37.6464 33.5304 37.7643 33.5304 38 33.5304H42.6201C44.0286 33.5304 44.7328 33.5304 45.0277 33.9919C45.3226 34.4535 45.0268 35.0925 44.4351 36.3706L38.4537 49.2903C38.0795 50.0986 37.8925 50.5027 37.6962 50.4595C37.5 50.4163 37.5 49.9709 37.5 49.0803V39.9704C37.5 39.7347 37.5 39.6168 37.4268 39.5436C37.3536 39.4704 37.2357 39.4704 37 39.4704Z" fill="white"/>
</svg>
