<svg width="162" height="113" viewBox="0 0 162 113" fill="none" xmlns="http://www.w3.org/2000/svg">
<g filter="url(#filter0_d_1749_5604)">
<rect x="38" y="35" width="82" height="33" rx="16.5" fill="white"/>
</g>
<path d="M82.82 58V55.75H77.744V45.994H75.188V58H82.82ZM85.6899 48.37C86.4459 48.37 87.0579 47.758 87.0579 47.002C87.0579 46.246 86.4459 45.652 85.6899 45.652C84.9519 45.652 84.3219 46.246 84.3219 47.002C84.3219 47.758 84.9519 48.37 85.6899 48.37ZM86.8419 58V49.306H84.5559V58H86.8419ZM93.8246 58L97.3166 49.306H94.8506L92.5826 55.354L90.3146 49.306H87.8666L91.3586 58H93.8246ZM102.423 58.216C103.773 58.216 105.141 57.802 106.005 57.01L104.997 55.534C104.439 56.074 103.413 56.398 102.675 56.398C101.199 56.398 100.317 55.48 100.173 54.382H106.635V53.878C106.635 51.034 104.871 49.09 102.279 49.09C99.6331 49.09 97.7791 51.124 97.7791 53.644C97.7791 56.434 99.7771 58.216 102.423 58.216ZM104.421 52.834H100.137C100.245 51.97 100.857 50.908 102.279 50.908C103.791 50.908 104.367 52.006 104.421 52.834Z" fill="#5DBD3C"/>
<path d="M62.2777 50.6615L63.1204 50.1231C63.4999 50.717 63.415 51.3454 63.2732 51.8271C63.1409 52.2762 62.8925 52.8128 62.6218 53.3971C62.6121 53.4181 62.6023 53.4392 62.5925 53.4604L59.8612 59.3601L59.8389 59.4083C59.6713 59.7705 59.5118 60.115 59.3656 60.3586C59.2917 60.4816 59.1735 60.6625 59.0018 60.8121C58.8116 60.9779 58.4495 61.1888 57.9811 61.0857C57.5127 60.9825 57.2728 60.639 57.1698 60.4086C57.0769 60.2007 57.0456 59.9869 57.0303 59.8442C56.9999 59.5617 56.9999 59.1821 57 58.783L57 58.7299V54.8H56.1299C56.1066 54.8 56.0833 54.8 56.0602 54.8C55.4162 54.8001 54.8249 54.8002 54.3618 54.7315C53.8651 54.6578 53.2591 54.4708 52.8796 53.8769M62.2777 50.6615L52.8796 53.8769M62.2777 50.6615L63.1204 50.1231C62.7409 49.5292 62.1349 49.3422 61.6382 49.2685C61.1751 49.1998 60.5838 49.1999 59.9398 49.2C59.9167 49.2 59.8934 49.2 59.8701 49.2H59V45.2701C59 45.2524 59 45.2347 59 45.217C59.0001 44.8179 59.0001 44.4383 58.9697 44.1558C58.9544 44.0131 58.9231 43.7993 58.8302 43.5914C58.7272 43.361 58.4873 43.0175 58.0189 42.9143C57.5505 42.8112 57.1884 43.0221 56.9982 43.1879C56.8265 43.3375 56.7083 43.5184 56.6344 43.6414C56.4882 43.885 56.3287 44.2295 56.1611 44.5918C56.1537 44.6078 56.1462 44.6238 56.1388 44.6399L53.4075 50.5396C53.3977 50.5608 53.3879 50.5819 53.3782 50.6029C53.1076 51.1872 52.8591 51.7238 52.7268 52.1729C52.585 52.6546 52.5001 53.283 52.8796 53.8769M62.2777 50.6615L52.8796 53.8769M58.3753 44.6303C58.3753 44.6303 58.3747 44.6312 58.3735 44.6327C58.3747 44.631 58.3753 44.6303 58.3753 44.6303ZM56.9751 44.3247C56.9747 44.3228 56.9745 44.3218 56.9745 44.3218C56.9745 44.3217 56.9747 44.3227 56.9751 44.3247ZM57.6247 59.3697C57.6247 59.3697 57.6253 59.3688 57.6266 59.3671C57.6253 59.3689 57.6247 59.3697 57.6247 59.3697ZM59.0255 59.6782C59.0255 59.6783 59.0253 59.6773 59.0249 59.6753C59.0253 59.6772 59.0255 59.6782 59.0255 59.6782Z" stroke="#5DBD3C" stroke-width="2"/>
<defs>
<filter id="filter0_d_1749_5604" x="0" y="0" width="162" height="113" filterUnits="userSpaceOnUse" color-interpolation-filters="sRGB">
<feFlood flood-opacity="0" result="BackgroundImageFix"/>
<feColorMatrix in="SourceAlpha" type="matrix" values="0 0 0 0 0 0 0 0 0 0 0 0 0 0 0 0 0 0 127 0" result="hardAlpha"/>
<feOffset dx="2" dy="5"/>
<feGaussianBlur stdDeviation="20"/>
<feComposite in2="hardAlpha" operator="out"/>
<feColorMatrix type="matrix" values="0 0 0 0 0.933333 0 0 0 0 0.933333 0 0 0 0 0.933333 0 0 0 1 0"/>
<feBlend mode="normal" in2="BackgroundImageFix" result="effect1_dropShadow_1749_5604"/>
<feBlend mode="normal" in="SourceGraphic" in2="effect1_dropShadow_1749_5604" result="shape"/>
</filter>
</defs>
</svg>
