<svg width="149" height="74" viewBox="0 0 149 74" fill="none" xmlns="http://www.w3.org/2000/svg">
<g filter="url(#filter0_d_1727_4834)">
<rect x="18" y="15" width="109" height="34" rx="10" fill="white"/>
</g>
<path d="M58.083 37.204C56.1337 37.204 54.598 36.6033 53.476 35.402L54.581 33.872C55.5557 34.9147 56.7513 35.436 58.168 35.436C58.9273 35.436 59.494 35.283 59.868 34.977C60.2533 34.671 60.446 34.3083 60.446 33.889C60.446 33.4583 60.2193 33.1183 59.766 32.869C59.3127 32.6083 58.763 32.4043 58.117 32.257C57.471 32.1097 56.8193 31.934 56.162 31.73C55.516 31.526 54.9663 31.1803 54.513 30.693C54.0597 30.2057 53.833 29.5767 53.833 28.806C53.833 27.854 54.2127 27.0663 54.972 26.443C55.7427 25.8083 56.74 25.491 57.964 25.491C59.7093 25.491 61.126 26.018 62.214 27.072L61.075 28.551C60.2137 27.6897 59.12 27.259 57.794 27.259C57.2047 27.259 56.7343 27.3893 56.383 27.65C56.043 27.8993 55.873 28.2393 55.873 28.67C55.873 28.9533 55.992 29.1913 56.23 29.384C56.4793 29.5767 56.7967 29.7353 57.182 29.86C57.5673 29.9733 57.9923 30.0867 58.457 30.2C58.933 30.3133 59.4033 30.455 59.868 30.625C60.344 30.7837 60.7747 30.982 61.16 31.22C61.5453 31.458 61.857 31.7867 62.095 32.206C62.3443 32.6253 62.469 33.124 62.469 33.702C62.469 34.722 62.1007 35.5607 61.364 36.218C60.6273 36.8753 59.5337 37.204 58.083 37.204ZM71.0498 37H69.2648V36.116C68.6301 36.8413 67.7461 37.204 66.6128 37.204C65.8648 37.204 65.2018 36.966 64.6238 36.49C64.0458 36.0027 63.7568 35.334 63.7568 34.484C63.7568 33.6113 64.0401 32.9483 64.6068 32.495C65.1848 32.0417 65.8534 31.815 66.6128 31.815C67.7801 31.815 68.6641 32.1663 69.2648 32.869V31.645C69.2648 31.169 69.0891 30.795 68.7378 30.523C68.3864 30.251 67.9218 30.115 67.3438 30.115C66.4258 30.115 65.6154 30.4607 64.9128 31.152L64.1818 29.911C65.1111 29.027 66.2614 28.585 67.6328 28.585C68.6414 28.585 69.4631 28.823 70.0978 29.299C70.7324 29.775 71.0498 30.5287 71.0498 31.56V37ZM67.3098 35.98C68.2051 35.98 68.8568 35.6967 69.2648 35.13V33.889C68.8568 33.3223 68.2051 33.039 67.3098 33.039C66.7998 33.039 66.3804 33.175 66.0518 33.447C65.7231 33.719 65.5588 34.076 65.5588 34.518C65.5588 34.96 65.7231 35.317 66.0518 35.589C66.3804 35.8497 66.7998 35.98 67.3098 35.98ZM77.444 37H75.523L72.174 28.789H74.078L76.475 34.943L78.872 28.789H80.793L77.444 37ZM85.7048 37.204C84.4581 37.204 83.4268 36.8073 82.6108 36.014C81.8061 35.2093 81.4038 34.1667 81.4038 32.886C81.4038 31.6847 81.7948 30.6703 82.5768 29.843C83.3701 29.0043 84.3675 28.585 85.5688 28.585C86.7815 28.585 87.7561 29.0043 88.4928 29.843C89.2408 30.6817 89.6148 31.7527 89.6148 33.056V33.481H83.2738C83.3418 34.127 83.6081 34.6653 84.0728 35.096C84.5375 35.5267 85.1438 35.742 85.8918 35.742C86.3111 35.742 86.7305 35.6627 87.1498 35.504C87.5805 35.3453 87.9375 35.1243 88.2208 34.841L89.0368 36.014C88.2095 36.8073 87.0988 37.204 85.7048 37.204ZM87.8808 32.223C87.8581 31.6563 87.6485 31.152 87.2518 30.71C86.8665 30.268 86.3055 30.047 85.5688 30.047C84.8661 30.047 84.3165 30.268 83.9198 30.71C83.5231 31.1407 83.3021 31.645 83.2568 32.223H87.8808Z" fill="#24A3FF"/>
<defs>
<filter id="filter0_d_1727_4834" x="0" y="0" width="149" height="74" filterUnits="userSpaceOnUse" color-interpolation-filters="sRGB">
<feFlood flood-opacity="0" result="BackgroundImageFix"/>
<feColorMatrix in="SourceAlpha" type="matrix" values="0 0 0 0 0 0 0 0 0 0 0 0 0 0 0 0 0 0 127 0" result="hardAlpha"/>
<feOffset dx="2" dy="5"/>
<feGaussianBlur stdDeviation="10"/>
<feComposite in2="hardAlpha" operator="out"/>
<feColorMatrix type="matrix" values="0 0 0 0 0.945833 0 0 0 0 0.945833 0 0 0 0 0.945833 0 0 0 1 0"/>
<feBlend mode="normal" in2="BackgroundImageFix" result="effect1_dropShadow_1727_4834"/>
<feBlend mode="normal" in="SourceGraphic" in2="effect1_dropShadow_1727_4834" result="shape"/>
</filter>
</defs>
</svg>
