<svg width="240" height="240" viewBox="0 0 240 240" fill="none" xmlns="http://www.w3.org/2000/svg">
<path d="M195.159 108.381L194.702 107.918L194.702 107.918L195.159 108.381ZM195.866 108.385L195.403 108.842L195.403 108.842L195.866 108.385ZM190.543 112.022L194.702 107.918L195.615 108.843L191.457 112.948L190.543 112.022ZM196.328 107.929L200.433 112.087L199.507 113.001L195.403 108.842L196.328 107.929ZM194.702 107.918C195.154 107.472 195.882 107.477 196.328 107.929L195.403 108.842C195.461 108.901 195.556 108.902 195.615 108.843L194.702 107.918Z" fill="#252531"/>
<path d="M195.16 119.625L195.615 119.16L195.615 119.16L195.16 119.625ZM195.864 119.62L196.324 120.079L196.324 120.079L195.864 119.62ZM190.546 116.023L194.706 120.089L195.615 119.16L191.454 115.094L190.546 116.023ZM196.324 120.079L200.43 115.959L199.51 115.041L195.404 119.161L196.324 120.079ZM194.706 120.089C195.157 120.53 195.879 120.526 196.324 120.079L195.404 119.161C195.462 119.103 195.556 119.102 195.615 119.16L194.706 120.089Z" fill="#252531"/>
<path d="M148.038 120.216C146.238 120.216 144.738 119.64 143.538 118.488C142.338 117.324 141.738 115.83 141.738 114.006C141.738 112.182 142.338 110.694 143.538 109.542C144.738 108.378 146.238 107.796 148.038 107.796C150.126 107.796 151.734 108.696 152.862 110.496L151.062 111.414C150.762 110.898 150.336 110.478 149.784 110.154C149.244 109.83 148.662 109.668 148.038 109.668C146.85 109.668 145.86 110.076 145.068 110.892C144.288 111.708 143.898 112.746 143.898 114.006C143.898 115.266 144.288 116.304 145.068 117.12C145.86 117.936 146.85 118.344 148.038 118.344C148.674 118.344 149.262 118.182 149.802 117.858C150.342 117.534 150.762 117.114 151.062 116.598L152.862 117.516C151.71 119.316 150.102 120.216 148.038 120.216ZM158.418 120.216C157.074 120.216 155.994 119.778 155.178 118.902C154.362 118.014 153.954 116.928 153.954 115.644C153.954 114.36 154.362 113.28 155.178 112.404C155.994 111.528 157.074 111.09 158.418 111.09C159.774 111.09 160.86 111.528 161.676 112.404C162.492 113.28 162.9 114.36 162.9 115.644C162.9 116.94 162.492 118.026 161.676 118.902C160.86 119.778 159.774 120.216 158.418 120.216ZM158.418 118.542C159.198 118.542 159.81 118.266 160.254 117.714C160.71 117.15 160.938 116.46 160.938 115.644C160.938 114.84 160.71 114.162 160.254 113.61C159.81 113.046 159.198 112.764 158.418 112.764C157.65 112.764 157.038 113.046 156.582 113.61C156.138 114.162 155.916 114.84 155.916 115.644C155.916 116.46 156.138 117.15 156.582 117.714C157.038 118.266 157.65 118.542 158.418 118.542ZM166.702 120H164.812V107.994H166.702V120ZM170.09 110.244C169.778 110.244 169.502 110.13 169.262 109.902C169.034 109.674 168.92 109.398 168.92 109.074C168.92 108.75 169.034 108.474 169.262 108.246C169.502 108.018 169.778 107.904 170.09 107.904C170.414 107.904 170.69 108.018 170.918 108.246C171.146 108.474 171.26 108.75 171.26 109.074C171.26 109.398 171.146 109.674 170.918 109.902C170.69 110.13 170.414 110.244 170.09 110.244ZM171.044 120H169.154V111.306H171.044V120ZM181.253 120H179.363V114.564C179.363 113.364 178.781 112.764 177.617 112.764C177.161 112.764 176.735 112.878 176.339 113.106C175.943 113.334 175.625 113.61 175.385 113.934V120H173.495V111.306H175.385V112.494C175.709 112.11 176.141 111.78 176.681 111.504C177.221 111.228 177.809 111.09 178.445 111.09C179.369 111.09 180.065 111.33 180.533 111.81C181.013 112.29 181.253 112.98 181.253 113.88V120Z" fill="#252531"/>
<g filter="url(#filter0_d_1614_599)">
<rect x="103" y="100" width="30" height="30" rx="4" fill="white"/>
</g>
<path d="M110.003 112C110.003 112 109.247 113.189 109.247 114.27C109.247 115.426 110.152 116.061 111.293 116.061C112.575 116.061 113.418 115.698 115.656 115.145L128 112.083C128 112.083 117.535 116.35 112.531 118.298C111.539 118.686 110.608 119 109.414 119C108.097 119 107 118.257 107 117.019C107 116.078 107.325 115.376 107.869 114.509C108.738 113.123 110.003 112 110.003 112Z" fill="black"/>
<defs>
<filter id="filter0_d_1614_599" x="0" y="0" width="240" height="240" filterUnits="userSpaceOnUse" color-interpolation-filters="sRGB">
<feFlood flood-opacity="0" result="BackgroundImageFix"/>
<feColorMatrix in="SourceAlpha" type="matrix" values="0 0 0 0 0 0 0 0 0 0 0 0 0 0 0 0 0 0 127 0" result="hardAlpha"/>
<feMorphology radius="5" operator="dilate" in="SourceAlpha" result="effect1_dropShadow_1614_599"/>
<feOffset dx="2" dy="5"/>
<feGaussianBlur stdDeviation="50"/>
<feComposite in2="hardAlpha" operator="out"/>
<feColorMatrix type="matrix" values="0 0 0 0 0.927838 0 0 0 0 0.930026 0 0 0 0 0.937784 0 0 0 1 0"/>
<feBlend mode="normal" in2="BackgroundImageFix" result="effect1_dropShadow_1614_599"/>
<feBlend mode="normal" in="SourceGraphic" in2="effect1_dropShadow_1614_599" result="shape"/>
</filter>
</defs>
</svg>
