<svg width="81" height="28" viewBox="0 0 81 28" fill="none" xmlns="http://www.w3.org/2000/svg">
<path d="M73.0396 7.39299L72.583 6.93036L72.583 6.93036L73.0396 7.39299ZM73.7467 7.39763L74.2093 6.94105L74.2093 6.94105L73.7467 7.39763ZM66.5434 12.8911L72.583 6.93036L73.4962 7.85562L67.4566 13.8164L66.5434 12.8911ZM74.2093 6.94105L80.1701 12.9807L79.2448 13.8938L73.2841 7.85422L74.2093 6.94105ZM72.583 6.93036C73.0351 6.48421 73.7632 6.489 74.2093 6.94105L73.2841 7.85422C73.3423 7.91319 73.4372 7.91381 73.4962 7.85562L72.583 6.93036Z" fill="#252531"/>
<path d="M73.0413 23.6125L72.587 24.0773L72.587 24.0773L73.0413 23.6125ZM73.745 23.6079L74.2054 24.0668L74.2054 24.0668L73.745 23.6079ZM66.5457 18.1725L72.587 24.0773L73.4956 23.1477L67.4543 17.2429L66.5457 18.1725ZM74.2054 24.0668L80.1679 18.0839L79.247 17.1661L73.2845 23.1491L74.2054 24.0668ZM72.587 24.0773C73.0381 24.5182 73.7602 24.5135 74.2054 24.0668L73.2845 23.1491C73.3426 23.0908 73.4368 23.0902 73.4956 23.1477L72.587 24.0773Z" fill="#252531"/>
<path d="M9.384 22.288C6.984 22.288 4.984 21.52 3.384 19.984C1.784 18.432 0.984 16.44 0.984 14.008C0.984 11.576 1.784 9.592 3.384 8.056C4.984 6.504 6.984 5.728 9.384 5.728C12.168 5.728 14.312 6.928 15.816 9.328L13.416 10.552C13.016 9.864 12.448 9.304 11.712 8.872C10.992 8.44 10.216 8.224 9.384 8.224C7.8 8.224 6.48 8.768 5.424 9.856C4.384 10.944 3.864 12.328 3.864 14.008C3.864 15.688 4.384 17.072 5.424 18.16C6.48 19.248 7.8 19.792 9.384 19.792C10.232 19.792 11.016 19.576 11.736 19.144C12.456 18.712 13.016 18.152 13.416 17.464L15.816 18.688C14.28 21.088 12.136 22.288 9.384 22.288ZM23.2234 22.288C21.4314 22.288 19.9914 21.704 18.9034 20.536C17.8154 19.352 17.2714 17.904 17.2714 16.192C17.2714 14.48 17.8154 13.04 18.9034 11.872C19.9914 10.704 21.4314 10.12 23.2234 10.12C25.0314 10.12 26.4794 10.704 27.5674 11.872C28.6554 13.04 29.1994 14.48 29.1994 16.192C29.1994 17.92 28.6554 19.368 27.5674 20.536C26.4794 21.704 25.0314 22.288 23.2234 22.288ZM23.2234 20.056C24.2634 20.056 25.0794 19.688 25.6714 18.952C26.2794 18.2 26.5834 17.28 26.5834 16.192C26.5834 15.12 26.2794 14.216 25.6714 13.48C25.0794 12.728 24.2634 12.352 23.2234 12.352C22.1994 12.352 21.3834 12.728 20.7754 13.48C20.1834 14.216 19.8874 15.12 19.8874 16.192C19.8874 17.28 20.1834 18.2 20.7754 18.952C21.3834 19.688 22.1994 20.056 23.2234 20.056ZM34.2692 22H31.7492V5.992H34.2692V22ZM38.7863 8.992C38.3703 8.992 38.0023 8.84 37.6823 8.536C37.3783 8.232 37.2263 7.864 37.2263 7.432C37.2263 7 37.3783 6.632 37.6823 6.328C38.0023 6.024 38.3703 5.872 38.7863 5.872C39.2183 5.872 39.5863 6.024 39.8903 6.328C40.1943 6.632 40.3463 7 40.3463 7.432C40.3463 7.864 40.1943 8.232 39.8903 8.536C39.5863 8.84 39.2183 8.992 38.7863 8.992ZM40.0583 22H37.5383V10.408H40.0583V22ZM53.6713 22H51.1513V14.752C51.1513 13.152 50.3753 12.352 48.8233 12.352C48.2153 12.352 47.6473 12.504 47.1193 12.808C46.5913 13.112 46.1673 13.48 45.8473 13.912V22H43.3273V10.408H45.8473V11.992C46.2793 11.48 46.8553 11.04 47.5753 10.672C48.2953 10.304 49.0793 10.12 49.9273 10.12C51.1593 10.12 52.0873 10.44 52.7113 11.08C53.3513 11.72 53.6713 12.64 53.6713 13.84V22Z" fill="#252531"/>
</svg>
