<svg width="11" height="14" viewBox="0 0 11 14" fill="none" xmlns="http://www.w3.org/2000/svg">
<path d="M5.15865 1.3807L4.70207 0.918072L4.70207 0.918072L5.15865 1.3807ZM5.86575 1.38535L5.40312 1.84194L5.40311 1.84194L5.86575 1.38535ZM0.543472 5.02235L4.70207 0.918072L5.61524 1.84333L1.45665 5.94761L0.543472 5.02235ZM6.32838 0.928762L10.4327 5.08736L9.5074 6.00053L5.40312 1.84194L6.32838 0.928762ZM4.70207 0.918072C5.15411 0.471931 5.88224 0.476717 6.32838 0.928763L5.40311 1.84194C5.46131 1.9009 5.55628 1.90153 5.61524 1.84333L4.70207 0.918072Z" fill="#252531"/>
<path d="M5.16039 12.6247L5.61469 12.1599L5.61469 12.1599L5.16039 12.6247ZM5.86403 12.6201L6.32447 13.079L6.32447 13.079L5.86403 12.6201ZM0.545754 9.02321L4.70608 13.0895L5.61469 12.1599L1.45437 8.09358L0.545754 9.02321ZM6.32447 13.079L10.4305 8.95886L9.50959 8.04114L5.4036 12.1612L6.32447 13.079ZM4.70608 13.0895C5.1572 13.5304 5.87924 13.5257 6.32447 13.079L5.4036 12.1612C5.46167 12.103 5.55585 12.1023 5.61469 12.1599L4.70608 13.0895Z" fill="#252531"/>
</svg>
