<svg width="194" height="38" viewBox="0 0 194 38" fill="none" xmlns="http://www.w3.org/2000/svg">
<rect width="194" height="38" rx="4" fill="#EEEEF4"/>
<path d="M45.83 24V22.68H40.61V19.56H45.725V18.24H40.61V15.315H45.83V13.995H39.11V24H45.83ZM53.9186 24V18.915C53.9186 17.385 53.1236 16.575 51.5936 16.575C50.4686 16.575 49.5086 17.19 49.0286 17.775V16.755H47.6786V24H49.0286V18.825C49.4186 18.285 50.1836 17.775 51.0236 17.775C51.9536 17.775 52.5686 18.165 52.5686 19.365V24H53.9186ZM58.0525 24.18C58.7575 24.18 59.1775 23.985 59.4625 23.715L59.1175 22.695C58.9825 22.845 58.6975 22.98 58.3825 22.98C57.9175 22.98 57.6775 22.605 57.6775 22.095V17.94H59.1475V16.755H57.6775V14.775H56.3275V16.755H55.1275V17.94H56.3275V22.395C56.3275 23.535 56.9125 24.18 58.0525 24.18ZM63.9425 24.18C65.1125 24.18 66.1325 23.805 66.8525 23.1L66.2225 22.215C65.6825 22.77 64.8425 23.07 64.0775 23.07C62.6225 23.07 61.7225 22.05 61.6175 20.82H67.3475V20.49C67.3475 18.27 65.9975 16.575 63.8225 16.575C61.7075 16.575 60.1925 18.27 60.1925 20.37C60.1925 22.65 61.7825 24.18 63.9425 24.18ZM66.0275 19.845H61.6025C61.6775 18.855 62.3675 17.685 63.8225 17.685C65.3525 17.685 65.9975 18.885 66.0275 19.845ZM70.3861 24V18.96C70.7011 18.42 71.6161 17.91 72.2911 17.91C72.4711 17.91 72.6211 17.925 72.7561 17.955V16.59C71.7961 16.59 70.9411 17.145 70.3861 17.865V16.755H69.0361V24H70.3861ZM82.2166 24.18C85.0216 24.18 86.4166 22.56 86.4166 20.07V13.995H84.9016V20.04C84.9016 21.75 83.9716 22.845 82.2166 22.845C80.4616 22.845 79.5166 21.75 79.5166 20.04V13.995H78.0016V20.085C78.0016 22.545 79.4116 24.18 82.2166 24.18ZM96.151 24L93.586 19.995C94.861 19.83 96.076 18.87 96.076 17.07C96.076 15.225 94.771 13.995 92.866 13.995H88.651V24H90.151V20.145H92.026L94.411 24H96.151ZM92.671 18.825H90.151V15.315H92.671C93.751 15.315 94.531 16.02 94.531 17.07C94.531 18.12 93.751 18.825 92.671 18.825ZM103.968 24V22.68H99.4235V13.995H97.9235V24H103.968ZM117.356 24L112.901 18.735L117.026 13.995H115.166L110.981 18.96V13.995H109.481V24H110.981V20.715L111.926 19.65L115.496 24H117.356ZM121.438 24.18C122.608 24.18 123.628 23.805 124.348 23.1L123.718 22.215C123.178 22.77 122.338 23.07 121.573 23.07C120.118 23.07 119.218 22.05 119.113 20.82H124.843V20.49C124.843 18.27 123.493 16.575 121.318 16.575C119.203 16.575 117.688 18.27 117.688 20.37C117.688 22.65 119.278 24.18 121.438 24.18ZM123.523 19.845H119.098C119.173 18.855 119.863 17.685 121.318 17.685C122.848 17.685 123.493 18.885 123.523 19.845ZM126.171 26.835C126.381 26.895 126.786 26.94 127.011 26.94C128.061 26.925 128.856 26.52 129.321 25.38L132.891 16.755H131.436L129.171 22.44L126.906 16.755H125.466L128.451 24.075L128.031 25.035C127.806 25.575 127.476 25.74 126.981 25.74C126.801 25.74 126.546 25.695 126.381 25.62L126.171 26.835ZM141.667 24L143.947 16.755H142.537L140.887 22.275L139.072 16.755H137.902L136.087 22.275L134.437 16.755H133.027L135.307 24H136.702L138.487 18.435L140.272 24H141.667ZM148.359 24.18C150.624 24.18 152.019 22.47 152.019 20.37C152.019 18.285 150.624 16.575 148.359 16.575C146.109 16.575 144.699 18.285 144.699 20.37C144.699 22.47 146.109 24.18 148.359 24.18ZM148.359 22.98C146.919 22.98 146.109 21.75 146.109 20.37C146.109 19.005 146.919 17.775 148.359 17.775C149.814 17.775 150.609 19.005 150.609 20.37C150.609 21.75 149.814 22.98 148.359 22.98ZM155.083 24V18.96C155.398 18.42 156.313 17.91 156.988 17.91C157.168 17.91 157.318 17.925 157.453 17.955V16.59C156.493 16.59 155.638 17.145 155.083 17.865V16.755H153.733V24H155.083ZM165.312 24V13.995H163.962V17.805C163.377 17.025 162.522 16.575 161.592 16.575C159.702 16.575 158.352 18.06 158.352 20.385C158.352 22.755 159.702 24.18 161.592 24.18C162.552 24.18 163.422 23.685 163.962 22.965V24H165.312ZM161.952 22.98C160.602 22.98 159.762 21.885 159.762 20.385C159.762 18.87 160.602 17.775 161.952 17.775C162.777 17.775 163.587 18.255 163.962 18.84V21.93C163.587 22.515 162.777 22.98 161.952 22.98ZM169.859 24.18C171.764 24.18 172.784 23.205 172.784 21.96C172.784 20.295 171.284 19.95 170.024 19.665C169.124 19.455 168.344 19.29 168.344 18.675C168.344 18.09 168.914 17.67 169.829 17.67C170.744 17.67 171.554 18.045 171.974 18.555L172.574 17.61C171.959 17.025 171.059 16.575 169.814 16.575C168.044 16.575 167.054 17.565 167.054 18.72C167.054 20.28 168.494 20.61 169.724 20.895C170.654 21.105 171.479 21.3 171.479 21.99C171.479 22.635 170.939 23.1 169.919 23.1C168.944 23.1 167.984 22.605 167.489 22.065L166.844 23.055C167.579 23.805 168.644 24.18 169.859 24.18Z" fill="#252531"/>
<path d="M19 13.7144L19 25.7251" stroke="#252531" stroke-width="2" stroke-linecap="round"/>
<path d="M25 19.7197L13 19.7197" stroke="#252531" stroke-width="2" stroke-linecap="round"/>
</svg>
