<svg width="388" height="234" viewBox="0 0 388 234" fill="none" xmlns="http://www.w3.org/2000/svg">
<path d="M11.04 14V7.36C11.04 5.02 9.34 4.1 7.3 4.1C5.72 4.1 4.48 4.62 3.44 5.7L4.14 6.74C5 5.82 5.94 5.4 7.1 5.4C8.5 5.4 9.54 6.14 9.54 7.44V9.18C8.76 8.28 7.66 7.86 6.34 7.86C4.7 7.86 2.96 8.88 2.96 11.04C2.96 13.14 4.7 14.24 6.34 14.24C7.64 14.24 8.74 13.78 9.54 12.9V14H11.04ZM6.88 13.16C5.48 13.16 4.5 12.28 4.5 11.06C4.5 9.82 5.48 8.94 6.88 8.94C7.94 8.94 8.96 9.34 9.54 10.14V11.96C8.96 12.76 7.94 13.16 6.88 13.16ZM15.9669 14V5.66H17.9269V4.34H15.9669V3.6C15.9669 2.38 16.5069 1.7 17.4869 1.7C17.9869 1.7 18.3669 1.9 18.6869 2.18L19.3069 1.2C18.7069 0.639999 18.0269 0.459999 17.2669 0.459999C15.5469 0.459999 14.4669 1.62 14.4669 3.6V4.34H12.8669V5.66H14.4669V14H15.9669ZM22.1509 14.24C23.0309 14.24 23.5709 13.98 23.9509 13.62L23.5109 12.5C23.3109 12.72 22.9109 12.9 22.4909 12.9C21.8309 12.9 21.5109 12.38 21.5109 11.66V5.66H23.4709V4.34H21.5109V1.7H20.0109V4.34H18.4109V5.66H20.0109V11.98C20.0109 13.42 20.7309 14.24 22.1509 14.24ZM29.9498 14.24C31.5298 14.24 32.8298 13.72 33.7898 12.76L33.0698 11.78C32.3098 12.56 31.1898 13 30.0898 13C28.0098 13 26.7298 11.48 26.6098 9.66H34.4298V9.28C34.4298 6.38 32.7098 4.1 29.7898 4.1C27.0298 4.1 25.0298 6.36 25.0298 9.16C25.0298 12.18 27.0898 14.24 29.9498 14.24ZM32.9498 8.56H26.6098C26.6898 7.08 27.7098 5.34 29.7698 5.34C31.9698 5.34 32.9298 7.12 32.9498 8.56ZM38.3594 14V7.16C38.7994 6.38 40.0594 5.62 40.9794 5.62C41.2194 5.62 41.3994 5.64 41.5794 5.68V4.14C40.2594 4.14 39.1394 4.88 38.3594 5.9V4.34H36.8594V14H38.3594ZM45.1809 14V8.7H48.8809C51.5209 8.7 53.0609 6.86 53.0609 4.68C53.0609 2.5 51.5609 0.659999 48.8809 0.659999H43.5209V14H45.1809ZM48.6809 7.22H45.1809V2.14H48.6809C50.2609 2.14 51.3409 3.18 51.3409 4.68C51.3409 6.18 50.2609 7.22 48.6809 7.22ZM62.3486 14V7.36C62.3486 5.02 60.6486 4.1 58.6086 4.1C57.0286 4.1 55.7886 4.62 54.7486 5.7L55.4486 6.74C56.3086 5.82 57.2486 5.4 58.4086 5.4C59.8086 5.4 60.8486 6.14 60.8486 7.44V9.18C60.0686 8.28 58.9686 7.86 57.6486 7.86C56.0086 7.86 54.2686 8.88 54.2686 11.04C54.2686 13.14 56.0086 14.24 57.6486 14.24C58.9486 14.24 60.0486 13.78 60.8486 12.9V14H62.3486ZM58.1886 13.16C56.7886 13.16 55.8086 12.28 55.8086 11.06C55.8086 9.82 56.7886 8.94 58.1886 8.94C59.2486 8.94 60.2686 9.34 60.8486 10.14V11.96C60.2686 12.76 59.2486 13.16 58.1886 13.16ZM69.2355 17.92C71.5955 17.92 73.8355 16.92 73.8355 13.72V4.34H72.3355V5.8C71.5555 4.74 70.3955 4.1 69.0955 4.1C66.5555 4.1 64.7955 6.02 64.7955 9.12C64.7955 12.24 66.5755 14.12 69.0955 14.12C70.4555 14.12 71.6355 13.38 72.3355 12.4V13.78C72.3355 15.9 70.8355 16.68 69.2355 16.68C67.8555 16.68 66.8955 16.32 66.0955 15.36L65.3355 16.48C66.4755 17.6 67.5955 17.92 69.2355 17.92ZM69.4555 12.8C67.5155 12.8 66.3555 11.24 66.3555 9.12C66.3555 6.98 67.5155 5.44 69.4555 5.44C70.6555 5.44 71.8155 6.16 72.3355 7V11.22C71.8155 12.06 70.6555 12.8 69.4555 12.8ZM81.1998 14.24C82.7798 14.24 84.0798 13.72 85.0398 12.76L84.3198 11.78C83.5598 12.56 82.4398 13 81.3398 13C79.2598 13 77.9798 11.48 77.8598 9.66H85.6798V9.28C85.6798 6.38 83.9598 4.1 81.0398 4.1C78.2798 4.1 76.2798 6.36 76.2798 9.16C76.2798 12.18 78.3398 14.24 81.1998 14.24ZM84.1998 8.56H77.8598C77.9398 7.08 78.9598 5.34 81.0198 5.34C83.2198 5.34 84.1798 7.12 84.1998 8.56ZM96.0294 14V12.52H89.8294V0.659999H88.1694V14H96.0294ZM102.095 14.24C105.035 14.24 106.875 11.96 106.875 9.16C106.875 6.36 105.035 4.1 102.095 4.1C99.155 4.1 97.315 6.36 97.315 9.16C97.315 11.96 99.155 14.24 102.095 14.24ZM102.095 12.9C100.035 12.9 98.875 11.14 98.875 9.16C98.875 7.2 100.035 5.44 102.095 5.44C104.155 5.44 105.295 7.2 105.295 9.16C105.295 11.14 104.155 12.9 102.095 12.9ZM116.86 14V7.36C116.86 5.02 115.16 4.1 113.12 4.1C111.54 4.1 110.3 4.62 109.26 5.7L109.96 6.74C110.82 5.82 111.76 5.4 112.92 5.4C114.32 5.4 115.36 6.14 115.36 7.44V9.18C114.58 8.28 113.48 7.86 112.16 7.86C110.52 7.86 108.78 8.88 108.78 11.04C108.78 13.14 110.52 14.24 112.16 14.24C113.46 14.24 114.56 13.78 115.36 12.9V14H116.86ZM112.7 13.16C111.3 13.16 110.32 12.28 110.32 11.06C110.32 9.82 111.3 8.94 112.7 8.94C113.76 8.94 114.78 9.34 115.36 10.14V11.96C114.78 12.76 113.76 13.16 112.7 13.16ZM128.367 14V0.659999H126.867V5.8C126.087 4.74 124.907 4.1 123.607 4.1C121.067 4.1 119.307 6.1 119.307 9.18C119.307 12.32 121.087 14.24 123.607 14.24C124.967 14.24 126.147 13.54 126.867 12.56V14H128.367ZM123.967 12.9C122.027 12.9 120.867 11.32 120.867 9.18C120.867 7.04 122.027 5.44 123.967 5.44C125.167 5.44 126.327 6.16 126.867 7V11.38C126.327 12.22 125.167 12.9 123.967 12.9ZM139.887 17.8V16.7H138.667C137.947 16.7 137.347 16.02 137.347 15.1V10.88C137.347 10.04 137.087 9.4 136.427 9.12C137.087 8.84 137.347 8.2 137.347 7.36V3.14C137.347 2.2 137.947 1.54 138.667 1.54H139.887V0.439999H138.667C137.407 0.439999 136.167 1.48 136.167 3.14V7.24C136.167 7.98 135.827 8.62 135.127 8.62V9.62C135.827 9.62 136.167 10.26 136.167 11V15.12C136.167 16.76 137.407 17.8 138.667 17.8H139.887ZM20.8888 38V29.66H22.8488V28.34H20.8888V27.6C20.8888 26.38 21.4288 25.7 22.4088 25.7C22.9088 25.7 23.2888 25.9 23.6088 26.18L24.2288 25.2C23.6288 24.64 22.9488 24.46 22.1888 24.46C20.4688 24.46 19.3888 25.62 19.3888 27.6V28.34H17.7888V29.66H19.3888V38H20.8888ZM32.6528 38V28.34H31.1528V35.44C30.5928 36.22 29.4728 36.9 28.2928 36.9C26.9928 36.9 26.1328 36.4 26.1328 34.7V28.34H24.6328V35.16C24.6328 37.26 25.6928 38.24 27.7128 38.24C29.1528 38.24 30.4128 37.48 31.1528 36.64V38H32.6528ZM43.6684 38V31.22C43.6684 29.12 42.6084 28.1 40.5884 28.1C39.1484 28.1 37.8284 28.94 37.1484 29.74V28.34H35.6484V38H37.1484V30.94C37.7084 30.16 38.8284 29.44 40.0084 29.44C41.3084 29.44 42.1684 29.98 42.1684 31.68V38H43.6684ZM50.9241 38.24C52.6841 38.24 53.7241 37.52 54.4641 36.56L53.4641 35.64C52.8241 36.5 52.0041 36.9 51.0041 36.9C48.9441 36.9 47.6641 35.3 47.6641 33.16C47.6641 31.02 48.9441 29.44 51.0041 29.44C52.0041 29.44 52.8241 29.82 53.4641 30.7L54.4641 29.78C53.7241 28.82 52.6841 28.1 50.9241 28.1C48.0441 28.1 46.1041 30.3 46.1041 33.16C46.1041 36.04 48.0441 38.24 50.9241 38.24ZM59.0064 38.24C59.8864 38.24 60.4264 37.98 60.8064 37.62L60.3664 36.5C60.1664 36.72 59.7664 36.9 59.3464 36.9C58.6864 36.9 58.3664 36.38 58.3664 35.66V29.66H60.3264V28.34H58.3664V25.7H56.8664V28.34H55.2664V29.66H56.8664V35.98C56.8664 37.42 57.5864 38.24 59.0064 38.24ZM63.1853 26.96C63.7453 26.96 64.2053 26.52 64.2053 25.96C64.2053 25.4 63.7453 24.94 63.1853 24.94C62.6453 24.94 62.1853 25.4 62.1853 25.96C62.1853 26.52 62.6453 26.96 63.1853 26.96ZM63.9453 38V28.34H62.4453V38H63.9453ZM71.1575 38.24C74.0975 38.24 75.9375 35.96 75.9375 33.16C75.9375 30.36 74.0975 28.1 71.1575 28.1C68.2175 28.1 66.3775 30.36 66.3775 33.16C66.3775 35.96 68.2175 38.24 71.1575 38.24ZM71.1575 36.9C69.0975 36.9 67.9375 35.14 67.9375 33.16C67.9375 31.2 69.0975 29.44 71.1575 29.44C73.2175 29.44 74.3575 31.2 74.3575 33.16C74.3575 35.14 73.2175 36.9 71.1575 36.9ZM86.4028 38V31.22C86.4028 29.12 85.3428 28.1 83.3228 28.1C81.8828 28.1 80.5628 28.94 79.8828 29.74V28.34H78.3828V38H79.8828V30.94C80.4428 30.16 81.5628 29.44 82.7428 29.44C84.0428 29.44 84.9028 29.98 84.9028 31.68V38H86.4028ZM90.1384 26.96C90.6984 26.96 91.1584 26.52 91.1584 25.96C91.1584 25.4 90.6984 24.94 90.1384 24.94C89.5984 24.94 89.1384 25.4 89.1384 25.96C89.1384 26.52 89.5984 26.96 90.1384 26.96ZM90.8984 38V28.34H89.3984V38H90.8984ZM101.911 38V31.22C101.911 29.12 100.851 28.1 98.8306 28.1C97.3906 28.1 96.0706 28.94 95.3906 29.74V28.34H93.8906V38H95.3906V30.94C95.9506 30.16 97.0706 29.44 98.2506 29.44C99.5506 29.44 100.411 29.98 100.411 31.68V38H101.911ZM105.646 26.96C106.206 26.96 106.666 26.52 106.666 25.96C106.666 25.4 106.206 24.94 105.646 24.94C105.106 24.94 104.646 25.4 104.646 25.96C104.646 26.52 105.106 26.96 105.646 26.96ZM106.406 38V28.34H104.906V38H106.406ZM111.838 38.24C112.718 38.24 113.258 37.98 113.638 37.62L113.198 36.5C112.998 36.72 112.598 36.9 112.178 36.9C111.518 36.9 111.198 36.38 111.198 35.66V29.66H113.158V28.34H111.198V25.7H109.698V28.34H108.098V29.66H109.698V35.98C109.698 37.42 110.418 38.24 111.838 38.24ZM116.997 38V31.92H123.937V30.44H116.997V26.14H124.077V24.66H115.337V38H116.997ZM127.013 26.96C127.573 26.96 128.033 26.52 128.033 25.96C128.033 25.4 127.573 24.94 127.013 24.94C126.473 24.94 126.013 25.4 126.013 25.96C126.013 26.52 126.473 26.96 127.013 26.96ZM127.773 38V28.34H126.273V38H127.773ZM138.786 38V31.22C138.786 29.12 137.726 28.1 135.706 28.1C134.266 28.1 132.946 28.94 132.266 29.74V28.34H130.766V38H132.266V30.94C132.826 30.16 133.946 29.44 135.126 29.44C136.426 29.44 137.286 29.98 137.286 31.68V38H138.786ZM145.661 41.92C148.021 41.92 150.261 40.92 150.261 37.72V28.34H148.761V29.8C147.981 28.74 146.821 28.1 145.521 28.1C142.981 28.1 141.221 30.02 141.221 33.12C141.221 36.24 143.001 38.12 145.521 38.12C146.881 38.12 148.061 37.38 148.761 36.4V37.78C148.761 39.9 147.261 40.68 145.661 40.68C144.281 40.68 143.321 40.32 142.521 39.36L141.761 40.48C142.901 41.6 144.021 41.92 145.661 41.92ZM145.881 36.8C143.941 36.8 142.781 35.24 142.781 33.12C142.781 30.98 143.941 29.44 145.881 29.44C147.081 29.44 148.241 30.16 148.761 31V35.22C148.241 36.06 147.081 36.8 145.881 36.8ZM157.626 38.24C159.206 38.24 160.506 37.72 161.466 36.76L160.746 35.78C159.986 36.56 158.866 37 157.766 37C155.686 37 154.406 35.48 154.286 33.66H162.106V33.28C162.106 30.38 160.386 28.1 157.466 28.1C154.706 28.1 152.706 30.36 152.706 33.16C152.706 36.18 154.766 38.24 157.626 38.24ZM160.626 32.56H154.286C154.366 31.08 155.386 29.34 157.446 29.34C159.646 29.34 160.606 31.12 160.626 32.56ZM166.035 38V31.16C166.475 30.38 167.735 29.62 168.655 29.62C168.895 29.62 169.075 29.64 169.255 29.68V28.14C167.935 28.14 166.815 28.88 166.035 29.9V28.34H164.535V38H166.035ZM175.897 38.24C178.437 38.24 180.197 36.28 180.197 33.16C180.197 30.02 178.437 28.1 175.897 28.1C174.537 28.1 173.337 28.8 172.637 29.78V28.34H171.137V41.68H172.637V36.54C173.417 37.62 174.577 38.24 175.897 38.24ZM175.517 36.9C174.337 36.9 173.157 36.18 172.637 35.34V30.98C173.157 30.14 174.337 29.44 175.517 29.44C177.457 29.44 178.617 31.02 178.617 33.16C178.617 35.3 177.457 36.9 175.517 36.9ZM184.082 38V31.16C184.522 30.38 185.782 29.62 186.702 29.62C186.942 29.62 187.122 29.64 187.302 29.68V28.14C185.982 28.14 184.862 28.88 184.082 29.9V28.34H182.582V38H184.082ZM189.924 26.96C190.484 26.96 190.944 26.52 190.944 25.96C190.944 25.4 190.484 24.94 189.924 24.94C189.384 24.94 188.924 25.4 188.924 25.96C188.924 26.52 189.384 26.96 189.924 26.96ZM190.684 38V28.34H189.184V38H190.684ZM201.696 38V31.22C201.696 29.12 200.636 28.1 198.616 28.1C197.176 28.1 195.856 28.94 195.176 29.74V28.34H193.676V38H195.176V30.94C195.736 30.16 196.856 29.44 198.036 29.44C199.336 29.44 200.196 29.98 200.196 31.68V38H201.696ZM207.131 38.24C208.011 38.24 208.551 37.98 208.931 37.62L208.491 36.5C208.291 36.72 207.891 36.9 207.471 36.9C206.811 36.9 206.491 36.38 206.491 35.66V29.66H208.451V28.34H206.491V25.7H204.991V28.34H203.391V29.66H204.991V35.98C204.991 37.42 205.711 38.24 207.131 38.24ZM212.77 38.24C215.15 38.24 217.01 36.88 217.01 33.98V24.66H215.35V33.96C215.35 35.62 214.31 36.76 212.67 36.76C211.51 36.76 210.73 36.14 210.15 35.44L209.29 36.7C210.21 37.78 211.35 38.24 212.77 38.24ZM224.442 38.24C228.043 38.24 229.363 36.26 229.363 34.32C229.363 29.34 221.463 31.06 221.463 28.06C221.463 26.8 222.603 25.94 224.203 25.94C225.663 25.94 227.063 26.44 228.063 27.54L229.063 26.32C227.943 25.14 226.363 24.46 224.323 24.46C221.703 24.46 219.743 25.96 219.743 28.16C219.743 32.92 227.643 31.02 227.643 34.46C227.643 35.48 226.883 36.76 224.503 36.76C222.623 36.76 221.183 35.84 220.303 34.86L219.323 36.12C220.423 37.36 222.123 38.24 224.442 38.24ZM234.881 41.28C233.601 38.76 232.801 36.46 232.801 33.14C232.801 29.8 233.601 27.52 234.881 24.98L233.981 24.3C232.181 26.78 231.161 29.92 231.161 33.14C231.161 36.36 232.181 39.52 233.981 41.98L234.881 41.28ZM236.482 41.98C238.302 39.52 239.322 36.36 239.322 33.14C239.322 29.92 238.302 26.78 236.482 24.3L235.582 24.98C236.882 27.52 237.682 29.8 237.682 33.14C237.682 36.46 236.882 38.76 235.582 41.28L236.482 41.98ZM38.6975 62.24C40.4575 62.24 41.4975 61.52 42.2375 60.56L41.2375 59.64C40.5975 60.5 39.7775 60.9 38.7775 60.9C36.7175 60.9 35.4375 59.3 35.4375 57.16C35.4375 55.02 36.7175 53.44 38.7775 53.44C39.7775 53.44 40.5975 53.82 41.2375 54.7L42.2375 53.78C41.4975 52.82 40.4575 52.1 38.6975 52.1C35.8175 52.1 33.8775 54.3 33.8775 57.16C33.8775 60.04 35.8175 62.24 38.6975 62.24ZM48.5598 62.24C51.4998 62.24 53.3398 59.96 53.3398 57.16C53.3398 54.36 51.4998 52.1 48.5598 52.1C45.6198 52.1 43.7798 54.36 43.7798 57.16C43.7798 59.96 45.6198 62.24 48.5598 62.24ZM48.5598 60.9C46.4998 60.9 45.3398 59.14 45.3398 57.16C45.3398 55.2 46.4998 53.44 48.5598 53.44C50.6198 53.44 51.7598 55.2 51.7598 57.16C51.7598 59.14 50.6198 60.9 48.5598 60.9ZM63.8052 62V55.22C63.8052 53.12 62.7452 52.1 60.7252 52.1C59.2852 52.1 57.9652 52.94 57.2852 53.74V52.34H55.7852V62H57.2852V54.94C57.8452 54.16 58.9652 53.44 60.1452 53.44C61.4452 53.44 62.3052 53.98 62.3052 55.68V62H63.8052ZM69.8608 62.24C72.3608 62.24 73.6608 60.94 73.6608 59.32C73.6608 55.56 67.6808 56.96 67.6808 54.84C67.6808 53.98 68.5008 53.32 69.8208 53.32C71.0608 53.32 72.1208 53.84 72.7008 54.54L73.4008 53.5C72.6208 52.72 71.4608 52.1 69.8208 52.1C67.5208 52.1 66.2208 53.38 66.2208 54.88C66.2208 58.46 72.2008 57.02 72.2008 59.36C72.2008 60.32 71.4008 61.02 69.9208 61.02C68.6008 61.02 67.3808 60.38 66.7408 59.64L65.9608 60.72C66.9408 61.76 68.2808 62.24 69.8608 62.24ZM78.5377 62.24C79.4177 62.24 79.9577 61.98 80.3377 61.62L79.8977 60.5C79.6977 60.72 79.2977 60.9 78.8777 60.9C78.2177 60.9 77.8977 60.38 77.8977 59.66V53.66H79.8577V52.34H77.8977V49.7H76.3977V52.34H74.7977V53.66H76.3977V59.98C76.3977 61.42 77.1177 62.24 78.5377 62.24ZM89.0528 62V53.66H91.0128V52.34H89.0528V51.6C89.0528 50.38 89.5928 49.7 90.5728 49.7C91.0728 49.7 91.4528 49.9 91.7728 50.18L92.3928 49.2C91.7928 48.64 91.1128 48.46 90.3528 48.46C88.6328 48.46 87.5528 49.62 87.5528 51.6V52.34H85.9528V53.66H87.5528V62H89.0528ZM97.5569 62.24C100.097 62.24 101.857 60.28 101.857 57.16C101.857 54.02 100.097 52.1 97.5569 52.1C96.1969 52.1 94.9969 52.8 94.2969 53.78V52.34H92.7969V65.68H94.2969V60.54C95.0769 61.62 96.2369 62.24 97.5569 62.24ZM97.1769 60.9C95.9969 60.9 94.8169 60.18 94.2969 59.34V54.98C94.8169 54.14 95.9969 53.44 97.1769 53.44C99.1169 53.44 100.277 55.02 100.277 57.16C100.277 59.3 99.1169 60.9 97.1769 60.9ZM105.962 62V56.7H109.662C112.302 56.7 113.842 54.86 113.842 52.68C113.842 50.5 112.342 48.66 109.662 48.66H104.302V62H105.962ZM109.462 55.22H105.962V50.14H109.462C111.042 50.14 112.122 51.18 112.122 52.68C112.122 54.18 111.042 55.22 109.462 55.22ZM117.48 62V55.16C117.92 54.38 119.18 53.62 120.1 53.62C120.34 53.62 120.52 53.64 120.7 53.68V52.14C119.38 52.14 118.26 52.88 117.48 53.9V52.34H115.98V62H117.48ZM126.802 62.24C129.742 62.24 131.582 59.96 131.582 57.16C131.582 54.36 129.742 52.1 126.802 52.1C123.862 52.1 122.022 54.36 122.022 57.16C122.022 59.96 123.862 62.24 126.802 62.24ZM126.802 60.9C124.742 60.9 123.582 59.14 123.582 57.16C123.582 55.2 124.742 53.44 126.802 53.44C128.862 53.44 130.002 55.2 130.002 57.16C130.002 59.14 128.862 60.9 126.802 60.9ZM147.187 62V55.02C147.187 53.08 146.247 52.1 144.487 52.1C143.087 52.1 141.787 53.02 141.247 53.9C140.967 52.9 140.127 52.1 138.647 52.1C137.227 52.1 135.927 53.12 135.527 53.74V52.34H134.027V62H135.527V54.94C136.047 54.16 137.087 53.44 138.067 53.44C139.327 53.44 139.847 54.22 139.847 55.44V62H141.347V54.92C141.847 54.16 142.907 53.44 143.907 53.44C145.147 53.44 145.687 54.22 145.687 55.44V62H147.187ZM150.92 50.96C151.48 50.96 151.94 50.52 151.94 49.96C151.94 49.4 151.48 48.94 150.92 48.94C150.38 48.94 149.92 49.4 149.92 49.96C149.92 50.52 150.38 50.96 150.92 50.96ZM151.68 62V52.34H150.18V62H151.68ZM157.732 62.24C160.232 62.24 161.532 60.94 161.532 59.32C161.532 55.56 155.552 56.96 155.552 54.84C155.552 53.98 156.372 53.32 157.692 53.32C158.932 53.32 159.992 53.84 160.572 54.54L161.272 53.5C160.492 52.72 159.332 52.1 157.692 52.1C155.392 52.1 154.092 53.38 154.092 54.88C154.092 58.46 160.072 57.02 160.072 59.36C160.072 60.32 159.272 61.02 157.792 61.02C156.472 61.02 155.252 60.38 154.612 59.64L153.832 60.72C154.812 61.76 156.152 62.24 157.732 62.24ZM168.329 62.24C169.909 62.24 171.209 61.72 172.169 60.76L171.449 59.78C170.689 60.56 169.569 61 168.469 61C166.389 61 165.109 59.48 164.989 57.66H172.809V57.28C172.809 54.38 171.089 52.1 168.169 52.1C165.409 52.1 163.409 54.36 163.409 57.16C163.409 60.18 165.469 62.24 168.329 62.24ZM171.329 56.56H164.989C165.069 55.08 166.089 53.34 168.149 53.34C170.349 53.34 171.309 55.12 171.329 56.56ZM188.295 53.92V52.86H179.475V53.92H188.295ZM188.295 57.78V56.74H179.475V57.78H188.295ZM223.033 62V55.92H229.973V54.44H223.033V50.14H230.113V48.66H221.373V62H223.033ZM233.049 50.96C233.609 50.96 234.069 50.52 234.069 49.96C234.069 49.4 233.609 48.94 233.049 48.94C232.509 48.94 232.049 49.4 232.049 49.96C232.049 50.52 232.509 50.96 233.049 50.96ZM233.809 62V52.34H232.309V62H233.809ZM244.821 62V55.22C244.821 53.12 243.761 52.1 241.741 52.1C240.301 52.1 238.981 52.94 238.301 53.74V52.34H236.801V62H238.301V54.94C238.861 54.16 239.981 53.44 241.161 53.44C242.461 53.44 243.321 53.98 243.321 55.68V62H244.821ZM251.696 65.92C254.056 65.92 256.296 64.92 256.296 61.72V52.34H254.796V53.8C254.016 52.74 252.856 52.1 251.556 52.1C249.016 52.1 247.256 54.02 247.256 57.12C247.256 60.24 249.036 62.12 251.556 62.12C252.916 62.12 254.096 61.38 254.796 60.4V61.78C254.796 63.9 253.296 64.68 251.696 64.68C250.316 64.68 249.356 64.32 248.556 63.36L247.796 64.48C248.936 65.6 250.056 65.92 251.696 65.92ZM251.916 60.8C249.976 60.8 248.816 59.24 248.816 57.12C248.816 54.98 249.976 53.44 251.916 53.44C253.116 53.44 254.276 54.16 254.796 55V59.22C254.276 60.06 253.116 60.8 251.916 60.8ZM263.661 62.24C265.241 62.24 266.541 61.72 267.501 60.76L266.781 59.78C266.021 60.56 264.901 61 263.801 61C261.721 61 260.441 59.48 260.321 57.66H268.141V57.28C268.141 54.38 266.421 52.1 263.501 52.1C260.741 52.1 258.741 54.36 258.741 57.16C258.741 60.18 260.801 62.24 263.661 62.24ZM266.661 56.56H260.321C260.401 55.08 261.421 53.34 263.481 53.34C265.681 53.34 266.641 55.12 266.661 56.56ZM272.07 62V55.16C272.51 54.38 273.77 53.62 274.69 53.62C274.93 53.62 275.11 53.64 275.29 53.68V52.14C273.97 52.14 272.85 52.88 272.07 53.9V52.34H270.57V62H272.07ZM281.932 62.24C284.472 62.24 286.232 60.28 286.232 57.16C286.232 54.02 284.472 52.1 281.932 52.1C280.572 52.1 279.372 52.8 278.672 53.78V52.34H277.172V65.68H278.672V60.54C279.452 61.62 280.612 62.24 281.932 62.24ZM281.552 60.9C280.372 60.9 279.192 60.18 278.672 59.34V54.98C279.192 54.14 280.372 53.44 281.552 53.44C283.492 53.44 284.652 55.02 284.652 57.16C284.652 59.3 283.492 60.9 281.552 60.9ZM290.117 62V55.16C290.557 54.38 291.817 53.62 292.737 53.62C292.977 53.62 293.157 53.64 293.337 53.68V52.14C292.017 52.14 290.897 52.88 290.117 53.9V52.34H288.617V62H290.117ZM295.959 50.96C296.519 50.96 296.979 50.52 296.979 49.96C296.979 49.4 296.519 48.94 295.959 48.94C295.419 48.94 294.959 49.4 294.959 49.96C294.959 50.52 295.419 50.96 295.959 50.96ZM296.719 62V52.34H295.219V62H296.719ZM307.731 62V55.22C307.731 53.12 306.671 52.1 304.651 52.1C303.211 52.1 301.891 52.94 301.211 53.74V52.34H299.711V62H301.211V54.94C301.771 54.16 302.891 53.44 304.071 53.44C305.371 53.44 306.231 53.98 306.231 55.68V62H307.731ZM313.167 62.24C314.047 62.24 314.587 61.98 314.967 61.62L314.527 60.5C314.327 60.72 313.927 60.9 313.507 60.9C312.847 60.9 312.527 60.38 312.527 59.66V53.66H314.487V52.34H312.527V49.7H311.027V52.34H309.427V53.66H311.027V59.98C311.027 61.42 311.747 62.24 313.167 62.24ZM318.805 62.24C321.185 62.24 323.045 60.88 323.045 57.98V48.66H321.385V57.96C321.385 59.62 320.345 60.76 318.705 60.76C317.545 60.76 316.765 60.14 316.185 59.44L315.325 60.7C316.245 61.78 317.385 62.24 318.805 62.24ZM330.478 62.24C334.078 62.24 335.398 60.26 335.398 58.32C335.398 53.34 327.498 55.06 327.498 52.06C327.498 50.8 328.638 49.94 330.238 49.94C331.698 49.94 333.098 50.44 334.098 51.54L335.098 50.32C333.978 49.14 332.398 48.46 330.358 48.46C327.738 48.46 325.778 49.96 325.778 52.16C325.778 56.92 333.678 55.02 333.678 58.46C333.678 59.48 332.918 60.76 330.538 60.76C328.658 60.76 327.218 59.84 326.338 58.86L325.358 60.12C326.458 61.36 328.158 62.24 330.478 62.24ZM338.616 62.2C339.216 62.2 339.716 61.7 339.716 61.1C339.716 60.5 339.216 60 338.616 60C338.016 60 337.516 60.5 337.516 61.1C337.516 61.7 338.016 62.2 338.616 62.2ZM343.926 62V48.66H342.426V62H343.926ZM351.138 62.24C354.078 62.24 355.918 59.96 355.918 57.16C355.918 54.36 354.078 52.1 351.138 52.1C348.198 52.1 346.358 54.36 346.358 57.16C346.358 59.96 348.198 62.24 351.138 62.24ZM351.138 60.9C349.078 60.9 347.918 59.14 347.918 57.16C347.918 55.2 349.078 53.44 351.138 53.44C353.198 53.44 354.338 55.2 354.338 57.16C354.338 59.14 353.198 60.9 351.138 60.9ZM365.903 62V55.36C365.903 53.02 364.203 52.1 362.163 52.1C360.583 52.1 359.343 52.62 358.303 53.7L359.003 54.74C359.863 53.82 360.803 53.4 361.963 53.4C363.363 53.4 364.403 54.14 364.403 55.44V57.18C363.623 56.28 362.523 55.86 361.203 55.86C359.563 55.86 357.823 56.88 357.823 59.04C357.823 61.14 359.563 62.24 361.203 62.24C362.503 62.24 363.603 61.78 364.403 60.9V62H365.903ZM361.743 61.16C360.343 61.16 359.363 60.28 359.363 59.06C359.363 57.82 360.343 56.94 361.743 56.94C362.803 56.94 363.823 57.34 364.403 58.14V59.96C363.823 60.76 362.803 61.16 361.743 61.16ZM377.41 62V48.66H375.91V53.8C375.13 52.74 373.95 52.1 372.65 52.1C370.11 52.1 368.35 54.1 368.35 57.18C368.35 60.32 370.13 62.24 372.65 62.24C374.01 62.24 375.19 61.54 375.91 60.56V62H377.41ZM373.01 60.9C371.07 60.9 369.91 59.32 369.91 57.18C369.91 55.04 371.07 53.44 373.01 53.44C374.21 53.44 375.37 54.16 375.91 55V59.38C375.37 60.22 374.21 60.9 373.01 60.9ZM383.514 65.28C382.234 62.76 381.434 60.46 381.434 57.14C381.434 53.8 382.234 51.52 383.514 48.98L382.614 48.3C380.814 50.78 379.794 53.92 379.794 57.14C379.794 60.36 380.814 63.52 382.614 65.98L383.514 65.28ZM385.115 65.98C386.935 63.52 387.955 60.36 387.955 57.14C387.955 53.92 386.935 50.78 385.115 48.3L384.215 48.98C385.515 51.52 386.315 53.8 386.315 57.14C386.315 60.46 385.515 62.76 384.215 65.28L385.115 65.98ZM5.42 86V77.66H7.38V76.34H5.42V75.6C5.42 74.38 5.96 73.7 6.94 73.7C7.44 73.7 7.82 73.9 8.14 74.18L8.76 73.2C8.16 72.64 7.48 72.46 6.72 72.46C5 72.46 3.92 73.62 3.92 75.6V76.34H2.32V77.66H3.92V86H5.42ZM13.9241 86.24C16.4641 86.24 18.2241 84.28 18.2241 81.16C18.2241 78.02 16.4641 76.1 13.9241 76.1C12.5641 76.1 11.3641 76.8 10.6641 77.78V76.34H9.16406V89.68H10.6641V84.54C11.4441 85.62 12.6041 86.24 13.9241 86.24ZM13.5441 84.9C12.3641 84.9 11.1841 84.18 10.6641 83.34V78.98C11.1841 78.14 12.3641 77.44 13.5441 77.44C15.4841 77.44 16.6441 79.02 16.6441 81.16C16.6441 83.3 15.4841 84.9 13.5441 84.9ZM22.3294 86V80.7H26.0294C28.6694 80.7 30.2094 78.86 30.2094 76.68C30.2094 74.5 28.7094 72.66 26.0294 72.66H20.6694V86H22.3294ZM25.8294 79.22H22.3294V74.14H25.8294C27.4094 74.14 28.4894 75.18 28.4894 76.68C28.4894 78.18 27.4094 79.22 25.8294 79.22ZM33.8477 86V79.16C34.2877 78.38 35.5477 77.62 36.4677 77.62C36.7077 77.62 36.8877 77.64 37.0677 77.68V76.14C35.7477 76.14 34.6277 76.88 33.8477 77.9V76.34H32.3477V86H33.8477ZM43.1692 86.24C46.1092 86.24 47.9492 83.96 47.9492 81.16C47.9492 78.36 46.1092 76.1 43.1692 76.1C40.2292 76.1 38.3892 78.36 38.3892 81.16C38.3892 83.96 40.2292 86.24 43.1692 86.24ZM43.1692 84.9C41.1092 84.9 39.9492 83.14 39.9492 81.16C39.9492 79.2 41.1092 77.44 43.1692 77.44C45.2292 77.44 46.3692 79.2 46.3692 81.16C46.3692 83.14 45.2292 84.9 43.1692 84.9ZM63.5545 86V79.02C63.5545 77.08 62.6145 76.1 60.8545 76.1C59.4545 76.1 58.1545 77.02 57.6145 77.9C57.3345 76.9 56.4945 76.1 55.0145 76.1C53.5945 76.1 52.2945 77.12 51.8945 77.74V76.34H50.3945V86H51.8945V78.94C52.4145 78.16 53.4545 77.44 54.4345 77.44C55.6945 77.44 56.2145 78.22 56.2145 79.44V86H57.7145V78.92C58.2145 78.16 59.2745 77.44 60.2745 77.44C61.5145 77.44 62.0545 78.22 62.0545 79.44V86H63.5545ZM67.2869 74.96C67.8469 74.96 68.3069 74.52 68.3069 73.96C68.3069 73.4 67.8469 72.94 67.2869 72.94C66.7469 72.94 66.2869 73.4 66.2869 73.96C66.2869 74.52 66.7469 74.96 67.2869 74.96ZM68.0469 86V76.34H66.5469V86H68.0469ZM74.0991 86.24C76.5991 86.24 77.8991 84.94 77.8991 83.32C77.8991 79.56 71.9191 80.96 71.9191 78.84C71.9191 77.98 72.7391 77.32 74.0591 77.32C75.2991 77.32 76.3591 77.84 76.9391 78.54L77.6391 77.5C76.8591 76.72 75.6991 76.1 74.0591 76.1C71.7591 76.1 70.4591 77.38 70.4591 78.88C70.4591 82.46 76.4391 81.02 76.4391 83.36C76.4391 84.32 75.6391 85.02 74.1591 85.02C72.8391 85.02 71.6191 84.38 70.9791 83.64L70.1991 84.72C71.1791 85.76 72.5191 86.24 74.0991 86.24ZM84.6959 86.24C86.2759 86.24 87.5759 85.72 88.5359 84.76L87.8159 83.78C87.0559 84.56 85.9359 85 84.8359 85C82.7559 85 81.4759 83.48 81.3559 81.66H89.1759V81.28C89.1759 78.38 87.4559 76.1 84.5359 76.1C81.7759 76.1 79.7759 78.36 79.7759 81.16C79.7759 84.18 81.8359 86.24 84.6959 86.24ZM87.6959 80.56H81.3559C81.4359 79.08 82.4559 77.34 84.5159 77.34C86.7159 77.34 87.6759 79.12 87.6959 80.56ZM19.7688 110.2C20.3688 110.2 20.8688 109.7 20.8688 109.1C20.8688 108.5 20.3688 108 19.7688 108C19.1688 108 18.6688 108.5 18.6688 109.1C18.6688 109.7 19.1688 110.2 19.7688 110.2ZM25.5494 110.24C26.4294 110.24 26.9694 109.98 27.3494 109.62L26.9094 108.5C26.7094 108.72 26.3094 108.9 25.8894 108.9C25.2294 108.9 24.9094 108.38 24.9094 107.66V101.66H26.8694V100.34H24.9094V97.7H23.4094V100.34H21.8094V101.66H23.4094V107.98C23.4094 109.42 24.1294 110.24 25.5494 110.24ZM37.0283 110V103.18C37.0283 101.08 35.9683 100.1 33.9483 100.1C32.4883 100.1 31.1683 100.94 30.4883 101.74V96.66H28.9883V110H30.4883V102.94C31.0683 102.16 32.1883 101.44 33.3483 101.44C34.6483 101.44 35.5283 101.94 35.5283 103.64V110H37.0283ZM44.3834 110.24C45.9634 110.24 47.2634 109.72 48.2234 108.76L47.5034 107.78C46.7434 108.56 45.6234 109 44.5234 109C42.4434 109 41.1634 107.48 41.0434 105.66H48.8634V105.28C48.8634 102.38 47.1434 100.1 44.2234 100.1C41.4634 100.1 39.4634 102.36 39.4634 105.16C39.4634 108.18 41.5234 110.24 44.3834 110.24ZM47.3834 104.56H41.0434C41.1234 103.08 42.1434 101.34 44.2034 101.34C46.4034 101.34 47.3634 103.12 47.3834 104.56ZM59.313 110V103.22C59.313 101.12 58.253 100.1 56.233 100.1C54.793 100.1 53.473 100.94 52.793 101.74V100.34H51.293V110H52.793V102.94C53.353 102.16 54.473 101.44 55.653 101.44C56.953 101.44 57.813 101.98 57.813 103.68V110H59.313ZM65.4086 113.28C64.1286 110.76 63.3286 108.46 63.3286 105.14C63.3286 101.8 64.1286 99.52 65.4086 96.98L64.5086 96.3C62.7086 98.78 61.6886 101.92 61.6886 105.14C61.6886 108.36 62.7086 111.52 64.5086 113.98L65.4086 113.28ZM69.1895 110V101.66H71.1495V100.34H69.1895V99.6C69.1895 98.38 69.7295 97.7 70.7095 97.7C71.2095 97.7 71.5895 97.9 71.9095 98.18L72.5295 97.2C71.9295 96.64 71.2495 96.46 70.4895 96.46C68.7695 96.46 67.6895 97.62 67.6895 99.6V100.34H66.0895V101.66H67.6895V110H69.1895ZM77.6936 110.24C80.2336 110.24 81.9936 108.28 81.9936 105.16C81.9936 102.02 80.2336 100.1 77.6936 100.1C76.3336 100.1 75.1336 100.8 74.4336 101.78V100.34H72.9336V113.68H74.4336V108.54C75.2136 109.62 76.3736 110.24 77.6936 110.24ZM77.3136 108.9C76.1336 108.9 74.9536 108.18 74.4336 107.34V102.98C74.9536 102.14 76.1336 101.44 77.3136 101.44C79.2536 101.44 80.4136 103.02 80.4136 105.16C80.4136 107.3 79.2536 108.9 77.3136 108.9ZM97.4352 101.92V100.86H88.6152V101.92H97.4352ZM97.4352 105.78V104.74H88.6152V105.78H97.4352ZM107.416 103.84V102.78L98.5956 98.4V99.66L106.116 103.32L98.5956 106.96V108.2L107.416 103.84ZM116.572 110V101.66H118.532V100.34H116.572V99.6C116.572 98.38 117.112 97.7 118.092 97.7C118.592 97.7 118.972 97.9 119.292 98.18L119.912 97.2C119.312 96.64 118.632 96.46 117.872 96.46C116.152 96.46 115.072 97.62 115.072 99.6V100.34H113.472V101.66H115.072V110H116.572ZM125.076 110.24C127.616 110.24 129.376 108.28 129.376 105.16C129.376 102.02 127.616 100.1 125.076 100.1C123.716 100.1 122.516 100.8 121.816 101.78V100.34H120.316V113.68H121.816V108.54C122.596 109.62 123.756 110.24 125.076 110.24ZM124.696 108.9C123.516 108.9 122.336 108.18 121.816 107.34V102.98C122.336 102.14 123.516 101.44 124.696 101.44C126.636 101.44 127.796 103.02 127.796 105.16C127.796 107.3 126.636 108.9 124.696 108.9ZM132.425 110.2C133.025 110.2 133.525 109.7 133.525 109.1C133.525 108.5 133.025 108 132.425 108C131.825 108 131.325 108.5 131.325 109.1C131.325 109.7 131.825 110.2 132.425 110.2ZM139.978 113.92C142.338 113.92 144.578 112.92 144.578 109.72V100.34H143.078V101.8C142.298 100.74 141.138 100.1 139.838 100.1C137.298 100.1 135.538 102.02 135.538 105.12C135.538 108.24 137.318 110.12 139.838 110.12C141.198 110.12 142.378 109.38 143.078 108.4V109.78C143.078 111.9 141.578 112.68 139.978 112.68C138.598 112.68 137.638 112.32 136.838 111.36L136.078 112.48C137.218 113.6 138.338 113.92 139.978 113.92ZM140.198 108.8C138.258 108.8 137.098 107.24 137.098 105.12C137.098 102.98 138.258 101.44 140.198 101.44C141.398 101.44 142.558 102.16 143.078 103V107.22C142.558 108.06 141.398 108.8 140.198 108.8ZM151.942 110.24C153.522 110.24 154.822 109.72 155.782 108.76L155.062 107.78C154.302 108.56 153.182 109 152.082 109C150.002 109 148.722 107.48 148.602 105.66H156.422V105.28C156.422 102.38 154.702 100.1 151.782 100.1C149.022 100.1 147.022 102.36 147.022 105.16C147.022 108.18 149.082 110.24 151.942 110.24ZM154.942 104.56H148.602C148.682 103.08 149.702 101.34 151.762 101.34C153.962 101.34 154.922 103.12 154.942 104.56ZM161.292 110.24C162.172 110.24 162.712 109.98 163.092 109.62L162.652 108.5C162.452 108.72 162.052 108.9 161.632 108.9C160.972 108.9 160.652 108.38 160.652 107.66V101.66H162.612V100.34H160.652V97.7H159.152V100.34H157.552V101.66H159.152V107.98C159.152 109.42 159.872 110.24 161.292 110.24ZM167.83 113.28C166.55 110.76 165.75 108.46 165.75 105.14C165.75 101.8 166.55 99.52 167.83 96.98L166.93 96.3C165.13 98.78 164.11 101.92 164.11 105.14C164.11 108.36 165.13 111.52 166.93 113.98L167.83 113.28ZM169.431 113.98C171.251 111.52 172.271 108.36 172.271 105.14C172.271 101.92 171.251 98.78 169.431 96.3L168.531 96.98C169.831 99.52 170.631 101.8 170.631 105.14C170.631 108.46 169.831 110.76 168.531 113.28L169.431 113.98ZM174.392 113.98C176.212 111.52 177.232 108.36 177.232 105.14C177.232 101.92 176.212 98.78 174.392 96.3L173.492 96.98C174.792 99.52 175.592 101.8 175.592 105.14C175.592 108.46 174.792 110.76 173.492 113.28L174.392 113.98ZM19.7688 134.2C20.3688 134.2 20.8688 133.7 20.8688 133.1C20.8688 132.5 20.3688 132 19.7688 132C19.1688 132 18.6688 132.5 18.6688 133.1C18.6688 133.7 19.1688 134.2 19.7688 134.2ZM25.5494 134.24C26.4294 134.24 26.9694 133.98 27.3494 133.62L26.9094 132.5C26.7094 132.72 26.3094 132.9 25.8894 132.9C25.2294 132.9 24.9094 132.38 24.9094 131.66V125.66H26.8694V124.34H24.9094V121.7H23.4094V124.34H21.8094V125.66H23.4094V131.98C23.4094 133.42 24.1294 134.24 25.5494 134.24ZM37.0283 134V127.18C37.0283 125.08 35.9683 124.1 33.9483 124.1C32.4883 124.1 31.1683 124.94 30.4883 125.74V120.66H28.9883V134H30.4883V126.94C31.0683 126.16 32.1883 125.44 33.3483 125.44C34.6483 125.44 35.5283 125.94 35.5283 127.64V134H37.0283ZM44.3834 134.24C45.9634 134.24 47.2634 133.72 48.2234 132.76L47.5034 131.78C46.7434 132.56 45.6234 133 44.5234 133C42.4434 133 41.1634 131.48 41.0434 129.66H48.8634V129.28C48.8634 126.38 47.1434 124.1 44.2234 124.1C41.4634 124.1 39.4634 126.36 39.4634 129.16C39.4634 132.18 41.5234 134.24 44.3834 134.24ZM47.3834 128.56H41.0434C41.1234 127.08 42.1434 125.34 44.2034 125.34C46.4034 125.34 47.3634 127.12 47.3834 128.56ZM59.313 134V127.22C59.313 125.12 58.253 124.1 56.233 124.1C54.793 124.1 53.473 124.94 52.793 125.74V124.34H51.293V134H52.793V126.94C53.353 126.16 54.473 125.44 55.653 125.44C56.953 125.44 57.813 125.98 57.813 127.68V134H59.313ZM65.4086 137.28C64.1286 134.76 63.3286 132.46 63.3286 129.14C63.3286 125.8 64.1286 123.52 65.4086 120.98L64.5086 120.3C62.7086 122.78 61.6886 125.92 61.6886 129.14C61.6886 132.36 62.7086 135.52 64.5086 137.98L65.4086 137.28ZM68.7695 134V127.16C69.2095 126.38 70.4695 125.62 71.3895 125.62C71.6295 125.62 71.8095 125.64 71.9895 125.68V124.14C70.6695 124.14 69.5495 124.88 68.7695 125.9V124.34H67.2695V134H68.7695ZM78.2311 134.24C79.8111 134.24 81.1111 133.72 82.0711 132.76L81.3511 131.78C80.5911 132.56 79.4711 133 78.3711 133C76.2911 133 75.0111 131.48 74.8911 129.66H82.7111V129.28C82.7111 126.38 80.9911 124.1 78.0711 124.1C75.3111 124.1 73.3111 126.36 73.3111 129.16C73.3111 132.18 75.3711 134.24 78.2311 134.24ZM81.2311 128.56H74.8911C74.9711 127.08 75.9911 125.34 78.0511 125.34C80.2511 125.34 81.2111 127.12 81.2311 128.56ZM88.2006 134.24C90.7006 134.24 92.0006 132.94 92.0006 131.32C92.0006 127.56 86.0206 128.96 86.0206 126.84C86.0206 125.98 86.8406 125.32 88.1606 125.32C89.4006 125.32 90.4606 125.84 91.0406 126.54L91.7406 125.5C90.9606 124.72 89.8006 124.1 88.1606 124.1C85.8606 124.1 84.5606 125.38 84.5606 126.88C84.5606 130.46 90.5406 129.02 90.5406 131.36C90.5406 132.32 89.7406 133.02 88.2606 133.02C86.9406 133.02 85.7206 132.38 85.0806 131.64L84.3006 132.72C85.2806 133.76 86.6206 134.24 88.2006 134.24ZM102.458 134V124.34H100.958V131.44C100.398 132.22 99.2775 132.9 98.0975 132.9C96.7975 132.9 95.9375 132.4 95.9375 130.7V124.34H94.4375V131.16C94.4375 133.26 95.4975 134.24 97.5175 134.24C98.9575 134.24 100.218 133.48 100.958 132.64V134H102.458ZM106.953 134V120.66H105.453V134H106.953ZM112.385 134.24C113.265 134.24 113.805 133.98 114.185 133.62L113.745 132.5C113.545 132.72 113.145 132.9 112.725 132.9C112.065 132.9 111.745 132.38 111.745 131.66V125.66H113.705V124.34H111.745V121.7H110.245V124.34H108.645V125.66H110.245V131.98C110.245 133.42 110.965 134.24 112.385 134.24ZM128.88 125.92V124.86H120.06V125.92H128.88ZM128.88 129.78V128.74H120.06V129.78H128.88ZM138.861 127.84V126.78L130.041 122.4V123.66L137.561 127.32L130.041 130.96V132.2L138.861 127.84ZM149.198 137.28C147.918 134.76 147.118 132.46 147.118 129.14C147.118 125.8 147.918 123.52 149.198 120.98L148.298 120.3C146.498 122.78 145.478 125.92 145.478 129.14C145.478 132.36 146.498 135.52 148.298 137.98L149.198 137.28ZM150.799 137.98C152.619 135.52 153.639 132.36 153.639 129.14C153.639 125.92 152.619 122.78 150.799 120.3L149.899 120.98C151.199 123.52 151.999 125.8 151.999 129.14C151.999 132.46 151.199 134.76 149.899 137.28L150.799 137.98ZM155.76 137.98C157.58 135.52 158.6 132.36 158.6 129.14C158.6 125.92 157.58 122.78 155.76 120.3L154.86 120.98C156.16 123.52 156.96 125.8 156.96 129.14C156.96 132.46 156.16 134.76 154.86 137.28L155.76 137.98ZM23.2288 158.24C24.9888 158.24 26.0288 157.52 26.7688 156.56L25.7688 155.64C25.1288 156.5 24.3088 156.9 23.3088 156.9C21.2488 156.9 19.9688 155.3 19.9688 153.16C19.9688 151.02 21.2488 149.44 23.3088 149.44C24.3088 149.44 25.1288 149.82 25.7688 150.7L26.7688 149.78C26.0288 148.82 24.9888 148.1 23.2288 148.1C20.3488 148.1 18.4088 150.3 18.4088 153.16C18.4088 156.04 20.3488 158.24 23.2288 158.24ZM33.0911 158.24C36.0311 158.24 37.8711 155.96 37.8711 153.16C37.8711 150.36 36.0311 148.1 33.0911 148.1C30.1511 148.1 28.3111 150.36 28.3111 153.16C28.3111 155.96 30.1511 158.24 33.0911 158.24ZM33.0911 156.9C31.0311 156.9 29.8711 155.14 29.8711 153.16C29.8711 151.2 31.0311 149.44 33.0911 149.44C35.1511 149.44 36.2911 151.2 36.2911 153.16C36.2911 155.14 35.1511 156.9 33.0911 156.9ZM48.3364 158V151.22C48.3364 149.12 47.2764 148.1 45.2564 148.1C43.8164 148.1 42.4964 148.94 41.8164 149.74V148.34H40.3164V158H41.8164V150.94C42.3764 150.16 43.4964 149.44 44.6764 149.44C45.9764 149.44 46.8364 149.98 46.8364 151.68V158H48.3364ZM54.392 158.24C56.892 158.24 58.192 156.94 58.192 155.32C58.192 151.56 52.212 152.96 52.212 150.84C52.212 149.98 53.032 149.32 54.352 149.32C55.592 149.32 56.652 149.84 57.232 150.54L57.932 149.5C57.152 148.72 55.992 148.1 54.352 148.1C52.052 148.1 50.752 149.38 50.752 150.88C50.752 154.46 56.732 153.02 56.732 155.36C56.732 156.32 55.932 157.02 54.452 157.02C53.132 157.02 51.912 156.38 51.272 155.64L50.492 156.72C51.472 157.76 52.812 158.24 54.392 158.24ZM63.0689 158.24C63.9489 158.24 64.4889 157.98 64.8689 157.62L64.4289 156.5C64.2289 156.72 63.8289 156.9 63.4089 156.9C62.7489 156.9 62.4289 156.38 62.4289 155.66V149.66H64.3889V148.34H62.4289V145.7H60.9289V148.34H59.3289V149.66H60.9289V155.98C60.9289 157.42 61.6489 158.24 63.0689 158.24ZM75.8841 158L79.9041 148.34H78.2641L75.0641 156.26L71.8441 148.34H70.2241L74.2441 158H75.8841ZM82.2088 146.96C82.7688 146.96 83.2288 146.52 83.2288 145.96C83.2288 145.4 82.7688 144.94 82.2088 144.94C81.6688 144.94 81.2088 145.4 81.2088 145.96C81.2088 146.52 81.6688 146.96 82.2088 146.96ZM82.9688 158V148.34H81.4688V158H82.9688ZM89.0209 158.24C91.5209 158.24 92.8209 156.94 92.8209 155.32C92.8209 151.56 86.8409 152.96 86.8409 150.84C86.8409 149.98 87.6609 149.32 88.9809 149.32C90.2209 149.32 91.2809 149.84 91.8609 150.54L92.5609 149.5C91.7809 148.72 90.6209 148.1 88.9809 148.1C86.6809 148.1 85.3809 149.38 85.3809 150.88C85.3809 154.46 91.3609 153.02 91.3609 155.36C91.3609 156.32 90.5609 157.02 89.0809 157.02C87.7609 157.02 86.5409 156.38 85.9009 155.64L85.1209 156.72C86.1009 157.76 87.4409 158.24 89.0209 158.24ZM95.9978 146.96C96.5578 146.96 97.0178 146.52 97.0178 145.96C97.0178 145.4 96.5578 144.94 95.9978 144.94C95.4578 144.94 94.9978 145.4 94.9978 145.96C94.9978 146.52 95.4578 146.96 95.9978 146.96ZM96.7578 158V148.34H95.2578V158H96.7578ZM102.19 158.24C103.07 158.24 103.61 157.98 103.99 157.62L103.55 156.5C103.35 156.72 102.95 156.9 102.53 156.9C101.87 156.9 101.55 156.38 101.55 155.66V149.66H103.51V148.34H101.55V145.7H100.05V148.34H98.45V149.66H100.05V155.98C100.05 157.42 100.77 158.24 102.19 158.24ZM109.849 158.24C112.789 158.24 114.629 155.96 114.629 153.16C114.629 150.36 112.789 148.1 109.849 148.1C106.909 148.1 105.069 150.36 105.069 153.16C105.069 155.96 106.909 158.24 109.849 158.24ZM109.849 156.9C107.789 156.9 106.629 155.14 106.629 153.16C106.629 151.2 107.789 149.44 109.849 149.44C111.909 149.44 113.049 151.2 113.049 153.16C113.049 155.14 111.909 156.9 109.849 156.9ZM118.574 158V151.16C119.014 150.38 120.274 149.62 121.194 149.62C121.434 149.62 121.614 149.64 121.794 149.68V148.14C120.474 148.14 119.354 148.88 118.574 149.9V148.34H117.074V158H118.574ZM125.396 158V144.66H123.736V158H125.396ZM133.081 158C137.221 158 139.921 155.14 139.921 151.34C139.921 147.56 137.221 144.66 133.081 144.66H128.521V158H133.081ZM133.081 156.52H130.181V146.14H133.081C136.381 146.14 138.201 148.46 138.201 151.34C138.201 154.2 136.321 156.52 133.081 156.52ZM155.521 149.92V148.86H146.701V149.92H155.521ZM155.521 153.78V152.74H146.701V153.78H155.521ZM164.258 158V151.16C164.698 150.38 165.958 149.62 166.878 149.62C167.118 149.62 167.298 149.64 167.478 149.68V148.14C166.158 148.14 165.038 148.88 164.258 149.9V148.34H162.758V158H164.258ZM173.719 158.24C175.299 158.24 176.599 157.72 177.559 156.76L176.839 155.78C176.079 156.56 174.959 157 173.859 157C171.779 157 170.499 155.48 170.379 153.66H178.199V153.28C178.199 150.38 176.479 148.1 173.559 148.1C170.799 148.1 168.799 150.36 168.799 153.16C168.799 156.18 170.859 158.24 173.719 158.24ZM176.719 152.56H170.379C170.459 151.08 171.479 149.34 173.539 149.34C175.739 149.34 176.699 151.12 176.719 152.56ZM183.689 158.24C186.189 158.24 187.489 156.94 187.489 155.32C187.489 151.56 181.509 152.96 181.509 150.84C181.509 149.98 182.329 149.32 183.649 149.32C184.889 149.32 185.949 149.84 186.529 150.54L187.229 149.5C186.449 148.72 185.289 148.1 183.649 148.1C181.349 148.1 180.049 149.38 180.049 150.88C180.049 154.46 186.029 153.02 186.029 155.36C186.029 156.32 185.229 157.02 183.749 157.02C182.429 157.02 181.209 156.38 180.569 155.64L179.789 156.72C180.769 157.76 182.109 158.24 183.689 158.24ZM197.946 158V148.34H196.446V155.44C195.886 156.22 194.766 156.9 193.586 156.9C192.286 156.9 191.426 156.4 191.426 154.7V148.34H189.926V155.16C189.926 157.26 190.986 158.24 193.006 158.24C194.446 158.24 195.706 157.48 196.446 156.64V158H197.946ZM202.441 158V144.66H200.941V158H202.441ZM207.874 158.24C208.754 158.24 209.294 157.98 209.674 157.62L209.234 156.5C209.034 156.72 208.634 156.9 208.214 156.9C207.554 156.9 207.234 156.38 207.234 155.66V149.66H209.194V148.34H207.234V145.7H205.734V148.34H204.134V149.66H205.734V155.98C205.734 157.42 206.454 158.24 207.874 158.24ZM212.113 158.2C212.713 158.2 213.213 157.7 213.213 157.1C213.213 156.5 212.713 156 212.113 156C211.513 156 211.013 156.5 211.013 157.1C211.013 157.7 211.513 158.2 212.113 158.2ZM218.794 158L222.814 148.34H221.174L217.974 156.26L214.754 148.34H213.134L217.154 158H218.794ZM225.119 146.96C225.679 146.96 226.139 146.52 226.139 145.96C226.139 145.4 225.679 144.94 225.119 144.94C224.579 144.94 224.119 145.4 224.119 145.96C224.119 146.52 224.579 146.96 225.119 146.96ZM225.879 158V148.34H224.379V158H225.879ZM231.931 158.24C234.431 158.24 235.731 156.94 235.731 155.32C235.731 151.56 229.751 152.96 229.751 150.84C229.751 149.98 230.571 149.32 231.891 149.32C233.131 149.32 234.191 149.84 234.771 150.54L235.471 149.5C234.691 148.72 233.531 148.1 231.891 148.1C229.591 148.1 228.291 149.38 228.291 150.88C228.291 154.46 234.271 153.02 234.271 155.36C234.271 156.32 233.471 157.02 231.991 157.02C230.671 157.02 229.451 156.38 228.811 155.64L228.031 156.72C229.011 157.76 230.351 158.24 231.931 158.24ZM238.908 146.96C239.468 146.96 239.928 146.52 239.928 145.96C239.928 145.4 239.468 144.94 238.908 144.94C238.368 144.94 237.908 145.4 237.908 145.96C237.908 146.52 238.368 146.96 238.908 146.96ZM239.668 158V148.34H238.168V158H239.668ZM245.1 158.24C245.98 158.24 246.52 157.98 246.9 157.62L246.46 156.5C246.26 156.72 245.86 156.9 245.44 156.9C244.78 156.9 244.46 156.38 244.46 155.66V149.66H246.42V148.34H244.46V145.7H242.96V148.34H241.36V149.66H242.96V155.98C242.96 157.42 243.68 158.24 245.1 158.24ZM252.759 158.24C255.699 158.24 257.539 155.96 257.539 153.16C257.539 150.36 255.699 148.1 252.759 148.1C249.819 148.1 247.979 150.36 247.979 153.16C247.979 155.96 249.819 158.24 252.759 158.24ZM252.759 156.9C250.699 156.9 249.539 155.14 249.539 153.16C249.539 151.2 250.699 149.44 252.759 149.44C254.819 149.44 255.959 151.2 255.959 153.16C255.959 155.14 254.819 156.9 252.759 156.9ZM261.484 158V151.16C261.924 150.38 263.184 149.62 264.104 149.62C264.344 149.62 264.524 149.64 264.704 149.68V148.14C263.384 148.14 262.264 148.88 261.484 149.9V148.34H259.984V158H261.484ZM268.306 158V144.66H266.646V158H268.306ZM279.871 158V144.66H278.371V149.8C277.591 148.74 276.411 148.1 275.111 148.1C272.571 148.1 270.811 150.1 270.811 153.18C270.811 156.32 272.591 158.24 275.111 158.24C276.471 158.24 277.651 157.54 278.371 156.56V158H279.871ZM275.471 156.9C273.531 156.9 272.371 155.32 272.371 153.18C272.371 151.04 273.531 149.44 275.471 149.44C276.671 149.44 277.831 150.16 278.371 151V155.38C277.831 156.22 276.671 156.9 275.471 156.9ZM2.34 185.8H3.56C4.84 185.8 6.06 184.76 6.06 183.12V179C6.06 178.26 6.4 177.62 7.1 177.62V176.62C6.4 176.62 6.06 175.98 6.06 175.24V171.14C6.06 169.48 4.84 168.44 3.56 168.44H2.34V169.54H3.56C4.28 169.54 4.88 170.2 4.88 171.14V175.36C4.88 176.2 5.14 176.84 5.8 177.12C5.14 177.4 4.88 178.04 4.88 178.88V183.1C4.88 184.02 4.28 184.7 3.56 184.7H2.34V185.8ZM4.24 218.96C4.8 218.96 5.26 218.52 5.26 217.96C5.26 217.4 4.8 216.94 4.24 216.94C3.7 216.94 3.24 217.4 3.24 217.96C3.24 218.52 3.7 218.96 4.24 218.96ZM2.14 233.92C3.98 233.92 5 232.84 5 230.94V220.34H3.5V230.94C3.5 232.16 2.84 232.68 1.94 232.68C1.34 232.68 0.9 232.4 0.56 232.06L0.0199999 233.2C0.64 233.68 1.16 233.92 2.14 233.92ZM11.0522 230.24C13.5522 230.24 14.8522 228.94 14.8522 227.32C14.8522 223.56 8.87219 224.96 8.87219 222.84C8.87219 221.98 9.69219 221.32 11.0122 221.32C12.2522 221.32 13.3122 221.84 13.8922 222.54L14.5922 221.5C13.8122 220.72 12.6522 220.1 11.0122 220.1C8.71219 220.1 7.41219 221.38 7.41219 222.88C7.41219 226.46 13.3922 225.02 13.3922 227.36C13.3922 228.32 12.5922 229.02 11.1122 229.02C9.79219 229.02 8.57219 228.38 7.93219 227.64L7.15219 228.72C8.13219 229.76 9.47219 230.24 11.0522 230.24ZM18.0891 230.2C18.6891 230.2 19.1891 229.7 19.1891 229.1C19.1891 228.5 18.6891 228 18.0891 228C17.4891 228 16.9891 228.5 16.9891 229.1C16.9891 229.7 17.4891 230.2 18.0891 230.2ZM29.4384 230V223.36C29.4384 221.02 27.7384 220.1 25.6984 220.1C24.1184 220.1 22.8784 220.62 21.8384 221.7L22.5384 222.74C23.3984 221.82 24.3384 221.4 25.4984 221.4C26.8984 221.4 27.9384 222.14 27.9384 223.44V225.18C27.1584 224.28 26.0584 223.86 24.7384 223.86C23.0984 223.86 21.3584 224.88 21.3584 227.04C21.3584 229.14 23.0984 230.24 24.7384 230.24C26.0384 230.24 27.1384 229.78 27.9384 228.9V230H29.4384ZM25.2784 229.16C23.8784 229.16 22.8984 228.28 22.8984 227.06C22.8984 225.82 23.8784 224.94 25.2784 224.94C26.3384 224.94 27.3584 225.34 27.9384 226.14V227.96C27.3584 228.76 26.3384 229.16 25.2784 229.16ZM37.2053 230.24C39.7453 230.24 41.5053 228.28 41.5053 225.16C41.5053 222.02 39.7453 220.1 37.2053 220.1C35.8453 220.1 34.6453 220.8 33.9453 221.78V220.34H32.4453V233.68H33.9453V228.54C34.7253 229.62 35.8853 230.24 37.2053 230.24ZM36.8253 228.9C35.6453 228.9 34.4653 228.18 33.9453 227.34V222.98C34.4653 222.14 35.6453 221.44 36.8253 221.44C38.7653 221.44 39.9253 223.02 39.9253 225.16C39.9253 227.3 38.7653 228.9 36.8253 228.9ZM48.6506 230.24C51.1906 230.24 52.9506 228.28 52.9506 225.16C52.9506 222.02 51.1906 220.1 48.6506 220.1C47.2906 220.1 46.0906 220.8 45.3906 221.78V220.34H43.8906V233.68H45.3906V228.54C46.1706 229.62 47.3306 230.24 48.6506 230.24ZM48.2706 228.9C47.0906 228.9 45.9106 228.18 45.3906 227.34V222.98C45.9106 222.14 47.0906 221.44 48.2706 221.44C50.2106 221.44 51.3706 223.02 51.3706 225.16C51.3706 227.3 50.2106 228.9 48.2706 228.9ZM59.6959 230.24C61.2759 230.24 62.5759 229.72 63.5359 228.76L62.8159 227.78C62.0559 228.56 60.9359 229 59.8359 229C57.7559 229 56.4759 227.48 56.3559 225.66H64.1759V225.28C64.1759 222.38 62.4559 220.1 59.5359 220.1C56.7759 220.1 54.7759 222.36 54.7759 225.16C54.7759 228.18 56.8359 230.24 59.6959 230.24ZM62.6959 224.56H56.3559C56.4359 223.08 57.4559 221.34 59.5159 221.34C61.7159 221.34 62.6759 223.12 62.6959 224.56ZM74.6255 230V223.22C74.6255 221.12 73.5655 220.1 71.5455 220.1C70.1055 220.1 68.7855 220.94 68.1055 221.74V220.34H66.6055V230H68.1055V222.94C68.6655 222.16 69.7855 221.44 70.9655 221.44C72.2655 221.44 73.1255 221.98 73.1255 223.68V230H74.6255ZM86.1211 230V216.66H84.6211V221.8C83.8411 220.74 82.6611 220.1 81.3611 220.1C78.8211 220.1 77.0611 222.1 77.0611 225.18C77.0611 228.32 78.8411 230.24 81.3611 230.24C82.7211 230.24 83.9011 229.54 84.6211 228.56V230H86.1211ZM81.7211 228.9C79.7811 228.9 78.6211 227.32 78.6211 225.18C78.6211 223.04 79.7811 221.44 81.7211 221.44C82.9211 221.44 84.0811 222.16 84.6211 223V227.38C84.0811 228.22 82.9211 228.9 81.7211 228.9ZM92.225 233.28C90.945 230.76 90.145 228.46 90.145 225.14C90.145 221.8 90.945 219.52 92.225 216.98L91.325 216.3C89.525 218.78 88.505 221.92 88.505 225.14C88.505 228.36 89.525 231.52 91.325 233.98L92.225 233.28ZM93.6659 219.46C93.6659 220.44 94.2459 220.98 94.9059 220.98C95.5059 220.98 95.9659 220.5 95.9659 219.92C95.9659 219.32 95.5659 218.9 95.0059 218.9C94.9059 218.9 94.7659 218.92 94.7459 218.92C94.8059 218.28 95.3859 217.48 96.0259 217.06L95.2859 216.46C94.3659 217.12 93.6659 218.24 93.6659 219.46ZM96.8659 219.46C96.8659 220.44 97.4459 220.98 98.1059 220.98C98.7059 220.98 99.1859 220.5 99.1859 219.92C99.1859 219.32 98.7659 218.9 98.2059 218.9C98.1059 218.9 97.9659 218.92 97.9459 218.92C98.0259 218.28 98.5859 217.48 99.2259 217.06L98.4859 216.46C97.5659 217.12 96.8659 218.24 96.8659 219.46ZM109.919 230V223.18C109.919 221.08 108.859 220.1 106.839 220.1C105.379 220.1 104.059 220.94 103.379 221.74V216.66H101.879V230H103.379V222.94C103.959 222.16 105.079 221.44 106.239 221.44C107.539 221.44 108.419 221.94 108.419 223.64V230H109.919ZM115.354 230.24C116.234 230.24 116.774 229.98 117.154 229.62L116.714 228.5C116.514 228.72 116.114 228.9 115.694 228.9C115.034 228.9 114.714 228.38 114.714 227.66V221.66H116.674V220.34H114.714V217.7H113.214V220.34H111.614V221.66H113.214V227.98C113.214 229.42 113.934 230.24 115.354 230.24ZM121.233 230.24C122.113 230.24 122.653 229.98 123.033 229.62L122.593 228.5C122.393 228.72 121.993 228.9 121.573 228.9C120.913 228.9 120.593 228.38 120.593 227.66V221.66H122.553V220.34H120.593V217.7H119.093V220.34H117.493V221.66H119.093V227.98C119.093 229.42 119.813 230.24 121.233 230.24ZM129.432 230.24C131.972 230.24 133.732 228.28 133.732 225.16C133.732 222.02 131.972 220.1 129.432 220.1C128.072 220.1 126.872 220.8 126.172 221.78V220.34H124.672V233.68H126.172V228.54C126.952 229.62 128.112 230.24 129.432 230.24ZM129.052 228.9C127.872 228.9 126.692 228.18 126.172 227.34V222.98C126.692 222.14 127.872 221.44 129.052 221.44C130.992 221.44 132.152 223.02 132.152 225.16C132.152 227.3 130.992 228.9 129.052 228.9ZM139.177 230.24C141.677 230.24 142.977 228.94 142.977 227.32C142.977 223.56 136.997 224.96 136.997 222.84C136.997 221.98 137.817 221.32 139.137 221.32C140.377 221.32 141.437 221.84 142.017 222.54L142.717 221.5C141.937 220.72 140.777 220.1 139.137 220.1C136.837 220.1 135.537 221.38 135.537 222.88C135.537 226.46 141.517 225.02 141.517 227.36C141.517 228.32 140.717 229.02 139.237 229.02C137.917 229.02 136.697 228.38 136.057 227.64L135.277 228.72C136.257 229.76 137.597 230.24 139.177 230.24ZM146.214 222.4C146.814 222.4 147.314 221.9 147.314 221.3C147.314 220.7 146.814 220.2 146.214 220.2C145.614 220.2 145.114 220.7 145.114 221.3C145.114 221.9 145.614 222.4 146.214 222.4ZM146.214 230.2C146.814 230.2 147.314 229.7 147.314 229.1C147.314 228.5 146.814 228 146.214 228C145.614 228 145.114 228.5 145.114 229.1C145.114 229.7 145.614 230.2 146.214 230.2ZM149.703 230.4L154.443 216.26H153.263L148.523 230.4H149.703ZM155.621 230.4L160.361 216.26H159.181L154.441 230.4H155.621ZM169.399 230V223.36C169.399 221.02 167.699 220.1 165.659 220.1C164.079 220.1 162.839 220.62 161.799 221.7L162.499 222.74C163.359 221.82 164.299 221.4 165.459 221.4C166.859 221.4 167.899 222.14 167.899 223.44V225.18C167.119 224.28 166.019 223.86 164.699 223.86C163.059 223.86 161.319 224.88 161.319 227.04C161.319 229.14 163.059 230.24 164.699 230.24C165.999 230.24 167.099 229.78 167.899 228.9V230H169.399ZM165.239 229.16C163.839 229.16 162.859 228.28 162.859 227.06C162.859 225.82 163.839 224.94 165.239 224.94C166.299 224.94 167.319 225.34 167.899 226.14V227.96C167.319 228.76 166.299 229.16 165.239 229.16ZM177.166 230.24C179.706 230.24 181.466 228.28 181.466 225.16C181.466 222.02 179.706 220.1 177.166 220.1C175.806 220.1 174.606 220.8 173.906 221.78V220.34H172.406V233.68H173.906V228.54C174.686 229.62 175.846 230.24 177.166 230.24ZM176.786 228.9C175.606 228.9 174.426 228.18 173.906 227.34V222.98C174.426 222.14 175.606 221.44 176.786 221.44C178.726 221.44 179.886 223.02 179.886 225.16C179.886 227.3 178.726 228.9 176.786 228.9ZM188.612 230.24C191.152 230.24 192.912 228.28 192.912 225.16C192.912 222.02 191.152 220.1 188.612 220.1C187.252 220.1 186.052 220.8 185.352 221.78V220.34H183.852V233.68H185.352V228.54C186.132 229.62 187.292 230.24 188.612 230.24ZM188.232 228.9C187.052 228.9 185.872 228.18 185.352 227.34V222.98C185.872 222.14 187.052 221.44 188.232 221.44C190.172 221.44 191.332 223.02 191.332 225.16C191.332 227.3 190.172 228.9 188.232 228.9ZM196.797 230V223.16C197.237 222.38 198.497 221.62 199.417 221.62C199.657 221.62 199.837 221.64 200.017 221.68V220.14C198.697 220.14 197.577 220.88 196.797 221.9V220.34H195.297V230H196.797ZM209.918 230V220.34H208.418V227.44C207.858 228.22 206.738 228.9 205.558 228.9C204.258 228.9 203.398 228.4 203.398 226.7V220.34H201.898V227.16C201.898 229.26 202.958 230.24 204.978 230.24C206.418 230.24 207.678 229.48 208.418 228.64V230H209.918ZM220.934 230V223.22C220.934 221.12 219.874 220.1 217.854 220.1C216.414 220.1 215.094 220.94 214.414 221.74V220.34H212.914V230H214.414V222.94C214.974 222.16 216.094 221.44 217.274 221.44C218.574 221.44 219.434 221.98 219.434 223.68V230H220.934ZM231.95 230V223.22C231.95 221.12 230.89 220.1 228.87 220.1C227.43 220.1 226.11 220.94 225.43 221.74V220.34H223.93V230H225.43V222.94C225.99 222.16 227.11 221.44 228.29 221.44C229.59 221.44 230.45 221.98 230.45 223.68V230H231.95ZM239.305 230.24C240.885 230.24 242.185 229.72 243.145 228.76L242.425 227.78C241.665 228.56 240.545 229 239.445 229C237.365 229 236.085 227.48 235.965 225.66H243.785V225.28C243.785 222.38 242.065 220.1 239.145 220.1C236.385 220.1 234.385 222.36 234.385 225.16C234.385 228.18 236.445 230.24 239.305 230.24ZM242.305 224.56H235.965C236.045 223.08 237.065 221.34 239.125 221.34C241.325 221.34 242.285 223.12 242.305 224.56ZM247.715 230V223.16C248.155 222.38 249.415 221.62 250.335 221.62C250.575 221.62 250.755 221.64 250.935 221.68V220.14C249.615 220.14 248.495 220.88 247.715 221.9V220.34H246.215V230H247.715ZM251.956 230.2C252.556 230.2 253.056 229.7 253.056 229.1C253.056 228.5 252.556 228 251.956 228C251.356 228 250.856 228.5 250.856 229.1C250.856 229.7 251.356 230.2 251.956 230.2ZM263.306 230V223.36C263.306 221.02 261.606 220.1 259.566 220.1C257.986 220.1 256.746 220.62 255.706 221.7L256.406 222.74C257.266 221.82 258.206 221.4 259.366 221.4C260.766 221.4 261.806 222.14 261.806 223.44V225.18C261.026 224.28 259.926 223.86 258.606 223.86C256.966 223.86 255.226 224.88 255.226 227.04C255.226 229.14 256.966 230.24 258.606 230.24C259.906 230.24 261.006 229.78 261.806 228.9V230H263.306ZM259.146 229.16C257.746 229.16 256.766 228.28 256.766 227.06C256.766 225.82 257.746 224.94 259.146 224.94C260.206 224.94 261.226 225.34 261.806 226.14V227.96C261.226 228.76 260.206 229.16 259.146 229.16ZM276.173 230L279.253 220.34H277.693L275.333 228.04L272.793 220.34H271.513L268.973 228.04L266.613 220.34H265.053L268.133 230H269.633L272.153 222.24L274.673 230H276.173ZM284.06 230.24C286.56 230.24 287.86 228.94 287.86 227.32C287.86 223.56 281.88 224.96 281.88 222.84C281.88 221.98 282.7 221.32 284.02 221.32C285.26 221.32 286.32 221.84 286.9 222.54L287.6 221.5C286.82 220.72 285.66 220.1 284.02 220.1C281.72 220.1 280.42 221.38 280.42 222.88C280.42 226.46 286.4 225.02 286.4 227.36C286.4 228.32 285.6 229.02 284.12 229.02C282.8 229.02 281.58 228.38 280.94 227.64L280.16 228.72C281.14 229.76 282.48 230.24 284.06 230.24ZM291.097 230.2C291.697 230.2 292.197 229.7 292.197 229.1C292.197 228.5 291.697 228 291.097 228C290.497 228 289.997 228.5 289.997 229.1C289.997 229.7 290.497 230.2 291.097 230.2ZM299.03 230.24C300.79 230.24 301.83 229.52 302.57 228.56L301.57 227.64C300.93 228.5 300.11 228.9 299.11 228.9C297.05 228.9 295.77 227.3 295.77 225.16C295.77 223.02 297.05 221.44 299.11 221.44C300.11 221.44 300.93 221.82 301.57 222.7L302.57 221.78C301.83 220.82 300.79 220.1 299.03 220.1C296.15 220.1 294.21 222.3 294.21 225.16C294.21 228.04 296.15 230.24 299.03 230.24ZM308.892 230.24C311.832 230.24 313.672 227.96 313.672 225.16C313.672 222.36 311.832 220.1 308.892 220.1C305.952 220.1 304.112 222.36 304.112 225.16C304.112 227.96 305.952 230.24 308.892 230.24ZM308.892 228.9C306.832 228.9 305.672 227.14 305.672 225.16C305.672 223.2 306.832 221.44 308.892 221.44C310.952 221.44 312.092 223.2 312.092 225.16C312.092 227.14 310.952 228.9 308.892 228.9ZM329.277 230V223.02C329.277 221.08 328.337 220.1 326.577 220.1C325.177 220.1 323.877 221.02 323.337 221.9C323.057 220.9 322.217 220.1 320.737 220.1C319.317 220.1 318.017 221.12 317.617 221.74V220.34H316.117V230H317.617V222.94C318.137 222.16 319.177 221.44 320.157 221.44C321.417 221.44 321.937 222.22 321.937 223.44V230H323.437V222.92C323.937 222.16 324.997 221.44 325.997 221.44C327.237 221.44 327.777 222.22 327.777 223.44V230H329.277ZM337.372 217.98C337.372 217 336.772 216.46 336.112 216.46C335.532 216.46 335.052 216.96 335.052 217.54C335.052 218.14 335.472 218.56 336.032 218.56C336.112 218.56 336.252 218.54 336.292 218.52C336.212 219.16 335.652 219.96 335.012 220.38L335.752 221C336.652 220.34 337.372 219.2 337.372 217.98ZM334.172 217.98C334.172 217 333.572 216.46 332.912 216.46C332.312 216.46 331.852 216.96 331.852 217.54C331.852 218.14 332.252 218.56 332.812 218.56C332.912 218.56 333.052 218.54 333.092 218.52C333.012 219.16 332.432 219.96 331.792 220.38L332.532 221C333.452 220.34 334.172 219.2 334.172 217.98ZM339.685 233.98C341.505 231.52 342.525 228.36 342.525 225.14C342.525 221.92 341.505 218.78 339.685 216.3L338.785 216.98C340.085 219.52 340.885 221.8 340.885 225.14C340.885 228.46 340.085 230.76 338.785 233.28L339.685 233.98Z" fill="#40A3FF"/>
</svg>
