<svg width="20" height="20" viewBox="0 0 20 20" fill="none" xmlns="http://www.w3.org/2000/svg">
<path d="M10 19L1.6797 8.59963C1.34718 8.18398 1.18092 7.97615 1.13625 7.7257C1.09159 7.47524 1.17575 7.22276 1.34407 6.71778L2.3383 3.73509C2.77832 2.41505 2.99832 1.75503 3.5221 1.37752C4.04587 1 4.74159 1 6.13304 1H13.867C15.2584 1 15.9541 1 16.4779 1.37752C17.0017 1.75503 17.2217 2.41505 17.6617 3.73509L18.6559 6.71778C18.8243 7.22276 18.9084 7.47524 18.8637 7.7257C18.8191 7.97615 18.6528 8.18398 18.3203 8.59963L10 19ZM10 19L13.9375 6.625M10 19L6.0625 6.625M18.4375 7.75L13.9375 6.625M13.9375 6.625L12.25 2.125M13.9375 6.625H6.0625M7.75 2.125L6.0625 6.625M6.0625 6.625L1.5625 7.75" stroke="#9B9B9B" stroke-linecap="round"/>
</svg>
