<?xml version="1.0" encoding="UTF-8"?>
<svg viewBox="0 0 582 294" xmlns="http://www.w3.org/2000/svg">
<rect width="537" height="294" rx="10" fill="#fff"/>
<path d="m186.5 200v-8.671h-1.547l-2.704 6.526-2.691-6.526h-1.547v8.671h1.079v-7.137l2.938 7.137h0.442l2.951-7.137v7.137h1.079zm6.885 0v-4.316c0-1.521-1.105-2.119-2.431-2.119-1.027 0-1.833 0.338-2.509 1.04l0.455 0.676c0.559-0.598 1.17-0.871 1.924-0.871 0.91 0 1.586 0.481 1.586 1.326v1.131c-0.507-0.585-1.222-0.858-2.08-0.858-1.066 0-2.197 0.663-2.197 2.067 0 1.365 1.131 2.08 2.197 2.08 0.845 0 1.56-0.299 2.08-0.871v0.715h0.975zm-2.704-0.546c-0.91 0-1.547-0.572-1.547-1.365 0-0.806 0.637-1.378 1.547-1.378 0.689 0 1.352 0.26 1.729 0.78v1.183c-0.377 0.52-1.04 0.78-1.729 0.78zm5.139-6.63c0.364 0 0.663-0.286 0.663-0.65s-0.299-0.663-0.663-0.663c-0.351 0-0.65 0.299-0.65 0.663s0.299 0.65 0.65 0.65zm0.494 7.176v-6.279h-0.975v6.279h0.975zm2.92 0v-8.671h-0.975v8.671h0.975zm4.714 0.156c1.144 0 1.82-0.468 2.301-1.092l-0.65-0.598c-0.416 0.559-0.949 0.819-1.599 0.819-1.339 0-2.171-1.04-2.171-2.431s0.832-2.418 2.171-2.418c0.65 0 1.183 0.247 1.599 0.819l0.65-0.598c-0.481-0.624-1.157-1.092-2.301-1.092-1.872 0-3.133 1.43-3.133 3.289 0 1.872 1.261 3.302 3.133 3.302zm8.894-0.156v-4.433c0-1.365-0.689-2.002-2.002-2.002-0.949 0-1.807 0.546-2.249 1.066v-3.302h-0.975v8.671h0.975v-4.589c0.377-0.507 1.105-0.975 1.859-0.975 0.845 0 1.417 0.325 1.417 1.43v4.134h0.975zm2.427-7.176c0.364 0 0.663-0.286 0.663-0.65s-0.299-0.663-0.663-0.663c-0.351 0-0.65 0.299-0.65 0.663s0.299 0.65 0.65 0.65zm0.494 7.176v-6.279h-0.975v6.279h0.975zm10.499 0v-4.537c0-1.261-0.611-1.898-1.755-1.898-0.91 0-1.755 0.598-2.106 1.17-0.182-0.65-0.728-1.17-1.69-1.17-0.923 0-1.768 0.663-2.028 1.066v-0.91h-0.975v6.279h0.975v-4.589c0.338-0.507 1.014-0.975 1.651-0.975 0.819 0 1.157 0.507 1.157 1.3v4.264h0.975v-4.602c0.325-0.494 1.014-0.962 1.664-0.962 0.806 0 1.157 0.507 1.157 1.3v4.264h0.975zm5.039 0.156c1.651 0 2.795-1.274 2.795-3.302 0-2.041-1.144-3.289-2.795-3.289-0.884 0-1.664 0.455-2.119 1.092v-0.936h-0.975v8.671h0.975v-3.341c0.507 0.702 1.261 1.105 2.119 1.105zm-0.247-0.871c-0.767 0-1.534-0.468-1.872-1.014v-2.834c0.338-0.546 1.105-1.001 1.872-1.001 1.261 0 2.015 1.027 2.015 2.418s-0.754 2.431-2.015 2.431z" fill="#1D1D26"/>
<path d="m456.12 201v-0.962h-4.03v-7.709h-1.079v8.671h5.109zm1.96-7.176c0.364 0 0.663-0.286 0.663-0.65s-0.299-0.663-0.663-0.663c-0.351 0-0.65 0.299-0.65 0.663s0.299 0.65 0.65 0.65zm0.494 7.176v-6.279h-0.975v6.279h0.975zm7.158 0v-4.407c0-1.365-0.689-2.028-2.002-2.028-0.936 0-1.794 0.546-2.236 1.066v-0.91h-0.975v6.279h0.975v-4.589c0.364-0.507 1.092-0.975 1.859-0.975 0.845 0 1.404 0.351 1.404 1.456v4.108h0.975zm7.472 0-2.795-3.432 2.782-2.847h-1.235l-3.302 3.341v-5.733h-0.975v8.671h0.975v-1.794l1.04-1.027 2.262 2.821h1.248zm3.949 0.156c1.027 0 1.872-0.338 2.496-0.962l-0.468-0.637c-0.494 0.507-1.222 0.793-1.937 0.793-1.352 0-2.184-0.988-2.262-2.171h5.083v-0.247c0-1.885-1.118-3.367-3.016-3.367-1.794 0-3.094 1.469-3.094 3.289 0 1.963 1.339 3.302 3.198 3.302zm1.95-3.692h-4.121c0.052-0.962 0.715-2.093 2.054-2.093 1.43 0 2.054 1.157 2.067 2.093zm8.066 3.536v-8.671h-0.975v3.341c-0.507-0.689-1.274-1.105-2.119-1.105-1.651 0-2.795 1.3-2.795 3.302 0 2.041 1.157 3.289 2.795 3.289 0.884 0 1.651-0.455 2.119-1.092v0.936h0.975zm-2.86-0.715c-1.261 0-2.015-1.027-2.015-2.418s0.754-2.431 2.015-2.431c0.78 0 1.534 0.468 1.885 1.014v2.847c-0.351 0.546-1.105 0.988-1.885 0.988zm5.93 0.715v-8.671h-1.079v8.671h1.079zm7.206 0v-4.407c0-1.365-0.689-2.028-2.002-2.028-0.936 0-1.794 0.546-2.236 1.066v-0.91h-0.975v6.279h0.975v-4.589c0.364-0.507 1.092-0.975 1.859-0.975 0.845 0 1.404 0.351 1.404 1.456v4.108h0.975z" fill="#252531"/>
<path d="m421.41 196.89-6.842-4.399c-0.333-0.214-0.77 0.025-0.77 0.421v8.797c0 0.395 0.437 0.634 0.77 0.42l6.842-4.398c0.306-0.197 0.306-0.644 0-0.841z" fill="#252531"/>
<path d="m413.8 197.41c0.276 0 0.5 0.224 0.5 0.5s-0.224 0.5-0.5 0.5v-1zm-24.8 1c-0.276 0-0.5-0.224-0.5-0.5s0.224-0.5 0.5-0.5v1zm24.8 0h-24.8v-1h24.8v1z" fill="#252531"/>
<path d="m314.09 201v-3.952h4.511v-0.962h-4.511v-2.795h4.602v-0.962h-5.681v8.671h1.079zm10.93 0v-4.316c0-1.521-1.105-2.119-2.431-2.119-1.027 0-1.833 0.338-2.509 1.04l0.455 0.676c0.559-0.598 1.17-0.871 1.924-0.871 0.91 0 1.586 0.481 1.586 1.326v1.131c-0.507-0.585-1.222-0.858-2.08-0.858-1.066 0-2.197 0.663-2.197 2.067 0 1.365 1.131 2.08 2.197 2.08 0.845 0 1.56-0.299 2.08-0.871v0.715h0.975zm-2.704-0.546c-0.91 0-1.547-0.572-1.547-1.365 0-0.806 0.637-1.378 1.547-1.378 0.689 0 1.352 0.26 1.729 0.78v1.183c-0.377 0.52-1.04 0.78-1.729 0.78zm7.428 0.702c1.144 0 1.82-0.468 2.301-1.092l-0.65-0.598c-0.416 0.559-0.949 0.819-1.599 0.819-1.339 0-2.171-1.04-2.171-2.431s0.832-2.418 2.171-2.418c0.65 0 1.183 0.247 1.599 0.819l0.65-0.598c-0.481-0.624-1.157-1.092-2.301-1.092-1.872 0-3.133 1.43-3.133 3.289 0 1.872 1.261 3.302 3.133 3.302zm6.501 0c1.027 0 1.872-0.338 2.496-0.962l-0.468-0.637c-0.494 0.507-1.222 0.793-1.937 0.793-1.352 0-2.184-0.988-2.262-2.171h5.083v-0.247c0-1.885-1.118-3.367-3.016-3.367-1.794 0-3.094 1.469-3.094 3.289 0 1.963 1.339 3.302 3.198 3.302zm1.95-3.692h-4.121c0.052-0.962 0.715-2.093 2.054-2.093 1.43 0 2.054 1.157 2.067 2.093zm3.517 1.833v-2.847c0.338-0.546 1.105-1.014 1.872-1.014 1.274 0 2.028 1.04 2.028 2.431s-0.754 2.418-2.028 2.418c-0.767 0-1.534-0.442-1.872-0.988zm0 1.703v-0.936c0.468 0.637 1.235 1.092 2.119 1.092 1.638 0 2.795-1.248 2.795-3.289 0-2.002-1.157-3.302-2.795-3.302-0.858 0-1.612 0.416-2.119 1.105v-3.341h-0.975v8.671h0.975zm9.245 0.156c1.911 0 3.107-1.482 3.107-3.302s-1.196-3.289-3.107-3.289-3.107 1.469-3.107 3.289 1.196 3.302 3.107 3.302zm0-0.871c-1.339 0-2.093-1.144-2.093-2.431 0-1.274 0.754-2.418 2.093-2.418s2.08 1.144 2.08 2.418c0 1.287-0.741 2.431-2.08 2.431zm7.44 0.871c1.911 0 3.107-1.482 3.107-3.302s-1.196-3.289-3.107-3.289-3.107 1.469-3.107 3.289 1.196 3.302 3.107 3.302zm0-0.871c-1.339 0-2.093-1.144-2.093-2.431 0-1.274 0.754-2.418 2.093-2.418s2.08 1.144 2.08 2.418c0 1.287-0.741 2.431-2.08 2.431zm10.221 0.715-2.795-3.432 2.782-2.847h-1.235l-3.302 3.341v-5.733h-0.975v8.671h0.975v-1.794l1.04-1.027 2.262 2.821h1.248z" fill="#252531"/>
<path d="m289.41 195.89-6.842-4.399c-0.333-0.214-0.77 0.025-0.77 0.421v8.797c0 0.395 0.437 0.634 0.77 0.42l6.842-4.398c0.306-0.197 0.306-0.644 0-0.841z" fill="#252531"/>
<path d="m281.8 196.4c0.276 0 0.5 0.224 0.5 0.5s-0.224 0.5-0.5 0.5v-1zm-24.8 1c-0.276 0-0.5-0.224-0.5-0.5s0.224-0.5 0.5-0.5v1zm24.8 0h-24.8v-1h24.8v1z" fill="#252531"/>
<path d="m179.09 261v-3.952h4.511v-0.962h-4.511v-2.795h4.602v-0.962h-5.681v8.671h1.079zm10.93 0v-4.316c0-1.521-1.105-2.119-2.431-2.119-1.027 0-1.833 0.338-2.509 1.04l0.455 0.676c0.559-0.598 1.17-0.871 1.924-0.871 0.91 0 1.586 0.481 1.586 1.326v1.131c-0.507-0.585-1.222-0.858-2.08-0.858-1.066 0-2.197 0.663-2.197 2.067 0 1.365 1.131 2.08 2.197 2.08 0.845 0 1.56-0.299 2.08-0.871v0.715h0.975zm-2.704-0.546c-0.91 0-1.547-0.572-1.547-1.365 0-0.806 0.637-1.378 1.547-1.378 0.689 0 1.352 0.26 1.729 0.78v1.183c-0.377 0.52-1.04 0.78-1.729 0.78zm7.428 0.702c1.144 0 1.82-0.468 2.301-1.092l-0.65-0.598c-0.416 0.559-0.949 0.819-1.599 0.819-1.339 0-2.171-1.04-2.171-2.431s0.832-2.418 2.171-2.418c0.65 0 1.183 0.247 1.599 0.819l0.65-0.598c-0.481-0.624-1.157-1.092-2.301-1.092-1.872 0-3.133 1.43-3.133 3.289 0 1.872 1.261 3.302 3.133 3.302zm6.501 0c1.027 0 1.872-0.338 2.496-0.962l-0.468-0.637c-0.494 0.507-1.222 0.793-1.937 0.793-1.352 0-2.184-0.988-2.262-2.171h5.083v-0.247c0-1.885-1.118-3.367-3.016-3.367-1.794 0-3.094 1.469-3.094 3.289 0 1.963 1.339 3.302 3.198 3.302zm1.95-3.692h-4.121c0.052-0.962 0.715-2.093 2.054-2.093 1.43 0 2.054 1.157 2.067 2.093zm3.517 1.833v-2.847c0.338-0.546 1.105-1.014 1.872-1.014 1.274 0 2.028 1.04 2.028 2.431s-0.754 2.418-2.028 2.418c-0.767 0-1.534-0.442-1.872-0.988zm0 1.703v-0.936c0.468 0.637 1.235 1.092 2.119 1.092 1.638 0 2.795-1.248 2.795-3.289 0-2.002-1.157-3.302-2.795-3.302-0.858 0-1.612 0.416-2.119 1.105v-3.341h-0.975v8.671h0.975zm9.245 0.156c1.911 0 3.107-1.482 3.107-3.302s-1.196-3.289-3.107-3.289-3.107 1.469-3.107 3.289 1.196 3.302 3.107 3.302zm0-0.871c-1.339 0-2.093-1.144-2.093-2.431 0-1.274 0.754-2.418 2.093-2.418s2.08 1.144 2.08 2.418c0 1.287-0.741 2.431-2.08 2.431zm7.44 0.871c1.911 0 3.107-1.482 3.107-3.302s-1.196-3.289-3.107-3.289-3.107 1.469-3.107 3.289 1.196 3.302 3.107 3.302zm0-0.871c-1.339 0-2.093-1.144-2.093-2.431 0-1.274 0.754-2.418 2.093-2.418s2.08 1.144 2.08 2.418c0 1.287-0.741 2.431-2.08 2.431zm10.221 0.715-2.795-3.432 2.782-2.847h-1.235l-3.302 3.341v-5.733h-0.975v8.671h0.975v-1.794l1.04-1.027 2.262 2.821h1.248z" fill="#1D1D26"/>
<path d="m459.5 262v-8.671h-1.547l-2.704 6.526-2.691-6.526h-1.547v8.671h1.079v-7.137l2.938 7.137h0.442l2.951-7.137v7.137h1.079zm6.885 0v-4.316c0-1.521-1.105-2.119-2.431-2.119-1.027 0-1.833 0.338-2.509 1.04l0.455 0.676c0.559-0.598 1.17-0.871 1.924-0.871 0.91 0 1.586 0.481 1.586 1.326v1.131c-0.507-0.585-1.222-0.858-2.08-0.858-1.066 0-2.197 0.663-2.197 2.067 0 1.365 1.131 2.08 2.197 2.08 0.845 0 1.56-0.299 2.08-0.871v0.715h0.975zm-2.704-0.546c-0.91 0-1.547-0.572-1.547-1.365 0-0.806 0.637-1.378 1.547-1.378 0.689 0 1.352 0.26 1.729 0.78v1.183c-0.377 0.52-1.04 0.78-1.729 0.78zm5.139-6.63c0.364 0 0.663-0.286 0.663-0.65s-0.299-0.663-0.663-0.663c-0.351 0-0.65 0.299-0.65 0.663s0.299 0.65 0.65 0.65zm0.494 7.176v-6.279h-0.975v6.279h0.975zm2.92 0v-8.671h-0.975v8.671h0.975zm4.714 0.156c1.144 0 1.82-0.468 2.301-1.092l-0.65-0.598c-0.416 0.559-0.949 0.819-1.599 0.819-1.339 0-2.171-1.04-2.171-2.431s0.832-2.418 2.171-2.418c0.65 0 1.183 0.247 1.599 0.819l0.65-0.598c-0.481-0.624-1.157-1.092-2.301-1.092-1.872 0-3.133 1.43-3.133 3.289 0 1.872 1.261 3.302 3.133 3.302zm8.894-0.156v-4.433c0-1.365-0.689-2.002-2.002-2.002-0.949 0-1.807 0.546-2.249 1.066v-3.302h-0.975v8.671h0.975v-4.589c0.377-0.507 1.105-0.975 1.859-0.975 0.845 0 1.417 0.325 1.417 1.43v4.134h0.975zm2.427-7.176c0.364 0 0.663-0.286 0.663-0.65s-0.299-0.663-0.663-0.663c-0.351 0-0.65 0.299-0.65 0.663s0.299 0.65 0.65 0.65zm0.494 7.176v-6.279h-0.975v6.279h0.975zm10.499 0v-4.537c0-1.261-0.611-1.898-1.755-1.898-0.91 0-1.755 0.598-2.106 1.17-0.182-0.65-0.728-1.17-1.69-1.17-0.923 0-1.768 0.663-2.028 1.066v-0.91h-0.975v6.279h0.975v-4.589c0.338-0.507 1.014-0.975 1.651-0.975 0.819 0 1.157 0.507 1.157 1.3v4.264h0.975v-4.602c0.325-0.494 1.014-0.962 1.664-0.962 0.806 0 1.157 0.507 1.157 1.3v4.264h0.975zm5.039 0.156c1.651 0 2.795-1.274 2.795-3.302 0-2.041-1.144-3.289-2.795-3.289-0.884 0-1.664 0.455-2.119 1.092v-0.936h-0.975v8.671h0.975v-3.341c0.507 0.702 1.261 1.105 2.119 1.105zm-0.247-0.871c-0.767 0-1.534-0.468-1.872-1.014v-2.834c0.338-0.546 1.105-1.001 1.872-1.001 1.261 0 2.015 1.027 2.015 2.418s-0.754 2.431-2.015 2.431z" fill="#252531"/>
<path d="m421.41 257.89-6.842-4.399c-0.333-0.214-0.77 0.025-0.77 0.421v8.797c0 0.395 0.437 0.634 0.77 0.42l6.842-4.398c0.306-0.197 0.306-0.644 0-0.841z" fill="#252531"/>
<path d="m413.8 258.41c0.276 0 0.5 0.224 0.5 0.5s-0.224 0.5-0.5 0.5v-1zm-24.8 1c-0.276 0-0.5-0.224-0.5-0.5s0.224-0.5 0.5-0.5v1zm24.8 0h-24.8v-1h24.8v1z" fill="#252531"/>
<path d="m314.09 262v-3.952h4.511v-0.962h-4.511v-2.795h4.602v-0.962h-5.681v8.671h1.079zm10.93 0v-4.316c0-1.521-1.105-2.119-2.431-2.119-1.027 0-1.833 0.338-2.509 1.04l0.455 0.676c0.559-0.598 1.17-0.871 1.924-0.871 0.91 0 1.586 0.481 1.586 1.326v1.131c-0.507-0.585-1.222-0.858-2.08-0.858-1.066 0-2.197 0.663-2.197 2.067 0 1.365 1.131 2.08 2.197 2.08 0.845 0 1.56-0.299 2.08-0.871v0.715h0.975zm-2.704-0.546c-0.91 0-1.547-0.572-1.547-1.365 0-0.806 0.637-1.378 1.547-1.378 0.689 0 1.352 0.26 1.729 0.78v1.183c-0.377 0.52-1.04 0.78-1.729 0.78zm7.428 0.702c1.144 0 1.82-0.468 2.301-1.092l-0.65-0.598c-0.416 0.559-0.949 0.819-1.599 0.819-1.339 0-2.171-1.04-2.171-2.431s0.832-2.418 2.171-2.418c0.65 0 1.183 0.247 1.599 0.819l0.65-0.598c-0.481-0.624-1.157-1.092-2.301-1.092-1.872 0-3.133 1.43-3.133 3.289 0 1.872 1.261 3.302 3.133 3.302zm6.501 0c1.027 0 1.872-0.338 2.496-0.962l-0.468-0.637c-0.494 0.507-1.222 0.793-1.937 0.793-1.352 0-2.184-0.988-2.262-2.171h5.083v-0.247c0-1.885-1.118-3.367-3.016-3.367-1.794 0-3.094 1.469-3.094 3.289 0 1.963 1.339 3.302 3.198 3.302zm1.95-3.692h-4.121c0.052-0.962 0.715-2.093 2.054-2.093 1.43 0 2.054 1.157 2.067 2.093zm3.517 1.833v-2.847c0.338-0.546 1.105-1.014 1.872-1.014 1.274 0 2.028 1.04 2.028 2.431s-0.754 2.418-2.028 2.418c-0.767 0-1.534-0.442-1.872-0.988zm0 1.703v-0.936c0.468 0.637 1.235 1.092 2.119 1.092 1.638 0 2.795-1.248 2.795-3.289 0-2.002-1.157-3.302-2.795-3.302-0.858 0-1.612 0.416-2.119 1.105v-3.341h-0.975v8.671h0.975zm9.245 0.156c1.911 0 3.107-1.482 3.107-3.302s-1.196-3.289-3.107-3.289-3.107 1.469-3.107 3.289 1.196 3.302 3.107 3.302zm0-0.871c-1.339 0-2.093-1.144-2.093-2.431 0-1.274 0.754-2.418 2.093-2.418s2.08 1.144 2.08 2.418c0 1.287-0.741 2.431-2.08 2.431zm7.44 0.871c1.911 0 3.107-1.482 3.107-3.302s-1.196-3.289-3.107-3.289-3.107 1.469-3.107 3.289 1.196 3.302 3.107 3.302zm0-0.871c-1.339 0-2.093-1.144-2.093-2.431 0-1.274 0.754-2.418 2.093-2.418s2.08 1.144 2.08 2.418c0 1.287-0.741 2.431-2.08 2.431zm10.221 0.715-2.795-3.432 2.782-2.847h-1.235l-3.302 3.341v-5.733h-0.975v8.671h0.975v-1.794l1.04-1.027 2.262 2.821h1.248z" fill="#252531"/>
<path d="m289.41 256.89-6.842-4.399c-0.333-0.214-0.77 0.025-0.77 0.421v8.797c0 0.395 0.437 0.634 0.77 0.42l6.842-4.398c0.306-0.197 0.306-0.644 0-0.841z" fill="#252531"/>
<path d="m281.8 257.4c0.276 0 0.5 0.224 0.5 0.5s-0.224 0.5-0.5 0.5v-1zm-24.8 1c-0.276 0-0.5-0.224-0.5-0.5s0.224-0.5 0.5-0.5v1zm24.8 0h-24.8v-1h24.8v1z" fill="#252531"/>
<circle cx="43" cy="257" r="13" fill="#252531"/>
<path d="m44.945 262h-1.755v-2.265h-4.77v-1.41l4.11-6.33h2.415v6.195h1.335v1.545h-1.335v2.265zm-1.755-3.81v-4.62l-3.045 4.62h3.045z" fill="#fff"/>
<circle cx="43" cy="196" r="13" fill="#252531"/>
<path d="m43.14 201.18c-0.85 0-1.605-0.15-2.265-0.45-0.65-0.3-1.155-0.69-1.515-1.17l0.945-1.155c0.32 0.37 0.73 0.665 1.23 0.885s1.015 0.33 1.545 0.33c0.65 0 1.16-0.135 1.53-0.405 0.37-0.28 0.555-0.655 0.555-1.125 0-0.94-0.74-1.41-2.22-1.41-0.67 0-1.055 5e-3 -1.155 0.015v-1.575c0.12 0.01 0.505 0.015 1.155 0.015 0.62 0 1.115-0.11 1.485-0.33 0.38-0.22 0.57-0.55 0.57-0.99 0-0.45-0.19-0.795-0.57-1.035-0.38-0.25-0.865-0.375-1.455-0.375-0.98 0-1.84 0.37-2.58 1.11l-0.9-1.095c0.89-1.05 2.105-1.575 3.645-1.575 1.09 0 1.965 0.245 2.625 0.735 0.66 0.48 0.99 1.135 0.99 1.965 0 0.62-0.22 1.135-0.66 1.545-0.43 0.4-0.935 0.65-1.515 0.75 0.57 0.05 1.1 0.29 1.59 0.72s0.735 1 0.735 1.71c0 0.86-0.345 1.56-1.035 2.1-0.68 0.54-1.59 0.81-2.73 0.81z" fill="#fff"/>
<circle cx="43" cy="135" r="13" fill="#252531"/>
<path d="m46.995 140h-7.245v-1.38c2.09-1.58 3.51-2.75 4.26-3.51 0.76-0.77 1.14-1.495 1.14-2.175 0-0.49-0.18-0.865-0.54-1.125-0.35-0.27-0.775-0.405-1.275-0.405-1.1 0-2 0.4-2.7 1.2l-1.02-1.155c0.43-0.52 0.97-0.915 1.62-1.185 0.66-0.28 1.35-0.42 2.07-0.42 1.02 0 1.88 0.275 2.58 0.825s1.05 1.305 1.05 2.265c0 0.86-0.36 1.715-1.08 2.565s-1.82 1.835-3.3 2.955h4.44v1.545z" fill="#fff"/>
<rect x="73" y="118" width="85" height="37" rx="10" fill="#F7F7F7"/>
<rect x="73" y="178" width="85" height="37" rx="10" fill="#F7F7F7"/>
<rect x="73" y="238" width="85" height="37" rx="10" fill="#F7F7F7"/>
<path d="m37.362 34h-2.628l-4.716-12.006h2.394l3.636 9.72 3.636-9.72h2.394l-4.716 12.006zm6.9093-9.756c-0.312 0-0.588-0.114-0.828-0.342-0.228-0.228-0.342-0.504-0.342-0.828s0.114-0.6 0.342-0.828c0.24-0.228 0.516-0.342 0.828-0.342 0.324 0 0.6 0.114 0.828 0.342s0.342 0.504 0.342 0.828-0.114 0.6-0.342 0.828-0.504 0.342-0.828 0.342zm0.954 9.756h-1.89v-8.694h1.89v8.694zm5.4218 0.216c-1.56 0-2.802-0.45-3.726-1.35l0.864-1.368c0.324 0.336 0.762 0.624 1.314 0.864s1.098 0.36 1.638 0.36c0.552 0 0.972-0.108 1.26-0.324 0.3-0.216 0.45-0.498 0.45-0.846 0-0.312-0.18-0.552-0.54-0.72-0.36-0.18-0.798-0.318-1.314-0.414-0.516-0.108-1.032-0.234-1.548-0.378-0.516-0.156-0.954-0.426-1.314-0.81s-0.54-0.882-0.54-1.494c0-0.744 0.306-1.368 0.918-1.872 0.612-0.516 1.446-0.774 2.502-0.774 1.332 0 2.46 0.408 3.384 1.224l-0.792 1.332c-0.276-0.312-0.642-0.564-1.098-0.756s-0.948-0.288-1.476-0.288c-0.492 0-0.888 0.102-1.188 0.306-0.288 0.192-0.432 0.444-0.432 0.756 0 0.24 0.126 0.438 0.378 0.594 0.264 0.144 0.588 0.252 0.972 0.324 0.396 0.072 0.822 0.174 1.278 0.306 0.456 0.12 0.876 0.264 1.26 0.432 0.396 0.168 0.72 0.444 0.972 0.828 0.264 0.372 0.396 0.828 0.396 1.368 0 0.792-0.318 1.44-0.954 1.944s-1.524 0.756-2.664 0.756zm6.4563-9.972c-0.312 0-0.588-0.114-0.828-0.342-0.228-0.228-0.342-0.504-0.342-0.828s0.114-0.6 0.342-0.828c0.24-0.228 0.516-0.342 0.828-0.342 0.324 0 0.6 0.114 0.828 0.342s0.342 0.504 0.342 0.828-0.114 0.6-0.342 0.828-0.504 0.342-0.828 0.342zm0.954 9.756h-1.89v-8.694h1.89v8.694zm5.0618 0.216c-0.732 0-1.29-0.192-1.674-0.576-0.372-0.384-0.558-0.936-0.558-1.656v-5.022h-1.44v-1.656h1.44v-2.376h1.89v2.376h1.764v1.656h-1.764v4.554c0 0.312 0.072 0.564 0.216 0.756 0.144 0.18 0.348 0.27 0.612 0.27 0.384 0 0.666-0.102 0.846-0.306l0.45 1.422c-0.396 0.372-0.99 0.558-1.782 0.558zm7.062 0c-1.344 0-2.424-0.438-3.24-1.314-0.816-0.888-1.224-1.974-1.224-3.258s0.408-2.364 1.224-3.24 1.896-1.314 3.24-1.314c1.356 0 2.442 0.438 3.258 1.314s1.224 1.956 1.224 3.24c0 1.296-0.408 2.382-1.224 3.258s-1.902 1.314-3.258 1.314zm0-1.674c0.78 0 1.392-0.276 1.836-0.828 0.456-0.564 0.684-1.254 0.684-2.07 0-0.804-0.228-1.482-0.684-2.034-0.444-0.564-1.056-0.846-1.836-0.846-0.768 0-1.38 0.282-1.836 0.846-0.444 0.552-0.666 1.23-0.666 2.034 0 0.816 0.222 1.506 0.666 2.07 0.456 0.552 1.068 0.828 1.836 0.828zm8.2844 1.458h-1.89v-8.694h1.89v1.278c0.336-0.432 0.756-0.786 1.26-1.062s1.026-0.414 1.566-0.414v1.872c-0.168-0.036-0.366-0.054-0.594-0.054-0.396 0-0.822 0.12-1.278 0.36-0.444 0.228-0.762 0.492-0.954 0.792v5.922zm11.133 0h-2.106v-12.006h5.274c1.212 0 2.166 0.36 2.862 1.08 0.708 0.72 1.062 1.614 1.062 2.682 0 1.056-0.354 1.95-1.062 2.682-0.696 0.72-1.65 1.08-2.862 1.08h-3.168v4.482zm2.88-6.336c0.6 0 1.092-0.174 1.476-0.522s0.576-0.81 0.576-1.386-0.192-1.038-0.576-1.386-0.876-0.522-1.476-0.522h-2.88v3.816h2.88zm12.759 6.336h-1.89v-0.936c-0.672 0.768-1.608 1.152-2.808 1.152-0.7915 0-1.4935-0.252-2.1055-0.756-0.612-0.516-0.918-1.224-0.918-2.124 0-0.924 0.3-1.626 0.9-2.106 0.612-0.48 1.32-0.72 2.1235-0.72 1.236 0 2.172 0.372 2.808 1.116v-1.296c0-0.504-0.186-0.9-0.558-1.188s-0.864-0.432-1.476-0.432c-0.972 0-1.8295 0.366-2.5735 1.098l-0.774-1.314c0.984-0.936 2.2015-1.404 3.6535-1.404 1.068 0 1.938 0.252 2.61 0.756s1.008 1.302 1.008 2.394v5.76zm-3.96-1.08c0.948 0 1.638-0.3 2.07-0.9v-1.314c-0.432-0.6-1.122-0.9-2.07-0.9-0.54 0-0.984 0.144-1.3315 0.432-0.348 0.288-0.522 0.666-0.522 1.134s0.174 0.846 0.522 1.134c0.3475 0.276 0.7915 0.414 1.3315 0.414zm9.021 1.296c-0.732 0-1.29-0.192-1.674-0.576-0.372-0.384-0.558-0.936-0.558-1.656v-5.022h-1.44v-1.656h1.44v-2.376h1.89v2.376h1.764v1.656h-1.764v4.554c0 0.312 0.072 0.564 0.216 0.756 0.144 0.18 0.348 0.27 0.612 0.27 0.384 0 0.666-0.102 0.846-0.306l0.45 1.422c-0.396 0.372-0.99 0.558-1.782 0.558zm10.914-0.216h-1.89v-5.472c0-0.636-0.156-1.086-0.468-1.35-0.3-0.276-0.732-0.414-1.296-0.414-0.444 0-0.864 0.114-1.26 0.342s-0.72 0.504-0.972 0.828v6.066h-1.89v-12.006h1.89v4.5c0.324-0.384 0.756-0.714 1.296-0.99 0.552-0.276 1.146-0.414 1.782-0.414 1.872 0 2.808 0.918 2.808 2.754v6.156zm5.424 0.216c-1.56 0-2.802-0.45-3.726-1.35l0.864-1.368c0.324 0.336 0.762 0.624 1.314 0.864s1.098 0.36 1.638 0.36c0.552 0 0.972-0.108 1.26-0.324 0.3-0.216 0.45-0.498 0.45-0.846 0-0.312-0.18-0.552-0.54-0.72-0.36-0.18-0.798-0.318-1.314-0.414-0.516-0.108-1.032-0.234-1.548-0.378-0.516-0.156-0.954-0.426-1.314-0.81s-0.54-0.882-0.54-1.494c0-0.744 0.306-1.368 0.918-1.872 0.612-0.516 1.446-0.774 2.502-0.774 1.332 0 2.46 0.408 3.384 1.224l-0.792 1.332c-0.276-0.312-0.642-0.564-1.098-0.756s-0.948-0.288-1.476-0.288c-0.492 0-0.888 0.102-1.188 0.306-0.288 0.192-0.432 0.444-0.432 0.756 0 0.24 0.126 0.438 0.378 0.594 0.264 0.144 0.588 0.252 0.972 0.324 0.396 0.072 0.822 0.174 1.278 0.306 0.456 0.12 0.876 0.264 1.26 0.432 0.396 0.168 0.72 0.444 0.972 0.828 0.264 0.372 0.396 0.828 0.396 1.368 0 0.792-0.318 1.44-0.954 1.944s-1.524 0.756-2.664 0.756z" fill="#93939E"/>
<rect x="73" y="58" width="85" height="37" rx="10" fill="#F7F7F7"/>
<path d="m93.783 82.156c1.703 0 3.107-0.884 3.107-2.353 0-1.157-0.988-1.95-2.067-2.275 1.001-0.286 1.937-0.936 1.937-2.08 0-1.56-1.547-2.249-2.977-2.249-1.443 0-2.964 0.689-2.964 2.249 0 1.144 0.923 1.794 1.924 2.08-1.079 0.325-2.067 1.118-2.067 2.275 0 1.482 1.391 2.353 3.107 2.353zm0-5.07c-0.52-0.091-1.885-0.442-1.885-1.495 0-0.897 0.832-1.43 1.885-1.43 1.04 0 1.885 0.533 1.885 1.43 0 1.053-1.352 1.404-1.885 1.495zm0 4.108c-1.079 0-2.028-0.572-2.028-1.508 0-1.131 1.495-1.612 2.028-1.677 0.533 0.065 2.015 0.546 2.015 1.677 0 0.936-0.949 1.508-2.015 1.508zm6.54 0.806 3.549-7.93v-0.741h-5.9153v0.962h4.6673l-3.4973 7.709h1.1963zm7.314 0v-8.671h-0.949l-2.171 2.236 0.65 0.663 1.391-1.469v7.241h1.079zm8.602 0v-7.709h2.756v-0.962h-6.578v0.962h2.743v7.709h1.079zm5.396 0.156c1.911 0 3.107-1.482 3.107-3.302s-1.196-3.289-3.107-3.289-3.107 1.469-3.107 3.289 1.196 3.302 3.107 3.302zm0-0.871c-1.339 0-2.093-1.144-2.093-2.431 0-1.274 0.754-2.418 2.093-2.418s2.08 1.144 2.08 2.418c0 1.287-0.741 2.431-2.08 2.431zm6.282 0.871c0.572 0 0.923-0.169 1.17-0.403l-0.286-0.728c-0.13 0.143-0.39 0.26-0.663 0.26-0.429 0-0.637-0.338-0.637-0.806v-3.9h1.274v-0.858h-1.274v-1.716h-0.975v1.716h-1.04v0.858h1.04v4.108c0 0.936 0.468 1.469 1.391 1.469zm7.137-0.156v-4.316c0-1.521-1.105-2.119-2.431-2.119-1.027 0-1.833 0.338-2.509 1.04l0.455 0.676c0.559-0.598 1.17-0.871 1.924-0.871 0.91 0 1.586 0.481 1.586 1.326v1.131c-0.507-0.585-1.222-0.858-2.08-0.858-1.066 0-2.197 0.663-2.197 2.067 0 1.365 1.131 2.08 2.197 2.08 0.845 0 1.56-0.299 2.08-0.871v0.715h0.975zm-2.704-0.546c-0.91 0-1.547-0.572-1.547-1.365 0-0.806 0.637-1.378 1.547-1.378 0.689 0 1.352 0.26 1.729 0.78v1.183c-0.377 0.52-1.04 0.78-1.729 0.78zm5.633 0.546v-8.671h-0.975v8.671h0.975z" fill="#93939E"/>
<path d="m92.769 141 3.549-7.93v-0.741h-5.915v0.962h4.667l-3.497 7.709h1.196zm7.704 0.156c1.703 0 3.107-0.884 3.107-2.353 0-1.157-0.988-1.95-2.067-2.275 1.001-0.286 1.937-0.936 1.937-2.08 0-1.56-1.547-2.249-2.977-2.249-1.4426 0-2.9636 0.689-2.9636 2.249 0 1.144 0.923 1.794 1.924 2.08-1.079 0.325-2.067 1.118-2.067 2.275 0 1.482 1.391 2.353 3.1066 2.353zm0-5.07c-0.5196-0.091-1.8846-0.442-1.8846-1.495 0-0.897 0.832-1.43 1.8846-1.43 1.04 0 1.885 0.533 1.885 1.43 0 1.053-1.352 1.404-1.885 1.495zm0 4.108c-1.0786 0-2.0276-0.572-2.0276-1.508 0-1.131 1.495-1.612 2.0276-1.677 0.533 0.065 2.015 0.546 2.015 1.677 0 0.936-0.949 1.508-2.015 1.508zm7.164 0.806v-8.671h-0.949l-2.171 2.236 0.65 0.663 1.391-1.469v7.241h1.079zm8.602 0v-7.709h2.756v-0.962h-6.578v0.962h2.743v7.709h1.079zm5.396 0.156c1.911 0 3.107-1.482 3.107-3.302s-1.196-3.289-3.107-3.289-3.107 1.469-3.107 3.289 1.196 3.302 3.107 3.302zm0-0.871c-1.339 0-2.093-1.144-2.093-2.431 0-1.274 0.754-2.418 2.093-2.418s2.08 1.144 2.08 2.418c0 1.287-0.741 2.431-2.08 2.431zm6.282 0.871c0.572 0 0.923-0.169 1.17-0.403l-0.286-0.728c-0.13 0.143-0.39 0.26-0.663 0.26-0.429 0-0.637-0.338-0.637-0.806v-3.9h1.274v-0.858h-1.274v-1.716h-0.975v1.716h-1.04v0.858h1.04v4.108c0 0.936 0.468 1.469 1.391 1.469zm7.137-0.156v-4.316c0-1.521-1.105-2.119-2.431-2.119-1.027 0-1.833 0.338-2.509 1.04l0.455 0.676c0.559-0.598 1.17-0.871 1.924-0.871 0.91 0 1.586 0.481 1.586 1.326v1.131c-0.507-0.585-1.222-0.858-2.08-0.858-1.066 0-2.197 0.663-2.197 2.067 0 1.365 1.131 2.08 2.197 2.08 0.845 0 1.56-0.299 2.08-0.871v0.715h0.975zm-2.704-0.546c-0.91 0-1.547-0.572-1.547-1.365 0-0.806 0.637-1.378 1.547-1.378 0.689 0 1.352 0.26 1.729 0.78v1.183c-0.377 0.52-1.04 0.78-1.729 0.78zm5.633 0.546v-8.671h-0.975v8.671h0.975z" fill="#93939E"/>
<path d="m92.004 201.16c1.898 0 3.042-1.326 3.042-2.834 0-1.846-1.274-2.769-2.834-2.769-1.118 0-2.08 0.754-2.457 1.352-0.013-0.117-0.013-0.221-0.013-0.338 0-1.703 0.767-3.406 2.444-3.406 0.91 0 1.417 0.364 1.859 0.884l0.546-0.806c-0.533-0.611-1.287-1.04-2.405-1.04-2.431 0-3.523 2.132-3.523 4.485s0.923 4.472 3.341 4.472zm-0.039-0.962c-1.508 0-2.08-1.326-2.184-2.405 0.481-0.767 1.313-1.3 2.171-1.3 1.118 0 2.002 0.598 2.002 1.872 0 0.832-0.65 1.833-1.989 1.833zm7.7197 0.962c1.8983 0 3.0423-1.326 3.0423-2.834 0-1.846-1.274-2.769-2.8343-2.769-1.118 0-2.08 0.754-2.457 1.352-0.013-0.117-0.013-0.221-0.013-0.338 0-1.703 0.767-3.406 2.444-3.406 0.9103 0 1.4173 0.364 1.8593 0.884l0.546-0.806c-0.533-0.611-1.287-1.04-2.4053-1.04-2.431 0-3.523 2.132-3.523 4.485s0.923 4.472 3.341 4.472zm-0.039-0.962c-1.508 0-2.08-1.326-2.184-2.405 0.481-0.767 1.313-1.3 2.171-1.3 1.1183 0 2.0023 0.598 2.0023 1.872 0 0.832-0.65 1.833-1.9893 1.833zm7.2123 0.949c2.431 0 3.523-2.132 3.523-4.472 0-2.366-0.923-4.485-3.354-4.485-1.885 0-3.029 1.339-3.029 2.834 0 1.846 1.287 2.769 2.847 2.769 1.105 0 2.067-0.754 2.444-1.352 0.013 0.117 0.013 0.234 0.013 0.351 0 1.638-0.689 3.393-2.444 3.393-0.897 0-1.417-0.364-1.859-0.884l-0.546 0.806c0.546 0.624 1.3 1.04 2.405 1.04zm0.234-4.29c-1.118 0-2.002-0.598-2.002-1.872 0-0.819 0.663-1.833 1.989-1.833 1.508 0 2.08 1.339 2.171 2.418-0.455 0.767-1.3 1.287-2.158 1.287zm11.54 4.147v-7.709h2.756v-0.962h-6.578v0.962h2.743v7.709h1.079zm5.396 0.156c1.911 0 3.107-1.482 3.107-3.302s-1.196-3.289-3.107-3.289-3.107 1.469-3.107 3.289 1.196 3.302 3.107 3.302zm0-0.871c-1.339 0-2.093-1.144-2.093-2.431 0-1.274 0.754-2.418 2.093-2.418s2.08 1.144 2.08 2.418c0 1.287-0.741 2.431-2.08 2.431zm6.282 0.871c0.572 0 0.923-0.169 1.17-0.403l-0.286-0.728c-0.13 0.143-0.39 0.26-0.663 0.26-0.429 0-0.637-0.338-0.637-0.806v-3.9h1.274v-0.858h-1.274v-1.716h-0.975v1.716h-1.04v0.858h1.04v4.108c0 0.936 0.468 1.469 1.391 1.469zm7.136-0.156v-4.316c0-1.521-1.105-2.119-2.431-2.119-1.027 0-1.833 0.338-2.509 1.04l0.455 0.676c0.559-0.598 1.17-0.871 1.924-0.871 0.91 0 1.586 0.481 1.586 1.326v1.131c-0.507-0.585-1.222-0.858-2.08-0.858-1.066 0-2.197 0.663-2.197 2.067 0 1.365 1.131 2.08 2.197 2.08 0.845 0 1.56-0.299 2.08-0.871v0.715h0.975zm-2.704-0.546c-0.91 0-1.547-0.572-1.547-1.365 0-0.806 0.637-1.378 1.547-1.378 0.689 0 1.352 0.26 1.729 0.78v1.183c-0.377 0.52-1.04 0.78-1.729 0.78zm5.634 0.546v-8.671h-0.975v8.671h0.975z" fill="#93939E"/>
<path d="m91.913 262.16c1.742 0 3.081-1.092 3.081-2.86 0-1.781-1.313-2.769-2.756-2.769-0.871 0-1.612 0.364-2.028 0.78v-3.016h4.225v-0.962h-5.304v4.68l0.793 0.273c0.585-0.572 1.235-0.819 2.002-0.819 1.17 0 1.989 0.728 1.989 1.872 0 1.053-0.819 1.859-2.002 1.859-1.066 0-1.82-0.416-2.392-1.144l-0.663 0.715c0.65 0.858 1.586 1.391 3.055 1.391zm7.759 0c1.898 0 3.042-1.326 3.042-2.834 0-1.846-1.274-2.769-2.834-2.769-1.118 0-2.08 0.754-2.457 1.352-0.013-0.117-0.013-0.221-0.013-0.338 0-1.703 0.767-3.406 2.444-3.406 0.91 0 1.417 0.364 1.859 0.884l0.546-0.806c-0.533-0.611-1.287-1.04-2.405-1.04-2.431 0-3.523 2.132-3.523 4.485s0.923 4.472 3.341 4.472zm-0.039-0.962c-1.508 0-2.08-1.326-2.184-2.405 0.481-0.767 1.313-1.3 2.171-1.3 1.118 0 2.002 0.598 2.002 1.872 0 0.832-0.65 1.833-1.989 1.833zm7.213 0.949c2.431 0 3.523-2.132 3.523-4.472 0-2.366-0.923-4.485-3.354-4.485-1.885 0-3.029 1.339-3.029 2.834 0 1.846 1.287 2.769 2.847 2.769 1.105 0 2.067-0.754 2.444-1.352 0.013 0.117 0.013 0.234 0.013 0.351 0 1.638-0.689 3.393-2.444 3.393-0.897 0-1.417-0.364-1.859-0.884l-0.546 0.806c0.546 0.624 1.3 1.04 2.405 1.04zm0.234-4.29c-1.118 0-2.002-0.598-2.002-1.872 0-0.819 0.663-1.833 1.989-1.833 1.508 0 2.08 1.339 2.171 2.418-0.455 0.767-1.3 1.287-2.158 1.287zm11.539 4.147v-7.709h2.756v-0.962h-6.578v0.962h2.743v7.709h1.079zm5.396 0.156c1.911 0 3.107-1.482 3.107-3.302s-1.196-3.289-3.107-3.289-3.107 1.469-3.107 3.289 1.196 3.302 3.107 3.302zm0-0.871c-1.339 0-2.093-1.144-2.093-2.431 0-1.274 0.754-2.418 2.093-2.418s2.08 1.144 2.08 2.418c0 1.287-0.741 2.431-2.08 2.431zm6.282 0.871c0.572 0 0.923-0.169 1.17-0.403l-0.286-0.728c-0.13 0.143-0.39 0.26-0.663 0.26-0.429 0-0.637-0.338-0.637-0.806v-3.9h1.274v-0.858h-1.274v-1.716h-0.975v1.716h-1.04v0.858h1.04v4.108c0 0.936 0.468 1.469 1.391 1.469zm7.137-0.156v-4.316c0-1.521-1.105-2.119-2.431-2.119-1.027 0-1.833 0.338-2.509 1.04l0.455 0.676c0.559-0.598 1.17-0.871 1.924-0.871 0.91 0 1.586 0.481 1.586 1.326v1.131c-0.507-0.585-1.222-0.858-2.08-0.858-1.066 0-2.197 0.663-2.197 2.067 0 1.365 1.131 2.08 2.197 2.08 0.845 0 1.56-0.299 2.08-0.871v0.715h0.975zm-2.704-0.546c-0.91 0-1.547-0.572-1.547-1.365 0-0.806 0.637-1.378 1.547-1.378 0.689 0 1.352 0.26 1.729 0.78v1.183c-0.377 0.52-1.04 0.78-1.729 0.78zm5.633 0.546v-8.671h-0.975v8.671h0.975z" fill="#93939E"/>
<circle cx="43" cy="77" r="13" fill="#252531"/>
<path d="m43.635 82h-1.755v-7.725l-1.635 1.695-1.02-1.065 2.88-2.91h1.53v10.005z" fill="#fff"/>
<path d="m179.09 139v-3.952h4.511v-0.962h-4.511v-2.795h4.602v-0.962h-5.681v8.671h1.079zm10.93 0v-4.316c0-1.521-1.105-2.119-2.431-2.119-1.027 0-1.833 0.338-2.509 1.04l0.455 0.676c0.559-0.598 1.17-0.871 1.924-0.871 0.91 0 1.586 0.481 1.586 1.326v1.131c-0.507-0.585-1.222-0.858-2.08-0.858-1.066 0-2.197 0.663-2.197 2.067 0 1.365 1.131 2.08 2.197 2.08 0.845 0 1.56-0.299 2.08-0.871v0.715h0.975zm-2.704-0.546c-0.91 0-1.547-0.572-1.547-1.365 0-0.806 0.637-1.378 1.547-1.378 0.689 0 1.352 0.26 1.729 0.78v1.183c-0.377 0.52-1.04 0.78-1.729 0.78zm7.428 0.702c1.144 0 1.82-0.468 2.301-1.092l-0.65-0.598c-0.416 0.559-0.949 0.819-1.599 0.819-1.339 0-2.171-1.04-2.171-2.431s0.832-2.418 2.171-2.418c0.65 0 1.183 0.247 1.599 0.819l0.65-0.598c-0.481-0.624-1.157-1.092-2.301-1.092-1.872 0-3.133 1.43-3.133 3.289 0 1.872 1.261 3.302 3.133 3.302zm6.501 0c1.027 0 1.872-0.338 2.496-0.962l-0.468-0.637c-0.494 0.507-1.222 0.793-1.937 0.793-1.352 0-2.184-0.988-2.262-2.171h5.083v-0.247c0-1.885-1.118-3.367-3.016-3.367-1.794 0-3.094 1.469-3.094 3.289 0 1.963 1.339 3.302 3.198 3.302zm1.95-3.692h-4.121c0.052-0.962 0.715-2.093 2.054-2.093 1.43 0 2.054 1.157 2.067 2.093zm3.517 1.833v-2.847c0.338-0.546 1.105-1.014 1.872-1.014 1.274 0 2.028 1.04 2.028 2.431s-0.754 2.418-2.028 2.418c-0.767 0-1.534-0.442-1.872-0.988zm0 1.703v-0.936c0.468 0.637 1.235 1.092 2.119 1.092 1.638 0 2.795-1.248 2.795-3.289 0-2.002-1.157-3.302-2.795-3.302-0.858 0-1.612 0.416-2.119 1.105v-3.341h-0.975v8.671h0.975zm9.245 0.156c1.911 0 3.107-1.482 3.107-3.302s-1.196-3.289-3.107-3.289-3.107 1.469-3.107 3.289 1.196 3.302 3.107 3.302zm0-0.871c-1.339 0-2.093-1.144-2.093-2.431 0-1.274 0.754-2.418 2.093-2.418s2.08 1.144 2.08 2.418c0 1.287-0.741 2.431-2.08 2.431zm7.44 0.871c1.911 0 3.107-1.482 3.107-3.302s-1.196-3.289-3.107-3.289-3.107 1.469-3.107 3.289 1.196 3.302 3.107 3.302zm0-0.871c-1.339 0-2.093-1.144-2.093-2.431 0-1.274 0.754-2.418 2.093-2.418s2.08 1.144 2.08 2.418c0 1.287-0.741 2.431-2.08 2.431zm10.221 0.715-2.795-3.432 2.782-2.847h-1.235l-3.302 3.341v-5.733h-0.975v8.671h0.975v-1.794l1.04-1.027 2.262 2.821h1.248z" fill="#1D1D26"/>
<path d="m455.12 140.17c1.417 0 2.6-0.598 3.406-1.495v-3.133h-4.056v0.962h2.977v1.768c-0.429 0.429-1.287 0.936-2.327 0.936-1.898 0-3.341-1.482-3.341-3.536 0-2.067 1.443-3.523 3.341-3.523 1.04 0 1.963 0.494 2.509 1.196l0.858-0.533c-0.767-0.949-1.833-1.625-3.367-1.625-2.47 0-4.459 1.794-4.459 4.485s1.989 4.498 4.459 4.498zm7.864-0.013c1.911 0 3.107-1.482 3.107-3.302s-1.196-3.289-3.107-3.289-3.107 1.469-3.107 3.289 1.196 3.302 3.107 3.302zm0-0.871c-1.339 0-2.093-1.144-2.093-2.431 0-1.274 0.754-2.418 2.093-2.418s2.08 1.144 2.08 2.418c0 1.287-0.741 2.431-2.08 2.431zm7.439 0.871c1.911 0 3.107-1.482 3.107-3.302s-1.196-3.289-3.107-3.289-3.107 1.469-3.107 3.289 1.196 3.302 3.107 3.302zm0-0.871c-1.339 0-2.093-1.144-2.093-2.431 0-1.274 0.754-2.418 2.093-2.418s2.08 1.144 2.08 2.418c0 1.287-0.741 2.431-2.08 2.431zm7.219 3.263c1.534 0 2.99-0.65 2.99-2.73v-6.097h-0.975v0.949c-0.507-0.689-1.261-1.105-2.106-1.105-1.651 0-2.795 1.248-2.795 3.263 0 2.028 1.157 3.25 2.795 3.25 0.884 0 1.651-0.481 2.106-1.118v0.897c0 1.378-0.975 1.885-2.015 1.885-0.897 0-1.521-0.234-2.041-0.858l-0.494 0.728c0.741 0.728 1.469 0.936 2.535 0.936zm0.143-3.328c-1.261 0-2.015-1.014-2.015-2.392 0-1.391 0.754-2.392 2.015-2.392 0.78 0 1.534 0.468 1.872 1.014v2.743c-0.338 0.546-1.092 1.027-1.872 1.027zm5.774 0.78v-8.671h-0.975v8.671h0.975zm4.779 0.156c1.027 0 1.872-0.338 2.496-0.962l-0.468-0.637c-0.494 0.507-1.222 0.793-1.937 0.793-1.352 0-2.184-0.988-2.262-2.171h5.083v-0.247c0-1.885-1.118-3.367-3.016-3.367-1.794 0-3.094 1.469-3.094 3.289 0 1.963 1.339 3.302 3.198 3.302zm1.95-3.692h-4.121c0.052-0.962 0.715-2.093 2.054-2.093 1.43 0 2.054 1.157 2.067 2.093z" fill="#252531"/>
<path d="m421.41 135.89-6.842-4.399c-0.333-0.214-0.77 0.025-0.77 0.421v8.797c0 0.395 0.437 0.634 0.77 0.42l6.842-4.398c0.306-0.197 0.306-0.644 0-0.841z" fill="#252531"/>
<path d="m413.8 136.41c0.276 0 0.5 0.224 0.5 0.5s-0.224 0.5-0.5 0.5v-1zm-24.8 1c-0.276 0-0.5-0.224-0.5-0.5s0.224-0.5 0.5-0.5v1zm24.8 0h-24.8v-1h24.8v1z" fill="#252531"/>
<path d="m317.12 140.17c1.417 0 2.6-0.598 3.406-1.495v-3.133h-4.056v0.962h2.977v1.768c-0.429 0.429-1.287 0.936-2.327 0.936-1.898 0-3.341-1.482-3.341-3.536 0-2.067 1.443-3.523 3.341-3.523 1.04 0 1.963 0.494 2.509 1.196l0.858-0.533c-0.767-0.949-1.833-1.625-3.367-1.625-2.47 0-4.459 1.794-4.459 4.485s1.989 4.498 4.459 4.498zm7.864-0.013c1.911 0 3.107-1.482 3.107-3.302s-1.196-3.289-3.107-3.289-3.107 1.469-3.107 3.289 1.196 3.302 3.107 3.302zm0-0.871c-1.339 0-2.093-1.144-2.093-2.431 0-1.274 0.754-2.418 2.093-2.418s2.08 1.144 2.08 2.418c0 1.287-0.741 2.431-2.08 2.431zm7.439 0.871c1.911 0 3.107-1.482 3.107-3.302s-1.196-3.289-3.107-3.289-3.107 1.469-3.107 3.289 1.196 3.302 3.107 3.302zm0-0.871c-1.339 0-2.093-1.144-2.093-2.431 0-1.274 0.754-2.418 2.093-2.418s2.08 1.144 2.08 2.418c0 1.287-0.741 2.431-2.08 2.431zm7.218 3.263c1.534 0 2.99-0.65 2.99-2.73v-6.097h-0.975v0.949c-0.507-0.689-1.261-1.105-2.106-1.105-1.651 0-2.795 1.248-2.795 3.263 0 2.028 1.157 3.25 2.795 3.25 0.884 0 1.651-0.481 2.106-1.118v0.897c0 1.378-0.975 1.885-2.015 1.885-0.897 0-1.521-0.234-2.041-0.858l-0.494 0.728c0.741 0.728 1.469 0.936 2.535 0.936zm0.143-3.328c-1.261 0-2.015-1.014-2.015-2.392 0-1.391 0.754-2.392 2.015-2.392 0.78 0 1.534 0.468 1.872 1.014v2.743c-0.338 0.546-1.092 1.027-1.872 1.027zm5.775 0.78v-8.671h-0.975v8.671h0.975zm4.779 0.156c1.027 0 1.872-0.338 2.496-0.962l-0.468-0.637c-0.494 0.507-1.222 0.793-1.937 0.793-1.352 0-2.184-0.988-2.262-2.171h5.083v-0.247c0-1.885-1.118-3.367-3.016-3.367-1.794 0-3.094 1.469-3.094 3.289 0 1.963 1.339 3.302 3.198 3.302zm1.95-3.692h-4.121c0.052-0.962 0.715-2.093 2.054-2.093 1.43 0 2.054 1.157 2.067 2.093zm13.355 3.536-3.497-8.671h-1.339l-3.484 8.671h1.235l0.767-1.924h4.316l0.767 1.924h1.235zm-2.327-2.886h-3.679l1.846-4.667 1.833 4.667zm8.947 2.886v-8.671h-0.975v3.341c-0.507-0.689-1.274-1.105-2.119-1.105-1.651 0-2.795 1.3-2.795 3.302 0 2.041 1.157 3.289 2.795 3.289 0.884 0 1.651-0.455 2.119-1.092v0.936h0.975zm-2.86-0.715c-1.261 0-2.015-1.027-2.015-2.418s0.754-2.431 2.015-2.431c0.78 0 1.534 0.468 1.885 1.014v2.847c-0.351 0.546-1.105 0.988-1.885 0.988zm6.801 0.871c1.625 0 2.47-0.845 2.47-1.898 0-2.444-3.887-1.534-3.887-2.912 0-0.559 0.533-0.988 1.391-0.988 0.806 0 1.495 0.338 1.872 0.793l0.455-0.676c-0.507-0.507-1.261-0.91-2.327-0.91-1.495 0-2.34 0.832-2.34 1.807 0 2.327 3.887 1.391 3.887 2.912 0 0.624-0.52 1.079-1.482 1.079-0.858 0-1.651-0.416-2.067-0.897l-0.507 0.702c0.637 0.676 1.508 0.988 2.535 0.988z" fill="#252531"/>
<path d="m289.41 134.89-6.842-4.399c-0.333-0.214-0.77 0.025-0.77 0.421v8.797c0 0.395 0.437 0.634 0.77 0.42l6.842-4.398c0.306-0.197 0.306-0.644 0-0.841z" fill="#252531"/>
<path d="m281.8 135.4c0.276 0 0.5 0.224 0.5 0.5s-0.224 0.5-0.5 0.5v-1zm-24.8 1c-0.276 0-0.5-0.224-0.5-0.5s0.224-0.5 0.5-0.5v1zm24.8 0h-24.8v-1h24.8v1z" fill="#252531"/>
<path d="m186.5 82v-8.671h-1.547l-2.704 6.526-2.691-6.526h-1.547v8.671h1.079v-7.137l2.938 7.137h0.442l2.951-7.137v7.137h1.079zm6.885 0v-4.316c0-1.521-1.105-2.119-2.431-2.119-1.027 0-1.833 0.338-2.509 1.04l0.455 0.676c0.559-0.598 1.17-0.871 1.924-0.871 0.91 0 1.586 0.481 1.586 1.326v1.131c-0.507-0.585-1.222-0.858-2.08-0.858-1.066 0-2.197 0.663-2.197 2.067 0 1.365 1.131 2.08 2.197 2.08 0.845 0 1.56-0.299 2.08-0.871v0.715h0.975zm-2.704-0.546c-0.91 0-1.547-0.572-1.547-1.365 0-0.806 0.637-1.378 1.547-1.378 0.689 0 1.352 0.26 1.729 0.78v1.183c-0.377 0.52-1.04 0.78-1.729 0.78zm5.139-6.63c0.364 0 0.663-0.286 0.663-0.65s-0.299-0.663-0.663-0.663c-0.351 0-0.65 0.299-0.65 0.663s0.299 0.65 0.65 0.65zm0.494 7.176v-6.279h-0.975v6.279h0.975zm2.92 0v-8.671h-0.975v8.671h0.975zm4.714 0.156c1.144 0 1.82-0.468 2.301-1.092l-0.65-0.598c-0.416 0.559-0.949 0.819-1.599 0.819-1.339 0-2.171-1.04-2.171-2.431s0.832-2.418 2.171-2.418c0.65 0 1.183 0.247 1.599 0.819l0.65-0.598c-0.481-0.624-1.157-1.092-2.301-1.092-1.872 0-3.133 1.43-3.133 3.289 0 1.872 1.261 3.302 3.133 3.302zm8.894-0.156v-4.433c0-1.365-0.689-2.002-2.002-2.002-0.949 0-1.807 0.546-2.249 1.066v-3.302h-0.975v8.671h0.975v-4.589c0.377-0.507 1.105-0.975 1.859-0.975 0.845 0 1.417 0.325 1.417 1.43v4.134h0.975zm2.427-7.176c0.364 0 0.663-0.286 0.663-0.65s-0.299-0.663-0.663-0.663c-0.351 0-0.65 0.299-0.65 0.663s0.299 0.65 0.65 0.65zm0.494 7.176v-6.279h-0.975v6.279h0.975zm10.499 0v-4.537c0-1.261-0.611-1.898-1.755-1.898-0.91 0-1.755 0.598-2.106 1.17-0.182-0.65-0.728-1.17-1.69-1.17-0.923 0-1.768 0.663-2.028 1.066v-0.91h-0.975v6.279h0.975v-4.589c0.338-0.507 1.014-0.975 1.651-0.975 0.819 0 1.157 0.507 1.157 1.3v4.264h0.975v-4.602c0.325-0.494 1.014-0.962 1.664-0.962 0.806 0 1.157 0.507 1.157 1.3v4.264h0.975zm5.039 0.156c1.651 0 2.795-1.274 2.795-3.302 0-2.041-1.144-3.289-2.795-3.289-0.884 0-1.664 0.455-2.119 1.092v-0.936h-0.975v8.671h0.975v-3.341c0.507 0.702 1.261 1.105 2.119 1.105zm-0.247-0.871c-0.767 0-1.534-0.468-1.872-1.014v-2.834c0.338-0.546 1.105-1.001 1.872-1.001 1.261 0 2.015 1.027 2.015 2.418s-0.754 2.431-2.015 2.431z" fill="#1D1D26"/>
<path d="m454.96 83c1.586 0 2.509-0.949 2.509-2.34 0-1.04-0.767-1.989-1.69-2.132 0.793-0.169 1.521-0.897 1.521-1.989 0-1.3-0.923-2.21-2.431-2.21h-3.861v8.671h3.952zm-0.273-4.914h-2.6v-2.795h2.6c0.975 0 1.495 0.624 1.495 1.404 0 0.793-0.52 1.391-1.495 1.391zm0.052 3.952h-2.652v-2.99h2.652c1.066 0 1.612 0.702 1.612 1.495 0 0.923-0.598 1.495-1.612 1.495zm9.307 0.962v-4.316c0-1.521-1.105-2.119-2.431-2.119-1.027 0-1.833 0.338-2.509 1.04l0.455 0.676c0.559-0.598 1.17-0.871 1.924-0.871 0.91 0 1.586 0.481 1.586 1.326v1.131c-0.507-0.585-1.222-0.858-2.08-0.858-1.066 0-2.197 0.663-2.197 2.067 0 1.365 1.131 2.08 2.197 2.08 0.845 0 1.56-0.299 2.08-0.871v0.715h0.975zm-2.704-0.546c-0.91 0-1.547-0.572-1.547-1.365 0-0.806 0.637-1.378 1.547-1.378 0.689 0 1.352 0.26 1.729 0.78v1.183c-0.377 0.52-1.04 0.78-1.729 0.78zm5.139-6.63c0.364 0 0.663-0.286 0.663-0.65s-0.299-0.663-0.663-0.663c-0.351 0-0.65 0.299-0.65 0.663s0.299 0.65 0.65 0.65zm0.494 7.176v-6.279h-0.975v6.279h0.975zm7.47 0v-8.671h-0.975v3.341c-0.507-0.689-1.274-1.105-2.119-1.105-1.651 0-2.795 1.3-2.795 3.302 0 2.041 1.157 3.289 2.795 3.289 0.884 0 1.651-0.455 2.119-1.092v0.936h0.975zm-2.86-0.715c-1.261 0-2.015-1.027-2.015-2.418s0.754-2.431 2.015-2.431c0.78 0 1.534 0.468 1.885 1.014v2.847c-0.351 0.546-1.105 0.988-1.885 0.988zm10.026 0.715v-6.279h-0.975v4.615c-0.364 0.507-1.092 0.949-1.859 0.949-0.845 0-1.404-0.325-1.404-1.43v-4.134h-0.975v4.433c0 1.365 0.689 2.002 2.002 2.002 0.936 0 1.755-0.494 2.236-1.04v0.884h0.975z" fill="#252531"/>
<path d="m421.41 78.894-6.842-4.3985c-0.333-0.2139-0.77 0.025-0.77 0.4206v8.7969c0 0.3956 0.437 0.6345 0.77 0.4206l6.842-4.3984c0.306-0.1968 0.306-0.6444 0-0.8412z" fill="#252531"/>
<path d="m413.8 79.406c0.276 0 0.5 0.2239 0.5 0.5 0 0.2762-0.224 0.5-0.5 0.5v-1zm-24.8 1c-0.276 0-0.5-0.2238-0.5-0.5 0-0.2761 0.224-0.5 0.5-0.5v1zm24.8 0h-24.8v-1h24.8v1z" fill="#252531"/>
<path d="m318.12 83v-0.962h-4.03v-7.709h-1.079v8.671h5.109zm1.96-7.176c0.364 0 0.663-0.286 0.663-0.65s-0.299-0.663-0.663-0.663c-0.351 0-0.65 0.299-0.65 0.663s0.299 0.65 0.65 0.65zm0.494 7.176v-6.279h-0.975v6.279h0.975zm7.158 0v-4.407c0-1.365-0.689-2.028-2.002-2.028-0.936 0-1.794 0.546-2.236 1.066v-0.91h-0.975v6.279h0.975v-4.589c0.364-0.507 1.092-0.975 1.859-0.975 0.845 0 1.404 0.351 1.404 1.456v4.108h0.975zm7.472 0-2.795-3.432 2.782-2.847h-1.235l-3.302 3.341v-5.733h-0.975v8.671h0.975v-1.794l1.04-1.027 2.262 2.821h1.248zm3.949 0.156c1.027 0 1.872-0.338 2.496-0.962l-0.468-0.637c-0.494 0.507-1.222 0.793-1.937 0.793-1.352 0-2.184-0.988-2.262-2.171h5.083v-0.247c0-1.885-1.118-3.367-3.016-3.367-1.794 0-3.094 1.469-3.094 3.289 0 1.963 1.339 3.302 3.198 3.302zm1.95-3.692h-4.121c0.052-0.962 0.715-2.093 2.054-2.093 1.43 0 2.054 1.157 2.067 2.093zm8.066 3.536v-8.671h-0.975v3.341c-0.507-0.689-1.274-1.105-2.119-1.105-1.651 0-2.795 1.3-2.795 3.302 0 2.041 1.157 3.289 2.795 3.289 0.884 0 1.651-0.455 2.119-1.092v0.936h0.975zm-2.86-0.715c-1.261 0-2.015-1.027-2.015-2.418s0.754-2.431 2.015-2.431c0.78 0 1.534 0.468 1.885 1.014v2.847c-0.351 0.546-1.105 0.988-1.885 0.988zm5.93 0.715v-8.671h-1.079v8.671h1.079zm7.206 0v-4.407c0-1.365-0.689-2.028-2.002-2.028-0.936 0-1.794 0.546-2.236 1.066v-0.91h-0.975v6.279h0.975v-4.589c0.364-0.507 1.092-0.975 1.859-0.975 0.845 0 1.404 0.351 1.404 1.456v4.108h0.975z" fill="#252531"/>
</svg>
