<?xml version="1.0" encoding="UTF-8"?>
<svg fill="none" viewBox="0 0 429 310" xmlns="http://www.w3.org/2000/svg">
<rect width="427" height="310" rx="10" fill="#fff"/>
<path d="m320.28 83.713h-1.404v-6.18l-1.308 1.356-0.816-0.852 2.304-2.328h1.224v8.004zm4.559 0h-1.404v-6.18l-1.308 1.356-0.816-0.852 2.304-2.328h1.224v8.004zm1.787 0.24h-0.936l2.844-8.484h0.936l-2.844 8.484zm7.985-0.456c-0.424 0.24-0.904 0.36-1.44 0.36s-1.016-0.12-1.44-0.36-0.76-0.56-1.008-0.96-0.436-0.84-0.564-1.32-0.192-0.98-0.192-1.5 0.064-1.02 0.192-1.5 0.316-0.916 0.564-1.308c0.248-0.4 0.584-0.72 1.008-0.96s0.904-0.36 1.44-0.36 1.016 0.12 1.44 0.36 0.76 0.56 1.008 0.96c0.248 0.392 0.436 0.828 0.564 1.308s0.192 0.98 0.192 1.5-0.064 1.02-0.192 1.5-0.316 0.92-0.564 1.32-0.584 0.72-1.008 0.96zm-2.784-1.704c0.288 0.544 0.736 0.816 1.344 0.816s1.056-0.272 1.344-0.816 0.432-1.236 0.432-2.076c0-0.536-0.056-1.012-0.168-1.428-0.104-0.416-0.296-0.76-0.576-1.032-0.272-0.28-0.616-0.42-1.032-0.42s-0.764 0.14-1.044 0.42c-0.272 0.272-0.464 0.616-0.576 1.032-0.104 0.416-0.156 0.892-0.156 1.428 0 0.84 0.144 1.532 0.432 2.076zm8.75 1.92h-1.404v-6.18l-1.308 1.356-0.816-0.852 2.304-2.328h1.224v8.004zm1.787 0.24h-0.936l2.844-8.484h0.936l-2.844 8.484zm9.245-0.24h-5.796v-1.104c1.672-1.264 2.808-2.2 3.408-2.808 0.608-0.616 0.912-1.196 0.912-1.74 0-0.392-0.144-0.692-0.432-0.9-0.28-0.216-0.62-0.324-1.02-0.324-0.88 0-1.6 0.32-2.16 0.96l-0.816-0.924c0.344-0.416 0.776-0.732 1.296-0.948 0.528-0.224 1.08-0.336 1.656-0.336 0.816 0 1.504 0.22 2.064 0.66s0.84 1.044 0.84 1.812c0 0.688-0.288 1.372-0.864 2.052s-1.456 1.468-2.64 2.364h3.552v1.236zm5.877-0.216c-0.424 0.24-0.904 0.36-1.44 0.36s-1.016-0.12-1.44-0.36-0.76-0.56-1.008-0.96-0.436-0.84-0.564-1.32-0.192-0.98-0.192-1.5 0.064-1.02 0.192-1.5 0.316-0.916 0.564-1.308c0.248-0.4 0.584-0.72 1.008-0.96s0.904-0.36 1.44-0.36 1.016 0.12 1.44 0.36 0.76 0.56 1.008 0.96c0.248 0.392 0.436 0.828 0.564 1.308s0.192 0.98 0.192 1.5-0.064 1.02-0.192 1.5-0.316 0.92-0.564 1.32-0.584 0.72-1.008 0.96zm-2.784-1.704c0.288 0.544 0.736 0.816 1.344 0.816s1.056-0.272 1.344-0.816 0.432-1.236 0.432-2.076c0-0.536-0.056-1.012-0.168-1.428-0.104-0.416-0.296-0.76-0.576-1.032-0.272-0.28-0.616-0.42-1.032-0.42s-0.764 0.14-1.044 0.42c-0.272 0.272-0.464 0.616-0.576 1.032-0.104 0.416-0.156 0.892-0.156 1.428 0 0.84 0.144 1.532 0.432 2.076zm11.438 1.92h-5.796v-1.104c1.672-1.264 2.808-2.2 3.408-2.808 0.608-0.616 0.912-1.196 0.912-1.74 0-0.392-0.144-0.692-0.432-0.9-0.28-0.216-0.62-0.324-1.02-0.324-0.88 0-1.6 0.32-2.16 0.96l-0.816-0.924c0.344-0.416 0.776-0.732 1.296-0.948 0.528-0.224 1.08-0.336 1.656-0.336 0.816 0 1.504 0.22 2.064 0.66s0.84 1.044 0.84 1.812c0 0.688-0.288 1.372-0.864 2.052s-1.456 1.468-2.64 2.364h3.552v1.236zm4.449 0h-1.404v-6.18l-1.308 1.356-0.816-0.852 2.304-2.328h1.224v8.004z" fill="#252531" fill-opacity=".7"/>
<path d="m316.73 204.31h-1.404v-6.18l-1.308 1.356-0.816-0.852 2.304-2.328h1.224v8.004zm5.987-0.216c-0.424 0.24-0.904 0.361-1.44 0.361s-1.016-0.121-1.44-0.361-0.76-0.56-1.008-0.96-0.436-0.84-0.564-1.32-0.192-0.98-0.192-1.5 0.064-1.02 0.192-1.5 0.316-0.916 0.564-1.308c0.248-0.4 0.584-0.72 1.008-0.96s0.904-0.36 1.44-0.36 1.016 0.12 1.44 0.36 0.76 0.56 1.008 0.96c0.248 0.392 0.436 0.828 0.564 1.308s0.192 0.98 0.192 1.5-0.064 1.02-0.192 1.5-0.316 0.92-0.564 1.32-0.584 0.72-1.008 0.96zm-2.784-1.704c0.288 0.544 0.736 0.816 1.344 0.816s1.056-0.272 1.344-0.816 0.432-1.236 0.432-2.076c0-0.536-0.056-1.012-0.168-1.428-0.104-0.416-0.296-0.76-0.576-1.032-0.272-0.28-0.616-0.42-1.032-0.42s-0.764 0.14-1.044 0.42c-0.272 0.272-0.464 0.616-0.576 1.032-0.104 0.416-0.156 0.892-0.156 1.428 0 0.84 0.144 1.532 0.432 2.076zm5.979 2.161h-0.936l2.844-8.485h0.936l-2.844 8.485zm9.245-0.241h-5.796v-1.104c1.672-1.264 2.808-2.2 3.408-2.808 0.608-0.616 0.912-1.196 0.912-1.74 0-0.392-0.144-0.692-0.432-0.9-0.28-0.216-0.62-0.324-1.02-0.324-0.88 0-1.6 0.32-2.16 0.96l-0.816-0.924c0.344-0.416 0.776-0.732 1.296-0.948 0.528-0.224 1.08-0.336 1.656-0.336 0.816 0 1.504 0.22 2.064 0.66s0.84 1.044 0.84 1.812c0 0.688-0.288 1.372-0.864 2.052s-1.456 1.468-2.64 2.364h3.552v1.236zm4.052 0.145c-0.68 0-1.284-0.121-1.812-0.361-0.52-0.24-0.924-0.552-1.212-0.936l0.756-0.924c0.256 0.296 0.584 0.532 0.984 0.708s0.812 0.264 1.236 0.264c0.52 0 0.928-0.108 1.224-0.324 0.296-0.224 0.444-0.524 0.444-0.9 0-0.752-0.592-1.128-1.776-1.128-0.536 0-0.844 4e-3 -0.924 0.012v-1.26c0.096 8e-3 0.404 0.012 0.924 0.012 0.496 0 0.892-0.088 1.188-0.264 0.304-0.176 0.456-0.44 0.456-0.792 0-0.36-0.152-0.636-0.456-0.828-0.304-0.2-0.692-0.3-1.164-0.3-0.784 0-1.472 0.296-2.064 0.888l-0.72-0.876c0.712-0.84 1.684-1.26 2.916-1.26 0.872 0 1.572 0.196 2.1 0.588 0.528 0.384 0.792 0.908 0.792 1.572 0 0.496-0.176 0.908-0.528 1.236-0.344 0.32-0.748 0.52-1.212 0.6 0.456 0.04 0.88 0.232 1.272 0.576s0.588 0.8 0.588 1.368c0 0.688-0.276 1.248-0.828 1.68-0.544 0.432-1.272 0.649-2.184 0.649zm4.515 0.096h-0.936l2.844-8.485h0.936l-2.844 8.485zm9.245-0.241h-5.796v-1.104c1.672-1.264 2.808-2.2 3.408-2.808 0.608-0.616 0.912-1.196 0.912-1.74 0-0.392-0.144-0.692-0.432-0.9-0.28-0.216-0.62-0.324-1.02-0.324-0.88 0-1.6 0.32-2.16 0.96l-0.816-0.924c0.344-0.416 0.776-0.732 1.296-0.948 0.528-0.224 1.08-0.336 1.656-0.336 0.816 0 1.504 0.22 2.064 0.66s0.84 1.044 0.84 1.812c0 0.688-0.288 1.372-0.864 2.052s-1.456 1.468-2.64 2.364h3.552v1.236zm5.877-0.216c-0.424 0.24-0.904 0.361-1.44 0.361s-1.016-0.121-1.44-0.361-0.76-0.56-1.008-0.96-0.436-0.84-0.564-1.32-0.192-0.98-0.192-1.5 0.064-1.02 0.192-1.5 0.316-0.916 0.564-1.308c0.248-0.4 0.584-0.72 1.008-0.96s0.904-0.36 1.44-0.36 1.016 0.12 1.44 0.36 0.76 0.56 1.008 0.96c0.248 0.392 0.436 0.828 0.564 1.308s0.192 0.98 0.192 1.5-0.064 1.02-0.192 1.5-0.316 0.92-0.564 1.32-0.584 0.72-1.008 0.96zm-2.784-1.704c0.288 0.544 0.736 0.816 1.344 0.816s1.056-0.272 1.344-0.816 0.432-1.236 0.432-2.076c0-0.536-0.056-1.012-0.168-1.428-0.104-0.416-0.296-0.76-0.576-1.032-0.272-0.28-0.616-0.42-1.032-0.42s-0.764 0.14-1.044 0.42c-0.272 0.272-0.464 0.616-0.576 1.032-0.104 0.416-0.156 0.892-0.156 1.428 0 0.84 0.144 1.532 0.432 2.076zm11.438 1.92h-5.796v-1.104c1.672-1.264 2.808-2.2 3.408-2.808 0.608-0.616 0.912-1.196 0.912-1.74 0-0.392-0.144-0.692-0.432-0.9-0.28-0.216-0.62-0.324-1.02-0.324-0.88 0-1.6 0.32-2.16 0.96l-0.816-0.924c0.344-0.416 0.776-0.732 1.296-0.948 0.528-0.224 1.08-0.336 1.656-0.336 0.816 0 1.504 0.22 2.064 0.66s0.84 1.044 0.84 1.812c0 0.688-0.288 1.372-0.864 2.052s-1.456 1.468-2.64 2.364h3.552v1.236zm4.449 0h-1.404v-6.18l-1.308 1.356-0.816-0.852 2.304-2.328h1.224v8.004z" fill="#252531" fill-opacity=".7"/>
<g filter="url(#b)">
<rect x="36.356" y="106.41" width="357.36" height="42.564" rx="10" fill="#fff"/>
</g>
<path d="m44.176 42.288c-2.752 0-4.92-0.848-6.504-2.544l1.56-2.16c1.376 1.472 3.064 2.208 5.064 2.208 1.072 0 1.872-0.216 2.4-0.648 0.544-0.432 0.816-0.944 0.816-1.536 0-0.608-0.32-1.088-0.96-1.44-0.64-0.368-1.416-0.656-2.328-0.864s-1.832-0.456-2.76-0.744c-0.912-0.288-1.688-0.776-2.328-1.464s-0.96-1.576-0.96-2.664c0-1.344 0.536-2.456 1.608-3.336 1.088-0.896 2.496-1.344 4.224-1.344 2.464 0 4.464 0.744 6 2.232l-1.608 2.088c-1.216-1.216-2.76-1.824-4.632-1.824-0.832 0-1.496 0.184-1.992 0.552-0.48 0.352-0.72 0.832-0.72 1.44 0 0.4 0.168 0.736 0.504 1.008 0.352 0.272 0.8 0.496 1.344 0.672 0.544 0.16 1.144 0.32 1.8 0.48 0.672 0.16 1.336 0.36 1.992 0.6 0.672 0.224 1.28 0.504 1.824 0.84s0.984 0.8 1.32 1.392c0.352 0.592 0.528 1.296 0.528 2.112 0 1.44-0.52 2.624-1.56 3.552s-2.584 1.392-4.632 1.392zm18.306-0.288h-2.52v-1.248c-0.896 1.024-2.144 1.536-3.744 1.536-1.056 0-1.992-0.336-2.808-1.008-0.816-0.688-1.224-1.632-1.224-2.832 0-1.232 0.4-2.168 1.2-2.808 0.816-0.64 1.76-0.96 2.832-0.96 1.648 0 2.896 0.496 3.744 1.488v-1.728c0-0.672-0.248-1.2-0.744-1.584s-1.152-0.576-1.968-0.576c-1.296 0-2.44 0.488-3.432 1.464l-1.032-1.752c1.312-1.248 2.936-1.872 4.872-1.872 1.424 0 2.584 0.336 3.48 1.008s1.344 1.736 1.344 3.192v7.68zm-5.28-1.44c1.264 0 2.184-0.4 2.76-1.2v-1.752c-0.576-0.8-1.496-1.2-2.76-1.2-0.72 0-1.312 0.192-1.776 0.576s-0.696 0.888-0.696 1.512 0.232 1.128 0.696 1.512c0.464 0.368 1.056 0.552 1.776 0.552zm14.307 1.44h-2.712l-4.728-11.592h2.688l3.384 8.688 3.384-8.688h2.712l-4.728 11.592zm11.662 0.288c-1.76 0-3.216-0.56-4.368-1.68-1.136-1.136-1.704-2.608-1.704-4.416 0-1.696 0.552-3.128 1.656-4.296 1.12-1.184 2.528-1.776 4.224-1.776 1.712 0 3.088 0.592 4.128 1.776 1.056 1.184 1.584 2.696 1.584 4.536v0.6h-8.952c0.096 0.912 0.472 1.672 1.128 2.28s1.512 0.912 2.568 0.912c0.592 0 1.184-0.112 1.776-0.336 0.608-0.224 1.112-0.536 1.512-0.936l1.152 1.656c-1.168 1.12-2.736 1.68-4.704 1.68zm3.072-7.032c-0.032-0.8-0.328-1.512-0.888-2.136-0.544-0.624-1.336-0.936-2.376-0.936-0.992 0-1.768 0.312-2.328 0.936-0.56 0.608-0.872 1.32-0.936 2.136h6.528zm15.616 6.744h-2.5201v-1.584c-0.96 1.248-2.2 1.872-3.72 1.872s-2.76-0.544-3.72-1.632-1.44-2.568-1.44-4.44c0-1.856 0.48-3.336 1.44-4.44s2.2-1.656 3.72-1.656 2.76 0.632 3.72 1.896v-6.024h2.5201v16.008zm-5.5201-1.944c0.592 0 1.168-0.144 1.728-0.432s0.984-0.656 1.272-1.104v-4.608c-0.288-0.448-0.712-0.816-1.272-1.104-0.56-0.304-1.136-0.456-1.728-0.456-0.992 0-1.784 0.36-2.376 1.08s-0.888 1.648-0.888 2.784 0.296 2.064 0.888 2.784c0.592 0.704 1.384 1.056 2.376 1.056zm24.885 1.944h-9.864v-16.008h2.808v13.536h7.056v2.472zm3.711-13.008c-0.416 0-0.784-0.152-1.104-0.456-0.304-0.304-0.456-0.672-0.456-1.104s0.152-0.8 0.456-1.104c0.32-0.304 0.688-0.456 1.104-0.456 0.432 0 0.8 0.152 1.104 0.456s0.456 0.672 0.456 1.104-0.152 0.8-0.456 1.104-0.672 0.456-1.104 0.456zm1.272 13.008h-2.52v-11.592h2.52v11.592zm13.613 0h-2.52v-7.248c0-1.6-0.776-2.4-2.328-2.4-0.608 0-1.176 0.152-1.704 0.456s-0.952 0.672-1.272 1.104v8.088h-2.52v-11.592h2.52v1.584c0.432-0.512 1.008-0.952 1.728-1.32s1.504-0.552 2.352-0.552c1.232 0 2.16 0.32 2.784 0.96 0.64 0.64 0.96 1.56 0.96 2.76v8.16zm14.121 0h-3.168l-3.552-4.776-1.608 1.656v3.12h-2.52v-16.008h2.52v10.008l5.112-5.592h3.12l-4.824 5.256 4.92 6.336zm5.745 0.288c-2.08 0-3.736-0.6-4.968-1.8l1.152-1.824c0.432 0.448 1.016 0.832 1.752 1.152s1.464 0.48 2.184 0.48c0.736 0 1.296-0.144 1.68-0.432 0.4-0.288 0.6-0.664 0.6-1.128 0-0.416-0.24-0.736-0.72-0.96-0.48-0.24-1.064-0.424-1.752-0.552-0.688-0.144-1.376-0.312-2.064-0.504-0.688-0.208-1.272-0.568-1.752-1.08s-0.72-1.176-0.72-1.992c0-0.992 0.408-1.824 1.224-2.496 0.816-0.688 1.928-1.032 3.336-1.032 1.776 0 3.28 0.544 4.512 1.632l-1.056 1.776c-0.368-0.416-0.856-0.752-1.464-1.008s-1.264-0.384-1.968-0.384c-0.656 0-1.184 0.136-1.584 0.408-0.384 0.256-0.576 0.592-0.576 1.008 0 0.32 0.168 0.584 0.504 0.792 0.352 0.192 0.784 0.336 1.296 0.432 0.528 0.096 1.096 0.232 1.704 0.408 0.608 0.16 1.168 0.352 1.68 0.576 0.528 0.224 0.96 0.592 1.296 1.104 0.352 0.496 0.528 1.104 0.528 1.824 0 1.056-0.424 1.92-1.272 2.592s-2.032 1.008-3.552 1.008z" fill="#252531"/>
<path d="m40.008 84h-1.872v-10.672h7.312v1.648h-5.44v2.768h5.328v1.648h-5.328v4.608zm13.464 0h-1.68v-0.832c-0.5974 0.6827-1.4294 1.024-2.496 1.024-0.704 0-1.328-0.224-1.872-0.672-0.544-0.4587-0.816-1.088-0.816-1.888 0-0.8213 0.2666-1.4453 0.8-1.872 0.544-0.4267 1.1733-0.64 1.888-0.64 1.0986 0 1.9306 0.3307 2.496 0.992v-1.152c0-0.448-0.1654-0.8-0.496-1.056-0.3307-0.256-0.768-0.384-1.312-0.384-0.864 0-1.6267 0.3253-2.288 0.976l-0.688-1.168c0.8746-0.832 1.9573-1.248 3.248-1.248 0.9493 0 1.7226 0.224 2.32 0.672 0.5973 0.448 0.896 1.1573 0.896 2.128v5.12zm-3.52-0.96c0.8426 0 1.456-0.2667 1.84-0.8v-1.168c-0.384-0.5333-0.9974-0.8-1.84-0.8-0.48 0-0.8747 0.128-1.184 0.384-0.3094 0.256-0.464 0.592-0.464 1.008s0.1546 0.752 0.464 1.008c0.3093 0.2453 0.704 0.368 1.184 0.368zm9.2181 1.152c-1.1733 0-2.1333-0.3787-2.88-1.136-0.7467-0.768-1.12-1.744-1.12-2.928 0-1.1733 0.3733-2.1387 1.12-2.896 0.7467-0.768 1.7067-1.152 2.88-1.152 1.2907 0 2.2773 0.4587 2.96 1.376l-1.104 1.024c-0.4267-0.608-1.0187-0.912-1.776-0.912-0.704 0-1.2693 0.24-1.696 0.72-0.4267 0.4693-0.64 1.0827-0.64 1.84s0.2133 1.376 0.64 1.856 0.992 0.72 1.696 0.72c0.736 0 1.328-0.304 1.776-0.912l1.104 1.024c-0.6827 0.9173-1.6693 1.376-2.96 1.376zm8.0011 0c-1.1733 0-2.144-0.3733-2.912-1.12-0.7573-0.7573-1.136-1.7387-1.136-2.944 0-1.1307 0.368-2.0853 1.104-2.864 0.7467-0.7893 1.6854-1.184 2.816-1.184 1.1414 0 2.0587 0.3947 2.752 1.184 0.704 0.7893 1.056 1.7973 1.056 3.024v0.4h-5.968c0.064 0.608 0.3147 1.1147 0.752 1.52 0.4374 0.4053 1.008 0.608 1.712 0.608 0.3947 0 0.7894-0.0747 1.184-0.224 0.4054-0.1493 0.7414-0.3573 1.008-0.624l0.768 1.104c-0.7786 0.7467-1.824 1.12-3.136 1.12zm2.048-4.688c-0.0213-0.5333-0.2186-1.008-0.592-1.424-0.3626-0.416-0.8906-0.624-1.584-0.624-0.6613 0-1.1786 0.208-1.552 0.624-0.3733 0.4053-0.5813 0.88-0.624 1.424h4.352zm4.9703 2.176c0.1813 0.288 0.4586 0.5333 0.832 0.736 0.384 0.192 0.768 0.288 1.152 0.288 0.6613 0 1.1893-0.2347 1.584-0.704 0.4053-0.48 0.608-1.0987 0.608-1.856s-0.2027-1.376-0.608-1.856c-0.3947-0.48-0.9227-0.72-1.584-0.72-0.384 0-0.7627 0.1013-1.136 0.304-0.3734 0.2027-0.656 0.4533-0.848 0.752v3.056zm0 2.32h-1.68v-10.672h1.68v4.016c0.6293-0.8427 1.456-1.264 2.48-1.264 1.0026 0 1.824 0.3733 2.464 1.12 0.64 0.736 0.96 1.7173 0.96 2.944 0 1.248-0.32 2.2347-0.96 2.96s-1.4614 1.088-2.464 1.088c-1.0134 0-1.84-0.416-2.48-1.248v1.056zm11.105 0.192c-1.1947 0-2.1547-0.3893-2.88-1.168-0.7254-0.7893-1.088-1.7547-1.088-2.896s0.3626-2.1013 1.088-2.88c0.7253-0.7787 1.6853-1.168 2.88-1.168 1.2053 0 2.1706 0.3893 2.896 1.168 0.7253 0.7787 1.088 1.7387 1.088 2.88 0 1.152-0.3627 2.1173-1.088 2.896-0.7254 0.7787-1.6907 1.168-2.896 1.168zm0-1.488c0.6933 0 1.2373-0.2453 1.632-0.736 0.4053-0.5013 0.608-1.1147 0.608-1.84 0-0.7147-0.2027-1.3173-0.608-1.808-0.3947-0.5013-0.9387-0.752-1.632-0.752-0.6827 0-1.2267 0.2507-1.632 0.752-0.3947 0.4907-0.5921 1.0933-0.5921 1.808 0 0.7253 0.1974 1.3387 0.5921 1.84 0.4053 0.4907 0.9493 0.736 1.632 0.736zm9.1718 1.488c-1.1946 0-2.1546-0.3893-2.88-1.168-0.7253-0.7893-1.088-1.7547-1.088-2.896s0.3627-2.1013 1.088-2.88c0.7254-0.7787 1.6854-1.168 2.88-1.168 1.2054 0 2.1707 0.3893 2.896 1.168 0.7254 0.7787 1.088 1.7387 1.088 2.88 0 1.152-0.3626 2.1173-1.088 2.896-0.7253 0.7787-1.6906 1.168-2.896 1.168zm0-1.488c0.6934 0 1.2374-0.2453 1.632-0.736 0.4054-0.5013 0.608-1.1147 0.608-1.84 0-0.7147-0.2026-1.3173-0.608-1.808-0.3946-0.5013-0.9386-0.752-1.632-0.752-0.6826 0-1.2266 0.2507-1.632 0.752-0.3946 0.4907-0.592 1.0933-0.592 1.808 0 0.7253 0.1974 1.3387 0.592 1.84 0.4054 0.4907 0.9494 0.736 1.632 0.736zm12.916 1.296h-2.112l-2.368-3.184-1.072 1.104v2.08h-1.68v-10.672h1.68v6.672l3.408-3.728h2.08l-3.216 3.504 3.28 4.224zm8.995 0.192c-1.835 0-3.28-0.5653-4.336-1.696l1.04-1.44c0.917 0.9813 2.042 1.472 3.376 1.472 0.714 0 1.248-0.144 1.6-0.432 0.362-0.288 0.544-0.6293 0.544-1.024 0-0.4053-0.214-0.7253-0.64-0.96-0.427-0.2453-0.944-0.4373-1.552-0.576s-1.222-0.304-1.84-0.496c-0.608-0.192-1.126-0.5173-1.552-0.976-0.427-0.4587-0.64-1.0507-0.64-1.776 0-0.896 0.357-1.6373 1.072-2.224 0.725-0.5973 1.664-0.896 2.816-0.896 1.642 0 2.976 0.496 4 1.488l-1.072 1.392c-0.811-0.8107-1.84-1.216-3.088-1.216-0.555 0-0.998 0.1227-1.328 0.368-0.32 0.2347-0.48 0.5547-0.48 0.96 0 0.2667 0.112 0.4907 0.336 0.672 0.234 0.1813 0.533 0.3307 0.896 0.448 0.362 0.1067 0.762 0.2133 1.2 0.32 0.448 0.1067 0.89 0.24 1.328 0.4 0.448 0.1493 0.853 0.336 1.216 0.56 0.362 0.224 0.656 0.5333 0.88 0.928 0.234 0.3947 0.352 0.864 0.352 1.408 0 0.96-0.347 1.7493-1.04 2.368-0.694 0.6187-1.723 0.928-3.088 0.928zm7.889 0c-0.65 0-1.146-0.1707-1.488-0.512-0.33-0.3413-0.496-0.832-0.496-1.472v-4.464h-1.28v-1.472h1.28v-2.112h1.68v2.112h1.568v1.472h-1.568v4.048c0 0.2773 0.064 0.5013 0.192 0.672 0.128 0.16 0.31 0.24 0.544 0.24 0.342 0 0.592-0.0907 0.752-0.272l0.4 1.264c-0.352 0.3307-0.88 0.496-1.584 0.496zm6.278 0c-1.195 0-2.155-0.3893-2.88-1.168-0.726-0.7893-1.088-1.7547-1.088-2.896s0.362-2.1013 1.088-2.88c0.725-0.7787 1.685-1.168 2.88-1.168 1.205 0 2.17 0.3893 2.896 1.168 0.725 0.7787 1.088 1.7387 1.088 2.88 0 1.152-0.363 2.1173-1.088 2.896-0.726 0.7787-1.691 1.168-2.896 1.168zm0-1.488c0.693 0 1.237-0.2453 1.632-0.736 0.405-0.5013 0.608-1.1147 0.608-1.84 0-0.7147-0.203-1.3173-0.608-1.808-0.395-0.5013-0.939-0.752-1.632-0.752-0.683 0-1.227 0.2507-1.632 0.752-0.395 0.4907-0.592 1.0933-0.592 1.808 0 0.7253 0.197 1.3387 0.592 1.84 0.405 0.4907 0.949 0.736 1.632 0.736zm7.364 1.296h-1.68v-7.728h1.68v1.136c0.298-0.384 0.672-0.6987 1.12-0.944s0.912-0.368 1.392-0.368v1.664c-0.15-0.032-0.326-0.048-0.528-0.048-0.352 0-0.731 0.1067-1.136 0.32-0.395 0.2027-0.678 0.4373-0.848 0.704v5.264zm4.699-8.672c-0.278 0-0.523-0.1013-0.736-0.304-0.203-0.2027-0.304-0.448-0.304-0.736s0.101-0.5333 0.304-0.736c0.213-0.2027 0.458-0.304 0.736-0.304 0.288 0 0.533 0.1013 0.736 0.304 0.202 0.2027 0.304 0.448 0.304 0.736s-0.102 0.5333-0.304 0.736c-0.203 0.2027-0.448 0.304-0.736 0.304zm0.848 8.672h-1.68v-7.728h1.68v7.728zm5.747 0.192c-1.173 0-2.144-0.3733-2.912-1.12-0.757-0.7573-1.136-1.7387-1.136-2.944 0-1.1307 0.368-2.0853 1.104-2.864 0.747-0.7893 1.685-1.184 2.816-1.184 1.141 0 2.059 0.3947 2.752 1.184 0.704 0.7893 1.056 1.7973 1.056 3.024v0.4h-5.968c0.064 0.608 0.315 1.1147 0.752 1.52s1.008 0.608 1.712 0.608c0.395 0 0.789-0.0747 1.184-0.224 0.405-0.1493 0.741-0.3573 1.008-0.624l0.768 1.104c-0.779 0.7467-1.824 1.12-3.136 1.12zm2.048-4.688c-0.021-0.5333-0.219-1.008-0.592-1.424-0.363-0.416-0.891-0.624-1.584-0.624-0.661 0-1.179 0.208-1.552 0.624-0.373 0.4053-0.581 0.88-0.624 1.424h4.352zm5.93 4.688c-1.387 0-2.491-0.4-3.312-1.2l0.768-1.216c0.288 0.2987 0.677 0.5547 1.168 0.768s0.976 0.32 1.456 0.32c0.491 0 0.864-0.096 1.12-0.288 0.267-0.192 0.4-0.4427 0.4-0.752 0-0.2773-0.16-0.4907-0.48-0.64-0.32-0.16-0.709-0.2827-1.168-0.368-0.459-0.096-0.917-0.208-1.376-0.336-0.459-0.1387-0.848-0.3787-1.168-0.72s-0.48-0.784-0.48-1.328c0-0.6613 0.272-1.216 0.816-1.664 0.544-0.4587 1.285-0.688 2.224-0.688 1.184 0 2.187 0.3627 3.008 1.088l-0.704 1.184c-0.245-0.2773-0.571-0.5013-0.976-0.672s-0.843-0.256-1.312-0.256c-0.437 0-0.789 0.0907-1.056 0.272-0.256 0.1707-0.384 0.3947-0.384 0.672 0 0.2133 0.112 0.3893 0.336 0.528 0.235 0.128 0.523 0.224 0.864 0.288 0.352 0.064 0.731 0.1547 1.136 0.272 0.405 0.1067 0.779 0.2347 1.12 0.384 0.352 0.1493 0.64 0.3947 0.864 0.736 0.235 0.3307 0.352 0.736 0.352 1.216 0 0.704-0.283 1.28-0.848 1.728s-1.355 0.672-2.368 0.672zm14.184 0c-1.6 0-2.933-0.512-4-1.536-1.066-1.0347-1.6-2.3627-1.6-3.984s0.534-2.944 1.6-3.968c1.067-1.0347 2.4-1.552 4-1.552 1.856 0 3.286 0.8 4.288 2.4l-1.6 0.816c-0.266-0.4587-0.645-0.832-1.136-1.12-0.48-0.288-0.997-0.432-1.552-0.432-1.056 0-1.936 0.3627-2.64 1.088-0.693 0.7253-1.04 1.648-1.04 2.768s0.347 2.0427 1.04 2.768c0.704 0.7253 1.584 1.088 2.64 1.088 0.566 0 1.088-0.144 1.568-0.432s0.854-0.6613 1.12-1.12l1.6 0.816c-1.024 1.6-2.453 2.4-4.288 2.4zm12.139-0.192h-1.68v-0.832c-0.598 0.6827-1.43 1.024-2.496 1.024-0.704 0-1.328-0.224-1.872-0.672-0.544-0.4587-0.816-1.088-0.816-1.888 0-0.8213 0.266-1.4453 0.8-1.872 0.544-0.4267 1.173-0.64 1.888-0.64 1.098 0 1.93 0.3307 2.496 0.992v-1.152c0-0.448-0.166-0.8-0.496-1.056-0.331-0.256-0.768-0.384-1.312-0.384-0.864 0-1.627 0.3253-2.288 0.976l-0.688-1.168c0.874-0.832 1.957-1.248 3.248-1.248 0.949 0 1.722 0.224 2.32 0.672 0.597 0.448 0.896 1.1573 0.896 2.128v5.12zm-3.52-0.96c0.842 0 1.456-0.2667 1.84-0.8v-1.168c-0.384-0.5333-0.998-0.8-1.84-0.8-0.48 0-0.875 0.128-1.184 0.384-0.31 0.256-0.464 0.592-0.464 1.008s0.154 0.752 0.464 1.008c0.309 0.2453 0.704 0.368 1.184 0.368zm16.85 0.96h-1.68v-5.04c0-0.928-0.422-1.392-1.264-1.392-0.352 0-0.694 0.1013-1.024 0.304-0.331 0.2027-0.587 0.4427-0.768 0.72v5.408h-1.68v-5.04c0-0.928-0.427-1.392-1.28-1.392-0.342 0-0.678 0.1013-1.008 0.304-0.32 0.2027-0.576 0.448-0.768 0.736v5.392h-1.68v-7.728h1.68v1.056c0.192-0.288 0.522-0.5653 0.992-0.832 0.48-0.2773 0.986-0.416 1.52-0.416 1.12 0 1.824 0.4747 2.112 1.424 0.245-0.384 0.608-0.7147 1.088-0.992 0.48-0.288 0.992-0.432 1.536-0.432 1.482 0 2.224 0.7787 2.224 2.336v5.584zm6.336 0.192c-1.024 0-1.851-0.4213-2.48-1.264v4.016h-1.68v-10.672h1.68v1.056c0.619-0.832 1.445-1.248 2.48-1.248 1.013 0 1.835 0.3627 2.464 1.088 0.64 0.7253 0.96 1.712 0.96 2.96s-0.32 2.24-0.96 2.976c-0.629 0.7253-1.451 1.088-2.464 1.088zm-0.496-1.488c0.661 0 1.189-0.24 1.584-0.72s0.592-1.0987 0.592-1.856-0.197-1.3707-0.592-1.84c-0.395-0.48-0.923-0.72-1.584-0.72-0.384 0-0.763 0.1013-1.136 0.304s-0.656 0.448-0.848 0.736v3.056c0.192 0.288 0.475 0.5333 0.848 0.736s0.752 0.304 1.136 0.304zm11.986 1.296h-1.68v-0.832c-0.597 0.6827-1.429 1.024-2.496 1.024-0.704 0-1.328-0.224-1.872-0.672-0.544-0.4587-0.816-1.088-0.816-1.888 0-0.8213 0.267-1.4453 0.8-1.872 0.544-0.4267 1.173-0.64 1.888-0.64 1.099 0 1.931 0.3307 2.496 0.992v-1.152c0-0.448-0.165-0.8-0.496-1.056s-0.768-0.384-1.312-0.384c-0.864 0-1.627 0.3253-2.288 0.976l-0.688-1.168c0.875-0.832 1.957-1.248 3.248-1.248 0.949 0 1.723 0.224 2.32 0.672s0.896 1.1573 0.896 2.128v5.12zm-3.52-0.96c0.843 0 1.456-0.2667 1.84-0.8v-1.168c-0.384-0.5333-0.997-0.8-1.84-0.8-0.48 0-0.875 0.128-1.184 0.384s-0.464 0.592-0.464 1.008 0.155 0.752 0.464 1.008c0.309 0.2453 0.704 0.368 1.184 0.368zm6.53-7.712c-0.277 0-0.523-0.1013-0.736-0.304-0.203-0.2027-0.304-0.448-0.304-0.736s0.101-0.5333 0.304-0.736c0.213-0.2027 0.459-0.304 0.736-0.304 0.288 0 0.533 0.1013 0.736 0.304s0.304 0.448 0.304 0.736-0.101 0.5333-0.304 0.736-0.448 0.304-0.736 0.304zm0.848 8.672h-1.68v-7.728h1.68v7.728zm5.315 3.136c-1.312 0-2.389-0.384-3.232-1.152l0.784-1.216c0.576 0.6613 1.392 0.992 2.448 0.992 0.64 0 1.179-0.1707 1.616-0.512 0.448-0.3307 0.672-0.8587 0.672-1.584v-0.928c-0.661 0.8533-1.488 1.28-2.48 1.28-1.013 0-1.84-0.352-2.48-1.056-0.629-0.704-0.944-1.6747-0.944-2.912 0-1.2267 0.315-2.192 0.944-2.896 0.64-0.7147 1.467-1.072 2.48-1.072 1.014 0 1.84 0.4213 2.48 1.264v-1.072h1.68v7.328c0 0.6613-0.117 1.232-0.352 1.712-0.224 0.4907-0.533 0.8587-0.928 1.104-0.394 0.256-0.816 0.4373-1.264 0.544-0.437 0.1173-0.912 0.176-1.424 0.176zm0.304-4.608c0.384 0 0.763-0.1013 1.136-0.304 0.374-0.2027 0.656-0.448 0.848-0.736v-2.88c-0.192-0.288-0.474-0.5333-0.848-0.736-0.373-0.2027-0.752-0.304-1.136-0.304-0.661 0-1.189 0.2293-1.584 0.688-0.394 0.448-0.592 1.0453-0.592 1.792s0.198 1.3493 0.592 1.808c0.395 0.448 0.923 0.672 1.584 0.672zm12.738 1.472h-1.68v-4.832c0-1.0667-0.518-1.6-1.552-1.6-0.406 0-0.784 0.1013-1.136 0.304s-0.635 0.448-0.848 0.736v5.392h-1.68v-7.728h1.68v1.056c0.288-0.3413 0.672-0.6347 1.152-0.88s1.002-0.368 1.568-0.368c0.821 0 1.44 0.2133 1.856 0.64 0.426 0.4267 0.64 1.04 0.64 1.84v5.44z" fill="#252531"/>
<path d="m61.978 134.48h-1.47v-4.256c0-0.494-0.1213-0.844-0.364-1.05-0.2333-0.214-0.5693-0.322-1.008-0.322-0.3453 0-0.672 0.089-0.98 0.266-0.308 0.178-0.56 0.392-0.756 0.644v4.718h-1.47v-9.338h1.47v3.5c0.252-0.298 0.588-0.555 1.008-0.77 0.4293-0.214 0.8913-0.322 1.386-0.322 1.456 0 2.184 0.714 2.184 2.142v4.788zm3.939 0.168c-0.5693 0-1.0033-0.149-1.302-0.448-0.2893-0.298-0.434-0.728-0.434-1.288v-3.906h-1.12v-1.288h1.12v-1.848h1.47v1.848h1.372v1.288h-1.372v3.542c0 0.243 0.056 0.439 0.168 0.588 0.112 0.14 0.2707 0.21 0.476 0.21 0.2987 0 0.518-0.079 0.658-0.238l0.35 1.106c-0.308 0.29-0.77 0.434-1.386 0.434zm4.4708 0c-0.5694 0-1.0034-0.149-1.302-0.448-0.2894-0.298-0.434-0.728-0.434-1.288v-3.906h-1.12v-1.288h1.12v-1.848h1.47v1.848h1.372v1.288h-1.372v3.542c0 0.243 0.056 0.439 0.168 0.588 0.112 0.14 0.2706 0.21 0.476 0.21 0.2986 0 0.518-0.079 0.658-0.238l0.35 1.106c-0.308 0.29-0.77 0.434-1.386 0.434zm6.0807 0c-0.896 0-1.6194-0.368-2.17-1.106v3.514h-1.47v-9.338h1.47v0.924c0.5413-0.728 1.2646-1.092 2.17-1.092 0.8866 0 1.6053 0.318 2.156 0.952 0.56 0.635 0.84 1.498 0.84 2.59s-0.28 1.96-0.84 2.604c-0.5507 0.635-1.2694 0.952-2.156 0.952zm-0.434-1.302c0.5786 0 1.0406-0.21 1.386-0.63 0.3453-0.42 0.518-0.961 0.518-1.624 0-0.662-0.1727-1.199-0.518-1.61-0.3454-0.42-0.8074-0.63-1.386-0.63-0.336 0-0.6674 0.089-0.994 0.266-0.3267 0.178-0.574 0.392-0.742 0.644v2.674c0.168 0.252 0.4153 0.467 0.742 0.644 0.3266 0.178 0.658 0.266 0.994 0.266zm7.1977 1.302c-1.2133 0-2.1793-0.35-2.898-1.05l0.672-1.064c0.252 0.262 0.5927 0.486 1.022 0.672 0.4293 0.187 0.854 0.28 1.274 0.28 0.4293 0 0.756-0.084 0.98-0.252 0.2333-0.168 0.35-0.387 0.35-0.658 0-0.242-0.14-0.429-0.42-0.56-0.28-0.14-0.6207-0.247-1.022-0.322-0.4013-0.084-0.8027-0.182-1.204-0.294-0.4013-0.121-0.742-0.331-1.022-0.63-0.28-0.298-0.42-0.686-0.42-1.162 0-0.578 0.238-1.064 0.714-1.456 0.476-0.401 1.1247-0.602 1.946-0.602 1.036 0 1.9133 0.318 2.632 0.952l-0.616 1.036c-0.2147-0.242-0.4993-0.438-0.854-0.588-0.3547-0.149-0.7373-0.224-1.148-0.224-0.3827 0-0.6907 0.08-0.924 0.238-0.224 0.15-0.336 0.346-0.336 0.588 0 0.187 0.098 0.341 0.294 0.462 0.2053 0.112 0.4573 0.196 0.756 0.252 0.308 0.056 0.6393 0.136 0.994 0.238 0.3547 0.094 0.6813 0.206 0.98 0.336 0.308 0.131 0.56 0.346 0.756 0.644 0.2053 0.29 0.308 0.644 0.308 1.064 0 0.616-0.2473 1.12-0.742 1.512s-1.1853 0.588-2.072 0.588zm5.7355-5.362c-0.196 0.196-0.4246 0.294-0.686 0.294-0.2613 0-0.49-0.098-0.686-0.294s-0.294-0.424-0.294-0.686c0-0.261 0.098-0.49 0.294-0.686s0.4247-0.294 0.686-0.294c0.2614 0 0.49 0.098 0.686 0.294s0.294 0.425 0.294 0.686c0 0.262-0.098 0.49-0.294 0.686zm0 5.068c-0.196 0.187-0.4246 0.28-0.686 0.28-0.2613 0-0.49-0.093-0.686-0.28-0.196-0.196-0.294-0.429-0.294-0.7 0-0.27 0.098-0.499 0.294-0.686 0.196-0.196 0.4247-0.294 0.686-0.294 0.2614 0 0.49 0.098 0.686 0.294 0.196 0.187 0.294 0.416 0.294 0.686 0 0.271-0.098 0.504-0.294 0.7zm2.1297 0.406h-1.092l3.318-9.898h1.092l-3.318 9.898zm4.416 0h-1.092l3.318-9.898h1.092l-3.318 9.898zm11.71-0.28h-1.54l-1.568-4.956-1.568 4.956h-1.54l-2.1001-6.762h1.5261l1.428 4.914 1.61-4.914h1.288l1.61 4.914 1.428-4.914h1.526l-2.1 6.762zm10.555 0h-1.54l-1.568-4.956-1.568 4.956h-1.54l-2.1-6.762h1.526l1.428 4.914 1.61-4.914h1.288l1.61 4.914 1.428-4.914h1.526l-2.1 6.762zm10.554 0h-1.54l-1.568-4.956-1.568 4.956h-1.54l-2.1-6.762h1.526l1.428 4.914 1.61-4.914h1.288l1.61 4.914 1.428-4.914h1.526l-2.1 6.762zm4.002-0.126c-0.196 0.187-0.424 0.28-0.686 0.28-0.261 0-0.49-0.093-0.686-0.28-0.196-0.196-0.294-0.429-0.294-0.7 0-0.27 0.098-0.499 0.294-0.686 0.196-0.196 0.425-0.294 0.686-0.294 0.262 0 0.49 0.098 0.686 0.294 0.196 0.187 0.294 0.416 0.294 0.686 0 0.271-0.098 0.504-0.294 0.7zm8.024 0.126h-1.47v-4.228c0-0.933-0.453-1.4-1.358-1.4-0.355 0-0.686 0.089-0.994 0.266-0.308 0.178-0.555 0.392-0.742 0.644v4.718h-1.47v-6.762h1.47v0.924c0.252-0.298 0.588-0.555 1.008-0.77 0.42-0.214 0.877-0.322 1.372-0.322 0.719 0 1.26 0.187 1.624 0.56 0.373 0.374 0.56 0.91 0.56 1.61v4.76zm2.637-7.588c-0.242 0-0.457-0.088-0.644-0.266-0.177-0.177-0.266-0.392-0.266-0.644s0.089-0.466 0.266-0.644c0.187-0.177 0.402-0.266 0.644-0.266 0.252 0 0.467 0.089 0.644 0.266 0.178 0.178 0.266 0.392 0.266 0.644s-0.088 0.467-0.266 0.644c-0.177 0.178-0.392 0.266-0.644 0.266zm0.742 7.588h-1.47v-6.762h1.47v6.762zm8.235 0h-1.848l-2.072-2.786-0.938 0.966v1.82h-1.47v-9.338h1.47v5.838l2.982-3.262h1.82l-2.814 3.066 2.87 3.696zm4.095 0.168c-1.027 0-1.876-0.326-2.548-0.98-0.663-0.662-0.994-1.521-0.994-2.576 0-0.989 0.322-1.824 0.966-2.506 0.653-0.69 1.475-1.036 2.464-1.036 0.999 0 1.801 0.346 2.408 1.036 0.616 0.691 0.924 1.573 0.924 2.646v0.35h-5.222c0.056 0.532 0.275 0.976 0.658 1.33 0.383 0.355 0.882 0.532 1.498 0.532 0.345 0 0.691-0.065 1.036-0.196 0.355-0.13 0.649-0.312 0.882-0.546l0.672 0.966c-0.681 0.654-1.596 0.98-2.744 0.98zm1.792-4.102c-0.019-0.466-0.191-0.882-0.518-1.246-0.317-0.364-0.779-0.546-1.386-0.546-0.579 0-1.031 0.182-1.358 0.546-0.327 0.355-0.509 0.77-0.546 1.246h3.808zm4.253 3.808c-0.196 0.187-0.425 0.28-0.686 0.28-0.262 0-0.49-0.093-0.686-0.28-0.196-0.196-0.294-0.429-0.294-0.7 0-0.27 0.098-0.499 0.294-0.686 0.196-0.196 0.424-0.294 0.686-0.294 0.261 0 0.49 0.098 0.686 0.294 0.196 0.187 0.294 0.416 0.294 0.686 0 0.271-0.098 0.504-0.294 0.7zm5.001 0.294c-1.027 0-1.867-0.331-2.52-0.994-0.653-0.672-0.98-1.526-0.98-2.562 0-1.026 0.327-1.871 0.98-2.534 0.653-0.672 1.493-1.008 2.52-1.008 1.129 0 1.993 0.402 2.59 1.204l-0.966 0.896c-0.373-0.532-0.891-0.798-1.554-0.798-0.616 0-1.111 0.21-1.484 0.63-0.373 0.411-0.56 0.948-0.56 1.61 0 0.663 0.187 1.204 0.56 1.624s0.868 0.63 1.484 0.63c0.644 0 1.162-0.266 1.554-0.798l0.966 0.896c-0.597 0.803-1.461 1.204-2.59 1.204zm6.931 0c-1.045 0-1.885-0.34-2.52-1.022-0.635-0.69-0.952-1.535-0.952-2.534 0-0.998 0.317-1.838 0.952-2.52 0.635-0.681 1.475-1.022 2.52-1.022 1.055 0 1.899 0.341 2.534 1.022 0.635 0.682 0.952 1.522 0.952 2.52 0 1.008-0.317 1.853-0.952 2.534-0.635 0.682-1.479 1.022-2.534 1.022zm0-1.302c0.607 0 1.083-0.214 1.428-0.644 0.355-0.438 0.532-0.975 0.532-1.61 0-0.625-0.177-1.152-0.532-1.582-0.345-0.438-0.821-0.658-1.428-0.658-0.597 0-1.073 0.22-1.428 0.658-0.345 0.43-0.518 0.957-0.518 1.582 0 0.635 0.173 1.172 0.518 1.61 0.355 0.43 0.831 0.644 1.428 0.644zm14.731 1.134h-1.47v-4.41c0-0.812-0.368-1.218-1.106-1.218-0.308 0-0.606 0.089-0.896 0.266-0.289 0.178-0.513 0.388-0.672 0.63v4.732h-1.47v-4.41c0-0.812-0.373-1.218-1.12-1.218-0.298 0-0.592 0.089-0.882 0.266-0.28 0.178-0.504 0.392-0.672 0.644v4.718h-1.47v-6.762h1.47v0.924c0.168-0.252 0.458-0.494 0.868-0.728 0.42-0.242 0.864-0.364 1.33-0.364 0.98 0 1.596 0.416 1.848 1.246 0.215-0.336 0.532-0.625 0.952-0.868 0.42-0.252 0.868-0.378 1.344-0.378 1.298 0 1.946 0.682 1.946 2.044v4.886zm2.045 0.28h-1.092l3.318-9.898h1.092l-3.318 9.898zm14.034-0.28h-1.47v-4.41c0-0.812-0.369-1.218-1.106-1.218-0.308 0-0.607 0.089-0.896 0.266-0.29 0.178-0.514 0.388-0.672 0.63v4.732h-1.47v-4.41c0-0.812-0.374-1.218-1.12-1.218-0.299 0-0.593 0.089-0.882 0.266-0.28 0.178-0.504 0.392-0.672 0.644v4.718h-1.47v-6.762h1.47v0.924c0.168-0.252 0.457-0.494 0.868-0.728 0.42-0.242 0.863-0.364 1.33-0.364 0.98 0 1.596 0.416 1.848 1.246 0.214-0.336 0.532-0.625 0.952-0.868 0.42-0.252 0.868-0.378 1.344-0.378 1.297 0 1.946 0.682 1.946 2.044v4.886zm5.026 0.168c-1.027 0-1.876-0.326-2.548-0.98-0.663-0.662-0.994-1.521-0.994-2.576 0-0.989 0.322-1.824 0.966-2.506 0.653-0.69 1.474-1.036 2.464-1.036 0.998 0 1.801 0.346 2.408 1.036 0.616 0.691 0.924 1.573 0.924 2.646v0.35h-5.222c0.056 0.532 0.275 0.976 0.658 1.33 0.382 0.355 0.882 0.532 1.498 0.532 0.345 0 0.69-0.065 1.036-0.196 0.354-0.13 0.648-0.312 0.882-0.546l0.672 0.966c-0.682 0.654-1.596 0.98-2.744 0.98zm1.792-4.102c-0.019-0.466-0.192-0.882-0.518-1.246-0.318-0.364-0.78-0.546-1.386-0.546-0.579 0-1.032 0.182-1.358 0.546-0.327 0.355-0.509 0.77-0.546 1.246h3.808zm8.913 3.934h-1.47v-4.228c0-0.933-0.453-1.4-1.358-1.4-0.355 0-0.686 0.089-0.994 0.266-0.308 0.178-0.556 0.392-0.742 0.644v4.718h-1.47v-6.762h1.47v0.924c0.252-0.298 0.588-0.555 1.008-0.77 0.42-0.214 0.877-0.322 1.372-0.322 0.718 0 1.26 0.187 1.624 0.56 0.373 0.374 0.56 0.91 0.56 1.61v4.76zm2.049 0.28h-1.092l3.318-9.898h1.092l-3.318 9.898zm5.97-3.024c-0.336-0.317-0.504-0.714-0.504-1.19 0-0.382 0.117-0.723 0.35-1.022 0.233-0.308 0.49-0.546 0.77-0.714 0.289-0.168 0.551-0.368 0.784-0.602 0.233-0.233 0.35-0.48 0.35-0.742 0-0.289-0.117-0.527-0.35-0.714-0.224-0.196-0.551-0.294-0.98-0.294-0.765 0-1.414 0.327-1.946 0.98l-0.938-1.05c0.756-0.924 1.773-1.386 3.052-1.386 0.868 0 1.559 0.206 2.072 0.616 0.513 0.411 0.77 0.938 0.77 1.582 0 0.383-0.089 0.728-0.266 1.036-0.168 0.299-0.378 0.546-0.63 0.742-0.243 0.187-0.485 0.364-0.728 0.532s-0.453 0.355-0.63 0.56c-0.168 0.196-0.252 0.406-0.252 0.63 0 0.243 0.103 0.453 0.308 0.63l-1.232 0.406zm1.19 2.618c-0.187 0.187-0.415 0.28-0.686 0.28s-0.504-0.093-0.7-0.28c-0.187-0.196-0.28-0.429-0.28-0.7 0-0.27 0.093-0.499 0.28-0.686 0.196-0.196 0.429-0.294 0.7-0.294s0.499 0.098 0.686 0.294c0.196 0.187 0.294 0.416 0.294 0.686 0 0.271-0.098 0.504-0.294 0.7zm9.282-0.378c-0.681 0.448-1.526 0.672-2.534 0.672s-1.857-0.224-2.548-0.672c-0.691-0.457-1.036-1.087-1.036-1.89 0-0.569 0.196-1.064 0.588-1.484 0.401-0.42 0.905-0.732 1.512-0.938-0.579-0.186-1.05-0.462-1.414-0.826-0.355-0.364-0.532-0.826-0.532-1.386 0-0.41 0.098-0.779 0.294-1.106 0.205-0.326 0.471-0.583 0.798-0.77 0.336-0.186 0.7-0.326 1.092-0.42 0.401-0.102 0.817-0.154 1.246-0.154s0.84 0.052 1.232 0.154c0.392 0.094 0.756 0.234 1.092 0.42 0.336 0.187 0.602 0.444 0.798 0.77 0.205 0.327 0.308 0.696 0.308 1.106 0 1.055-0.653 1.792-1.96 2.212 0.607 0.206 1.106 0.518 1.498 0.938 0.401 0.42 0.602 0.915 0.602 1.484 0 0.803-0.345 1.433-1.036 1.89zm-2.534-4.956c0.252-0.046 0.495-0.107 0.728-0.182 0.233-0.084 0.462-0.224 0.686-0.42 0.233-0.205 0.35-0.443 0.35-0.714 0-0.382-0.168-0.686-0.504-0.91-0.327-0.224-0.747-0.336-1.26-0.336-0.523 0-0.952 0.112-1.288 0.336-0.327 0.224-0.49 0.528-0.49 0.91 0 0.271 0.117 0.509 0.35 0.714 0.233 0.196 0.467 0.336 0.7 0.42 0.233 0.075 0.476 0.136 0.728 0.182zm0 4.172c0.532 0 0.985-0.121 1.358-0.364 0.373-0.242 0.56-0.56 0.56-0.952 0-0.42-0.219-0.756-0.658-1.008-0.429-0.261-0.849-0.415-1.26-0.462-0.243 0.028-0.499 0.094-0.77 0.196-0.271 0.094-0.532 0.257-0.784 0.49-0.252 0.224-0.378 0.486-0.378 0.784 0 0.392 0.182 0.71 0.546 0.952 0.373 0.243 0.835 0.364 1.386 0.364zm8.48 1.288h-1.638v-7.21l-1.526 1.582-0.952-0.994 2.688-2.716h1.428v9.338zm4.479 0h-1.792l3.528-7.896h-4.844v-1.442h6.734v1.134l-3.626 8.204zm7.675 0.154c-1.092 0-1.984-0.345-2.674-1.036l0.756-1.232c0.522 0.542 1.162 0.812 1.918 0.812 0.793 0 1.4-0.298 1.82-0.896 0.429-0.606 0.644-1.33 0.644-2.17v-0.28c-0.243 0.346-0.593 0.654-1.05 0.924-0.458 0.262-0.943 0.392-1.456 0.392-0.887 0-1.634-0.266-2.24-0.798-0.598-0.532-0.896-1.274-0.896-2.226 0-0.886 0.317-1.628 0.952-2.226 0.644-0.606 1.474-0.91 2.492-0.91 0.877 0 1.61 0.229 2.198 0.686 0.597 0.448 1.022 1.027 1.274 1.736 0.252 0.7 0.378 1.503 0.378 2.408 0 1.4-0.36 2.553-1.078 3.458-0.719 0.906-1.732 1.358-3.038 1.358zm0.392-4.9c0.401 0 0.784-0.098 1.148-0.294s0.662-0.462 0.896-0.798c-0.047-0.588-0.243-1.101-0.588-1.54-0.336-0.438-0.836-0.658-1.498-0.658-0.57 0-1.022 0.168-1.358 0.504s-0.504 0.71-0.504 1.12c0 0.542 0.182 0.957 0.546 1.246 0.364 0.28 0.816 0.42 1.358 0.42zm8.632 4.746h-1.638v-7.21l-1.526 1.582-0.952-0.994 2.688-2.716h1.428v9.338zm6.984-0.252c-0.494 0.28-1.054 0.42-1.68 0.42-0.625 0-1.185-0.14-1.68-0.42-0.494-0.28-0.886-0.653-1.176-1.12-0.289-0.466-0.508-0.98-0.658-1.54-0.149-0.56-0.224-1.143-0.224-1.75 0-0.606 0.075-1.19 0.224-1.75 0.15-0.56 0.369-1.068 0.658-1.526 0.29-0.466 0.682-0.84 1.176-1.12 0.495-0.28 1.055-0.42 1.68-0.42 0.626 0 1.186 0.14 1.68 0.42 0.495 0.28 0.887 0.654 1.176 1.12 0.29 0.458 0.509 0.966 0.658 1.526 0.15 0.56 0.224 1.144 0.224 1.75 0 0.607-0.074 1.19-0.224 1.75-0.149 0.56-0.368 1.074-0.658 1.54-0.289 0.467-0.681 0.84-1.176 1.12zm-3.248-1.988c0.336 0.635 0.859 0.952 1.568 0.952 0.71 0 1.232-0.317 1.568-0.952 0.336-0.634 0.504-1.442 0.504-2.422 0-0.625-0.065-1.18-0.196-1.666-0.121-0.485-0.345-0.886-0.672-1.204-0.317-0.326-0.718-0.49-1.204-0.49-0.485 0-0.891 0.164-1.218 0.49-0.317 0.318-0.541 0.719-0.672 1.204-0.121 0.486-0.182 1.041-0.182 1.666 0 0.98 0.168 1.788 0.504 2.422z" fill="#484848"/>
<rect x="312.64" y="116.66" width="65.506" height="22.056" rx="4.5" stroke="#484848"/>
<path d="m335.3 131.16c-1.3 0-2.384-0.416-3.25-1.248-0.867-0.841-1.3-1.92-1.3-3.237s0.433-2.392 1.3-3.224c0.866-0.841 1.95-1.261 3.25-1.261 1.508 0 2.669 0.65 3.484 1.95l-1.3 0.663c-0.217-0.373-0.525-0.676-0.923-0.91-0.39-0.234-0.811-0.351-1.261-0.351-0.858 0-1.573 0.295-2.145 0.884-0.564 0.589-0.845 1.339-0.845 2.249s0.281 1.66 0.845 2.249c0.572 0.589 1.287 0.884 2.145 0.884 0.459 0 0.884-0.117 1.274-0.351s0.693-0.537 0.91-0.91l1.3 0.663c-0.832 1.3-1.994 1.95-3.484 1.95zm7.496 0c-0.971 0-1.751-0.316-2.34-0.949-0.589-0.641-0.884-1.426-0.884-2.353s0.295-1.707 0.884-2.34 1.369-0.949 2.34-0.949c0.979 0 1.764 0.316 2.353 0.949s0.884 1.413 0.884 2.34c0 0.936-0.295 1.72-0.884 2.353s-1.374 0.949-2.353 0.949zm0-1.209c0.563 0 1.005-0.199 1.326-0.598 0.329-0.407 0.494-0.906 0.494-1.495 0-0.581-0.165-1.07-0.494-1.469-0.321-0.407-0.763-0.611-1.326-0.611-0.555 0-0.997 0.204-1.326 0.611-0.321 0.399-0.481 0.888-0.481 1.469 0 0.589 0.16 1.088 0.481 1.495 0.329 0.399 0.771 0.598 1.326 0.598zm7.998 1.209c-0.832 0-1.503-0.342-2.015-1.027v3.263h-1.365v-8.671h1.365v0.858c0.503-0.676 1.175-1.014 2.015-1.014 0.824 0 1.491 0.295 2.002 0.884 0.52 0.589 0.78 1.391 0.78 2.405s-0.26 1.82-0.78 2.418c-0.511 0.589-1.178 0.884-2.002 0.884zm-0.403-1.209c0.538 0 0.967-0.195 1.287-0.585 0.321-0.39 0.481-0.893 0.481-1.508s-0.16-1.114-0.481-1.495c-0.32-0.39-0.749-0.585-1.287-0.585-0.312 0-0.619 0.082-0.923 0.247-0.303 0.165-0.533 0.364-0.689 0.598v2.483c0.156 0.234 0.386 0.433 0.689 0.598 0.304 0.165 0.611 0.247 0.923 0.247zm4.266 3.51 0.208-1.222c0.156 0.069 0.329 0.104 0.52 0.104 0.442 0 0.741-0.182 0.897-0.546l0.312-0.715-2.574-6.357h1.456l1.833 4.706 1.833-4.706h1.469l-3.029 7.41c-0.373 0.927-1.092 1.4-2.158 1.417-0.286 0-0.542-0.03-0.767-0.091z" fill="#484848"/>
<g filter="url(#a)">
<rect x="37.243" y="228.78" width="356.47" height="42.564" rx="10" fill="#fff"/>
</g>
<path d="m44.712 203h-6.576v-10.672h1.872v9.024h4.704v1.648zm2.4736-8.672c-0.2773 0-0.5226-0.101-0.736-0.304-0.2026-0.203-0.304-0.448-0.304-0.736s0.1014-0.533 0.304-0.736c0.2134-0.203 0.4587-0.304 0.736-0.304 0.288 0 0.5334 0.101 0.736 0.304 0.2027 0.203 0.304 0.448 0.304 0.736s-0.1013 0.533-0.304 0.736c-0.2026 0.203-0.448 0.304-0.736 0.304zm0.848 8.672h-1.68v-7.728h1.68v7.728zm9.0754 0h-1.68v-4.832c0-1.067-0.5173-1.6-1.552-1.6-0.4053 0-0.784 0.101-1.136 0.304s-0.6347 0.448-0.848 0.736v5.392h-1.68v-7.728h1.68v1.056c0.288-0.341 0.672-0.635 1.152-0.88s1.0027-0.368 1.568-0.368c0.8213 0 1.44 0.213 1.856 0.64 0.4267 0.427 0.64 1.04 0.64 1.84v5.44zm9.4141 0h-2.112l-2.368-3.184-1.072 1.104v2.08h-1.68v-10.672h1.68v6.672l3.408-3.728h2.08l-3.216 3.504 3.28 4.224zm4.6798 0.192c-1.1734 0-2.144-0.373-2.912-1.12-0.7574-0.757-1.136-1.739-1.136-2.944 0-1.131 0.368-2.085 1.104-2.864 0.7466-0.789 1.6853-1.184 2.816-1.184 1.1413 0 2.0586 0.395 2.752 1.184 0.704 0.789 1.056 1.797 1.056 3.024v0.4h-5.968c0.064 0.608 0.3146 1.115 0.752 1.52 0.4373 0.405 1.008 0.608 1.712 0.608 0.3946 0 0.7893-0.075 1.184-0.224 0.4053-0.149 0.7413-0.357 1.008-0.624l0.768 1.104c-0.7787 0.747-1.824 1.12-3.136 1.12zm2.048-4.688c-0.0214-0.533-0.2187-1.008-0.592-1.424-0.3627-0.416-0.8907-0.624-1.584-0.624-0.6614 0-1.1787 0.208-1.552 0.624-0.3734 0.405-0.5814 0.88-0.624 1.424h4.352zm10.41 4.496h-1.68v-1.056c-0.64 0.832-1.4666 1.248-2.48 1.248-1.0133 0-1.84-0.363-2.48-1.088s-0.96-1.712-0.96-2.96c0-1.237 0.32-2.224 0.96-2.96s1.4667-1.104 2.48-1.104c1.0134 0 1.84 0.421 2.48 1.264v-4.016h1.68v10.672zm-3.68-1.296c0.3947 0 0.7787-0.096 1.152-0.288 0.3734-0.192 0.656-0.437 0.848-0.736v-3.072c-0.192-0.299-0.4746-0.544-0.848-0.736-0.3733-0.203-0.7573-0.304-1.152-0.304-0.6613 0-1.1893 0.24-1.584 0.72-0.3946 0.48-0.592 1.099-0.592 1.856s0.1974 1.376 0.592 1.856c0.3947 0.469 0.9227 0.704 1.584 0.704zm7.7769 1.296h-1.872v-10.672h1.872v10.672zm9.1166 0h-1.68v-4.832c0-1.067-0.5173-1.6-1.552-1.6-0.4053 0-0.784 0.101-1.136 0.304s-0.6346 0.448-0.848 0.736v5.392h-1.68v-7.728h1.68v1.056c0.288-0.341 0.672-0.635 1.152-0.88s1.0027-0.368 1.568-0.368c0.8214 0 1.44 0.213 1.856 0.64 0.4267 0.427 0.64 1.04 0.64 1.84v5.44zm8.2114 0h-1.872v-10.672h1.872v10.672zm9.117 0h-1.68v-4.832c0-1.067-0.518-1.6-1.552-1.6-0.406 0-0.784 0.101-1.136 0.304s-0.635 0.448-0.848 0.736v5.392h-1.68v-7.728h1.68v1.056c0.288-0.341 0.672-0.635 1.152-0.88s1.002-0.368 1.568-0.368c0.821 0 1.44 0.213 1.856 0.64 0.426 0.427 0.64 1.04 0.64 1.84v5.44zm5.414-3.152h-3.84v-1.44h3.84v1.44zm3.485 3.152h-1.872v-10.672h7.312v1.648h-5.44v2.768h5.328v1.648h-5.328v4.608zm10.632 0.192c-1.173 0-2.144-0.373-2.912-1.12-0.757-0.757-1.136-1.739-1.136-2.944 0-1.131 0.368-2.085 1.104-2.864 0.747-0.789 1.685-1.184 2.816-1.184 1.141 0 2.059 0.395 2.752 1.184 0.704 0.789 1.056 1.797 1.056 3.024v0.4h-5.968c0.064 0.608 0.315 1.115 0.752 1.52s1.008 0.608 1.712 0.608c0.395 0 0.789-0.075 1.184-0.224 0.405-0.149 0.741-0.357 1.008-0.624l0.768 1.104c-0.779 0.747-1.824 1.12-3.136 1.12zm2.048-4.688c-0.021-0.533-0.219-1.008-0.592-1.424-0.363-0.416-0.891-0.624-1.584-0.624-0.661 0-1.179 0.208-1.552 0.624-0.373 0.405-0.581 0.88-0.624 1.424h4.352zm6.858 4.688c-1.173 0-2.144-0.373-2.912-1.12-0.757-0.757-1.136-1.739-1.136-2.944 0-1.131 0.368-2.085 1.104-2.864 0.747-0.789 1.686-1.184 2.816-1.184 1.142 0 2.059 0.395 2.752 1.184 0.704 0.789 1.056 1.797 1.056 3.024v0.4h-5.968c0.064 0.608 0.315 1.115 0.752 1.52 0.438 0.405 1.008 0.608 1.712 0.608 0.395 0 0.79-0.075 1.184-0.224 0.406-0.149 0.742-0.357 1.008-0.624l0.768 1.104c-0.778 0.747-1.824 1.12-3.136 1.12zm2.048-4.688c-0.021-0.533-0.218-1.008-0.592-1.424-0.362-0.416-0.89-0.624-1.584-0.624-0.661 0-1.178 0.208-1.552 0.624-0.373 0.405-0.581 0.88-0.624 1.424h4.352zm10.411 4.496h-1.68v-1.056c-0.64 0.832-1.467 1.248-2.48 1.248-1.014 0-1.84-0.363-2.48-1.088s-0.96-1.712-0.96-2.96c0-1.237 0.32-2.224 0.96-2.96s1.466-1.104 2.48-1.104c1.013 0 1.84 0.421 2.48 1.264v-4.016h1.68v10.672zm-3.68-1.296c0.394 0 0.778-0.096 1.152-0.288 0.373-0.192 0.656-0.437 0.848-0.736v-3.072c-0.192-0.299-0.475-0.544-0.848-0.736-0.374-0.203-0.758-0.304-1.152-0.304-0.662 0-1.19 0.24-1.584 0.72-0.395 0.48-0.592 1.099-0.592 1.856s0.197 1.376 0.592 1.856c0.394 0.469 0.922 0.704 1.584 0.704zm15.134 1.488c-1.6 0-2.933-0.512-4-1.536-1.067-1.035-1.6-2.363-1.6-3.984s0.533-2.944 1.6-3.968c1.067-1.035 2.4-1.552 4-1.552 1.856 0 3.285 0.8 4.288 2.4l-1.6 0.816c-0.267-0.459-0.645-0.832-1.136-1.12-0.48-0.288-0.997-0.432-1.552-0.432-1.056 0-1.936 0.363-2.64 1.088-0.693 0.725-1.04 1.648-1.04 2.768s0.347 2.043 1.04 2.768c0.704 0.725 1.584 1.088 2.64 1.088 0.565 0 1.088-0.144 1.568-0.432s0.853-0.661 1.12-1.12l1.6 0.816c-1.024 1.6-2.453 2.4-4.288 2.4zm12.138-0.192h-1.68v-0.832c-0.597 0.683-1.429 1.024-2.496 1.024-0.704 0-1.328-0.224-1.872-0.672-0.544-0.459-0.816-1.088-0.816-1.888 0-0.821 0.267-1.445 0.8-1.872 0.544-0.427 1.173-0.64 1.888-0.64 1.099 0 1.931 0.331 2.496 0.992v-1.152c0-0.448-0.165-0.8-0.496-1.056s-0.768-0.384-1.312-0.384c-0.864 0-1.627 0.325-2.288 0.976l-0.688-1.168c0.875-0.832 1.957-1.248 3.248-1.248 0.949 0 1.723 0.224 2.32 0.672s0.896 1.157 0.896 2.128v5.12zm-3.52-0.96c0.843 0 1.456-0.267 1.84-0.8v-1.168c-0.384-0.533-0.997-0.8-1.84-0.8-0.48 0-0.875 0.128-1.184 0.384s-0.464 0.592-0.464 1.008 0.155 0.752 0.464 1.008c0.309 0.245 0.704 0.368 1.184 0.368zm16.85 0.96h-1.68v-5.04c0-0.928-0.421-1.392-1.264-1.392-0.352 0-0.693 0.101-1.024 0.304-0.33 0.203-0.586 0.443-0.768 0.72v5.408h-1.68v-5.04c0-0.928-0.426-1.392-1.28-1.392-0.341 0-0.677 0.101-1.008 0.304-0.32 0.203-0.576 0.448-0.768 0.736v5.392h-1.68v-7.728h1.68v1.056c0.192-0.288 0.523-0.565 0.992-0.832 0.48-0.277 0.987-0.416 1.52-0.416 1.12 0 1.824 0.475 2.112 1.424 0.246-0.384 0.608-0.715 1.088-0.992 0.48-0.288 0.992-0.432 1.536-0.432 1.483 0 2.224 0.779 2.224 2.336v5.584zm6.336 0.192c-1.024 0-1.85-0.421-2.48-1.264v4.016h-1.68v-10.672h1.68v1.056c0.619-0.832 1.446-1.248 2.48-1.248 1.014 0 1.835 0.363 2.464 1.088 0.64 0.725 0.96 1.712 0.96 2.96s-0.32 2.24-0.96 2.976c-0.629 0.725-1.45 1.088-2.464 1.088zm-0.496-1.488c0.662 0 1.19-0.24 1.584-0.72 0.395-0.48 0.592-1.099 0.592-1.856s-0.197-1.371-0.592-1.84c-0.394-0.48-0.922-0.72-1.584-0.72-0.384 0-0.762 0.101-1.136 0.304-0.373 0.203-0.656 0.448-0.848 0.736v3.056c0.192 0.288 0.475 0.533 0.848 0.736 0.374 0.203 0.752 0.304 1.136 0.304zm11.986 1.296h-1.68v-0.832c-0.597 0.683-1.429 1.024-2.496 1.024-0.704 0-1.328-0.224-1.872-0.672-0.544-0.459-0.816-1.088-0.816-1.888 0-0.821 0.267-1.445 0.8-1.872 0.544-0.427 1.174-0.64 1.888-0.64 1.099 0 1.931 0.331 2.496 0.992v-1.152c0-0.448-0.165-0.8-0.496-1.056-0.33-0.256-0.768-0.384-1.312-0.384-0.864 0-1.626 0.325-2.288 0.976l-0.688-1.168c0.875-0.832 1.958-1.248 3.248-1.248 0.95 0 1.723 0.224 2.32 0.672 0.598 0.448 0.896 1.157 0.896 2.128v5.12zm-3.52-0.96c0.843 0 1.456-0.267 1.84-0.8v-1.168c-0.384-0.533-0.997-0.8-1.84-0.8-0.48 0-0.874 0.128-1.184 0.384-0.309 0.256-0.464 0.592-0.464 1.008s0.155 0.752 0.464 1.008c0.31 0.245 0.704 0.368 1.184 0.368zm6.531-7.712c-0.278 0-0.523-0.101-0.736-0.304-0.203-0.203-0.304-0.448-0.304-0.736s0.101-0.533 0.304-0.736c0.213-0.203 0.458-0.304 0.736-0.304 0.288 0 0.533 0.101 0.736 0.304 0.202 0.203 0.304 0.448 0.304 0.736s-0.102 0.533-0.304 0.736c-0.203 0.203-0.448 0.304-0.736 0.304zm0.848 8.672h-1.68v-7.728h1.68v7.728zm5.315 3.136c-1.312 0-2.389-0.384-3.232-1.152l0.784-1.216c0.576 0.661 1.392 0.992 2.448 0.992 0.64 0 1.179-0.171 1.616-0.512 0.448-0.331 0.672-0.859 0.672-1.584v-0.928c-0.661 0.853-1.488 1.28-2.48 1.28-1.013 0-1.84-0.352-2.48-1.056-0.629-0.704-0.944-1.675-0.944-2.912 0-1.227 0.315-2.192 0.944-2.896 0.64-0.715 1.467-1.072 2.48-1.072s1.84 0.421 2.48 1.264v-1.072h1.68v7.328c0 0.661-0.117 1.232-0.352 1.712-0.224 0.491-0.533 0.859-0.928 1.104-0.395 0.256-0.816 0.437-1.264 0.544-0.437 0.117-0.912 0.176-1.424 0.176zm0.304-4.608c0.384 0 0.763-0.101 1.136-0.304s0.656-0.448 0.848-0.736v-2.88c-0.192-0.288-0.475-0.533-0.848-0.736s-0.752-0.304-1.136-0.304c-0.661 0-1.189 0.229-1.584 0.688-0.395 0.448-0.592 1.045-0.592 1.792s0.197 1.349 0.592 1.808c0.395 0.448 0.923 0.672 1.584 0.672zm12.737 1.472h-1.68v-4.832c0-1.067-0.517-1.6-1.552-1.6-0.405 0-0.784 0.101-1.136 0.304s-0.635 0.448-0.848 0.736v5.392h-1.68v-7.728h1.68v1.056c0.288-0.341 0.672-0.635 1.152-0.88s1.003-0.368 1.568-0.368c0.821 0 1.44 0.213 1.856 0.64 0.427 0.427 0.64 1.04 0.64 1.84v5.44z" fill="#252531"/>
<path d="m69.072 255.97h-1.47v-4.256c0-0.495-0.1214-0.845-0.364-1.05-0.2334-0.215-0.5694-0.322-1.008-0.322-0.3454 0-0.672 0.088-0.98 0.266-0.308 0.177-0.56 0.392-0.756 0.644v4.718h-1.47v-9.338h1.47v3.5c0.252-0.299 0.588-0.556 1.008-0.77 0.4293-0.215 0.8913-0.322 1.386-0.322 1.456 0 2.184 0.714 2.184 2.142v4.788zm3.939 0.168c-0.5693 0-1.0033-0.15-1.302-0.448-0.2893-0.299-0.434-0.728-0.434-1.288v-3.906h-1.12v-1.288h1.12v-1.848h1.47v1.848h1.372v1.288h-1.372v3.542c0 0.242 0.056 0.438 0.168 0.588 0.112 0.14 0.2707 0.21 0.476 0.21 0.2987 0 0.518-0.08 0.658-0.238l0.35 1.106c-0.308 0.289-0.77 0.434-1.386 0.434zm4.4707 0c-0.5693 0-1.0033-0.15-1.302-0.448-0.2893-0.299-0.434-0.728-0.434-1.288v-3.906h-1.12v-1.288h1.12v-1.848h1.47v1.848h1.372v1.288h-1.372v3.542c0 0.242 0.056 0.438 0.168 0.588 0.112 0.14 0.2707 0.21 0.476 0.21 0.2987 0 0.518-0.08 0.658-0.238l0.35 1.106c-0.308 0.289-0.77 0.434-1.386 0.434zm6.0807 0c-0.896 0-1.6193-0.369-2.17-1.106v3.514h-1.47v-9.338h1.47v0.924c0.5413-0.728 1.2647-1.092 2.17-1.092 0.8867 0 1.6053 0.317 2.156 0.952 0.56 0.634 0.84 1.498 0.84 2.59s-0.28 1.96-0.84 2.604c-0.5507 0.634-1.2693 0.952-2.156 0.952zm-0.434-1.302c0.5787 0 1.0407-0.21 1.386-0.63s0.518-0.962 0.518-1.624c0-0.663-0.1727-1.2-0.518-1.61-0.3453-0.42-0.8073-0.63-1.386-0.63-0.336 0-0.6673 0.088-0.994 0.266-0.3267 0.177-0.574 0.392-0.742 0.644v2.674c0.168 0.252 0.4153 0.466 0.742 0.644 0.3267 0.177 0.658 0.266 0.994 0.266zm7.1978 1.302c-1.2134 0-2.1794-0.35-2.898-1.05l0.672-1.064c0.252 0.261 0.5926 0.485 1.022 0.672 0.4293 0.186 0.854 0.28 1.274 0.28 0.4293 0 0.756-0.084 0.98-0.252 0.2333-0.168 0.35-0.388 0.35-0.658 0-0.243-0.14-0.43-0.42-0.56-0.28-0.14-0.6207-0.248-1.022-0.322-0.4014-0.084-0.8027-0.182-1.204-0.294-0.4014-0.122-0.742-0.332-1.022-0.63-0.28-0.299-0.42-0.686-0.42-1.162 0-0.579 0.238-1.064 0.714-1.456 0.476-0.402 1.1246-0.602 1.946-0.602 1.036 0 1.9133 0.317 2.632 0.952l-0.616 1.036c-0.2147-0.243-0.4994-0.439-0.854-0.588-0.3547-0.15-0.7374-0.224-1.148-0.224-0.3827 0-0.6907 0.079-0.924 0.238-0.224 0.149-0.336 0.345-0.336 0.588 0 0.186 0.098 0.34 0.294 0.462 0.2053 0.112 0.4573 0.196 0.756 0.252 0.308 0.056 0.6393 0.135 0.994 0.238 0.3546 0.093 0.6813 0.205 0.98 0.336 0.308 0.13 0.56 0.345 0.756 0.644 0.2053 0.289 0.308 0.644 0.308 1.064 0 0.616-0.2474 1.12-0.742 1.512-0.4947 0.392-1.1854 0.588-2.072 0.588zm5.7355-5.362c-0.196 0.196-0.4247 0.294-0.686 0.294-0.2614 0-0.49-0.098-0.686-0.294s-0.294-0.425-0.294-0.686c0-0.262 0.098-0.49 0.294-0.686s0.4246-0.294 0.686-0.294c0.2613 0 0.49 0.098 0.686 0.294s0.294 0.424 0.294 0.686c0 0.261-0.098 0.49-0.294 0.686zm0 5.068c-0.196 0.186-0.4247 0.28-0.686 0.28-0.2614 0-0.49-0.094-0.686-0.28-0.196-0.196-0.294-0.43-0.294-0.7 0-0.271 0.098-0.5 0.294-0.686 0.196-0.196 0.4246-0.294 0.686-0.294 0.2613 0 0.49 0.098 0.686 0.294 0.196 0.186 0.294 0.415 0.294 0.686 0 0.27-0.098 0.504-0.294 0.7zm2.1296 0.406h-1.092l3.3184-9.898h1.092l-3.3184 9.898zm4.4164 0h-1.092l3.318-9.898h1.092l-3.318 9.898zm11.71-0.28h-1.54l-1.568-4.956-1.568 4.956h-1.54l-2.1-6.762h1.526l1.428 4.914 1.61-4.914h1.288l1.61 4.914 1.428-4.914h1.526l-2.1 6.762zm10.554 0h-1.54l-1.568-4.956-1.568 4.956h-1.54l-2.1-6.762h1.526l1.428 4.914 1.61-4.914h1.288l1.61 4.914 1.428-4.914h1.526l-2.1 6.762zm10.555 0h-1.54l-1.568-4.956-1.568 4.956h-1.54l-2.1-6.762h1.526l1.428 4.914 1.61-4.914h1.288l1.61 4.914 1.428-4.914h1.526l-2.1 6.762zm4.002-0.126c-0.196 0.186-0.425 0.28-0.686 0.28s-0.49-0.094-0.686-0.28c-0.196-0.196-0.294-0.43-0.294-0.7 0-0.271 0.098-0.5 0.294-0.686 0.196-0.196 0.425-0.294 0.686-0.294s0.49 0.098 0.686 0.294c0.196 0.186 0.294 0.415 0.294 0.686 0 0.27-0.098 0.504-0.294 0.7zm8.024 0.126h-1.47v-4.228c0-0.934-0.453-1.4-1.358-1.4-0.355 0-0.686 0.088-0.994 0.266-0.308 0.177-0.556 0.392-0.742 0.644v4.718h-1.47v-6.762h1.47v0.924c0.252-0.299 0.588-0.556 1.008-0.77 0.42-0.215 0.877-0.322 1.372-0.322 0.718 0 1.26 0.186 1.624 0.56 0.373 0.373 0.56 0.91 0.56 1.61v4.76zm2.637-7.588c-0.243 0-0.457-0.089-0.644-0.266-0.177-0.178-0.266-0.392-0.266-0.644s0.089-0.467 0.266-0.644c0.187-0.178 0.401-0.266 0.644-0.266 0.252 0 0.467 0.088 0.644 0.266 0.177 0.177 0.266 0.392 0.266 0.644s-0.089 0.466-0.266 0.644c-0.177 0.177-0.392 0.266-0.644 0.266zm0.742 7.588h-1.47v-6.762h1.47v6.762zm8.235 0h-1.848l-2.072-2.786-0.938 0.966v1.82h-1.47v-9.338h1.47v5.838l2.982-3.262h1.82l-2.814 3.066 2.87 3.696zm4.095 0.168c-1.027 0-1.876-0.327-2.548-0.98-0.663-0.663-0.994-1.522-0.994-2.576 0-0.99 0.322-1.825 0.966-2.506 0.653-0.691 1.475-1.036 2.464-1.036 0.999 0 1.801 0.345 2.408 1.036 0.616 0.69 0.924 1.572 0.924 2.646v0.35h-5.222c0.056 0.532 0.275 0.975 0.658 1.33 0.383 0.354 0.882 0.532 1.498 0.532 0.345 0 0.691-0.066 1.036-0.196 0.355-0.131 0.649-0.313 0.882-0.546l0.672 0.966c-0.681 0.653-1.596 0.98-2.744 0.98zm1.792-4.102c-0.019-0.467-0.191-0.882-0.518-1.246-0.317-0.364-0.779-0.546-1.386-0.546-0.579 0-1.031 0.182-1.358 0.546-0.327 0.354-0.509 0.77-0.546 1.246h3.808zm4.253 3.808c-0.196 0.186-0.425 0.28-0.686 0.28-0.262 0-0.49-0.094-0.686-0.28-0.196-0.196-0.294-0.43-0.294-0.7 0-0.271 0.098-0.5 0.294-0.686 0.196-0.196 0.424-0.294 0.686-0.294 0.261 0 0.49 0.098 0.686 0.294 0.196 0.186 0.294 0.415 0.294 0.686 0 0.27-0.098 0.504-0.294 0.7zm5.001 0.294c-1.027 0-1.867-0.332-2.52-0.994-0.654-0.672-0.98-1.526-0.98-2.562 0-1.027 0.326-1.872 0.98-2.534 0.653-0.672 1.493-1.008 2.52-1.008 1.129 0 1.992 0.401 2.59 1.204l-0.966 0.896c-0.374-0.532-0.892-0.798-1.554-0.798-0.616 0-1.111 0.21-1.484 0.63-0.374 0.41-0.56 0.947-0.56 1.61 0 0.662 0.186 1.204 0.56 1.624 0.373 0.42 0.868 0.63 1.484 0.63 0.644 0 1.162-0.266 1.554-0.798l0.966 0.896c-0.598 0.802-1.461 1.204-2.59 1.204zm6.931 0c-1.046 0-1.886-0.341-2.52-1.022-0.635-0.691-0.952-1.536-0.952-2.534 0-0.999 0.317-1.839 0.952-2.52 0.634-0.682 1.474-1.022 2.52-1.022 1.054 0 1.899 0.34 2.534 1.022 0.634 0.681 0.952 1.521 0.952 2.52 0 1.008-0.318 1.852-0.952 2.534-0.635 0.681-1.48 1.022-2.534 1.022zm0-1.302c0.606 0 1.082-0.215 1.428-0.644 0.354-0.439 0.532-0.976 0.532-1.61 0-0.626-0.178-1.153-0.532-1.582-0.346-0.439-0.822-0.658-1.428-0.658-0.598 0-1.074 0.219-1.428 0.658-0.346 0.429-0.518 0.956-0.518 1.582 0 0.634 0.172 1.171 0.518 1.61 0.354 0.429 0.83 0.644 1.428 0.644zm14.731 1.134h-1.47v-4.41c0-0.812-0.369-1.218-1.106-1.218-0.308 0-0.607 0.088-0.896 0.266-0.289 0.177-0.513 0.387-0.672 0.63v4.732h-1.47v-4.41c0-0.812-0.373-1.218-1.12-1.218-0.299 0-0.593 0.088-0.882 0.266-0.28 0.177-0.504 0.392-0.672 0.644v4.718h-1.47v-6.762h1.47v0.924c0.168-0.252 0.457-0.495 0.868-0.728 0.42-0.243 0.863-0.364 1.33-0.364 0.98 0 1.596 0.415 1.848 1.246 0.215-0.336 0.532-0.626 0.952-0.868 0.42-0.252 0.868-0.378 1.344-0.378 1.297 0 1.946 0.681 1.946 2.044v4.886zm2.044 0.28h-1.092l3.318-9.898h1.092l-3.318 9.898zm14.034-0.28h-1.47v-4.41c0-0.812-0.368-1.218-1.106-1.218-0.308 0-0.606 0.088-0.896 0.266-0.289 0.177-0.513 0.387-0.672 0.63v4.732h-1.47v-4.41c0-0.812-0.373-1.218-1.12-1.218-0.298 0-0.592 0.088-0.882 0.266-0.28 0.177-0.504 0.392-0.672 0.644v4.718h-1.47v-6.762h1.47v0.924c0.168-0.252 0.458-0.495 0.868-0.728 0.42-0.243 0.864-0.364 1.33-0.364 0.98 0 1.596 0.415 1.848 1.246 0.215-0.336 0.532-0.626 0.952-0.868 0.42-0.252 0.868-0.378 1.344-0.378 1.298 0 1.946 0.681 1.946 2.044v4.886zm5.026 0.168c-1.026 0-1.876-0.327-2.548-0.98-0.662-0.663-0.994-1.522-0.994-2.576 0-0.99 0.322-1.825 0.966-2.506 0.654-0.691 1.475-1.036 2.464-1.036 0.999 0 1.802 0.345 2.408 1.036 0.616 0.69 0.924 1.572 0.924 2.646v0.35h-5.222c0.056 0.532 0.276 0.975 0.658 1.33 0.383 0.354 0.882 0.532 1.498 0.532 0.346 0 0.691-0.066 1.036-0.196 0.355-0.131 0.649-0.313 0.882-0.546l0.672 0.966c-0.681 0.653-1.596 0.98-2.744 0.98zm1.792-4.102c-0.018-0.467-0.191-0.882-0.518-1.246-0.317-0.364-0.779-0.546-1.386-0.546-0.578 0-1.031 0.182-1.358 0.546-0.326 0.354-0.508 0.77-0.546 1.246h3.808zm8.913 3.934h-1.47v-4.228c0-0.934-0.452-1.4-1.358-1.4-0.354 0-0.686 0.088-0.994 0.266-0.308 0.177-0.555 0.392-0.742 0.644v4.718h-1.47v-6.762h1.47v0.924c0.252-0.299 0.588-0.556 1.008-0.77 0.42-0.215 0.878-0.322 1.372-0.322 0.719 0 1.26 0.186 1.624 0.56 0.374 0.373 0.56 0.91 0.56 1.61v4.76zm2.05 0.28h-1.092l3.318-9.898h1.092l-3.318 9.898zm5.97-3.024c-0.336-0.318-0.504-0.714-0.504-1.19 0-0.383 0.116-0.724 0.35-1.022 0.233-0.308 0.49-0.546 0.77-0.714 0.289-0.168 0.55-0.369 0.784-0.602 0.233-0.234 0.35-0.481 0.35-0.742 0-0.29-0.117-0.528-0.35-0.714-0.224-0.196-0.551-0.294-0.98-0.294-0.766 0-1.414 0.326-1.946 0.98l-0.938-1.05c0.756-0.924 1.773-1.386 3.052-1.386 0.868 0 1.558 0.205 2.072 0.616 0.513 0.41 0.77 0.938 0.77 1.582 0 0.382-0.089 0.728-0.266 1.036-0.168 0.298-0.378 0.546-0.63 0.742-0.243 0.186-0.486 0.364-0.728 0.532-0.243 0.168-0.453 0.354-0.63 0.56-0.168 0.196-0.252 0.406-0.252 0.63 0 0.242 0.102 0.452 0.308 0.63l-1.232 0.406zm1.19 2.618c-0.187 0.186-0.416 0.28-0.686 0.28-0.271 0-0.504-0.094-0.7-0.28-0.187-0.196-0.28-0.43-0.28-0.7 0-0.271 0.093-0.5 0.28-0.686 0.196-0.196 0.429-0.294 0.7-0.294 0.27 0 0.499 0.098 0.686 0.294 0.196 0.186 0.294 0.415 0.294 0.686 0 0.27-0.098 0.504-0.294 0.7zm9.282-0.378c-0.681 0.448-1.526 0.672-2.534 0.672s-1.857-0.224-2.548-0.672c-0.691-0.458-1.036-1.088-1.036-1.89 0-0.57 0.196-1.064 0.588-1.484 0.401-0.42 0.905-0.733 1.512-0.938-0.579-0.187-1.05-0.462-1.414-0.826-0.355-0.364-0.532-0.826-0.532-1.386 0-0.411 0.098-0.78 0.294-1.106 0.205-0.327 0.471-0.584 0.798-0.77 0.336-0.187 0.7-0.327 1.092-0.42 0.401-0.103 0.817-0.154 1.246-0.154s0.84 0.051 1.232 0.154c0.392 0.093 0.756 0.233 1.092 0.42 0.336 0.186 0.602 0.443 0.798 0.77 0.205 0.326 0.308 0.695 0.308 1.106 0 1.054-0.653 1.792-1.96 2.212 0.607 0.205 1.106 0.518 1.498 0.938 0.401 0.42 0.602 0.914 0.602 1.484 0 0.802-0.345 1.432-1.036 1.89zm-2.534-4.956c0.252-0.047 0.495-0.108 0.728-0.182 0.233-0.084 0.462-0.224 0.686-0.42 0.233-0.206 0.35-0.444 0.35-0.714 0-0.383-0.168-0.686-0.504-0.91-0.327-0.224-0.747-0.336-1.26-0.336-0.523 0-0.952 0.112-1.288 0.336-0.327 0.224-0.49 0.527-0.49 0.91 0 0.27 0.117 0.508 0.35 0.714 0.233 0.196 0.467 0.336 0.7 0.42 0.233 0.074 0.476 0.135 0.728 0.182zm0 4.172c0.532 0 0.985-0.122 1.358-0.364 0.373-0.243 0.56-0.56 0.56-0.952 0-0.42-0.219-0.756-0.658-1.008-0.429-0.262-0.849-0.416-1.26-0.462-0.243 0.028-0.499 0.093-0.77 0.196-0.271 0.093-0.532 0.256-0.784 0.49-0.252 0.224-0.378 0.485-0.378 0.784 0 0.392 0.182 0.709 0.546 0.952 0.373 0.242 0.835 0.364 1.386 0.364zm8.48 1.288h-1.638v-7.21l-1.526 1.582-0.952-0.994 2.688-2.716h1.428v9.338zm4.478 0h-1.792l3.528-7.896h-4.844v-1.442h6.734v1.134l-3.626 8.204zm7.676 0.154c-1.092 0-1.984-0.346-2.674-1.036l0.756-1.232c0.522 0.541 1.162 0.812 1.918 0.812 0.793 0 1.4-0.299 1.82-0.896 0.429-0.607 0.644-1.33 0.644-2.17v-0.28c-0.243 0.345-0.593 0.653-1.05 0.924-0.458 0.261-0.943 0.392-1.456 0.392-0.887 0-1.634-0.266-2.24-0.798-0.598-0.532-0.896-1.274-0.896-2.226 0-0.887 0.317-1.629 0.952-2.226 0.644-0.607 1.474-0.91 2.492-0.91 0.877 0 1.61 0.228 2.198 0.686 0.597 0.448 1.022 1.026 1.274 1.736 0.252 0.7 0.378 1.502 0.378 2.408 0 1.4-0.36 2.552-1.078 3.458-0.719 0.905-1.732 1.358-3.038 1.358zm0.392-4.9c0.401 0 0.784-0.098 1.148-0.294s0.662-0.462 0.896-0.798c-0.047-0.588-0.243-1.102-0.588-1.54-0.336-0.439-0.836-0.658-1.498-0.658-0.57 0-1.022 0.168-1.358 0.504s-0.504 0.709-0.504 1.12c0 0.541 0.182 0.956 0.546 1.246 0.364 0.28 0.816 0.42 1.358 0.42zm8.632 4.746h-1.638v-7.21l-1.526 1.582-0.952-0.994 2.688-2.716h1.428v9.338zm6.984-0.252c-0.495 0.28-1.055 0.42-1.68 0.42s-1.185-0.14-1.68-0.42-0.887-0.654-1.176-1.12c-0.289-0.467-0.509-0.98-0.658-1.54s-0.224-1.144-0.224-1.75c0-0.607 0.075-1.19 0.224-1.75s0.369-1.069 0.658-1.526c0.289-0.467 0.681-0.84 1.176-1.12s1.055-0.42 1.68-0.42 1.185 0.14 1.68 0.42 0.887 0.653 1.176 1.12c0.289 0.457 0.509 0.966 0.658 1.526s0.224 1.143 0.224 1.75c0 0.606-0.075 1.19-0.224 1.75s-0.369 1.073-0.658 1.54c-0.289 0.466-0.681 0.84-1.176 1.12zm-3.248-1.988c0.336 0.634 0.859 0.952 1.568 0.952s1.232-0.318 1.568-0.952c0.336-0.635 0.504-1.442 0.504-2.422 0-0.626-0.065-1.181-0.196-1.666-0.121-0.486-0.345-0.887-0.672-1.204-0.317-0.327-0.719-0.49-1.204-0.49s-0.891 0.163-1.218 0.49c-0.317 0.317-0.541 0.718-0.672 1.204-0.121 0.485-0.182 1.04-0.182 1.666 0 0.98 0.168 1.787 0.504 2.422z" fill="#484848"/>
<rect x="312.64" y="239.04" width="65.506" height="22.056" rx="4.5" stroke="#484848"/>
<path d="m335.3 253.53c-1.3 0-2.384-0.416-3.25-1.248-0.867-0.841-1.3-1.92-1.3-3.237s0.433-2.392 1.3-3.224c0.866-0.841 1.95-1.261 3.25-1.261 1.508 0 2.669 0.65 3.484 1.95l-1.3 0.663c-0.217-0.373-0.525-0.676-0.923-0.91-0.39-0.234-0.811-0.351-1.261-0.351-0.858 0-1.573 0.295-2.145 0.884-0.564 0.589-0.845 1.339-0.845 2.249s0.281 1.66 0.845 2.249c0.572 0.589 1.287 0.884 2.145 0.884 0.459 0 0.884-0.117 1.274-0.351s0.693-0.537 0.91-0.91l1.3 0.663c-0.832 1.3-1.994 1.95-3.484 1.95zm7.496 0c-0.971 0-1.751-0.316-2.34-0.949-0.589-0.641-0.884-1.426-0.884-2.353s0.295-1.707 0.884-2.34 1.369-0.949 2.34-0.949c0.979 0 1.764 0.316 2.353 0.949s0.884 1.413 0.884 2.34c0 0.936-0.295 1.72-0.884 2.353s-1.374 0.949-2.353 0.949zm0-1.209c0.563 0 1.005-0.199 1.326-0.598 0.329-0.407 0.494-0.906 0.494-1.495 0-0.581-0.165-1.07-0.494-1.469-0.321-0.407-0.763-0.611-1.326-0.611-0.555 0-0.997 0.204-1.326 0.611-0.321 0.399-0.481 0.888-0.481 1.469 0 0.589 0.16 1.088 0.481 1.495 0.329 0.399 0.771 0.598 1.326 0.598zm7.998 1.209c-0.832 0-1.503-0.342-2.015-1.027v3.263h-1.365v-8.671h1.365v0.858c0.503-0.676 1.175-1.014 2.015-1.014 0.824 0 1.491 0.295 2.002 0.884 0.52 0.589 0.78 1.391 0.78 2.405s-0.26 1.82-0.78 2.418c-0.511 0.589-1.178 0.884-2.002 0.884zm-0.403-1.209c0.538 0 0.967-0.195 1.287-0.585 0.321-0.39 0.481-0.893 0.481-1.508s-0.16-1.114-0.481-1.495c-0.32-0.39-0.749-0.585-1.287-0.585-0.312 0-0.619 0.082-0.923 0.247-0.303 0.165-0.533 0.364-0.689 0.598v2.483c0.156 0.234 0.386 0.433 0.689 0.598 0.304 0.165 0.611 0.247 0.923 0.247zm4.266 3.51 0.208-1.222c0.156 0.069 0.329 0.104 0.52 0.104 0.442 0 0.741-0.182 0.897-0.546l0.312-0.715-2.574-6.357h1.456l1.833 4.706 1.833-4.706h1.469l-3.029 7.41c-0.373 0.927-1.092 1.4-2.158 1.417-0.286 0-0.542-0.03-0.767-0.091z" fill="#484848"/>
<defs>
<filter id="b" x="1.3564" y="71.41" width="427.36" height="112.56" color-interpolation-filters="sRGB" filterUnits="userSpaceOnUse">
<feFlood flood-opacity="0" result="BackgroundImageFix"/>
<feColorMatrix in="SourceAlpha" result="hardAlpha" values="0 0 0 0 0 0 0 0 0 0 0 0 0 0 0 0 0 0 127 0"/>
<feMorphology in="SourceAlpha" operator="dilate" radius="5" result="effect1_dropShadow_1092:840"/>
<feOffset/>
<feGaussianBlur stdDeviation="15"/>
<feColorMatrix values="0 0 0 0 0.683333 0 0 0 0 0.683333 0 0 0 0 0.683333 0 0 0 0.18 0"/>
<feBlend in2="BackgroundImageFix" result="effect1_dropShadow_1092:840"/>
<feBlend in="SourceGraphic" in2="effect1_dropShadow_1092:840" result="shape"/>
</filter>
<filter id="a" x="2.2432" y="193.78" width="426.48" height="112.56" color-interpolation-filters="sRGB" filterUnits="userSpaceOnUse">
<feFlood flood-opacity="0" result="BackgroundImageFix"/>
<feColorMatrix in="SourceAlpha" result="hardAlpha" values="0 0 0 0 0 0 0 0 0 0 0 0 0 0 0 0 0 0 127 0"/>
<feMorphology in="SourceAlpha" operator="dilate" radius="5" result="effect1_dropShadow_1092:840"/>
<feOffset/>
<feGaussianBlur stdDeviation="15"/>
<feColorMatrix values="0 0 0 0 0.683333 0 0 0 0 0.683333 0 0 0 0 0.683333 0 0 0 0.18 0"/>
<feBlend in2="BackgroundImageFix" result="effect1_dropShadow_1092:840"/>
<feBlend in="SourceGraphic" in2="effect1_dropShadow_1092:840" result="shape"/>
</filter>
</defs>
</svg>
