<svg xmlns="http://www.w3.org/2000/svg" width="115" height="35" fill="none" xmlns:v="https://vecta.io/nano"><rect x="37" y="1" width="78" height="33" rx="6" fill="url(#A)"/><g fill="#fff"><path d="M16.561 33.993L2 34a1 1 0 0 1-1-1V2a1 1 0 0 1 1-1h14.202c1.398.001 2.757.513 3.874 1.458s1.93 2.273 2.317 3.782a8.1 8.1 0 0 1-.171 4.588c-.306.901-.766 1.719-1.35 2.41-.491.581-.409 1.566.197 2.025.977.74 1.819 1.694 2.471 2.811.954 1.634 1.461 3.546 1.46 5.5v.404c.002 2.566-.873 5.035-2.443 6.897s-3.713 2.973-5.99 3.11l-.006.007zM2.712 31.076a1 1 0 0 0 1 1h4.329c.938 0 1.45-1.284.927-2.064a10.45 10.45 0 0 1-1.093-2.125c-.465-1.233-.705-2.558-.704-3.898v-.404c-.002-2.53.847-4.967 2.377-6.822s3.628-2.991 5.872-3.18l.694-.028.273.006c1.223-.054 2.381-.639 3.229-1.632s1.321-2.317 1.319-3.693c-.004-2.929-2.127-5.312-4.733-5.312H3.712a1 1 0 0 0-1 1v27.152zm13.373-15.597l-.539.023c-3.74.311-6.667 3.861-6.663 8.083v.404c.004 4.46 3.235 8.088 7.203 8.088s7.202-3.632 7.202-8.096v-.405c0-4.347-3.074-7.914-6.906-8.09l-.176.003-.004-.004c-.034-.004-.064-.004-.093-.004l-.023-.001z" stroke="#fff" stroke-width=".3"/><path d="M64.16 24h-6.74V10.66h6.56c1.187 0 2.113.327 2.78.98.68.64 1.02 1.447 1.02 2.42 0 .8-.227 1.48-.68 2.04-.44.547-.987.887-1.64 1.02.72.107 1.327.48 1.82 1.12.507.627.76 1.347.76 2.16 0 1.067-.347 1.933-1.04 2.6-.68.667-1.627 1-2.84 1zm-.66-7.82c.587 0 1.047-.16 1.38-.48s.5-.733.5-1.24c0-.52-.167-.94-.5-1.26s-.793-.48-1.38-.48h-3.74v3.46h3.74zm.1 5.76c.64 0 1.14-.16 1.5-.48.36-.333.54-.793.54-1.38a1.73 1.73 0 0 0-.54-1.3c-.36-.36-.86-.54-1.5-.54h-3.84v3.7h3.84zm11.189 2.3c-1.467 0-2.68-.467-3.64-1.4-.947-.947-1.42-2.173-1.42-3.68 0-1.413.46-2.607 1.38-3.58.933-.987 2.107-1.48 3.52-1.48 1.427 0 2.573.493 3.44 1.48.88.987 1.32 2.247 1.32 3.78v.5h-7.46a2.92 2.92 0 0 0 .94 1.9c.547.507 1.26.76 2.14.76.493 0 .987-.093 1.48-.28.507-.187.927-.447 1.26-.78l.96 1.38c-.973.933-2.28 1.4-3.92 1.4zm2.56-5.86c-.027-.667-.273-1.26-.74-1.78-.453-.52-1.113-.78-1.98-.78-.827 0-1.473.26-1.94.78-.467.507-.727 1.1-.78 1.78h5.44zm7.013 5.86c-.813 0-1.433-.213-1.86-.64-.413-.427-.62-1.04-.62-1.84v-5.58h-1.6v-1.84h1.6V11.7h2.1v2.64h1.96v1.84h-1.96v5.06c0 .347.08.627.24.84.16.2.387.3.68.3.427 0 .74-.113.94-.34l.5 1.58c-.44.413-1.1.62-1.98.62zM95.848 24h-2.1v-1.04c-.747.853-1.787 1.28-3.12 1.28-.88 0-1.66-.28-2.34-.84-.68-.573-1.02-1.36-1.02-2.36 0-1.027.333-1.807 1-2.34.68-.533 1.467-.8 2.36-.8 1.373 0 2.413.413 3.12 1.24V17.7c0-.56-.207-1-.62-1.32s-.96-.48-1.64-.48c-1.08 0-2.033.407-2.86 1.22l-.86-1.46c1.093-1.04 2.447-1.56 4.06-1.56 1.187 0 2.153.28 2.9.84s1.12 1.447 1.12 2.66V24zm-4.4-1.2c1.053 0 1.82-.333 2.3-1v-1.46c-.48-.667-1.247-1-2.3-1-.6 0-1.093.16-1.48.48s-.58.74-.58 1.26.193.94.58 1.26c.387.307.88.46 1.48.46z"/></g><defs><linearGradient id="A" x1="37" y1="34.792" x2="98.619" y2="-18.088" gradientUnits="userSpaceOnUse"><stop stop-color="#265de3"/><stop offset="1" stop-color="#1972f9"/></linearGradient></defs></svg>