<svg width="26" height="26" viewBox="0 0 26 26" fill="none" xmlns="http://www.w3.org/2000/svg">
<circle cx="13" cy="13" r="13" fill="#A5A5AD"/>
<path d="M12.591 16.276C12.135 15.8453 11.907 15.307 11.907 14.661C11.907 14.1417 12.0653 13.6793 12.382 13.274C12.6987 12.856 13.047 12.533 13.427 12.305C13.8197 12.077 14.1743 11.8047 14.491 11.488C14.8077 11.1713 14.966 10.8357 14.966 10.481C14.966 10.0883 14.8077 9.76533 14.491 9.512C14.187 9.246 13.7437 9.113 13.161 9.113C12.1223 9.113 11.242 9.55633 10.52 10.443L9.247 9.018C10.273 7.764 11.6537 7.137 13.389 7.137C14.567 7.137 15.5043 7.41567 16.201 7.973C16.8977 8.53033 17.246 9.246 17.246 10.12C17.246 10.6393 17.1257 11.108 16.885 11.526C16.657 11.9313 16.372 12.267 16.03 12.533C15.7007 12.7863 15.3713 13.027 15.042 13.255C14.7127 13.483 14.4277 13.7363 14.187 14.015C13.959 14.281 13.845 14.566 13.845 14.87C13.845 15.1993 13.9843 15.4843 14.263 15.725L12.591 16.276ZM14.206 19.829C13.9527 20.0823 13.6423 20.209 13.275 20.209C12.9077 20.209 12.591 20.0823 12.325 19.829C12.0717 19.563 11.945 19.2463 11.945 18.879C11.945 18.5117 12.0717 18.2013 12.325 17.948C12.591 17.682 12.9077 17.549 13.275 17.549C13.6423 17.549 13.9527 17.682 14.206 17.948C14.472 18.2013 14.605 18.5117 14.605 18.879C14.605 19.2463 14.472 19.563 14.206 19.829Z" fill="white"/>
</svg>
