<svg width="35" height="11" viewBox="0 0 35 11" fill="none" xmlns="http://www.w3.org/2000/svg">
<path d="M33.4122 4.8937L26.5701 0.495244C26.2374 0.281329 25.7997 0.52025 25.7997 0.915833V9.71274C25.7997 10.1083 26.2374 10.3472 26.5701 10.1333L33.4122 5.73488C33.7183 5.53806 33.7183 5.09051 33.4122 4.8937Z" fill="#1F1F1F"/>
<path d="M25.8008 5.4043C26.0769 5.4043 26.3008 5.62815 26.3008 5.9043C26.3008 6.18044 26.0769 6.4043 25.8008 6.4043V5.4043ZM1.00078 6.4043C0.72464 6.4043 0.500782 6.18044 0.500782 5.9043C0.500782 5.62815 0.72464 5.4043 1.00078 5.4043V6.4043ZM25.8008 6.4043H1.00078V5.4043H25.8008V6.4043Z" fill="#1F1F1F"/>
</svg>
