<?xml version="1.0" encoding="UTF-8"?>
<svg viewBox="0 0 163 104" xmlns="http://www.w3.org/2000/svg">
<rect width="163" height="104" rx="10" fill="#fff"/>
<path d="m64.121 85.08h4.043v0.9199h-5.1739v-8.5312h1.1309v7.6113zm4.8691-2.3086c0-0.6211 0.1211-1.1797 0.3633-1.6758 0.2461-0.4961 0.586-0.8789 1.0195-1.1484 0.4375-0.2696 0.9356-0.4043 1.4942-0.4043 0.8633 0 1.5605 0.2988 2.0918 0.8965 0.5351 0.5976 0.8027 1.3925 0.8027 2.3847v0.0762c0 0.6172-0.1191 1.1719-0.3574 1.6641-0.2344 0.4882-0.5723 0.8691-1.0137 1.1425-0.4375 0.2735-0.9414 0.4102-1.5117 0.4102-0.8594 0-1.5566-0.2988-2.0918-0.8965-0.5312-0.5977-0.7969-1.3887-0.7969-2.373v-0.0762zm1.0899 0.1289c0 0.7031 0.1621 1.2676 0.4863 1.6934 0.3281 0.4257 0.7656 0.6386 1.3125 0.6386 0.5508 0 0.9883-0.2148 1.3125-0.6445 0.3242-0.4336 0.4863-1.0391 0.4863-1.8164 0-0.6953-0.166-1.2578-0.498-1.6875-0.3281-0.4336-0.7656-0.6504-1.3125-0.6504-0.5352 0-0.9668 0.2129-1.2949 0.6387-0.3282 0.4257-0.4922 1.0351-0.4922 1.8281zm11.654 1.6055 1.2187-4.8457h1.084l-1.8457 6.3398h-0.8789l-1.541-4.8047-1.5 4.8047h-0.8789l-1.8399-6.3398h1.0782l1.248 4.746 1.4766-4.746h0.873l1.5059 4.8457zm7.7636 1.4941h-1.125v-8.5312h1.125v8.5312zm2.9122-6.3398 0.0293 0.7031c0.4648-0.5469 1.0917-0.8203 1.8808-0.8203 0.8867 0 1.4902 0.3398 1.8106 1.0195 0.2109-0.3047 0.4843-0.5508 0.8203-0.7383 0.3398-0.1875 0.7402-0.2812 1.2011-0.2812 1.3907 0 2.0977 0.7363 2.1207 2.209v4.248h-1.0835v-4.1836c0-0.4531-0.1036-0.791-0.3106-1.0137-0.207-0.2265-0.5547-0.3398-1.043-0.3398-0.4023 0-0.7363 0.1211-1.0019 0.3633-0.2656 0.2383-0.4199 0.5605-0.4629 0.9668v4.207h-1.0899v-4.1543c0-0.9219-0.4511-1.3828-1.3535-1.3828-0.7109 0-1.1972 0.3027-1.4589 0.9082v4.6289h-1.084v-6.3398h1.0254zm14.86 3.2402c0 0.9648-0.221 1.7422-0.663 2.332-0.441 0.5899-1.039 0.8848-1.793 0.8848-0.769 0-1.375-0.2442-1.816-0.7324v3.0527h-1.084v-8.7773h0.99l0.053 0.7031c0.441-0.5469 1.055-0.8203 1.84-0.8203 0.762 0 1.363 0.2871 1.805 0.8613 0.445 0.5742 0.668 1.373 0.668 2.3965v0.0996zm-1.084-0.1231c0-0.7148-0.153-1.2793-0.457-1.6933-0.305-0.4141-0.723-0.6211-1.254-0.6211-0.657 0-1.149 0.291-1.477 0.873v3.0293c0.324 0.5782 0.82 0.8672 1.488 0.8672 0.52 0 0.932-0.2051 1.237-0.6152 0.308-0.4141 0.463-1.0274 0.463-1.8399zm6.38 3.2227c-0.062-0.125-0.113-0.3477-0.152-0.668-0.504 0.5235-1.105 0.7852-1.805 0.7852-0.625 0-1.138-0.1758-1.541-0.5274-0.398-0.3554-0.597-0.8046-0.597-1.3476 0-0.6602 0.25-1.1719 0.75-1.5352 0.504-0.3672 1.211-0.5508 2.121-0.5508h1.054v-0.498c0-0.3789-0.113-0.6797-0.339-0.9023-0.227-0.2266-0.561-0.3399-1.002-0.3399-0.387 0-0.711 0.0977-0.973 0.293s-0.393 0.4316-0.393 0.709h-1.089c0-0.3164 0.111-0.6211 0.334-0.9141 0.226-0.2969 0.531-0.5312 0.914-0.7031 0.386-0.1719 0.81-0.2578 1.271-0.2578 0.731 0 1.303 0.1836 1.717 0.5508 0.414 0.3632 0.629 0.8652 0.644 1.5058v2.918c0 0.582 0.075 1.0449 0.223 1.3886v0.0938h-1.137zm-1.798-0.8262c0.339 0 0.662-0.0879 0.966-0.2636 0.305-0.1758 0.526-0.4043 0.662-0.6856v-1.3008h-0.849c-1.328 0-1.992 0.3887-1.992 1.166 0 0.3399 0.113 0.6055 0.34 0.7969 0.226 0.1914 0.517 0.2871 0.873 0.2871zm6.955 0.0586c0.386 0 0.724-0.1172 1.013-0.3515 0.289-0.2344 0.45-0.5274 0.481-0.8789h1.025c-0.019 0.3632-0.144 0.7089-0.375 1.0371-0.23 0.3281-0.539 0.5898-0.926 0.7851-0.382 0.1953-0.789 0.293-1.218 0.293-0.864 0-1.551-0.2871-2.063-0.8613-0.508-0.5782-0.762-1.3672-0.762-2.3672v-0.1817c0-0.6172 0.114-1.166 0.34-1.6465 0.227-0.4804 0.551-0.8535 0.973-1.1191 0.426-0.2656 0.928-0.3984 1.506-0.3984 0.711 0 1.301 0.2129 1.769 0.6386 0.473 0.4258 0.725 0.9786 0.756 1.6582h-1.025c-0.031-0.4101-0.188-0.746-0.469-1.0078-0.277-0.2656-0.621-0.3984-1.031-0.3984-0.551 0-0.979 0.1992-1.283 0.5976-0.301 0.3946-0.452 0.9668-0.452 1.7168v0.2051c0 0.7305 0.151 1.293 0.452 1.6875 0.3 0.3946 0.73 0.5918 1.289 0.5918zm5.209-7.1074v1.5352h1.183v0.8378h-1.183v3.9317c0 0.2539 0.052 0.4453 0.158 0.5742 0.105 0.125 0.285 0.1875 0.539 0.1875 0.125 0 0.297-0.0234 0.516-0.0703v0.8789c-0.286 0.0781-0.563 0.1172-0.833 0.1172-0.484 0-0.849-0.1465-1.095-0.4395-0.246-0.2929-0.369-0.7089-0.369-1.248v-3.9317h-1.155v-0.8378h1.155v-1.5352h1.084z"/>
<path d="m64.443 56.469 2.789 6.9609 2.7891-6.9609h1.459v8.5312h-1.125v-3.3223l0.1054-3.5859-2.8007 6.9082h-0.8614l-2.7949-6.8906 0.1113 3.5683v3.3223h-1.125v-8.5312h1.4532zm11.484 8.6484c-0.8593 0-1.5586-0.2813-2.0976-0.8438-0.5391-0.5664-0.8086-1.3222-0.8086-2.2675v-0.1993c0-0.6289 0.1191-1.1894 0.3574-1.6816 0.2422-0.4961 0.5781-0.8828 1.0078-1.1602 0.4336-0.2812 0.9024-0.4218 1.4063-0.4218 0.8242 0 1.4648 0.2715 1.9218 0.8144 0.4571 0.543 0.6856 1.3203 0.6856 2.3321v0.4511h-4.2949c0.0156 0.625 0.1972 1.1309 0.5449 1.5176 0.3516 0.3828 0.7969 0.5742 1.3359 0.5742 0.3828 0 0.7071-0.0781 0.9727-0.2344 0.2656-0.1562 0.498-0.3632 0.6972-0.621l0.6622 0.5156c-0.5313 0.8164-1.3282 1.2246-2.3907 1.2246zm-0.1347-5.6836c-0.4375 0-0.8047 0.1602-1.1016 0.4805-0.2969 0.3164-0.4805 0.7617-0.5508 1.3359h3.1758v-0.082c-0.0312-0.5508-0.1797-0.9766-0.4453-1.2774-0.2656-0.3047-0.625-0.457-1.0781-0.457zm3.6035 2.3437c0-0.9726 0.2305-1.7539 0.6914-2.3437 0.4609-0.5938 1.0644-0.8906 1.8105-0.8906 0.7422 0 1.3301 0.2539 1.7637 0.7617v-3.3047h1.084v9h-0.9961l-0.0527-0.6797c-0.4336 0.5313-1.0371 0.7969-1.8106 0.7969-0.7344 0-1.334-0.3008-1.7988-0.9024-0.4609-0.6015-0.6914-1.3867-0.6914-2.3554v-0.0821zm1.084 0.1231c0 0.7187 0.1484 1.2812 0.4453 1.6875 0.2969 0.4062 0.707 0.6094 1.2304 0.6094 0.6876 0 1.1895-0.3086 1.5059-0.9258v-2.9121c-0.3242-0.5977-0.8223-0.8965-1.4941-0.8965-0.5313 0-0.9453 0.2051-1.2422 0.6152-0.2969 0.4102-0.4453 1.0176-0.4453 1.8223zm7.1308 3.0996h-1.084v-6.3398h1.084v6.3398zm-1.1718-8.0215c0-0.1758 0.0527-0.3242 0.1582-0.4453 0.1093-0.1211 0.2695-0.1816 0.4804-0.1816 0.211 0 0.3711 0.0605 0.4805 0.1816s0.1641 0.2695 0.1641 0.4453-0.0547 0.3223-0.1641 0.4395-0.2695 0.1758-0.4805 0.1758c-0.2109 0-0.3711-0.0586-0.4804-0.1758-0.1055-0.1172-0.1582-0.2637-0.1582-0.4395zm6.8261 7.3945c-0.4218 0.4961-1.041 0.7442-1.8574 0.7442-0.6758 0-1.1914-0.1953-1.5469-0.586-0.3515-0.3945-0.5293-0.9765-0.5332-1.746v-4.125h1.084v4.0957c0 0.9609 0.3906 1.4414 1.1719 1.4414 0.8281 0 1.3789-0.3086 1.6523-0.9258v-4.6113h1.084v6.3398h-1.0312l-0.0235-0.627zm3.7266-5.7128 0.0293 0.7031c0.4648-0.5469 1.0918-0.8203 1.8808-0.8203 0.8868 0 1.4907 0.3398 1.8107 1.0195 0.211-0.3047 0.484-0.5508 0.82-0.7383 0.34-0.1875 0.74-0.2812 1.201-0.2812 1.391 0 2.098 0.7363 2.121 2.209v4.248h-1.084v-4.1836c0-0.4531-0.103-0.791-0.31-1.0137-0.207-0.2265-0.555-0.3398-1.043-0.3398-0.402 0-0.736 0.1211-1.002 0.3633-0.266 0.2383-0.42 0.5605-0.463 0.9668v4.207h-1.0897v-4.1543c0-0.9219-0.4512-1.3828-1.3535-1.3828-0.711 0-1.1973 0.3027-1.459 0.9082v4.6289h-1.084v-6.3398h1.0254zm13.858 6.3398h-1.125v-8.5312h1.125v8.5312zm2.912-6.3398 0.029 0.7031c0.465-0.5469 1.092-0.8203 1.881-0.8203 0.887 0 1.49 0.3398 1.81 1.0195 0.211-0.3047 0.485-0.5508 0.821-0.7383 0.34-0.1875 0.74-0.2812 1.201-0.2812 1.391 0 2.098 0.7363 2.121 2.209v4.248h-1.084v-4.1836c0-0.4531-0.103-0.791-0.311-1.0137-0.207-0.2265-0.554-0.3398-1.042-0.3398-0.403 0-0.737 0.1211-1.002 0.3633-0.266 0.2383-0.42 0.5605-0.463 0.9668v4.207h-1.09v-4.1543c0-0.9219-0.451-1.3828-1.354-1.3828-0.711 0-1.197 0.3027-1.459 0.9082v4.6289h-1.084v-6.3398h1.026zm14.859 3.2402c0 0.9648-0.221 1.7422-0.662 2.332-0.441 0.5899-1.039 0.8848-1.793 0.8848-0.77 0-1.375-0.2442-1.816-0.7324v3.0527h-1.084v-8.7773h0.99l0.053 0.7031c0.441-0.5469 1.054-0.8203 1.839-0.8203 0.762 0 1.364 0.2871 1.805 0.8613 0.445 0.5742 0.668 1.373 0.668 2.3965v0.0996zm-1.084-0.1231c0-0.7148-0.152-1.2793-0.457-1.6933-0.305-0.4141-0.723-0.6211-1.254-0.6211-0.656 0-1.148 0.291-1.476 0.873v3.0293c0.324 0.5782 0.82 0.8672 1.488 0.8672 0.519 0 0.932-0.2051 1.236-0.6152 0.309-0.4141 0.463-1.0274 0.463-1.8399zm6.381 3.2227c-0.063-0.125-0.113-0.3477-0.152-0.668-0.504 0.5235-1.106 0.7852-1.805 0.7852-0.625 0-1.139-0.1758-1.541-0.5274-0.399-0.3554-0.598-0.8046-0.598-1.3476 0-0.6602 0.25-1.1719 0.75-1.5352 0.504-0.3672 1.211-0.5508 2.121-0.5508h1.055v-0.498c0-0.3789-0.113-0.6797-0.34-0.9023-0.226-0.2266-0.56-0.3399-1.002-0.3399-0.386 0-0.711 0.0977-0.972 0.293-0.262 0.1953-0.393 0.4316-0.393 0.709h-1.09c0-0.3164 0.111-0.6211 0.334-0.9141 0.227-0.2969 0.531-0.5312 0.914-0.7031 0.387-0.1719 0.811-0.2578 1.272-0.2578 0.73 0 1.302 0.1836 1.717 0.5508 0.414 0.3632 0.628 0.8652 0.644 1.5058v2.918c0 0.582 0.074 1.0449 0.223 1.3886v0.0938h-1.137zm-1.799-0.8262c0.34 0 0.662-0.0879 0.967-0.2636 0.305-0.1758 0.525-0.4043 0.662-0.6856v-1.3008h-0.85c-1.328 0-1.992 0.3887-1.992 1.166 0 0.3399 0.114 0.6055 0.34 0.7969 0.227 0.1914 0.518 0.2871 0.873 0.2871zm6.955 0.0586c0.387 0 0.725-0.1172 1.014-0.3515 0.289-0.2344 0.449-0.5274 0.48-0.8789h1.026c-0.02 0.3632-0.145 0.7089-0.375 1.0371-0.231 0.3281-0.539 0.5898-0.926 0.7851-0.383 0.1953-0.789 0.293-1.219 0.293-0.863 0-1.551-0.2871-2.062-0.8613-0.508-0.5782-0.762-1.3672-0.762-2.3672v-0.1817c0-0.6172 0.113-1.166 0.34-1.6465 0.226-0.4804 0.551-0.8535 0.972-1.1191 0.426-0.2656 0.928-0.3984 1.506-0.3984 0.711 0 1.301 0.2129 1.77 0.6386 0.473 0.4258 0.724 0.9786 0.756 1.6582h-1.026c-0.031-0.4101-0.187-0.746-0.468-1.0078-0.278-0.2656-0.621-0.3984-1.032-0.3984-0.55 0-0.978 0.1992-1.283 0.5976-0.301 0.3946-0.451 0.9668-0.451 1.7168v0.2051c0 0.7305 0.15 1.293 0.451 1.6875 0.301 0.3946 0.731 0.5918 1.289 0.5918zm5.209-7.1074v1.5352h1.184v0.8378h-1.184v3.9317c0 0.2539 0.053 0.4453 0.158 0.5742 0.106 0.125 0.286 0.1875 0.539 0.1875 0.125 0 0.297-0.0234 0.516-0.0703v0.8789c-0.285 0.0781-0.562 0.1172-0.832 0.1172-0.484 0-0.85-0.1465-1.096-0.4395-0.246-0.2929-0.369-0.7089-0.369-1.248v-3.9317h-1.154v-0.8378h1.154v-1.5352h1.084z"/>
<path d="m16.676 40.432c-0.4766 0.5039-1.0332 0.7559-1.6699 0.7559-0.75 0-1.3477-0.2617-1.793-0.7852-0.4453-0.5273-0.668-1.2187-0.668-2.0742 0-0.5625 0.1133-1.0722 0.3399-1.5293 0.2265-0.457 0.5488-0.8125 0.9668-1.0664 0.4179-0.2539 0.9023-0.3808 1.4531-0.3808 0.8594 0 1.541 0.3203 2.0449 0.9609s0.7559 1.498 0.7559 2.5723v0.3984c0 1.5391-0.3477 2.7129-1.043 3.5215s-1.7324 1.2187-3.1113 1.2305h-0.17v-1.1778h0.2051c0.8399-0.0117 1.4844-0.2129 1.9336-0.6035 0.4492-0.3945 0.7012-1.0019 0.7559-1.8223zm-1.3711-0.3574c0.2851 0 0.5527-0.082 0.8027-0.2461 0.25-0.164 0.4434-0.3906 0.5801-0.6797v-0.5566c0-0.6289-0.1289-1.1348-0.3867-1.5176s-0.5918-0.5742-1.002-0.5742c-0.4101 0-0.7383 0.1699-0.9843 0.5098-0.2422 0.3359-0.3633 0.7617-0.3633 1.2773 0 0.5352 0.123 0.9668 0.3691 1.2949 0.2461 0.3282 0.5742 0.4922 0.9844 0.4922zm9.7148 0.334c0 1.2266-0.2304 2.1523-0.6914 2.7773-0.457 0.6211-1.1543 0.9317-2.0918 0.9317-0.9218 0-1.6172-0.3027-2.0859-0.9082-0.4649-0.6094-0.7031-1.5098-0.7149-2.7012v-1.4766c0-1.2265 0.2286-2.1464 0.6856-2.7597 0.4609-0.6133 1.1621-0.9199 2.1035-0.9199 0.9336 0 1.6289 0.2988 2.0859 0.8964 0.461 0.5977 0.6973 1.4922 0.709 2.6836v1.4766zm-1.4238-1.5937c0-0.8008-0.1094-1.3868-0.3281-1.7579-0.2188-0.375-0.5664-0.5625-1.043-0.5625-0.4648 0-0.8066 0.1778-1.0254 0.5332-0.2187 0.3516-0.334 0.9024-0.3457 1.6524v1.9336c0 0.7969 0.1113 1.3906 0.334 1.7812 0.2227 0.3907 0.5723 0.586 1.0488 0.586 0.4571 0 0.7949-0.1797 1.0137-0.5391 0.2188-0.3633 0.334-0.9297 0.3457-1.6992v-1.9277zm5.5371 2.1328h-3.0762v-1.1485h3.0762v1.1485zm4.9395 3.0527h-1.418v-6.8496l-2.0918 0.7148v-1.2011l3.3281-1.2246h0.1817v8.5605zm8.5254-3.5918c0 1.2266-0.2305 2.1523-0.6915 2.7773-0.457 0.6211-1.1542 0.9317-2.0917 0.9317-0.9219 0-1.6172-0.3027-2.086-0.9082-0.4648-0.6094-0.7031-1.5098-0.7148-2.7012v-1.4766c0-1.2265 0.2285-2.1464 0.6855-2.7597 0.461-0.6133 1.1621-0.9199 2.1035-0.9199 0.9336 0 1.6289 0.2988 2.086 0.8964 0.4609 0.5977 0.6972 1.4922 0.709 2.6836v1.4766zm-1.4239-1.5937c0-0.8008-0.1093-1.3868-0.3281-1.7579-0.2187-0.375-0.5664-0.5625-1.043-0.5625-0.4648 0-0.8066 0.1778-1.0254 0.5332-0.2187 0.3516-0.3339 0.9024-0.3457 1.6524v1.9336c0 0.7969 0.1114 1.3906 0.334 1.7812 0.2227 0.3907 0.5723 0.586 1.0489 0.586 0.457 0 0.7949-0.1797 1.0136-0.5391 0.2188-0.3633 0.334-0.9297 0.3457-1.6992v-1.9277zm8.2442 1.5937c0 1.2266-0.2305 2.1523-0.6914 2.7773-0.4571 0.6211-1.1543 0.9317-2.0918 0.9317-0.9219 0-1.6172-0.3027-2.086-0.9082-0.4648-0.6094-0.7031-1.5098-0.7148-2.7012v-1.4766c0-1.2265 0.2285-2.1464 0.6855-2.7597 0.461-0.6133 1.1621-0.9199 2.1035-0.9199 0.9336 0 1.629 0.2988 2.086 0.8964 0.4609 0.5977 0.6972 1.4922 0.709 2.6836v1.4766zm-1.4239-1.5937c0-0.8008-0.1093-1.3868-0.3281-1.7579-0.2187-0.375-0.5664-0.5625-1.043-0.5625-0.4648 0-0.8066 0.1778-1.0253 0.5332-0.2188 0.3516-0.334 0.9024-0.3457 1.6524v1.9336c0 0.7969 0.1113 1.3906 0.3339 1.7812 0.2227 0.3907 0.5723 0.586 1.0489 0.586 0.457 0 0.7949-0.1797 1.0136-0.5391 0.2188-0.3633 0.334-0.9297 0.3457-1.6992v-1.9277z" fill="#265DE3"/>
<path d="m19.459 16.158c-0.0664 0.918-0.4063 1.6406-1.0195 2.168-0.6094 0.5273-1.4141 0.791-2.4141 0.791-1.0938 0-1.9551-0.3672-2.584-1.1016-0.625-0.7383-0.9375-1.75-0.9375-3.0351v-0.5215c0-0.8203 0.1445-1.543 0.4336-2.168s0.7012-1.1035 1.2363-1.4355c0.5391-0.336 1.1641-0.5039 1.875-0.5039 0.9844 0 1.7774 0.2636 2.3789 0.791 0.6016 0.5273 0.9493 1.2676 1.043 2.2207h-1.7578c-0.043-0.5508-0.1973-0.9492-0.4629-1.1953-0.2617-0.25-0.6621-0.375-1.2012-0.375-0.5859 0-1.0254 0.2109-1.3183 0.6328-0.2891 0.418-0.4375 1.0683-0.4453 1.9512v0.6445c0 0.9219 0.1386 1.5957 0.416 2.0215 0.2812 0.4258 0.7226 0.6386 1.3242 0.6386 0.543 0 0.9473-0.123 1.2129-0.3691 0.2695-0.25 0.4238-0.6348 0.4629-1.1543h1.7578zm0.7793-0.3867c0-0.6289 0.1211-1.1895 0.3633-1.6817 0.2422-0.4921 0.5898-0.873 1.0429-1.1425 0.4571-0.2696 0.9864-0.4043 1.5879-0.4043 0.8555 0 1.5528 0.2617 2.0918 0.7851 0.543 0.5235 0.8457 1.2344 0.9082 2.1328l0.0117 0.4336c0 0.9727-0.2714 1.7539-0.8144 2.3438-0.543 0.5859-1.2715 0.8789-2.1856 0.8789-0.914 0-1.6445-0.293-2.1914-0.8789-0.5429-0.586-0.8144-1.3828-0.8144-2.3906v-0.0762zm1.6933 0.123c0 0.6016 0.1133 1.0625 0.3399 1.3828 0.2265 0.3165 0.5508 0.4747 0.9726 0.4747 0.4102 0 0.7305-0.1563 0.961-0.4688 0.2304-0.3164 0.3457-0.8203 0.3457-1.5117 0-0.5899-0.1153-1.0469-0.3457-1.3711-0.2305-0.3242-0.5547-0.4863-0.9727-0.4863-0.414 0-0.7344 0.1621-0.9609 0.4863-0.2266 0.3203-0.3399 0.8184-0.3399 1.4941zm6.9141-3.2343 0.0527 0.7324c0.4532-0.5664 1.0606-0.8496 1.8223-0.8496 0.6719 0 1.1719 0.1972 1.5 0.5918 0.3281 0.3945 0.4961 0.9843 0.5039 1.7695v4.0957h-1.6934v-4.0547c0-0.3594-0.0781-0.6191-0.2343-0.7793-0.1563-0.164-0.416-0.2461-0.7793-0.2461-0.4766 0-0.834 0.2031-1.0723 0.6094v4.4707h-1.6933v-6.3398h1.5937zm7.541 4.2714 1.1778-4.2714h1.7695l-2.1387 6.3398h-1.6172l-2.1386-6.3398h1.7695l1.1777 4.2714zm6.5332 2.1856c-0.9297 0-1.6875-0.2852-2.2734-0.8555-0.582-0.5703-0.8731-1.3301-0.8731-2.2793v-0.164c0-0.6368 0.1231-1.2051 0.3692-1.7051 0.2461-0.5039 0.5937-0.8906 1.0429-1.1602 0.4532-0.2734 0.9688-0.4101 1.5469-0.4101 0.8672 0 1.5488 0.2734 2.0449 0.8203 0.5 0.5469 0.75 1.3222 0.75 2.3262v0.6914h-4.0371c0.0547 0.414 0.2188 0.7461 0.4922 0.9961 0.2774 0.25 0.627 0.375 1.0488 0.375 0.6524 0 1.1622-0.2364 1.5293-0.709l0.8321 0.9316c-0.2539 0.3594-0.5977 0.6406-1.0313 0.8438-0.4336 0.1992-0.914 0.2988-1.4414 0.2988zm-0.1933-5.2031c-0.336 0-0.6094 0.1132-0.8204 0.3398-0.207 0.2266-0.3398 0.5508-0.3984 0.9727h2.3555v-0.1348c-0.0078-0.375-0.1094-0.6641-0.3047-0.8672-0.1953-0.207-0.4727-0.3105-0.832-0.3105zm7.33 0.3339c-0.2304-0.0312-0.4336-0.0468-0.6093-0.0468-0.6407 0-1.0606 0.2168-1.2598 0.6504v4.1484h-1.6934v-6.3398h1.5997l0.0468 0.7558c0.3399-0.582 0.8106-0.873 1.4121-0.873 0.1875 0 0.3633 0.0254 0.5274 0.0761l-0.0235 1.6289zm4.2539 3c0-0.207-0.1035-0.3691-0.3105-0.4863-0.2031-0.1211-0.5312-0.2285-0.9844-0.3222-1.5078-0.3165-2.2617-0.9571-2.2617-1.9219 0-0.5625 0.2324-1.0313 0.6973-1.4063 0.4687-0.3789 1.08-0.5683 1.834-0.5683 0.8046 0 1.4472 0.1894 1.9277 0.5683 0.4844 0.3789 0.7266 0.8711 0.7266 1.4766h-1.6934c0-0.2422-0.0781-0.4414-0.2344-0.5977-0.1562-0.1601-0.4004-0.2402-0.7324-0.2402-0.2852 0-0.5059 0.0645-0.6621 0.1934-0.1563 0.1289-0.2344 0.2929-0.2344 0.4921 0 0.1875 0.0879 0.3399 0.2637 0.4571 0.1797 0.1133 0.4805 0.2129 0.9023 0.2988 0.4219 0.082 0.7774 0.1758 1.0664 0.2813 0.8946 0.3281 1.3418 0.8964 1.3418 1.705 0 0.5782-0.248 1.0469-0.7441 1.4063-0.4961 0.3555-1.1367 0.5332-1.9219 0.5332-0.5312 0-1.0039-0.0938-1.418-0.2813-0.4101-0.1914-0.7324-0.4511-0.9668-0.7793-0.2343-0.332-0.3515-0.6894-0.3515-1.0722h1.6055c0.0156 0.3008 0.1269 0.5312 0.3339 0.6914 0.2071 0.1601 0.4844 0.2402 0.8321 0.2402 0.3242 0 0.5683-0.0605 0.7324-0.1816 0.168-0.125 0.2519-0.2871 0.2519-0.4864zm4.5293 1.752h-1.6992v-6.3398h1.6992v6.3398zm-1.7988-7.9805c0-0.2539 0.084-0.4629 0.252-0.6269 0.1718-0.1641 0.4043-0.2461 0.6972-0.2461 0.2891 0 0.5196 0.082 0.6914 0.2461 0.1719 0.164 0.2579 0.373 0.2579 0.6269 0 0.2578-0.0879 0.4688-0.2637 0.6328-0.1719 0.1641-0.4004 0.2461-0.6856 0.2461-0.2851 0-0.5156-0.082-0.6914-0.2461-0.1718-0.164-0.2578-0.375-0.2578-0.6328zm2.9356 4.752c0-0.6289 0.1211-1.1895 0.3632-1.6817 0.2422-0.4921 0.5899-0.873 1.043-1.1425 0.457-0.2696 0.9863-0.4043 1.5879-0.4043 0.8555 0 1.5527 0.2617 2.0918 0.7851 0.543 0.5235 0.8457 1.2344 0.9082 2.1328l0.0117 0.4336c0 0.9727-0.2715 1.7539-0.8144 2.3438-0.543 0.5859-1.2715 0.8789-2.1856 0.8789-0.914 0-1.6445-0.293-2.1914-0.8789-0.543-0.586-0.8144-1.3828-0.8144-2.3906v-0.0762zm1.6933 0.123c0 0.6016 0.1133 1.0625 0.3399 1.3828 0.2265 0.3165 0.5507 0.4747 0.9726 0.4747 0.4102 0 0.7305-0.1563 0.961-0.4688 0.2304-0.3164 0.3457-0.8203 0.3457-1.5117 0-0.5899-0.1153-1.0469-0.3457-1.3711-0.2305-0.3242-0.5547-0.4863-0.9727-0.4863-0.4141 0-0.7344 0.1621-0.9609 0.4863-0.2266 0.3203-0.3399 0.8184-0.3399 1.4941zm6.9141-3.2343 0.0527 0.7324c0.4531-0.5664 1.0606-0.8496 1.8223-0.8496 0.6719 0 1.1719 0.1972 1.5 0.5918 0.3281 0.3945 0.4961 0.9843 0.5039 1.7695v4.0957h-1.6934v-4.0547c0-0.3594-0.0781-0.6191-0.2343-0.7793-0.1563-0.164-0.4161-0.2461-0.7793-0.2461-0.4766 0-0.834 0.2031-1.0723 0.6094v4.4707h-1.6934v-6.3398h1.5938zm12.691 4.1015c0-0.332-0.1172-0.5859-0.3516-0.7617-0.2343-0.1797-0.6562-0.3672-1.2656-0.5625-0.6094-0.1992-1.0918-0.3945-1.4473-0.5859-0.9687-0.5235-1.4531-1.2286-1.4531-2.1153 0-0.4609 0.1289-0.8711 0.3867-1.2304 0.2617-0.3633 0.6348-0.6465 1.1192-0.8497 0.4883-0.2031 1.0351-0.3046 1.6406-0.3046 0.6094 0 1.1523 0.1113 1.6289 0.3339 0.4766 0.2188 0.8457 0.5293 1.1074 0.9317 0.2656 0.4023 0.3985 0.8594 0.3985 1.3711h-1.7579c0-0.3906-0.123-0.6934-0.3691-0.9082-0.2461-0.2188-0.5918-0.3281-1.0371-0.3281-0.4297 0-0.7637 0.0918-1.002 0.2753-0.2382 0.1797-0.3574 0.418-0.3574 0.7149 0 0.2773 0.1387 0.5098 0.416 0.6973 0.2813 0.1875 0.6934 0.3632 1.2364 0.5273 1 0.3008 1.7285 0.6738 2.1855 1.1191s0.6856 1 0.6856 1.6641c0 0.7383-0.2793 1.3184-0.8379 1.7402-0.5586 0.418-1.3106 0.627-2.2559 0.627-0.6562 0-1.2539-0.1192-1.793-0.3574-0.539-0.2422-0.9511-0.5723-1.2363-0.9903-0.2812-0.4179-0.4219-0.9023-0.4219-1.4531h1.7637c0 0.9414 0.5625 1.4121 1.6875 1.4121 0.418 0 0.7442-0.084 0.9785-0.2519 0.2344-0.1719 0.3516-0.4102 0.3516-0.7149zm5.4844 0.9903c0.3125 0 0.5664-0.086 0.7617-0.2579 0.1953-0.1718 0.2969-0.4003 0.3047-0.6855h1.5879c-0.0039 0.4297-0.1211 0.8242-0.3516 1.1836-0.2305 0.3555-0.5469 0.6328-0.9492 0.832-0.3985 0.1953-0.8399 0.293-1.3242 0.293-0.9063 0-1.6211-0.2871-2.1446-0.8613-0.5234-0.5782-0.7851-1.375-0.7851-2.3907v-0.1113c0-0.9766 0.2597-1.7559 0.7793-2.3379 0.5195-0.582 1.2324-0.873 2.1386-0.873 0.793 0 1.4278 0.2265 1.9043 0.6797 0.4805 0.4492 0.7246 1.0488 0.7325 1.7988h-1.5879c-0.0078-0.3281-0.1094-0.5938-0.3047-0.7969-0.1953-0.207-0.4531-0.3105-0.7735-0.3105-0.3945 0-0.6933 0.1445-0.8964 0.4336-0.1993 0.2851-0.2989 0.75-0.2989 1.3945v0.1758c0 0.6523 0.0996 1.1211 0.2989 1.4062 0.1992 0.2852 0.5019 0.4278 0.9082 0.4278zm3.3574-1.9805c0-0.6289 0.1211-1.1895 0.3633-1.6817 0.2422-0.4921 0.5898-0.873 1.0429-1.1425 0.4571-0.2696 0.9864-0.4043 1.5879-0.4043 0.8555 0 1.5528 0.2617 2.0918 0.7851 0.543 0.5235 0.8457 1.2344 0.9082 2.1328l0.0117 0.4336c0 0.9727-0.2714 1.7539-0.8144 2.3438-0.543 0.5859-1.2715 0.8789-2.1856 0.8789-0.914 0-1.6445-0.293-2.1914-0.8789-0.5429-0.586-0.8144-1.3828-0.8144-2.3906v-0.0762zm1.6933 0.123c0 0.6016 0.1133 1.0625 0.3399 1.3828 0.2266 0.3165 0.5508 0.4747 0.9726 0.4747 0.4102 0 0.7305-0.1563 0.961-0.4688 0.2305-0.3164 0.3457-0.8203 0.3457-1.5117 0-0.5899-0.1152-1.0469-0.3457-1.3711s-0.5547-0.4863-0.9727-0.4863c-0.414 0-0.7343 0.1621-0.9609 0.4863-0.2266 0.3203-0.3399 0.8184-0.3399 1.4941zm8.9185-1.6465c-0.231-0.0312-0.434-0.0468-0.61-0.0468-0.6405 0-1.0604 0.2168-1.2596 0.6504v4.1484h-1.6934v-6.3398h1.5996l0.0469 0.7558c0.3398-0.582 0.8105-0.873 1.4125-0.873 0.187 0 0.363 0.0254 0.527 0.0761l-0.023 1.6289zm2.607 4.752h-1.699v-6.3398h1.699v6.3398zm-1.799-7.9805c0-0.2539 0.084-0.4629 0.252-0.6269 0.172-0.1641 0.404-0.2461 0.697-0.2461 0.289 0 0.52 0.082 0.692 0.2461 0.172 0.164 0.258 0.373 0.258 0.6269 0 0.2578-0.088 0.4688-0.264 0.6328-0.172 0.1641-0.401 0.2461-0.686 0.2461s-0.515-0.082-0.691-0.2461c-0.172-0.164-0.258-0.375-0.258-0.6328zm4.758 1.6407 0.053 0.7324c0.453-0.5664 1.06-0.8496 1.822-0.8496 0.672 0 1.172 0.1972 1.5 0.5918 0.328 0.3945 0.496 0.9843 0.504 1.7695v4.0957h-1.694v-4.0547c0-0.3594-0.078-0.6191-0.234-0.7793-0.156-0.164-0.416-0.2461-0.779-0.2461-0.477 0-0.834 0.2031-1.072 0.6094v4.4707h-1.694v-6.3398h1.594zm4.922 3.123c0-0.9727 0.23-1.7559 0.691-2.3496 0.465-0.5938 1.09-0.8906 1.875-0.8906 0.696 0 1.237 0.2382 1.623 0.7148l0.071-0.5976h1.535v6.1289c0 0.5547-0.127 1.0371-0.381 1.4472-0.25 0.4102-0.604 0.7227-1.061 0.9375-0.457 0.2149-0.992 0.3223-1.605 0.3223-0.465 0-0.918-0.0938-1.36-0.2813-0.441-0.1836-0.775-0.4218-1.001-0.7148l0.75-1.0312c0.421 0.4726 0.933 0.7089 1.535 0.7089 0.449 0 0.799-0.1211 1.049-0.3632 0.25-0.2383 0.374-0.5782 0.374-1.0196v-0.3398c-0.39 0.4414-0.904 0.6621-1.541 0.6621-0.761 0-1.378-0.2969-1.851-0.8906-0.469-0.5977-0.703-1.3887-0.703-2.3731v-0.0703zm1.693 0.123c0 0.5743 0.115 1.0254 0.346 1.3536 0.23 0.3242 0.547 0.4863 0.949 0.4863 0.516 0 0.885-0.1934 1.107-0.5801v-2.666c-0.226-0.3867-0.591-0.5801-1.095-0.5801-0.406 0-0.727 0.166-0.961 0.4981-0.231 0.332-0.346 0.8281-0.346 1.4882z"/>
<path d="m17.068 56.428v1.1778h-0.1758c-0.7969 0.0117-1.4336 0.2304-1.9102 0.6562-0.4765 0.4258-0.7597 1.0293-0.8496 1.8106 0.457-0.4805 1.041-0.7207 1.752-0.7207 0.7539 0 1.3476 0.2656 1.7812 0.7968 0.4375 0.5313 0.6563 1.2168 0.6563 2.0567 0 0.8672-0.2559 1.5703-0.7676 2.1094-0.5078 0.5351-1.1758 0.8027-2.0039 0.8027-0.8516 0-1.543-0.3145-2.0742-0.9434-0.5274-0.6289-0.7911-1.4531-0.7911-2.4726v-0.4864c0-1.496 0.3633-2.6679 1.0899-3.5156 0.7305-0.8476 1.7793-1.2715 3.1465-1.2715h0.1465zm-1.5293 4.0723c-0.3125 0-0.5996 0.0879-0.8614 0.2637-0.2578 0.1758-0.4472 0.4101-0.5683 0.7031v0.4336c0 0.6328 0.1328 1.1367 0.3984 1.5117 0.2656 0.3711 0.6094 0.5567 1.0313 0.5567 0.4218 0 0.7558-0.1583 1.0019-0.4747s0.3692-0.7324 0.3692-1.248-0.125-0.9356-0.375-1.2598-0.5821-0.4863-0.9961-0.4863zm9.4804 0.9082c0 1.2266-0.2304 2.1523-0.6914 2.7773-0.457 0.6211-1.1543 0.9317-2.0918 0.9317-0.9218 0-1.6172-0.3027-2.0859-0.9082-0.4649-0.6094-0.7031-1.5098-0.7149-2.7012v-1.4766c0-1.2265 0.2286-2.1464 0.6856-2.7597 0.4609-0.6133 1.1621-0.9199 2.1035-0.9199 0.9336 0 1.6289 0.2988 2.0859 0.8964 0.461 0.5977 0.6973 1.4922 0.709 2.6836v1.4766zm-1.4238-1.5937c0-0.8008-0.1094-1.3868-0.3281-1.7579-0.2188-0.375-0.5664-0.5625-1.043-0.5625-0.4648 0-0.8066 0.1778-1.0254 0.5332-0.2187 0.3516-0.334 0.9024-0.3457 1.6524v1.9336c0 0.7969 0.1113 1.3906 0.334 1.7812 0.2227 0.3907 0.5723 0.586 1.0488 0.586 0.4571 0 0.7949-0.1797 1.0137-0.5391 0.2188-0.3633 0.334-0.9297 0.3457-1.6992v-1.9277zm5.5371 2.1328h-3.0762v-1.1485h3.0762v1.1485zm6.457-3.2285c0 0.4179-0.1074 0.791-0.3222 1.1191-0.2149 0.3242-0.5078 0.5801-0.8789 0.7676 0.4453 0.207 0.7871 0.4902 1.0254 0.8496 0.2421 0.3594 0.3632 0.7656 0.3632 1.2187 0 0.75-0.2539 1.3457-0.7617 1.7871-0.5078 0.4375-1.1836 0.6563-2.0273 0.6563-0.8477 0-1.5274-0.2207-2.0391-0.6621-0.5078-0.4414-0.7617-1.0352-0.7617-1.7813 0-0.457 0.1211-0.8672 0.3633-1.2304 0.2422-0.3633 0.582-0.6426 1.0195-0.8379-0.3672-0.1875-0.6582-0.4434-0.873-0.7676-0.211-0.3281-0.3164-0.7012-0.3164-1.1191 0-0.7266 0.2343-1.3028 0.7031-1.7286 0.4687-0.4257 1.1015-0.6386 1.8984-0.6386 0.8008 0 1.4356 0.2129 1.9043 0.6386 0.4688 0.4258 0.7031 1.002 0.7031 1.7286zm-1.2363 3.8847c0-0.4219-0.1269-0.7617-0.3808-1.0195-0.25-0.2617-0.5821-0.3926-0.9961-0.3926-0.4141 0-0.7461 0.1289-0.9961 0.3867-0.2461 0.2578-0.3692 0.5996-0.3692 1.0254 0 0.418 0.1211 0.752 0.3633 1.002 0.2461 0.25 0.584 0.375 1.0137 0.375s0.7637-0.1211 1.0019-0.3633c0.2422-0.2422 0.3633-0.5801 0.3633-1.0137zm-0.1816-3.832c0-0.3711-0.1074-0.6758-0.3223-0.9141-0.2148-0.2422-0.5039-0.3633-0.8672-0.3633s-0.6504 0.1153-0.8613 0.3457c-0.2109 0.2266-0.3164 0.5372-0.3164 0.9317 0 0.3906 0.1055 0.7012 0.3164 0.9316 0.2148 0.2305 0.5039 0.3457 0.8672 0.3457s0.6504-0.1152 0.8613-0.3457c0.2149-0.2304 0.3223-0.541 0.3223-0.9316zm8.4258 2.6367c0 1.2266-0.2305 2.1523-0.6915 2.7773-0.457 0.6211-1.1542 0.9317-2.0917 0.9317-0.9219 0-1.6172-0.3027-2.086-0.9082-0.4648-0.6094-0.7031-1.5098-0.7148-2.7012v-1.4766c0-1.2265 0.2285-2.1464 0.6855-2.7597 0.461-0.6133 1.1621-0.9199 2.1035-0.9199 0.9336 0 1.6289 0.2988 2.086 0.8964 0.4609 0.5977 0.6972 1.4922 0.709 2.6836v1.4766zm-1.4239-1.5937c0-0.8008-0.1093-1.3868-0.3281-1.7579-0.2187-0.375-0.5664-0.5625-1.043-0.5625-0.4648 0-0.8066 0.1778-1.0254 0.5332-0.2187 0.3516-0.3339 0.9024-0.3457 1.6524v1.9336c0 0.7969 0.1114 1.3906 0.334 1.7812 0.2227 0.3907 0.5723 0.586 1.0489 0.586 0.457 0 0.7949-0.1797 1.0136-0.5391 0.2188-0.3633 0.334-0.9297 0.3457-1.6992v-1.9277z" fill="#265DE3"/>
<path d="m18.199 83.408c0 1.2266-0.2304 2.1523-0.6914 2.7773-0.457 0.6211-1.1543 0.9317-2.0918 0.9317-0.9219 0-1.6172-0.3027-2.0859-0.9082-0.4649-0.6094-0.7031-1.5098-0.7149-2.7012v-1.4766c0-1.2265 0.2286-2.1464 0.6856-2.7597 0.4609-0.6133 1.1621-0.9199 2.1035-0.9199 0.9336 0 1.6289 0.2988 2.0859 0.8964 0.461 0.5977 0.6973 1.4922 0.709 2.6836v1.4766zm-1.4238-1.5937c0-0.8008-0.1094-1.3868-0.3281-1.7579-0.2188-0.375-0.5664-0.5625-1.043-0.5625-0.4648 0-0.8066 0.1778-1.0254 0.5332-0.2187 0.3516-0.334 0.9024-0.3457 1.6524v1.9336c0 0.7969 0.1113 1.3906 0.334 1.7812 0.2226 0.3907 0.5723 0.586 1.0488 0.586 0.457 0 0.7949-0.1797 1.0137-0.5391 0.2187-0.3633 0.334-0.9297 0.3457-1.6992v-1.9277zm5.5371 2.1328h-3.0762v-1.1485h3.0762v1.1485zm5.5137-5.5196v1.1778h-0.1758c-0.7969 0.0117-1.4336 0.2304-1.9102 0.6562-0.4765 0.4258-0.7597 1.0293-0.8496 1.8106 0.4571-0.4805 1.041-0.7207 1.752-0.7207 0.7539 0 1.3476 0.2656 1.7812 0.7968 0.4375 0.5313 0.6563 1.2168 0.6563 2.0567 0 0.8672-0.2559 1.5703-0.7676 2.1094-0.5078 0.5351-1.1758 0.8027-2.0039 0.8027-0.8516 0-1.543-0.3145-2.0742-0.9434-0.5274-0.6289-0.791-1.4531-0.791-2.4726v-0.4864c0-1.496 0.3632-2.6679 1.0898-3.5156 0.7305-0.8476 1.7793-1.2715 3.1465-1.2715h0.1465zm-1.5293 4.0723c-0.3125 0-0.5996 0.0879-0.8614 0.2637-0.2578 0.1758-0.4472 0.4101-0.5683 0.7031v0.4336c0 0.6328 0.1328 1.1367 0.3984 1.5117 0.2656 0.3711 0.6094 0.5567 1.0313 0.5567s0.7558-0.1583 1.0019-0.4747 0.3692-0.7324 0.3692-1.248-0.125-0.9356-0.375-1.2598-0.5821-0.4863-0.9961-0.4863zm9.4804 0.9082c0 1.2266-0.2304 2.1523-0.6914 2.7773-0.457 0.6211-1.1543 0.9317-2.0918 0.9317-0.9218 0-1.6171-0.3027-2.0859-0.9082-0.4648-0.6094-0.7031-1.5098-0.7148-2.7012v-1.4766c0-1.2265 0.2285-2.1464 0.6855-2.7597 0.4609-0.6133 1.1621-0.9199 2.1035-0.9199 0.9336 0 1.6289 0.2988 2.086 0.8964 0.4609 0.5977 0.6972 1.4922 0.7089 2.6836v1.4766zm-1.4238-1.5937c0-0.8008-0.1094-1.3868-0.3281-1.7579-0.2188-0.375-0.5664-0.5625-1.043-0.5625-0.4648 0-0.8066 0.1778-1.0254 0.5332-0.2187 0.3516-0.334 0.9024-0.3457 1.6524v1.9336c0 0.7969 0.1114 1.3906 0.334 1.7812 0.2227 0.3907 0.5723 0.586 1.0488 0.586 0.4571 0 0.795-0.1797 1.0137-0.5391 0.2188-0.3633 0.334-0.9297 0.3457-1.6992v-1.9277z" fill="#265DE3"/>
<path d="m69.547 43h-1.1309v-3.9434h-4.3008v3.9434h-1.125v-8.5312h1.125v3.6679h4.3008v-3.6679h1.1309v8.5312zm3.0058 0h-1.0839v-6.3398h1.0839v6.3398zm-1.1718-8.0215c0-0.1758 0.0527-0.3242 0.1582-0.4453 0.1093-0.1211 0.2695-0.1816 0.4804-0.1816 0.211 0 0.3711 0.0605 0.4805 0.1816s0.1641 0.2695 0.1641 0.4453-0.0547 0.3223-0.1641 0.4395-0.2695 0.1758-0.4805 0.1758c-0.2109 0-0.3711-0.0586-0.4804-0.1758-0.1055-0.1172-0.1582-0.2637-0.1582-0.4395zm2.6543 4.7988c0-0.9882 0.2285-1.7734 0.6855-2.3554 0.457-0.586 1.0625-0.8789 1.8164-0.8789 0.7734 0 1.377 0.2734 1.8106 0.8203l0.0527-0.7031h0.9902v6.1875c0 0.8203-0.2441 1.4668-0.7324 1.9394-0.4844 0.4727-1.1367 0.709-1.957 0.709-0.4571 0-0.9043-0.0977-1.3418-0.293s-0.7715-0.4629-1.002-0.8027l0.5625-0.6504c0.4649 0.5742 1.0332 0.8613 1.7051 0.8613 0.5273 0 0.9375-0.1484 1.2305-0.4453 0.2968-0.2969 0.4453-0.7148 0.4453-1.2539v-0.5449c-0.4336 0.5-1.0254 0.75-1.7754 0.75-0.7422 0-1.3438-0.2988-1.8047-0.8965-0.457-0.5977-0.6855-1.4121-0.6855-2.4434zm1.0898 0.1231c0 0.7148 0.1465 1.2773 0.4395 1.6875 0.2929 0.4062 0.7031 0.6094 1.2304 0.6094 0.6836 0 1.1856-0.3106 1.5059-0.9317v-2.8945c-0.332-0.6055-0.8301-0.9082-1.4942-0.9082-0.5273 0-0.9394 0.2051-1.2363 0.6152-0.2969 0.4102-0.4453 1.0176-0.4453 1.8223zm6.9902-2.4727c0.4805-0.5898 1.1055-0.8847 1.875-0.8847 1.3399 0 2.0157 0.7558 2.0274 2.2675v4.1895h-1.084v-4.1953c-0.0039-0.457-0.1094-0.7949-0.3164-1.0137-0.2031-0.2187-0.5215-0.3281-0.9551-0.3281-0.3516 0-0.6601 0.0937-0.9258 0.2812-0.2656 0.1875-0.4726 0.4336-0.6211 0.7383v4.5176h-1.084v-9h1.084v3.4277zm9.8789 5.5723h-1.125v-8.5312h1.125v8.5312zm2.9121-6.3398 0.0293 0.7031c0.4649-0.5469 1.0918-0.8203 1.8809-0.8203 0.8867 0 1.4902 0.3398 1.8106 1.0195 0.2109-0.3047 0.4843-0.5508 0.8203-0.7383 0.3398-0.1875 0.7407-0.2812 1.2007-0.2812 1.391 0 2.098 0.7363 2.122 2.209v4.248h-1.084v-4.1836c0-0.4531-0.104-0.791-0.311-1.0137-0.207-0.2265-0.555-0.3398-1.043-0.3398-0.4023 0-0.7363 0.1211-1.0019 0.3633-0.2656 0.2383-0.4199 0.5605-0.4629 0.9668v4.207h-1.0899v-4.1543c0-0.9219-0.4511-1.3828-1.3535-1.3828-0.7109 0-1.1972 0.3027-1.459 0.9082v4.6289h-1.0839v-6.3398h1.0253zm14.86 3.2402c0 0.9648-0.221 1.7422-0.662 2.332-0.442 0.5899-1.04 0.8848-1.793 0.8848-0.77 0-1.375-0.2442-1.817-0.7324v3.0527h-1.084v-8.7773h0.99l0.053 0.7031c0.442-0.5469 1.055-0.8203 1.84-0.8203 0.762 0 1.363 0.2871 1.805 0.8613 0.445 0.5742 0.668 1.373 0.668 2.3965v0.0996zm-1.084-0.1231c0-0.7148-0.153-1.2793-0.457-1.6933-0.305-0.4141-0.723-0.6211-1.254-0.6211-0.657 0-1.149 0.291-1.477 0.873v3.0293c0.324 0.5782 0.82 0.8672 1.488 0.8672 0.52 0 0.932-0.2051 1.237-0.6152 0.308-0.4141 0.463-1.0274 0.463-1.8399zm6.38 3.2227c-0.062-0.125-0.113-0.3477-0.152-0.668-0.504 0.5235-1.105 0.7852-1.805 0.7852-0.625 0-1.138-0.1758-1.541-0.5274-0.398-0.3554-0.597-0.8046-0.597-1.3476 0-0.6602 0.25-1.1719 0.75-1.5352 0.504-0.3672 1.211-0.5508 2.121-0.5508h1.055v-0.498c0-0.3789-0.114-0.6797-0.34-0.9023-0.227-0.2266-0.561-0.3399-1.002-0.3399-0.387 0-0.711 0.0977-0.973 0.293s-0.392 0.4316-0.392 0.709h-1.09c0-0.3164 0.111-0.6211 0.334-0.9141 0.226-0.2969 0.531-0.5312 0.914-0.7031 0.386-0.1719 0.81-0.2578 1.271-0.2578 0.731 0 1.303 0.1836 1.717 0.5508 0.414 0.3632 0.629 0.8652 0.645 1.5058v2.918c0 0.582 0.074 1.0449 0.222 1.3886v0.0938h-1.137zm-1.798-0.8262c0.34 0 0.662-0.0879 0.966-0.2636 0.305-0.1758 0.526-0.4043 0.663-0.6856v-1.3008h-0.85c-1.328 0-1.992 0.3887-1.992 1.166 0 0.3399 0.113 0.6055 0.34 0.7969 0.226 0.1914 0.517 0.2871 0.873 0.2871zm6.955 0.0586c0.386 0 0.724-0.1172 1.013-0.3515 0.289-0.2344 0.45-0.5274 0.481-0.8789h1.025c-0.019 0.3632-0.144 0.7089-0.375 1.0371-0.23 0.3281-0.539 0.5898-0.925 0.7851-0.383 0.1953-0.79 0.293-1.219 0.293-0.864 0-1.551-0.2871-2.063-0.8613-0.508-0.5782-0.761-1.3672-0.761-2.3672v-0.1817c0-0.6172 0.113-1.166 0.339-1.6465 0.227-0.4804 0.551-0.8535 0.973-1.1191 0.426-0.2656 0.928-0.3984 1.506-0.3984 0.711 0 1.301 0.2129 1.769 0.6386 0.473 0.4258 0.725 0.9786 0.756 1.6582h-1.025c-0.031-0.4101-0.188-0.746-0.469-1.0078-0.277-0.2656-0.621-0.3984-1.031-0.3984-0.551 0-0.979 0.1992-1.283 0.5976-0.301 0.3946-0.451 0.9668-0.451 1.7168v0.2051c0 0.7305 0.15 1.293 0.451 1.6875 0.3 0.3946 0.73 0.5918 1.289 0.5918zm5.209-7.1074v1.5352h1.183v0.8378h-1.183v3.9317c0 0.2539 0.052 0.4453 0.158 0.5742 0.105 0.125 0.285 0.1875 0.539 0.1875 0.125 0 0.297-0.0234 0.516-0.0703v0.8789c-0.286 0.0781-0.563 0.1172-0.832 0.1172-0.485 0-0.85-0.1465-1.096-0.4395-0.246-0.2929-0.369-0.7089-0.369-1.248v-3.9317h-1.155v-0.8378h1.155v-1.5352h1.084z"/>
</svg>

