<svg width="316" height="43" viewBox="0 0 316 43" fill="none" xmlns="http://www.w3.org/2000/svg">
<path d="M8.987 12.29L0.551 8.357V6.932L8.987 2.98V4.519L2.052 7.654L8.987 10.77V12.29ZM13.9641 14.228C12.3174 14.228 11.0064 13.753 10.0311 12.803L10.9431 11.359C11.2851 11.7137 11.7474 12.0177 12.3301 12.271C12.9128 12.5243 13.4891 12.651 14.0591 12.651C14.6418 12.651 15.0851 12.537 15.3891 12.309C15.7058 12.081 15.8641 11.7833 15.8641 11.416C15.8641 11.0867 15.6741 10.8333 15.2941 10.656C14.9141 10.466 14.4518 10.3203 13.9071 10.219C13.3624 10.105 12.8178 9.972 12.2731 9.82C11.7284 9.65533 11.2661 9.37033 10.8861 8.965C10.5061 8.55967 10.3161 8.034 10.3161 7.388C10.3161 6.60267 10.6391 5.944 11.2851 5.412C11.9311 4.86733 12.8114 4.595 13.9261 4.595C15.3321 4.595 16.5228 5.02567 17.4981 5.887L16.6621 7.293C16.3708 6.96367 15.9844 6.69767 15.5031 6.495C15.0218 6.29233 14.5024 6.191 13.9451 6.191C13.4258 6.191 13.0078 6.29867 12.6911 6.514C12.3871 6.71667 12.2351 6.98267 12.2351 7.312C12.2351 7.56533 12.3681 7.77433 12.6341 7.939C12.9128 8.091 13.2548 8.205 13.6601 8.281C14.0781 8.357 14.5278 8.46467 15.0091 8.604C15.4904 8.73067 15.9338 8.88267 16.3391 9.06C16.7571 9.23733 17.0991 9.52867 17.3651 9.934C17.6438 10.3267 17.7831 10.808 17.7831 11.378C17.7831 12.214 17.4474 12.898 16.7761 13.43C16.1048 13.962 15.1674 14.228 13.9641 14.228ZM23.971 14.228C22.5777 14.228 21.4377 13.7783 20.551 12.879C19.6644 11.967 19.221 10.808 19.221 9.402C19.221 8.00867 19.6644 6.86233 20.551 5.963C21.4377 5.051 22.5777 4.595 23.971 4.595C25.5037 4.595 26.6754 5.13967 27.486 6.229L26.175 7.445C25.6684 6.723 24.9654 6.362 24.066 6.362C23.23 6.362 22.5587 6.647 22.052 7.217C21.5454 7.77433 21.292 8.50267 21.292 9.402C21.292 10.3013 21.5454 11.036 22.052 11.606C22.5587 12.176 23.23 12.461 24.066 12.461C24.94 12.461 25.643 12.1 26.175 11.378L27.486 12.594C26.6754 13.6833 25.5037 14.228 23.971 14.228ZM31.2304 14H29.2354V4.823H31.2304V6.172C31.585 5.716 32.0284 5.34233 32.5604 5.051C33.0924 4.75967 33.6434 4.614 34.2134 4.614V6.59C34.036 6.552 33.827 6.533 33.5864 6.533C33.1684 6.533 32.7187 6.65967 32.2374 6.913C31.7687 7.15367 31.433 7.43233 31.2304 7.749V14ZM36.8103 3.702C36.4809 3.702 36.1896 3.58167 35.9363 3.341C35.6956 3.10033 35.5753 2.809 35.5753 2.467C35.5753 2.125 35.6956 1.83367 35.9363 1.593C36.1896 1.35233 36.4809 1.232 36.8103 1.232C37.1523 1.232 37.4436 1.35233 37.6843 1.593C37.9249 1.83367 38.0453 2.125 38.0453 2.467C38.0453 2.809 37.9249 3.10033 37.6843 3.341C37.4436 3.58167 37.1523 3.702 36.8103 3.702ZM37.8173 14H35.8223V4.823H37.8173V14ZM45.3453 14.228C44.1293 14.228 43.1476 13.7277 42.4003 12.727V17.496H40.4053V4.823H42.4003V6.077C43.1349 5.089 44.1166 4.595 45.3453 4.595C46.5486 4.595 47.5239 5.02567 48.2713 5.887C49.0313 6.74833 49.4113 7.92 49.4113 9.402C49.4113 10.884 49.0313 12.062 48.2713 12.936C47.5239 13.7973 46.5486 14.228 45.3453 14.228ZM44.7563 12.461C45.5416 12.461 46.1686 12.176 46.6373 11.606C47.1059 11.036 47.3403 10.3013 47.3403 9.402C47.3403 8.50267 47.1059 7.77433 46.6373 7.217C46.1686 6.647 45.5416 6.362 44.7563 6.362C44.3003 6.362 43.8506 6.48233 43.4073 6.723C42.9639 6.96367 42.6283 7.255 42.4003 7.597V11.226C42.6283 11.568 42.9639 11.8593 43.4073 12.1C43.8506 12.3407 44.3003 12.461 44.7563 12.461ZM54.1447 14.228C53.372 14.228 52.783 14.0253 52.3777 13.62C51.985 13.2147 51.7887 12.632 51.7887 11.872V6.571H50.2687V4.823H51.7887V2.315H53.7837V4.823H55.6457V6.571H53.7837V11.378C53.7837 11.7073 53.8597 11.9733 54.0117 12.176C54.1637 12.366 54.379 12.461 54.6577 12.461C55.063 12.461 55.3607 12.3533 55.5507 12.138L56.0257 13.639C55.6077 14.0317 54.9807 14.228 54.1447 14.228ZM65.4719 14.228C63.8253 14.228 62.5143 13.753 61.5389 12.803L62.4509 11.359C62.7929 11.7137 63.2553 12.0177 63.8379 12.271C64.4206 12.5243 64.9969 12.651 65.5669 12.651C66.1496 12.651 66.5929 12.537 66.8969 12.309C67.2136 12.081 67.3719 11.7833 67.3719 11.416C67.3719 11.0867 67.1819 10.8333 66.8019 10.656C66.4219 10.466 65.9596 10.3203 65.4149 10.219C64.8703 10.105 64.3256 9.972 63.7809 9.82C63.2363 9.65533 62.7739 9.37033 62.3939 8.965C62.0139 8.55967 61.8239 8.034 61.8239 7.388C61.8239 6.60267 62.1469 5.944 62.7929 5.412C63.4389 4.86733 64.3193 4.595 65.4339 4.595C66.8399 4.595 68.0306 5.02567 69.0059 5.887L68.1699 7.293C67.8786 6.96367 67.4923 6.69767 67.0109 6.495C66.5296 6.29233 66.0103 6.191 65.4529 6.191C64.9336 6.191 64.5156 6.29867 64.1989 6.514C63.8949 6.71667 63.7429 6.98267 63.7429 7.312C63.7429 7.56533 63.8759 7.77433 64.1419 7.939C64.4206 8.091 64.7626 8.205 65.1679 8.281C65.5859 8.357 66.0356 8.46467 66.5169 8.604C66.9983 8.73067 67.4416 8.88267 67.8469 9.06C68.2649 9.23733 68.6069 9.52867 68.8729 9.934C69.1516 10.3267 69.2909 10.808 69.2909 11.378C69.2909 12.214 68.9553 12.898 68.2839 13.43C67.6126 13.962 66.6753 14.228 65.4719 14.228ZM73.2938 14H71.2988V4.823H73.2938V6.172C73.6485 5.716 74.0918 5.34233 74.6238 5.051C75.1558 4.75967 75.7068 4.614 76.2768 4.614V6.59C76.0995 6.552 75.8905 6.533 75.6498 6.533C75.2318 6.533 74.7822 6.65967 74.3008 6.913C73.8322 7.15367 73.4965 7.43233 73.2938 7.749V14ZM82.0658 14.228C80.6724 14.228 79.5324 13.7783 78.6458 12.879C77.7591 11.967 77.3158 10.808 77.3158 9.402C77.3158 8.00867 77.7591 6.86233 78.6458 5.963C79.5324 5.051 80.6724 4.595 82.0658 4.595C83.5984 4.595 84.7701 5.13967 85.5808 6.229L84.2698 7.445C83.7631 6.723 83.0601 6.362 82.1608 6.362C81.3248 6.362 80.6534 6.647 80.1468 7.217C79.6401 7.77433 79.3867 8.50267 79.3867 9.402C79.3867 10.3013 79.6401 11.036 80.1468 11.606C80.6534 12.176 81.3248 12.461 82.1608 12.461C83.0348 12.461 83.7378 12.1 84.2698 11.378L85.5808 12.594C84.7701 13.6833 83.5984 14.228 82.0658 14.228ZM95.0251 6.495H86.5891V5.203H95.0251V6.495ZM95.0251 10.105H86.5891V8.832H95.0251V10.105ZM98.0642 6.571H97.1522C96.7089 3.911 96.4872 2.47333 96.4872 2.258C96.4872 1.954 96.5949 1.69433 96.8102 1.479C97.0255 1.251 97.2915 1.137 97.6082 1.137C97.9122 1.137 98.1719 1.251 98.3872 1.479C98.6152 1.69433 98.7292 1.954 98.7292 2.258L98.0642 6.571ZM101.199 6.571H100.306C99.8629 3.911 99.6412 2.47333 99.6412 2.258C99.6412 1.954 99.7489 1.69433 99.9642 1.479C100.18 1.251 100.446 1.137 100.762 1.137C101.066 1.137 101.326 1.251 101.541 1.479C101.757 1.69433 101.864 1.954 101.864 2.258L101.199 6.571ZM112.274 14H110.279V8.224C110.279 7.55267 110.115 7.07767 109.785 6.799C109.469 6.50767 109.013 6.362 108.417 6.362C107.949 6.362 107.505 6.48233 107.087 6.723C106.669 6.96367 106.327 7.255 106.061 7.597V14H104.066V1.327H106.061V6.077C106.403 5.67167 106.859 5.32333 107.429 5.032C108.012 4.74067 108.639 4.595 109.31 4.595C111.286 4.595 112.274 5.564 112.274 7.502V14ZM117.62 14.228C116.848 14.228 116.259 14.0253 115.853 13.62C115.461 13.2147 115.264 12.632 115.264 11.872V6.571H113.744V4.823H115.264V2.315H117.259V4.823H119.121V6.571H117.259V11.378C117.259 11.7073 117.335 11.9733 117.487 12.176C117.639 12.366 117.855 12.461 118.133 12.461C118.539 12.461 118.836 12.3533 119.026 12.138L119.501 13.639C119.083 14.0317 118.456 14.228 117.62 14.228ZM123.688 14.228C122.915 14.228 122.326 14.0253 121.921 13.62C121.528 13.2147 121.332 12.632 121.332 11.872V6.571H119.812V4.823H121.332V2.315H123.327V4.823H125.189V6.571H123.327V11.378C123.327 11.7073 123.403 11.9733 123.555 12.176C123.707 12.366 123.922 12.461 124.201 12.461C124.606 12.461 124.904 12.3533 125.094 12.138L125.569 13.639C125.151 14.0317 124.524 14.228 123.688 14.228ZM131.94 14.228C130.724 14.228 129.742 13.7277 128.995 12.727V17.496H127V4.823H128.995V6.077C129.73 5.089 130.711 4.595 131.94 4.595C133.143 4.595 134.119 5.02567 134.866 5.887C135.626 6.74833 136.006 7.92 136.006 9.402C136.006 10.884 135.626 12.062 134.866 12.936C134.119 13.7973 133.143 14.228 131.94 14.228ZM131.351 12.461C132.136 12.461 132.763 12.176 133.232 11.606C133.701 11.036 133.935 10.3013 133.935 9.402C133.935 8.50267 133.701 7.77433 133.232 7.217C132.763 6.647 132.136 6.362 131.351 6.362C130.895 6.362 130.445 6.48233 130.002 6.723C129.559 6.96367 129.223 7.255 128.995 7.597V11.226C129.223 11.568 129.559 11.8593 130.002 12.1C130.445 12.3407 130.895 12.461 131.351 12.461ZM141.119 14.228C139.473 14.228 138.162 13.753 137.186 12.803L138.098 11.359C138.44 11.7137 138.903 12.0177 139.485 12.271C140.068 12.5243 140.644 12.651 141.214 12.651C141.797 12.651 142.24 12.537 142.544 12.309C142.861 12.081 143.019 11.7833 143.019 11.416C143.019 11.0867 142.829 10.8333 142.449 10.656C142.069 10.466 141.607 10.3203 141.062 10.219C140.518 10.105 139.973 9.972 139.428 9.82C138.884 9.65533 138.421 9.37033 138.041 8.965C137.661 8.55967 137.471 8.034 137.471 7.388C137.471 6.60267 137.794 5.944 138.44 5.412C139.086 4.86733 139.967 4.595 141.081 4.595C142.487 4.595 143.678 5.02567 144.653 5.887L143.817 7.293C143.526 6.96367 143.14 6.69767 142.658 6.495C142.177 6.29233 141.658 6.191 141.1 6.191C140.581 6.191 140.163 6.29867 139.846 6.514C139.542 6.71667 139.39 6.98267 139.39 7.312C139.39 7.56533 139.523 7.77433 139.789 7.939C140.068 8.091 140.41 8.205 140.815 8.281C141.233 8.357 141.683 8.46467 142.164 8.604C142.646 8.73067 143.089 8.88267 143.494 9.06C143.912 9.23733 144.254 9.52867 144.52 9.934C144.799 10.3267 144.938 10.808 144.938 11.378C144.938 12.214 144.603 12.898 143.931 13.43C143.26 13.962 142.323 14.228 141.119 14.228ZM148.903 6.951C148.637 7.217 148.327 7.35 147.972 7.35C147.618 7.35 147.307 7.217 147.041 6.951C146.775 6.685 146.642 6.37467 146.642 6.02C146.642 5.66533 146.775 5.355 147.041 5.089C147.307 4.823 147.618 4.69 147.972 4.69C148.327 4.69 148.637 4.823 148.903 5.089C149.169 5.355 149.302 5.66533 149.302 6.02C149.302 6.37467 149.169 6.685 148.903 6.951ZM148.903 13.829C148.637 14.0823 148.327 14.209 147.972 14.209C147.618 14.209 147.307 14.0823 147.041 13.829C146.775 13.563 146.642 13.2463 146.642 12.879C146.642 12.5117 146.775 12.2013 147.041 11.948C147.307 11.682 147.618 11.549 147.972 11.549C148.327 11.549 148.637 11.682 148.903 11.948C149.169 12.2013 149.302 12.5117 149.302 12.879C149.302 13.2463 149.169 13.563 148.903 13.829ZM151.794 14.38H150.312L154.815 0.946999H156.297L151.794 14.38ZM157.787 14.38H156.305L160.808 0.946999H162.29L157.787 14.38ZM167.827 14.228C166.434 14.228 165.281 13.7847 164.369 12.898C163.47 11.9987 163.02 10.8333 163.02 9.402C163.02 8.05933 163.457 6.92567 164.331 6.001C165.218 5.06367 166.332 4.595 167.675 4.595C169.03 4.595 170.12 5.06367 170.943 6.001C171.779 6.93833 172.197 8.13533 172.197 9.592V10.067H165.11C165.186 10.789 165.484 11.3907 166.003 11.872C166.522 12.3533 167.2 12.594 168.036 12.594C168.505 12.594 168.973 12.5053 169.442 12.328C169.923 12.1507 170.322 11.9037 170.639 11.587L171.551 12.898C170.626 13.7847 169.385 14.228 167.827 14.228ZM170.259 8.661C170.234 8.02767 169.999 7.464 169.556 6.97C169.125 6.476 168.498 6.229 167.675 6.229C166.89 6.229 166.275 6.476 165.832 6.97C165.389 7.45133 165.142 8.015 165.091 8.661H170.259ZM182.355 14H180.36V8.262C180.36 6.99533 179.746 6.362 178.517 6.362C178.036 6.362 177.586 6.48233 177.168 6.723C176.75 6.96367 176.414 7.255 176.161 7.597V14H174.166V4.823H176.161V6.077C176.503 5.67167 176.959 5.32333 177.529 5.032C178.099 4.74067 178.72 4.595 179.391 4.595C180.366 4.595 181.101 4.84833 181.595 5.355C182.102 5.86167 182.355 6.59 182.355 7.54V14ZM188.67 17.724C187.112 17.724 185.833 17.268 184.832 16.356L185.763 14.912C186.447 15.6973 187.416 16.09 188.67 16.09C189.43 16.09 190.07 15.8873 190.589 15.482C191.121 15.0893 191.387 14.4623 191.387 13.601V12.499C190.602 13.5123 189.62 14.019 188.442 14.019C187.239 14.019 186.257 13.601 185.497 12.765C184.75 11.929 184.376 10.7763 184.376 9.307C184.376 7.85033 184.75 6.704 185.497 5.868C186.257 5.01933 187.239 4.595 188.442 4.595C189.646 4.595 190.627 5.09533 191.387 6.096V4.823H193.382V13.525C193.382 14.3103 193.243 14.988 192.964 15.558C192.698 16.1407 192.331 16.5777 191.862 16.869C191.394 17.173 190.893 17.3883 190.361 17.515C189.842 17.6543 189.278 17.724 188.67 17.724ZM189.031 12.252C189.487 12.252 189.937 12.1317 190.38 11.891C190.824 11.6503 191.159 11.359 191.387 11.017V7.597C191.159 7.255 190.824 6.96367 190.38 6.723C189.937 6.48233 189.487 6.362 189.031 6.362C188.246 6.362 187.619 6.63433 187.15 7.179C186.682 7.711 186.447 8.42033 186.447 9.307C186.447 10.1937 186.682 10.9093 187.15 11.454C187.619 11.986 188.246 12.252 189.031 12.252ZM196.956 3.702C196.626 3.702 196.335 3.58167 196.082 3.341C195.841 3.10033 195.721 2.809 195.721 2.467C195.721 2.125 195.841 1.83367 196.082 1.593C196.335 1.35233 196.626 1.232 196.956 1.232C197.298 1.232 197.589 1.35233 197.83 1.593C198.07 1.83367 198.191 2.125 198.191 2.467C198.191 2.809 198.07 3.10033 197.83 3.341C197.589 3.58167 197.298 3.702 196.956 3.702ZM197.963 14H195.968V4.823H197.963V14ZM208.74 14H206.745V8.262C206.745 6.99533 206.13 6.362 204.902 6.362C204.42 6.362 203.971 6.48233 203.553 6.723C203.135 6.96367 202.799 7.255 202.546 7.597V14H200.551V4.823H202.546V6.077C202.888 5.67167 203.344 5.32333 203.914 5.032C204.484 4.74067 205.104 4.595 205.776 4.595C206.751 4.595 207.486 4.84833 207.98 5.355C208.486 5.86167 208.74 6.59 208.74 7.54V14ZM215.568 14.228C214.175 14.228 213.022 13.7847 212.11 12.898C211.211 11.9987 210.761 10.8333 210.761 9.402C210.761 8.05933 211.198 6.92567 212.072 6.001C212.959 5.06367 214.073 4.595 215.416 4.595C216.771 4.595 217.861 5.06367 218.684 6.001C219.52 6.93833 219.938 8.13533 219.938 9.592V10.067H212.851C212.927 10.789 213.225 11.3907 213.744 11.872C214.263 12.3533 214.941 12.594 215.777 12.594C216.246 12.594 216.714 12.5053 217.183 12.328C217.664 12.1507 218.063 11.9037 218.38 11.587L219.292 12.898C218.367 13.7847 217.126 14.228 215.568 14.228ZM218 8.661C217.975 8.02767 217.74 7.464 217.297 6.97C216.866 6.476 216.239 6.229 215.416 6.229C214.631 6.229 214.016 6.476 213.573 6.97C213.13 7.45133 212.883 8.015 212.832 8.661H218ZM223.771 13.829C223.505 14.0823 223.195 14.209 222.84 14.209C222.486 14.209 222.175 14.0823 221.909 13.829C221.643 13.563 221.51 13.2463 221.51 12.879C221.51 12.5117 221.643 12.2013 221.909 11.948C222.175 11.682 222.486 11.549 222.84 11.549C223.195 11.549 223.505 11.682 223.771 11.948C224.037 12.2013 224.17 12.5117 224.17 12.879C224.17 13.2463 224.037 13.563 223.771 13.829ZM228.467 11.245C228.682 11.587 229.011 11.8783 229.455 12.119C229.911 12.347 230.367 12.461 230.823 12.461C231.608 12.461 232.235 12.1823 232.704 11.625C233.185 11.055 233.426 10.3203 233.426 9.421C233.426 8.52167 233.185 7.787 232.704 7.217C232.235 6.647 231.608 6.362 230.823 6.362C230.367 6.362 229.917 6.48233 229.474 6.723C229.03 6.96367 228.695 7.26133 228.467 7.616V11.245ZM228.467 14H226.472V1.327H228.467V6.096C229.214 5.09533 230.196 4.595 231.412 4.595C232.602 4.595 233.578 5.03833 234.338 5.925C235.098 6.799 235.478 7.96433 235.478 9.421C235.478 10.903 235.098 12.0747 234.338 12.936C233.578 13.7973 232.602 14.228 231.412 14.228C230.208 14.228 229.227 13.734 228.467 12.746V14ZM245.112 14H243.117V13.012C242.407 13.8227 241.419 14.228 240.153 14.228C239.317 14.228 238.576 13.962 237.93 13.43C237.284 12.8853 236.961 12.138 236.961 11.188C236.961 10.2127 237.277 9.47167 237.911 8.965C238.557 8.45833 239.304 8.205 240.153 8.205C241.457 8.205 242.445 8.59767 243.117 9.383V8.015C243.117 7.483 242.92 7.065 242.528 6.761C242.135 6.457 241.616 6.305 240.97 6.305C239.944 6.305 239.038 6.69133 238.253 7.464L237.436 6.077C238.474 5.089 239.76 4.595 241.293 4.595C242.42 4.595 243.338 4.861 244.048 5.393C244.757 5.925 245.112 6.76733 245.112 7.92V14ZM240.932 12.86C241.932 12.86 242.661 12.5433 243.117 11.91V10.523C242.661 9.88967 241.932 9.573 240.932 9.573C240.362 9.573 239.893 9.725 239.526 10.029C239.158 10.333 238.975 10.732 238.975 11.226C238.975 11.72 239.158 12.119 239.526 12.423C239.893 12.7143 240.362 12.86 240.932 12.86ZM255.887 14H253.892V8.262C253.892 6.99533 253.278 6.362 252.049 6.362C251.568 6.362 251.118 6.48233 250.7 6.723C250.282 6.96367 249.947 7.255 249.693 7.597V14H247.698V4.823H249.693V6.077C250.035 5.67167 250.491 5.32333 251.061 5.032C251.631 4.74067 252.252 4.595 252.923 4.595C253.899 4.595 254.633 4.84833 255.127 5.355C255.634 5.86167 255.887 6.59 255.887 7.54V14ZM266.079 14H264.084V13.012C263.374 13.8227 262.386 14.228 261.12 14.228C260.284 14.228 259.543 13.962 258.897 13.43C258.251 12.8853 257.928 12.138 257.928 11.188C257.928 10.2127 258.244 9.47167 258.878 8.965C259.524 8.45833 260.271 8.205 261.12 8.205C262.424 8.205 263.412 8.59767 264.084 9.383V8.015C264.084 7.483 263.887 7.065 263.495 6.761C263.102 6.457 262.583 6.305 261.937 6.305C260.911 6.305 260.005 6.69133 259.22 7.464L258.403 6.077C259.441 5.089 260.727 4.595 262.26 4.595C263.387 4.595 264.305 4.861 265.015 5.393C265.724 5.925 266.079 6.76733 266.079 7.92V14ZM261.899 12.86C262.899 12.86 263.628 12.5433 264.084 11.91V10.523C263.628 9.88967 262.899 9.573 261.899 9.573C261.329 9.573 260.86 9.725 260.493 10.029C260.125 10.333 259.942 10.732 259.942 11.226C259.942 11.72 260.125 12.119 260.493 12.423C260.86 12.7143 261.329 12.86 261.899 12.86ZM270.66 11.245C270.875 11.587 271.205 11.8783 271.648 12.119C272.104 12.347 272.56 12.461 273.016 12.461C273.801 12.461 274.428 12.1823 274.897 11.625C275.378 11.055 275.619 10.3203 275.619 9.421C275.619 8.52167 275.378 7.787 274.897 7.217C274.428 6.647 273.801 6.362 273.016 6.362C272.56 6.362 272.11 6.48233 271.667 6.723C271.224 6.96367 270.888 7.26133 270.66 7.616V11.245ZM270.66 14H268.665V1.327H270.66V6.096C271.407 5.09533 272.389 4.595 273.605 4.595C274.796 4.595 275.771 5.03833 276.531 5.925C277.291 6.799 277.671 7.96433 277.671 9.421C277.671 10.903 277.291 12.0747 276.531 12.936C275.771 13.7973 274.796 14.228 273.605 14.228C272.402 14.228 271.42 13.734 270.66 12.746V14ZM283.847 14.228C282.428 14.228 281.288 13.7657 280.427 12.841C279.566 11.9037 279.135 10.7573 279.135 9.402C279.135 8.04667 279.566 6.90667 280.427 5.982C281.288 5.05733 282.428 4.595 283.847 4.595C285.278 4.595 286.425 5.05733 287.286 5.982C288.147 6.90667 288.578 8.04667 288.578 9.402C288.578 10.77 288.147 11.9163 287.286 12.841C286.425 13.7657 285.278 14.228 283.847 14.228ZM283.847 12.461C284.67 12.461 285.316 12.1697 285.785 11.587C286.266 10.9917 286.507 10.2633 286.507 9.402C286.507 8.55333 286.266 7.83767 285.785 7.255C285.316 6.65967 284.67 6.362 283.847 6.362C283.036 6.362 282.39 6.65967 281.909 7.255C281.44 7.83767 281.206 8.55333 281.206 9.402C281.206 10.2633 281.44 10.9917 281.909 11.587C282.39 12.1697 283.036 12.461 283.847 12.461ZM292.461 13.829C292.195 14.0823 291.885 14.209 291.53 14.209C291.175 14.209 290.865 14.0823 290.599 13.829C290.333 13.563 290.2 13.2463 290.2 12.879C290.2 12.5117 290.333 12.2013 290.599 11.948C290.865 11.682 291.175 11.549 291.53 11.549C291.885 11.549 292.195 11.682 292.461 11.948C292.727 12.2013 292.86 12.5117 292.86 12.879C292.86 13.2463 292.727 13.563 292.461 13.829ZM296.149 3.702C295.82 3.702 295.528 3.58167 295.275 3.341C295.034 3.10033 294.914 2.809 294.914 2.467C294.914 2.125 295.034 1.83367 295.275 1.593C295.528 1.35233 295.82 1.232 296.149 1.232C296.491 1.232 296.782 1.35233 297.023 1.593C297.264 1.83367 297.384 2.125 297.384 2.467C297.384 2.809 297.264 3.10033 297.023 3.341C296.782 3.58167 296.491 3.702 296.149 3.702ZM297.156 14H295.161V4.823H297.156V14ZM303.886 14.228C302.467 14.228 301.327 13.7657 300.466 12.841C299.605 11.9037 299.174 10.7573 299.174 9.402C299.174 8.04667 299.605 6.90667 300.466 5.982C301.327 5.05733 302.467 4.595 303.886 4.595C305.317 4.595 306.464 5.05733 307.325 5.982C308.186 6.90667 308.617 8.04667 308.617 9.402C308.617 10.77 308.186 11.9163 307.325 12.841C306.464 13.7657 305.317 14.228 303.886 14.228ZM303.886 12.461C304.709 12.461 305.355 12.1697 305.824 11.587C306.305 10.9917 306.546 10.2633 306.546 9.402C306.546 8.55333 306.305 7.83767 305.824 7.255C305.355 6.65967 304.709 6.362 303.886 6.362C303.075 6.362 302.429 6.65967 301.948 7.255C301.479 7.83767 301.245 8.55333 301.245 9.402C301.245 10.2633 301.479 10.9917 301.948 11.587C302.429 12.1697 303.075 12.461 303.886 12.461ZM310.826 14.38H309.344L313.847 0.946999H315.329L310.826 14.38ZM5.529 39.228C4.13567 39.228 2.983 38.7847 2.071 37.898C1.17167 36.9987 0.722 35.8333 0.722 34.402C0.722 33.0593 1.159 31.9257 2.033 31.001C2.91967 30.0637 4.03433 29.595 5.377 29.595C6.73233 29.595 7.82167 30.0637 8.645 31.001C9.481 31.9383 9.899 33.1353 9.899 34.592V35.067H2.812C2.888 35.789 3.18567 36.3907 3.705 36.872C4.22433 37.3533 4.902 37.594 5.738 37.594C6.20667 37.594 6.67533 37.5053 7.144 37.328C7.62533 37.1507 8.02433 36.9037 8.341 36.587L9.253 37.898C8.32833 38.7847 7.087 39.228 5.529 39.228ZM7.961 33.661C7.93567 33.0277 7.70133 32.464 7.258 31.97C6.82733 31.476 6.20033 31.229 5.377 31.229C4.59167 31.229 3.97733 31.476 3.534 31.97C3.09067 32.4513 2.84367 33.015 2.793 33.661H7.961ZM25.1112 39H23.1162V33.015C23.1162 31.913 22.6158 31.362 21.6152 31.362C21.1972 31.362 20.7918 31.4823 20.3992 31.723C20.0065 31.9637 19.7025 32.2487 19.4872 32.578V39H17.4922V33.015C17.4922 31.913 16.9855 31.362 15.9722 31.362C15.5668 31.362 15.1678 31.4823 14.7752 31.723C14.3952 31.9637 14.0912 32.255 13.8632 32.597V39H11.8682V29.823H13.8632V31.077C14.0912 30.735 14.4838 30.4057 15.0412 30.089C15.6112 29.7597 16.2128 29.595 16.8462 29.595C18.1762 29.595 19.0122 30.1587 19.3542 31.286C19.6455 30.83 20.0762 30.4373 20.6462 30.108C21.2162 29.766 21.8242 29.595 22.4702 29.595C24.2308 29.595 25.1112 30.5197 25.1112 32.369V39ZM29.6903 36.245C29.9057 36.587 30.235 36.8783 30.6783 37.119C31.1343 37.347 31.5903 37.461 32.0463 37.461C32.8317 37.461 33.4587 37.1823 33.9273 36.625C34.4087 36.055 34.6493 35.3203 34.6493 34.421C34.6493 33.5217 34.4087 32.787 33.9273 32.217C33.4587 31.647 32.8317 31.362 32.0463 31.362C31.5903 31.362 31.1407 31.4823 30.6973 31.723C30.254 31.9637 29.9183 32.2613 29.6903 32.616V36.245ZM29.6903 39H27.6953V26.327H29.6903V31.096C30.4377 30.0953 31.4193 29.595 32.6353 29.595C33.826 29.595 34.8013 30.0383 35.5613 30.925C36.3213 31.799 36.7013 32.9643 36.7013 34.421C36.7013 35.903 36.3213 37.0747 35.5613 37.936C34.8013 38.7973 33.826 39.228 32.6353 39.228C31.432 39.228 30.4503 38.734 29.6903 37.746V39ZM42.9724 39.228C41.579 39.228 40.4264 38.7847 39.5144 37.898C38.615 36.9987 38.1654 35.8333 38.1654 34.402C38.1654 33.0593 38.6024 31.9257 39.4764 31.001C40.363 30.0637 41.4777 29.595 42.8204 29.595C44.1757 29.595 45.265 30.0637 46.0884 31.001C46.9244 31.9383 47.3424 33.1353 47.3424 34.592V35.067H40.2554C40.3314 35.789 40.629 36.3907 41.1484 36.872C41.6677 37.3533 42.3454 37.594 43.1814 37.594C43.65 37.594 44.1187 37.5053 44.5874 37.328C45.0687 37.1507 45.4677 36.9037 45.7844 36.587L46.6964 37.898C45.7717 38.7847 44.5304 39.228 42.9724 39.228ZM45.4044 33.661C45.379 33.0277 45.1447 32.464 44.7014 31.97C44.2707 31.476 43.6437 31.229 42.8204 31.229C42.035 31.229 41.4207 31.476 40.9774 31.97C40.534 32.4513 40.287 33.015 40.2364 33.661H45.4044ZM57.7665 39H55.7715V37.746C55.0115 38.734 54.0299 39.228 52.8265 39.228C51.6232 39.228 50.6415 38.7973 49.8815 37.936C49.1215 37.0747 48.7415 35.903 48.7415 34.421C48.7415 32.9517 49.1215 31.78 49.8815 30.906C50.6415 30.032 51.6232 29.595 52.8265 29.595C54.0299 29.595 55.0115 30.0953 55.7715 31.096V26.327H57.7665V39ZM53.3965 37.461C53.8652 37.461 54.3212 37.347 54.7645 37.119C55.2079 36.891 55.5435 36.5997 55.7715 36.245V32.597C55.5435 32.2423 55.2079 31.951 54.7645 31.723C54.3212 31.4823 53.8652 31.362 53.3965 31.362C52.6112 31.362 51.9842 31.647 51.5155 32.217C51.0469 32.787 50.8125 33.5217 50.8125 34.421C50.8125 35.3203 51.0469 36.055 51.5155 36.625C51.9842 37.1823 52.6112 37.461 53.3965 37.461ZM68.8066 39H66.8116V37.746C66.0516 38.734 65.0699 39.228 63.8666 39.228C62.6632 39.228 61.6816 38.7973 60.9216 37.936C60.1616 37.0747 59.7816 35.903 59.7816 34.421C59.7816 32.9517 60.1616 31.78 60.9216 30.906C61.6816 30.032 62.6632 29.595 63.8666 29.595C65.0699 29.595 66.0516 30.0953 66.8116 31.096V26.327H68.8066V39ZM64.4366 37.461C64.9052 37.461 65.3612 37.347 65.8046 37.119C66.2479 36.891 66.5836 36.5997 66.8116 36.245V32.597C66.5836 32.2423 66.2479 31.951 65.8046 31.723C65.3612 31.4823 64.9052 31.362 64.4366 31.362C63.6512 31.362 63.0242 31.647 62.5556 32.217C62.0869 32.787 61.8526 33.5217 61.8526 34.421C61.8526 35.3203 62.0869 36.055 62.5556 36.625C63.0242 37.1823 63.6512 37.461 64.4366 37.461ZM78.9916 39H76.9966V38.012C76.2873 38.8227 75.2993 39.228 74.0326 39.228C73.1966 39.228 72.4556 38.962 71.8096 38.43C71.1636 37.8853 70.8406 37.138 70.8406 36.188C70.8406 35.2127 71.1573 34.4717 71.7906 33.965C72.4366 33.4583 73.1839 33.205 74.0326 33.205C75.3373 33.205 76.3253 33.5977 76.9966 34.383V33.015C76.9966 32.483 76.8003 32.065 76.4076 31.761C76.0149 31.457 75.4956 31.305 74.8496 31.305C73.8236 31.305 72.9179 31.6913 72.1326 32.464L71.3156 31.077C72.3543 30.089 73.6399 29.595 75.1726 29.595C76.2999 29.595 77.2183 29.861 77.9276 30.393C78.6369 30.925 78.9916 31.7673 78.9916 32.92V39ZM74.8116 37.86C75.8123 37.86 76.5406 37.5433 76.9966 36.91V35.523C76.5406 34.8897 75.8123 34.573 74.8116 34.573C74.2416 34.573 73.7729 34.725 73.4056 35.029C73.0383 35.333 72.8546 35.732 72.8546 36.226C72.8546 36.72 73.0383 37.119 73.4056 37.423C73.7729 37.7143 74.2416 37.86 74.8116 37.86ZM83.5731 36.245C83.7885 36.587 84.1178 36.8783 84.5611 37.119C85.0171 37.347 85.4731 37.461 85.9291 37.461C86.7145 37.461 87.3415 37.1823 87.8101 36.625C88.2915 36.055 88.5321 35.3203 88.5321 34.421C88.5321 33.5217 88.2915 32.787 87.8101 32.217C87.3415 31.647 86.7145 31.362 85.9291 31.362C85.4731 31.362 85.0235 31.4823 84.5801 31.723C84.1368 31.9637 83.8011 32.2613 83.5731 32.616V36.245ZM83.5731 39H81.5781V26.327H83.5731V31.096C84.3205 30.0953 85.3021 29.595 86.5181 29.595C87.7088 29.595 88.6841 30.0383 89.4441 30.925C90.2041 31.799 90.5841 32.9643 90.5841 34.421C90.5841 35.903 90.2041 37.0747 89.4441 37.936C88.6841 38.7973 87.7088 39.228 86.5181 39.228C85.3148 39.228 84.3331 38.734 83.5731 37.746V39ZM94.6132 39H92.6182V26.327H94.6132V39ZM101.438 39.228C100.045 39.228 98.8922 38.7847 97.9802 37.898C97.0808 36.9987 96.6312 35.8333 96.6312 34.402C96.6312 33.0593 97.0682 31.9257 97.9422 31.001C98.8288 30.0637 99.9435 29.595 101.286 29.595C102.642 29.595 103.731 30.0637 104.554 31.001C105.39 31.9383 105.808 33.1353 105.808 34.592V35.067H98.7212C98.7972 35.789 99.0948 36.3907 99.6142 36.872C100.134 37.3533 100.811 37.594 101.647 37.594C102.116 37.594 102.585 37.5053 103.053 37.328C103.535 37.1507 103.934 36.9037 104.25 36.587L105.162 37.898C104.238 38.7847 102.996 39.228 101.438 39.228ZM103.87 33.661C103.845 33.0277 103.611 32.464 103.167 31.97C102.737 31.476 102.11 31.229 101.286 31.229C100.501 31.229 99.8865 31.476 99.4432 31.97C98.9998 32.4513 98.7528 33.015 98.7022 33.661H103.87ZM107.967 39.38H106.485L110.988 25.947H112.47L107.967 39.38ZM114.759 28.702C114.429 28.702 114.138 28.5817 113.885 28.341C113.644 28.1003 113.524 27.809 113.524 27.467C113.524 27.125 113.644 26.8337 113.885 26.593C114.138 26.3523 114.429 26.232 114.759 26.232C115.101 26.232 115.392 26.3523 115.633 26.593C115.873 26.8337 115.994 27.125 115.994 27.467C115.994 27.809 115.873 28.1003 115.633 28.341C115.392 28.5817 115.101 28.702 114.759 28.702ZM115.766 39H113.771V29.823H115.766V39ZM126.543 39H124.548V33.262C124.548 31.9953 123.933 31.362 122.705 31.362C122.223 31.362 121.774 31.4823 121.356 31.723C120.938 31.9637 120.602 32.255 120.349 32.597V39H118.354V29.823H120.349V31.077C120.691 30.6717 121.147 30.3233 121.717 30.032C122.287 29.7407 122.907 29.595 123.579 29.595C124.554 29.595 125.289 29.8483 125.783 30.355C126.289 30.8617 126.543 31.59 126.543 32.54V39ZM137.589 39H135.594V37.746C134.834 38.734 133.852 39.228 132.649 39.228C131.445 39.228 130.464 38.7973 129.704 37.936C128.944 37.0747 128.564 35.903 128.564 34.421C128.564 32.9517 128.944 31.78 129.704 30.906C130.464 30.032 131.445 29.595 132.649 29.595C133.852 29.595 134.834 30.0953 135.594 31.096V26.327H137.589V39ZM133.219 37.461C133.687 37.461 134.143 37.347 134.587 37.119C135.03 36.891 135.366 36.5997 135.594 36.245V32.597C135.366 32.2423 135.03 31.951 134.587 31.723C134.143 31.4823 133.687 31.362 133.219 31.362C132.433 31.362 131.806 31.647 131.338 32.217C130.869 32.787 130.635 33.5217 130.635 34.421C130.635 35.3203 130.869 36.055 131.338 36.625C131.806 37.1823 132.433 37.461 133.219 37.461ZM144.411 39.228C143.018 39.228 141.865 38.7847 140.953 37.898C140.054 36.9987 139.604 35.8333 139.604 34.402C139.604 33.0593 140.041 31.9257 140.915 31.001C141.802 30.0637 142.916 29.595 144.259 29.595C145.614 29.595 146.704 30.0637 147.527 31.001C148.363 31.9383 148.781 33.1353 148.781 34.592V35.067H141.694C141.77 35.789 142.068 36.3907 142.587 36.872C143.106 37.3533 143.784 37.594 144.62 37.594C145.089 37.594 145.557 37.5053 146.026 37.328C146.507 37.1507 146.906 36.9037 147.223 36.587L148.135 37.898C147.21 38.7847 145.969 39.228 144.411 39.228ZM146.843 33.661C146.818 33.0277 146.583 32.464 146.14 31.97C145.709 31.476 145.082 31.229 144.259 31.229C143.474 31.229 142.859 31.476 142.416 31.97C141.973 32.4513 141.726 33.015 141.675 33.661H146.843ZM158.787 39H156.545L154.17 35.618L151.776 39H149.553L152.916 34.288L149.743 29.823H151.985L154.17 32.939L156.336 29.823H158.578L155.405 34.288L158.787 39ZM162.133 38.829C161.867 39.0823 161.556 39.209 161.202 39.209C160.847 39.209 160.537 39.0823 160.271 38.829C160.005 38.563 159.872 38.2463 159.872 37.879C159.872 37.5117 160.005 37.2013 160.271 36.948C160.537 36.682 160.847 36.549 161.202 36.549C161.556 36.549 161.867 36.682 162.133 36.948C162.399 37.2013 162.532 37.5117 162.532 37.879C162.532 38.2463 162.399 38.563 162.133 38.829ZM166.582 28.702C166.252 28.702 165.961 28.5817 165.708 28.341C165.467 28.1003 165.347 27.809 165.347 27.467C165.347 27.125 165.467 26.8337 165.708 26.593C165.961 26.3523 166.252 26.232 166.582 26.232C166.924 26.232 167.215 26.3523 167.456 26.593C167.696 26.8337 167.817 27.125 167.817 27.467C167.817 27.809 167.696 28.1003 167.456 28.341C167.215 28.5817 166.924 28.702 166.582 28.702ZM164.549 42.724C164.042 42.724 163.637 42.6733 163.333 42.572C163.029 42.4707 162.712 42.2997 162.383 42.059L162.972 40.577C163.352 40.919 163.776 41.09 164.245 41.09C164.65 41.09 164.973 40.957 165.214 40.691C165.467 40.4377 165.594 40.0513 165.594 39.532V29.823H167.589V39.532C167.589 40.5327 167.329 41.3117 166.81 41.869C166.29 42.439 165.537 42.724 164.549 42.724ZM173.312 39.228C171.665 39.228 170.354 38.753 169.379 37.803L170.291 36.359C170.633 36.7137 171.095 37.0177 171.678 37.271C172.26 37.5243 172.837 37.651 173.407 37.651C173.989 37.651 174.433 37.537 174.737 37.309C175.053 37.081 175.212 36.7833 175.212 36.416C175.212 36.0867 175.022 35.8333 174.642 35.656C174.262 35.466 173.799 35.3203 173.255 35.219C172.71 35.105 172.165 34.972 171.621 34.82C171.076 34.6553 170.614 34.3703 170.234 33.965C169.854 33.5597 169.664 33.034 169.664 32.388C169.664 31.6027 169.987 30.944 170.633 30.412C171.279 29.8673 172.159 29.595 173.274 29.595C174.68 29.595 175.87 30.0257 176.846 30.887L176.01 32.293C175.718 31.9637 175.332 31.6977 174.851 31.495C174.369 31.2923 173.85 31.191 173.293 31.191C172.773 31.191 172.355 31.2987 172.039 31.514C171.735 31.7167 171.583 31.9827 171.583 32.312C171.583 32.5653 171.716 32.7743 171.982 32.939C172.26 33.091 172.602 33.205 173.008 33.281C173.426 33.357 173.875 33.4647 174.357 33.604C174.838 33.7307 175.281 33.8827 175.687 34.06C176.105 34.2373 176.447 34.5287 176.713 34.934C176.991 35.3267 177.131 35.808 177.131 36.378C177.131 37.214 176.795 37.898 176.124 38.43C175.452 38.962 174.515 39.228 173.312 39.228ZM179.965 31.571H179.053C178.609 28.911 178.388 27.4733 178.388 27.258C178.388 26.954 178.495 26.6943 178.711 26.479C178.926 26.251 179.192 26.137 179.509 26.137C179.813 26.137 180.072 26.251 180.288 26.479C180.516 26.6943 180.63 26.954 180.63 27.258L179.965 31.571ZM183.1 31.571H182.207C181.763 28.911 181.542 27.4733 181.542 27.258C181.542 26.954 181.649 26.6943 181.865 26.479C182.08 26.251 182.346 26.137 182.663 26.137C182.967 26.137 183.226 26.251 183.442 26.479C183.657 26.6943 183.765 26.954 183.765 27.258L183.1 31.571ZM193.662 33.357L185.226 37.29V35.77L192.142 32.654L185.226 29.519V27.98L193.662 31.932V33.357ZM203.199 37.29L194.763 33.357V31.932L203.199 27.98V29.519L196.264 32.654L203.199 35.77V37.29ZM205.231 39.38H203.749L208.252 25.947H209.734L205.231 39.38ZM214.169 39.228C212.523 39.228 211.212 38.753 210.236 37.803L211.148 36.359C211.49 36.7137 211.953 37.0177 212.535 37.271C213.118 37.5243 213.694 37.651 214.264 37.651C214.847 37.651 215.29 37.537 215.594 37.309C215.911 37.081 216.069 36.7833 216.069 36.416C216.069 36.0867 215.879 35.8333 215.499 35.656C215.119 35.466 214.657 35.3203 214.112 35.219C213.568 35.105 213.023 34.972 212.478 34.82C211.934 34.6553 211.471 34.3703 211.091 33.965C210.711 33.5597 210.521 33.034 210.521 32.388C210.521 31.6027 210.844 30.944 211.49 30.412C212.136 29.8673 213.017 29.595 214.131 29.595C215.537 29.595 216.728 30.0257 217.703 30.887L216.867 32.293C216.576 31.9637 216.19 31.6977 215.708 31.495C215.227 31.2923 214.708 31.191 214.15 31.191C213.631 31.191 213.213 31.2987 212.896 31.514C212.592 31.7167 212.44 31.9827 212.44 32.312C212.44 32.5653 212.573 32.7743 212.839 32.939C213.118 33.091 213.46 33.205 213.865 33.281C214.283 33.357 214.733 33.4647 215.214 33.604C215.696 33.7307 216.139 33.8827 216.544 34.06C216.962 34.2373 217.304 34.5287 217.57 34.934C217.849 35.3267 217.988 35.808 217.988 36.378C217.988 37.214 217.653 37.898 216.981 38.43C216.31 38.962 215.373 39.228 214.169 39.228ZM224.176 39.228C222.783 39.228 221.643 38.7783 220.756 37.879C219.869 36.967 219.426 35.808 219.426 34.402C219.426 33.0087 219.869 31.8623 220.756 30.963C221.643 30.051 222.783 29.595 224.176 29.595C225.709 29.595 226.88 30.1397 227.691 31.229L226.38 32.445C225.873 31.723 225.17 31.362 224.271 31.362C223.435 31.362 222.764 31.647 222.257 32.217C221.75 32.7743 221.497 33.5027 221.497 34.402C221.497 35.3013 221.75 36.036 222.257 36.606C222.764 37.176 223.435 37.461 224.271 37.461C225.145 37.461 225.848 37.1 226.38 36.378L227.691 37.594C226.88 38.6833 225.709 39.228 224.176 39.228ZM231.435 39H229.44V29.823H231.435V31.172C231.79 30.716 232.233 30.3423 232.765 30.051C233.297 29.7597 233.848 29.614 234.418 29.614V31.59C234.241 31.552 234.032 31.533 233.791 31.533C233.373 31.533 232.924 31.6597 232.442 31.913C231.974 32.1537 231.638 32.4323 231.435 32.749V39ZM237.015 28.702C236.686 28.702 236.395 28.5817 236.141 28.341C235.901 28.1003 235.78 27.809 235.78 27.467C235.78 27.125 235.901 26.8337 236.141 26.593C236.395 26.3523 236.686 26.232 237.015 26.232C237.357 26.232 237.649 26.3523 237.889 26.593C238.13 26.8337 238.25 27.125 238.25 27.467C238.25 27.809 238.13 28.1003 237.889 28.341C237.649 28.5817 237.357 28.702 237.015 28.702ZM238.022 39H236.027V29.823H238.022V39ZM245.55 39.228C244.334 39.228 243.353 38.7277 242.605 37.727V42.496H240.61V29.823H242.605V31.077C243.34 30.089 244.322 29.595 245.55 29.595C246.754 29.595 247.729 30.0257 248.476 30.887C249.236 31.7483 249.616 32.92 249.616 34.402C249.616 35.884 249.236 37.062 248.476 37.936C247.729 38.7973 246.754 39.228 245.55 39.228ZM244.961 37.461C245.747 37.461 246.374 37.176 246.842 36.606C247.311 36.036 247.545 35.3013 247.545 34.402C247.545 33.5027 247.311 32.7743 246.842 32.217C246.374 31.647 245.747 31.362 244.961 31.362C244.505 31.362 244.056 31.4823 243.612 31.723C243.169 31.9637 242.833 32.255 242.605 32.597V36.226C242.833 36.568 243.169 36.8593 243.612 37.1C244.056 37.3407 244.505 37.461 244.961 37.461ZM254.35 39.228C253.577 39.228 252.988 39.0253 252.583 38.62C252.19 38.2147 251.994 37.632 251.994 36.872V31.571H250.474V29.823H251.994V27.315H253.989V29.823H255.851V31.571H253.989V36.378C253.989 36.7073 254.065 36.9733 254.217 37.176C254.369 37.366 254.584 37.461 254.863 37.461C255.268 37.461 255.566 37.3533 255.756 37.138L256.231 38.639C255.813 39.0317 255.186 39.228 254.35 39.228ZM265.357 33.357L256.921 37.29V35.77L263.837 32.654L256.921 29.519V27.98L265.357 31.932V33.357Z" fill="#1F82F6"/>
</svg>
