<svg width="1015" height="31" viewBox="0 0 1015 31" fill="none" xmlns="http://www.w3.org/2000/svg">
<path d="M7.55273 23.0098C7.55273 23.8457 7.41211 24.5762 7.13086 25.2012C6.84961 25.8223 6.45117 26.2969 5.93555 26.625C5.41992 26.9531 4.81836 27.1172 4.13086 27.1172C3.45898 27.1172 2.86328 26.9531 2.34375 26.625C1.82422 26.293 1.41992 25.8223 1.13086 25.2129C0.845703 24.5996 0.699219 23.8906 0.691406 23.0859V22.4707C0.691406 21.6504 0.833984 20.9258 1.11914 20.2969C1.4043 19.668 1.80664 19.1875 2.32617 18.8555C2.84961 18.5195 3.44727 18.3516 4.11914 18.3516C4.80273 18.3516 5.4043 18.5176 5.92383 18.8496C6.44727 19.1777 6.84961 19.6562 7.13086 20.2852C7.41211 20.9102 7.55273 21.6387 7.55273 22.4707V23.0098ZM6.43359 22.459C6.43359 21.4473 6.23047 20.6719 5.82422 20.1328C5.41797 19.5898 4.84961 19.3184 4.11914 19.3184C3.4082 19.3184 2.84766 19.5898 2.4375 20.1328C2.03125 20.6719 1.82227 21.4219 1.81055 22.3828V23.0098C1.81055 23.9902 2.01562 24.7617 2.42578 25.3242C2.83984 25.8828 3.4082 26.1621 4.13086 26.1621C4.85742 26.1621 5.41992 25.8984 5.81836 25.3711C6.2168 24.8398 6.42188 24.0801 6.43359 23.0918V22.459ZM11.6133 26.2324C12 26.2324 12.3379 26.1152 12.627 25.8809C12.916 25.6465 13.0762 25.3535 13.1074 25.002H14.1328C14.1133 25.3652 13.9883 25.7109 13.7578 26.0391C13.5273 26.3672 13.2188 26.6289 12.832 26.8242C12.4492 27.0195 12.043 27.1172 11.6133 27.1172C10.75 27.1172 10.0625 26.8301 9.55078 26.2559C9.04297 25.6777 8.78906 24.8887 8.78906 23.8887V23.707C8.78906 23.0898 8.90234 22.541 9.12891 22.0605C9.35547 21.5801 9.67969 21.207 10.1016 20.9414C10.5273 20.6758 11.0293 20.543 11.6074 20.543C12.3184 20.543 12.9082 20.7559 13.377 21.1816C13.8496 21.6074 14.1016 22.1602 14.1328 22.8398H13.1074C13.0762 22.4297 12.9199 22.0938 12.6387 21.832C12.3613 21.5664 12.0176 21.4336 11.6074 21.4336C11.0566 21.4336 10.6289 21.6328 10.3242 22.0312C10.0234 22.4258 9.87305 22.998 9.87305 23.748V23.9531C9.87305 24.6836 10.0234 25.2461 10.3242 25.6406C10.625 26.0352 11.0547 26.2324 11.6133 26.2324ZM16.8223 19.125V20.6602H18.0059V21.498H16.8223V25.4297C16.8223 25.6836 16.875 25.875 16.9805 26.0039C17.0859 26.1289 17.2656 26.1914 17.5195 26.1914C17.6445 26.1914 17.8164 26.168 18.0352 26.1211V27C17.75 27.0781 17.4727 27.1172 17.2031 27.1172C16.7188 27.1172 16.3535 26.9707 16.1074 26.6777C15.8613 26.3848 15.7383 25.9688 15.7383 25.4297V21.498H14.584V20.6602H15.7383V19.125H16.8223ZM23.7188 22.207H24.5332C25.0449 22.1992 25.4473 22.0645 25.7402 21.8027C26.0332 21.541 26.1797 21.1875 26.1797 20.7422C26.1797 19.7422 25.6816 19.2422 24.6855 19.2422C24.2168 19.2422 23.8418 19.377 23.5605 19.6465C23.2832 19.9121 23.1445 20.2656 23.1445 20.707H22.0605C22.0605 20.0312 22.3066 19.4707 22.7988 19.0254C23.2949 18.5762 23.9238 18.3516 24.6855 18.3516C25.4902 18.3516 26.1211 18.5645 26.5781 18.9902C27.0352 19.416 27.2637 20.0078 27.2637 20.7656C27.2637 21.1367 27.1426 21.4961 26.9004 21.8438C26.6621 22.1914 26.3359 22.4512 25.9219 22.623C26.3906 22.7715 26.752 23.0176 27.0059 23.3613C27.2637 23.7051 27.3926 24.125 27.3926 24.6211C27.3926 25.3867 27.1426 25.9941 26.6426 26.4434C26.1426 26.8926 25.4922 27.1172 24.6914 27.1172C23.8906 27.1172 23.2383 26.9004 22.7344 26.4668C22.2344 26.0332 21.9844 25.4609 21.9844 24.75H23.0742C23.0742 25.1992 23.2207 25.5586 23.5137 25.8281C23.8066 26.0977 24.1992 26.2324 24.6914 26.2324C25.2148 26.2324 25.6152 26.0957 25.8926 25.8223C26.1699 25.5488 26.3086 25.1562 26.3086 24.6445C26.3086 24.1484 26.1562 23.7676 25.8516 23.502C25.5469 23.2363 25.1074 23.0996 24.5332 23.0918H23.7188V22.207ZM32.4434 27H31.3535V19.7754L29.168 20.5781V19.5938L32.2734 18.4277H32.4434V27ZM40.9629 23.8184H38.1035V22.9336H40.9629V23.8184ZM51.7266 27H50.5957L46.3008 20.4258V27H45.1699V18.4688H46.3008L50.6074 25.0723V18.4688H51.7266V27ZM53.2676 23.7715C53.2676 23.1504 53.3887 22.5918 53.6309 22.0957C53.877 21.5996 54.2168 21.2168 54.6504 20.9473C55.0879 20.6777 55.5859 20.543 56.1445 20.543C57.0078 20.543 57.7051 20.8418 58.2363 21.4395C58.7715 22.0371 59.0391 22.832 59.0391 23.8242V23.9004C59.0391 24.5176 58.9199 25.0723 58.6816 25.5645C58.4473 26.0527 58.1094 26.4336 57.668 26.707C57.2305 26.9805 56.7266 27.1172 56.1562 27.1172C55.2969 27.1172 54.5996 26.8184 54.0645 26.2207C53.5332 25.623 53.2676 24.832 53.2676 23.8477V23.7715ZM54.3574 23.9004C54.3574 24.6035 54.5195 25.168 54.8438 25.5938C55.1719 26.0195 55.6094 26.2324 56.1562 26.2324C56.707 26.2324 57.1445 26.0176 57.4688 25.5879C57.793 25.1543 57.9551 24.5488 57.9551 23.7715C57.9551 23.0762 57.7891 22.5137 57.457 22.084C57.1289 21.6504 56.6914 21.4336 56.1445 21.4336C55.6094 21.4336 55.1777 21.6465 54.8496 22.0723C54.5215 22.498 54.3574 23.1074 54.3574 23.9004ZM62.3965 25.5293L63.9668 20.6602H65.0742L62.8008 27H61.9746L59.6777 20.6602H60.7852L62.3965 25.5293ZM74.1562 20.6953C74.1562 21.1211 74.043 21.5 73.8164 21.832C73.5938 22.1641 73.291 22.4238 72.9082 22.6113C73.3535 22.8027 73.7051 23.082 73.9629 23.4492C74.2246 23.8164 74.3555 24.2324 74.3555 24.6973C74.3555 25.4355 74.1055 26.0234 73.6055 26.4609C73.1094 26.8984 72.4551 27.1172 71.6426 27.1172C70.8223 27.1172 70.1641 26.8984 69.668 26.4609C69.1758 26.0195 68.9297 25.4316 68.9297 24.6973C68.9297 24.2363 69.0547 23.8203 69.3047 23.4492C69.5586 23.0781 69.9082 22.7969 70.3535 22.6055C69.9746 22.418 69.6758 22.1582 69.457 21.8262C69.2383 21.4941 69.1289 21.1172 69.1289 20.6953C69.1289 19.9766 69.3594 19.4062 69.8203 18.9844C70.2812 18.5625 70.8887 18.3516 71.6426 18.3516C72.3926 18.3516 72.998 18.5625 73.459 18.9844C73.9238 19.4062 74.1562 19.9766 74.1562 20.6953ZM73.2715 24.6738C73.2715 24.1973 73.1191 23.8086 72.8145 23.5078C72.5137 23.207 72.1191 23.0566 71.6309 23.0566C71.1426 23.0566 70.75 23.2051 70.4531 23.502C70.1602 23.7988 70.0137 24.1895 70.0137 24.6738C70.0137 25.1582 70.1562 25.5391 70.4414 25.8164C70.7305 26.0938 71.1309 26.2324 71.6426 26.2324C72.1504 26.2324 72.5488 26.0938 72.8379 25.8164C73.127 25.5352 73.2715 25.1543 73.2715 24.6738ZM71.6426 19.2422C71.2168 19.2422 70.8711 19.375 70.6055 19.6406C70.3438 19.9023 70.2129 20.2598 70.2129 20.7129C70.2129 21.1465 70.3418 21.498 70.5996 21.7676C70.8613 22.0332 71.209 22.166 71.6426 22.166C72.0762 22.166 72.4219 22.0332 72.6797 21.7676C72.9414 21.498 73.0723 21.1465 73.0723 20.7129C73.0723 20.2793 72.9375 19.9258 72.668 19.6523C72.3984 19.3789 72.0566 19.2422 71.6426 19.2422Z" fill="#5F5F5F"/>
<path d="M301.547 27H300.416L296.121 20.4258V27H294.99V18.4688H296.121L300.428 25.0723V18.4688H301.547V27ZM303.088 23.7715C303.088 23.1504 303.209 22.5918 303.451 22.0957C303.697 21.5996 304.037 21.2168 304.471 20.9473C304.908 20.6777 305.406 20.543 305.965 20.543C306.828 20.543 307.525 20.8418 308.057 21.4395C308.592 22.0371 308.859 22.832 308.859 23.8242V23.9004C308.859 24.5176 308.74 25.0723 308.502 25.5645C308.268 26.0527 307.93 26.4336 307.488 26.707C307.051 26.9805 306.547 27.1172 305.977 27.1172C305.117 27.1172 304.42 26.8184 303.885 26.2207C303.354 25.623 303.088 24.832 303.088 23.8477V23.7715ZM304.178 23.9004C304.178 24.6035 304.34 25.168 304.664 25.5938C304.992 26.0195 305.43 26.2324 305.977 26.2324C306.527 26.2324 306.965 26.0176 307.289 25.5879C307.613 25.1543 307.775 24.5488 307.775 23.7715C307.775 23.0762 307.609 22.5137 307.277 22.084C306.949 21.6504 306.512 21.4336 305.965 21.4336C305.43 21.4336 304.998 21.6465 304.67 22.0723C304.342 22.498 304.178 23.1074 304.178 23.9004ZM312.217 25.5293L313.787 20.6602H314.895L312.621 27H311.795L309.498 20.6602H310.605L312.217 25.5293ZM322.957 23.25C322.73 23.5195 322.459 23.7363 322.143 23.9004C321.83 24.0645 321.486 24.1465 321.111 24.1465C320.619 24.1465 320.189 24.0254 319.822 23.7832C319.459 23.541 319.178 23.2012 318.979 22.7637C318.779 22.3223 318.68 21.8359 318.68 21.3047C318.68 20.7344 318.787 20.2207 319.002 19.7637C319.221 19.3066 319.529 18.957 319.928 18.7148C320.326 18.4727 320.791 18.3516 321.322 18.3516C322.166 18.3516 322.83 18.668 323.314 19.3008C323.803 19.9297 324.047 20.7891 324.047 21.8789V22.1953C324.047 23.8555 323.719 25.0684 323.062 25.834C322.406 26.5957 321.416 26.9863 320.092 27.0059H319.881V26.0918H320.109C321.004 26.0762 321.691 25.8438 322.172 25.3945C322.652 24.9414 322.914 24.2266 322.957 23.25ZM321.287 23.25C321.65 23.25 321.984 23.1387 322.289 22.916C322.598 22.6934 322.822 22.418 322.963 22.0898V21.6562C322.963 20.9453 322.809 20.3672 322.5 19.9219C322.191 19.4766 321.801 19.2539 321.328 19.2539C320.852 19.2539 320.469 19.4375 320.18 19.8047C319.891 20.168 319.746 20.6484 319.746 21.2461C319.746 21.8281 319.885 22.3086 320.162 22.6875C320.443 23.0625 320.818 23.25 321.287 23.25ZM330.885 23.8184H328.025V22.9336H330.885V23.8184ZM341.648 27H340.518L336.223 20.4258V27H335.092V18.4688H336.223L340.529 25.0723V18.4688H341.648V27ZM343.189 23.7715C343.189 23.1504 343.311 22.5918 343.553 22.0957C343.799 21.5996 344.139 21.2168 344.572 20.9473C345.01 20.6777 345.508 20.543 346.066 20.543C346.93 20.543 347.627 20.8418 348.158 21.4395C348.693 22.0371 348.961 22.832 348.961 23.8242V23.9004C348.961 24.5176 348.842 25.0723 348.604 25.5645C348.369 26.0527 348.031 26.4336 347.59 26.707C347.152 26.9805 346.648 27.1172 346.078 27.1172C345.219 27.1172 344.521 26.8184 343.986 26.2207C343.455 25.623 343.189 24.832 343.189 23.8477V23.7715ZM344.279 23.9004C344.279 24.6035 344.441 25.168 344.766 25.5938C345.094 26.0195 345.531 26.2324 346.078 26.2324C346.629 26.2324 347.066 26.0176 347.391 25.5879C347.715 25.1543 347.877 24.5488 347.877 23.7715C347.877 23.0762 347.711 22.5137 347.379 22.084C347.051 21.6504 346.613 21.4336 346.066 21.4336C345.531 21.4336 345.1 21.6465 344.771 22.0723C344.443 22.498 344.279 23.1074 344.279 23.9004ZM352.318 25.5293L353.889 20.6602H354.996L352.723 27H351.896L349.6 20.6602H350.707L352.318 25.5293ZM362.467 27H361.377V19.7754L359.191 20.5781V19.5938L362.297 18.4277H362.467V27ZM369.896 18.4629V19.3828H369.697C368.854 19.3984 368.182 19.6484 367.682 20.1328C367.182 20.6172 366.893 21.2988 366.814 22.1777C367.264 21.6621 367.877 21.4043 368.654 21.4043C369.396 21.4043 369.988 21.666 370.43 22.1895C370.875 22.7129 371.098 23.3887 371.098 24.2168C371.098 25.0957 370.857 25.7988 370.377 26.3262C369.9 26.8535 369.26 27.1172 368.455 27.1172C367.639 27.1172 366.977 26.8047 366.469 26.1797C365.961 25.5508 365.707 24.7422 365.707 23.7539V23.3379C365.707 21.7676 366.041 20.5684 366.709 19.7402C367.381 18.9082 368.379 18.4824 369.703 18.4629H369.896ZM368.473 22.3066C368.102 22.3066 367.76 22.418 367.447 22.6406C367.135 22.8633 366.918 23.1426 366.797 23.4785V23.877C366.797 24.5801 366.955 25.1465 367.271 25.5762C367.588 26.0059 367.982 26.2207 368.455 26.2207C368.943 26.2207 369.326 26.041 369.604 25.6816C369.885 25.3223 370.025 24.8516 370.025 24.2695C370.025 23.6836 369.883 23.2109 369.598 22.8516C369.316 22.4883 368.941 22.3066 368.473 22.3066Z" fill="#5F5F5F"/>
<path d="M633.547 27H632.416L628.121 20.4258V27H626.99V18.4688H628.121L632.428 25.0723V18.4688H633.547V27ZM635.088 23.7715C635.088 23.1504 635.209 22.5918 635.451 22.0957C635.697 21.5996 636.037 21.2168 636.471 20.9473C636.908 20.6777 637.406 20.543 637.965 20.543C638.828 20.543 639.525 20.8418 640.057 21.4395C640.592 22.0371 640.859 22.832 640.859 23.8242V23.9004C640.859 24.5176 640.74 25.0723 640.502 25.5645C640.268 26.0527 639.93 26.4336 639.488 26.707C639.051 26.9805 638.547 27.1172 637.977 27.1172C637.117 27.1172 636.42 26.8184 635.885 26.2207C635.354 25.623 635.088 24.832 635.088 23.8477V23.7715ZM636.178 23.9004C636.178 24.6035 636.34 25.168 636.664 25.5938C636.992 26.0195 637.43 26.2324 637.977 26.2324C638.527 26.2324 638.965 26.0176 639.289 25.5879C639.613 25.1543 639.775 24.5488 639.775 23.7715C639.775 23.0762 639.609 22.5137 639.277 22.084C638.949 21.6504 638.512 21.4336 637.965 21.4336C637.43 21.4336 636.998 21.6465 636.67 22.0723C636.342 22.498 636.178 23.1074 636.178 23.9004ZM644.217 25.5293L645.787 20.6602H646.895L644.621 27H643.795L641.498 20.6602H642.605L644.217 25.5293ZM654.365 27H653.275V19.7754L651.09 20.5781V19.5938L654.195 18.4277H654.365V27ZM661.795 18.4629V19.3828H661.596C660.752 19.3984 660.08 19.6484 659.58 20.1328C659.08 20.6172 658.791 21.2988 658.713 22.1777C659.162 21.6621 659.775 21.4043 660.553 21.4043C661.295 21.4043 661.887 21.666 662.328 22.1895C662.773 22.7129 662.996 23.3887 662.996 24.2168C662.996 25.0957 662.756 25.7988 662.275 26.3262C661.799 26.8535 661.158 27.1172 660.354 27.1172C659.537 27.1172 658.875 26.8047 658.367 26.1797C657.859 25.5508 657.605 24.7422 657.605 23.7539V23.3379C657.605 21.7676 657.939 20.5684 658.607 19.7402C659.279 18.9082 660.277 18.4824 661.602 18.4629H661.795ZM660.371 22.3066C660 22.3066 659.658 22.418 659.346 22.6406C659.033 22.8633 658.816 23.1426 658.695 23.4785V23.877C658.695 24.5801 658.854 25.1465 659.17 25.5762C659.486 26.0059 659.881 26.2207 660.354 26.2207C660.842 26.2207 661.225 26.041 661.502 25.6816C661.783 25.3223 661.924 24.8516 661.924 24.2695C661.924 23.6836 661.781 23.2109 661.496 22.8516C661.215 22.4883 660.84 22.3066 660.371 22.3066ZM669.623 23.8184H666.764V22.9336H669.623V23.8184ZM680.387 27H679.256L674.961 20.4258V27H673.83V18.4688H674.961L679.268 25.0723V18.4688H680.387V27ZM681.928 23.7715C681.928 23.1504 682.049 22.5918 682.291 22.0957C682.537 21.5996 682.877 21.2168 683.311 20.9473C683.748 20.6777 684.246 20.543 684.805 20.543C685.668 20.543 686.365 20.8418 686.896 21.4395C687.432 22.0371 687.699 22.832 687.699 23.8242V23.9004C687.699 24.5176 687.58 25.0723 687.342 25.5645C687.107 26.0527 686.77 26.4336 686.328 26.707C685.891 26.9805 685.387 27.1172 684.816 27.1172C683.957 27.1172 683.26 26.8184 682.725 26.2207C682.193 25.623 681.928 24.832 681.928 23.8477V23.7715ZM683.018 23.9004C683.018 24.6035 683.18 25.168 683.504 25.5938C683.832 26.0195 684.27 26.2324 684.816 26.2324C685.367 26.2324 685.805 26.0176 686.129 25.5879C686.453 25.1543 686.615 24.5488 686.615 23.7715C686.615 23.0762 686.449 22.5137 686.117 22.084C685.789 21.6504 685.352 21.4336 684.805 21.4336C684.27 21.4336 683.838 21.6465 683.51 22.0723C683.182 22.498 683.018 23.1074 683.018 23.9004ZM691.057 25.5293L692.627 20.6602H693.734L691.461 27H690.635L688.338 20.6602H689.445L691.057 25.5293ZM703.232 27H697.643V26.2207L700.596 22.9395C701.033 22.4434 701.334 22.041 701.498 21.7324C701.666 21.4199 701.75 21.0977 701.75 20.7656C701.75 20.3203 701.615 19.9551 701.346 19.6699C701.076 19.3848 700.717 19.2422 700.268 19.2422C699.729 19.2422 699.309 19.3965 699.008 19.7051C698.711 20.0098 698.562 20.4355 698.562 20.9824H697.479C697.479 20.1973 697.73 19.5625 698.234 19.0781C698.742 18.5938 699.42 18.3516 700.268 18.3516C701.061 18.3516 701.688 18.5605 702.148 18.9785C702.609 19.3926 702.84 19.9453 702.84 20.6367C702.84 21.4766 702.305 22.4766 701.234 23.6367L698.949 26.1152H703.232V27ZM709.971 27H704.381V26.2207L707.334 22.9395C707.771 22.4434 708.072 22.041 708.236 21.7324C708.404 21.4199 708.488 21.0977 708.488 20.7656C708.488 20.3203 708.354 19.9551 708.084 19.6699C707.814 19.3848 707.455 19.2422 707.006 19.2422C706.467 19.2422 706.047 19.3965 705.746 19.7051C705.449 20.0098 705.301 20.4355 705.301 20.9824H704.217C704.217 20.1973 704.469 19.5625 704.973 19.0781C705.48 18.5938 706.158 18.3516 707.006 18.3516C707.799 18.3516 708.426 18.5605 708.887 18.9785C709.348 19.3926 709.578 19.9453 709.578 20.6367C709.578 21.4766 709.043 22.4766 707.973 23.6367L705.688 26.1152H709.971V27Z" fill="#5F5F5F"/>
<path d="M936.547 27H935.416L931.121 20.4258V27H929.99V18.4688H931.121L935.428 25.0723V18.4688H936.547V27ZM938.088 23.7715C938.088 23.1504 938.209 22.5918 938.451 22.0957C938.697 21.5996 939.037 21.2168 939.471 20.9473C939.908 20.6777 940.406 20.543 940.965 20.543C941.828 20.543 942.525 20.8418 943.057 21.4395C943.592 22.0371 943.859 22.832 943.859 23.8242V23.9004C943.859 24.5176 943.74 25.0723 943.502 25.5645C943.268 26.0527 942.93 26.4336 942.488 26.707C942.051 26.9805 941.547 27.1172 940.977 27.1172C940.117 27.1172 939.42 26.8184 938.885 26.2207C938.354 25.623 938.088 24.832 938.088 23.8477V23.7715ZM939.178 23.9004C939.178 24.6035 939.34 25.168 939.664 25.5938C939.992 26.0195 940.43 26.2324 940.977 26.2324C941.527 26.2324 941.965 26.0176 942.289 25.5879C942.613 25.1543 942.775 24.5488 942.775 23.7715C942.775 23.0762 942.609 22.5137 942.277 22.084C941.949 21.6504 941.512 21.4336 940.965 21.4336C940.43 21.4336 939.998 21.6465 939.67 22.0723C939.342 22.498 939.178 23.1074 939.178 23.9004ZM947.217 25.5293L948.787 20.6602H949.895L947.621 27H946.795L944.498 20.6602H945.605L947.217 25.5293ZM959.393 27H953.803V26.2207L956.756 22.9395C957.193 22.4434 957.494 22.041 957.658 21.7324C957.826 21.4199 957.91 21.0977 957.91 20.7656C957.91 20.3203 957.775 19.9551 957.506 19.6699C957.236 19.3848 956.877 19.2422 956.428 19.2422C955.889 19.2422 955.469 19.3965 955.168 19.7051C954.871 20.0098 954.723 20.4355 954.723 20.9824H953.639C953.639 20.1973 953.891 19.5625 954.395 19.0781C954.902 18.5938 955.58 18.3516 956.428 18.3516C957.221 18.3516 957.848 18.5605 958.309 18.9785C958.77 19.3926 959 19.9453 959 20.6367C959 21.4766 958.465 22.4766 957.395 23.6367L955.109 26.1152H959.393V27ZM962.117 22.207H962.932C963.443 22.1992 963.846 22.0645 964.139 21.8027C964.432 21.541 964.578 21.1875 964.578 20.7422C964.578 19.7422 964.08 19.2422 963.084 19.2422C962.615 19.2422 962.24 19.377 961.959 19.6465C961.682 19.9121 961.543 20.2656 961.543 20.707H960.459C960.459 20.0312 960.705 19.4707 961.197 19.0254C961.693 18.5762 962.322 18.3516 963.084 18.3516C963.889 18.3516 964.52 18.5645 964.977 18.9902C965.434 19.416 965.662 20.0078 965.662 20.7656C965.662 21.1367 965.541 21.4961 965.299 21.8438C965.061 22.1914 964.734 22.4512 964.32 22.623C964.789 22.7715 965.15 23.0176 965.404 23.3613C965.662 23.7051 965.791 24.125 965.791 24.6211C965.791 25.3867 965.541 25.9941 965.041 26.4434C964.541 26.8926 963.891 27.1172 963.09 27.1172C962.289 27.1172 961.637 26.9004 961.133 26.4668C960.633 26.0332 960.383 25.4609 960.383 24.75H961.473C961.473 25.1992 961.619 25.5586 961.912 25.8281C962.205 26.0977 962.598 26.2324 963.09 26.2324C963.613 26.2324 964.014 26.0957 964.291 25.8223C964.568 25.5488 964.707 25.1562 964.707 24.6445C964.707 24.1484 964.555 23.7676 964.25 23.502C963.945 23.2363 963.506 23.0996 962.932 23.0918H962.117V22.207ZM972.623 23.8184H969.764V22.9336H972.623V23.8184ZM983.387 27H982.256L977.961 20.4258V27H976.83V18.4688H977.961L982.268 25.0723V18.4688H983.387V27ZM984.928 23.7715C984.928 23.1504 985.049 22.5918 985.291 22.0957C985.537 21.5996 985.877 21.2168 986.311 20.9473C986.748 20.6777 987.246 20.543 987.805 20.543C988.668 20.543 989.365 20.8418 989.896 21.4395C990.432 22.0371 990.699 22.832 990.699 23.8242V23.9004C990.699 24.5176 990.58 25.0723 990.342 25.5645C990.107 26.0527 989.77 26.4336 989.328 26.707C988.891 26.9805 988.387 27.1172 987.816 27.1172C986.957 27.1172 986.26 26.8184 985.725 26.2207C985.193 25.623 984.928 24.832 984.928 23.8477V23.7715ZM986.018 23.9004C986.018 24.6035 986.18 25.168 986.504 25.5938C986.832 26.0195 987.27 26.2324 987.816 26.2324C988.367 26.2324 988.805 26.0176 989.129 25.5879C989.453 25.1543 989.615 24.5488 989.615 23.7715C989.615 23.0762 989.449 22.5137 989.117 22.084C988.789 21.6504 988.352 21.4336 987.805 21.4336C987.27 21.4336 986.838 21.6465 986.51 22.0723C986.182 22.498 986.018 23.1074 986.018 23.9004ZM994.057 25.5293L995.627 20.6602H996.734L994.461 27H993.635L991.338 20.6602H992.445L994.057 25.5293ZM1002.22 22.207H1003.03C1003.54 22.1992 1003.95 22.0645 1004.24 21.8027C1004.53 21.541 1004.68 21.1875 1004.68 20.7422C1004.68 19.7422 1004.18 19.2422 1003.19 19.2422C1002.72 19.2422 1002.34 19.377 1002.06 19.6465C1001.78 19.9121 1001.64 20.2656 1001.64 20.707H1000.56C1000.56 20.0312 1000.81 19.4707 1001.3 19.0254C1001.79 18.5762 1002.42 18.3516 1003.19 18.3516C1003.99 18.3516 1004.62 18.5645 1005.08 18.9902C1005.54 19.416 1005.76 20.0078 1005.76 20.7656C1005.76 21.1367 1005.64 21.4961 1005.4 21.8438C1005.16 22.1914 1004.84 22.4512 1004.42 22.623C1004.89 22.7715 1005.25 23.0176 1005.51 23.3613C1005.76 23.7051 1005.89 24.125 1005.89 24.6211C1005.89 25.3867 1005.64 25.9941 1005.14 26.4434C1004.64 26.8926 1003.99 27.1172 1003.19 27.1172C1002.39 27.1172 1001.74 26.9004 1001.23 26.4668C1000.73 26.0332 1000.48 25.4609 1000.48 24.75H1001.57C1001.57 25.1992 1001.72 25.5586 1002.01 25.8281C1002.31 26.0977 1002.7 26.2324 1003.19 26.2324C1003.71 26.2324 1004.12 26.0957 1004.39 25.8223C1004.67 25.5488 1004.81 25.1562 1004.81 24.6445C1004.81 24.1484 1004.66 23.7676 1004.35 23.502C1004.05 23.2363 1003.61 23.0996 1003.03 23.0918H1002.22V22.207ZM1012.73 23.3613C1012.73 24.6309 1012.51 25.5742 1012.08 26.1914C1011.65 26.8086 1010.97 27.1172 1010.05 27.1172C1009.14 27.1172 1008.46 26.8164 1008.03 26.2148C1007.59 25.6094 1007.36 24.707 1007.35 23.5078V22.0605C1007.35 20.8066 1007.56 19.875 1008 19.2656C1008.43 18.6562 1009.11 18.3516 1010.04 18.3516C1010.95 18.3516 1011.63 18.6465 1012.06 19.2363C1012.5 19.8223 1012.72 20.7285 1012.73 21.9551V23.3613ZM1011.65 21.8789C1011.65 20.9609 1011.52 20.293 1011.26 19.875C1011 19.4531 1010.59 19.2422 1010.04 19.2422C1009.48 19.2422 1009.08 19.4512 1008.82 19.8691C1008.57 20.2871 1008.44 20.9297 1008.43 21.7969V23.5312C1008.43 24.4531 1008.56 25.1348 1008.83 25.5762C1009.1 26.0137 1009.5 26.2324 1010.05 26.2324C1010.58 26.2324 1010.98 26.0254 1011.24 25.6113C1011.5 25.1973 1011.63 24.5449 1011.65 23.6543V21.8789Z" fill="#5F5F5F"/>
<rect x="4" width="1" height="13" fill="#5F5F5F"/>
<rect x="333" width="1" height="13" fill="#5F5F5F"/>
<rect x="670" width="1" height="13" fill="#5F5F5F"/>
<rect x="1006" width="1" height="13" fill="#5F5F5F"/>
</svg>
