<svg width="452" height="31" viewBox="0 0 452 31" fill="none" xmlns="http://www.w3.org/2000/svg">
<path d="M7.55273 23.0098C7.55273 23.8457 7.41211 24.5762 7.13086 25.2012C6.84961 25.8223 6.45117 26.2969 5.93555 26.625C5.41992 26.9531 4.81836 27.1172 4.13086 27.1172C3.45898 27.1172 2.86328 26.9531 2.34375 26.625C1.82422 26.293 1.41992 25.8223 1.13086 25.2129C0.845703 24.5996 0.699219 23.8906 0.691406 23.0859V22.4707C0.691406 21.6504 0.833984 20.9258 1.11914 20.2969C1.4043 19.668 1.80664 19.1875 2.32617 18.8555C2.84961 18.5195 3.44727 18.3516 4.11914 18.3516C4.80273 18.3516 5.4043 18.5176 5.92383 18.8496C6.44727 19.1777 6.84961 19.6562 7.13086 20.2852C7.41211 20.9102 7.55273 21.6387 7.55273 22.4707V23.0098ZM6.43359 22.459C6.43359 21.4473 6.23047 20.6719 5.82422 20.1328C5.41797 19.5898 4.84961 19.3184 4.11914 19.3184C3.4082 19.3184 2.84766 19.5898 2.4375 20.1328C2.03125 20.6719 1.82227 21.4219 1.81055 22.3828V23.0098C1.81055 23.9902 2.01562 24.7617 2.42578 25.3242C2.83984 25.8828 3.4082 26.1621 4.13086 26.1621C4.85742 26.1621 5.41992 25.8984 5.81836 25.3711C6.2168 24.8398 6.42188 24.0801 6.43359 23.0918V22.459ZM11.6133 26.2324C12 26.2324 12.3379 26.1152 12.627 25.8809C12.916 25.6465 13.0762 25.3535 13.1074 25.002H14.1328C14.1133 25.3652 13.9883 25.7109 13.7578 26.0391C13.5273 26.3672 13.2188 26.6289 12.832 26.8242C12.4492 27.0195 12.043 27.1172 11.6133 27.1172C10.75 27.1172 10.0625 26.8301 9.55078 26.2559C9.04297 25.6777 8.78906 24.8887 8.78906 23.8887V23.707C8.78906 23.0898 8.90234 22.541 9.12891 22.0605C9.35547 21.5801 9.67969 21.207 10.1016 20.9414C10.5273 20.6758 11.0293 20.543 11.6074 20.543C12.3184 20.543 12.9082 20.7559 13.377 21.1816C13.8496 21.6074 14.1016 22.1602 14.1328 22.8398H13.1074C13.0762 22.4297 12.9199 22.0938 12.6387 21.832C12.3613 21.5664 12.0176 21.4336 11.6074 21.4336C11.0566 21.4336 10.6289 21.6328 10.3242 22.0312C10.0234 22.4258 9.87305 22.998 9.87305 23.748V23.9531C9.87305 24.6836 10.0234 25.2461 10.3242 25.6406C10.625 26.0352 11.0547 26.2324 11.6133 26.2324ZM16.8223 19.125V20.6602H18.0059V21.498H16.8223V25.4297C16.8223 25.6836 16.875 25.875 16.9805 26.0039C17.0859 26.1289 17.2656 26.1914 17.5195 26.1914C17.6445 26.1914 17.8164 26.168 18.0352 26.1211V27C17.75 27.0781 17.4727 27.1172 17.2031 27.1172C16.7188 27.1172 16.3535 26.9707 16.1074 26.6777C15.8613 26.3848 15.7383 25.9688 15.7383 25.4297V21.498H14.584V20.6602H15.7383V19.125H16.8223ZM23.7188 22.207H24.5332C25.0449 22.1992 25.4473 22.0645 25.7402 21.8027C26.0332 21.541 26.1797 21.1875 26.1797 20.7422C26.1797 19.7422 25.6816 19.2422 24.6855 19.2422C24.2168 19.2422 23.8418 19.377 23.5605 19.6465C23.2832 19.9121 23.1445 20.2656 23.1445 20.707H22.0605C22.0605 20.0312 22.3066 19.4707 22.7988 19.0254C23.2949 18.5762 23.9238 18.3516 24.6855 18.3516C25.4902 18.3516 26.1211 18.5645 26.5781 18.9902C27.0352 19.416 27.2637 20.0078 27.2637 20.7656C27.2637 21.1367 27.1426 21.4961 26.9004 21.8438C26.6621 22.1914 26.3359 22.4512 25.9219 22.623C26.3906 22.7715 26.752 23.0176 27.0059 23.3613C27.2637 23.7051 27.3926 24.125 27.3926 24.6211C27.3926 25.3867 27.1426 25.9941 26.6426 26.4434C26.1426 26.8926 25.4922 27.1172 24.6914 27.1172C23.8906 27.1172 23.2383 26.9004 22.7344 26.4668C22.2344 26.0332 21.9844 25.4609 21.9844 24.75H23.0742C23.0742 25.1992 23.2207 25.5586 23.5137 25.8281C23.8066 26.0977 24.1992 26.2324 24.6914 26.2324C25.2148 26.2324 25.6152 26.0957 25.8926 25.8223C26.1699 25.5488 26.3086 25.1562 26.3086 24.6445C26.3086 24.1484 26.1562 23.7676 25.8516 23.502C25.5469 23.2363 25.1074 23.0996 24.5332 23.0918H23.7188V22.207ZM32.4434 27H31.3535V19.7754L29.168 20.5781V19.5938L32.2734 18.4277H32.4434V27ZM40.9629 23.8184H38.1035V22.9336H40.9629V23.8184ZM51.7266 27H50.5957L46.3008 20.4258V27H45.1699V18.4688H46.3008L50.6074 25.0723V18.4688H51.7266V27ZM53.2676 23.7715C53.2676 23.1504 53.3887 22.5918 53.6309 22.0957C53.877 21.5996 54.2168 21.2168 54.6504 20.9473C55.0879 20.6777 55.5859 20.543 56.1445 20.543C57.0078 20.543 57.7051 20.8418 58.2363 21.4395C58.7715 22.0371 59.0391 22.832 59.0391 23.8242V23.9004C59.0391 24.5176 58.9199 25.0723 58.6816 25.5645C58.4473 26.0527 58.1094 26.4336 57.668 26.707C57.2305 26.9805 56.7266 27.1172 56.1562 27.1172C55.2969 27.1172 54.5996 26.8184 54.0645 26.2207C53.5332 25.623 53.2676 24.832 53.2676 23.8477V23.7715ZM54.3574 23.9004C54.3574 24.6035 54.5195 25.168 54.8438 25.5938C55.1719 26.0195 55.6094 26.2324 56.1562 26.2324C56.707 26.2324 57.1445 26.0176 57.4688 25.5879C57.793 25.1543 57.9551 24.5488 57.9551 23.7715C57.9551 23.0762 57.7891 22.5137 57.457 22.084C57.1289 21.6504 56.6914 21.4336 56.1445 21.4336C55.6094 21.4336 55.1777 21.6465 54.8496 22.0723C54.5215 22.498 54.3574 23.1074 54.3574 23.9004ZM62.3965 25.5293L63.9668 20.6602H65.0742L62.8008 27H61.9746L59.6777 20.6602H60.7852L62.3965 25.5293ZM74.1562 20.6953C74.1562 21.1211 74.043 21.5 73.8164 21.832C73.5938 22.1641 73.291 22.4238 72.9082 22.6113C73.3535 22.8027 73.7051 23.082 73.9629 23.4492C74.2246 23.8164 74.3555 24.2324 74.3555 24.6973C74.3555 25.4355 74.1055 26.0234 73.6055 26.4609C73.1094 26.8984 72.4551 27.1172 71.6426 27.1172C70.8223 27.1172 70.1641 26.8984 69.668 26.4609C69.1758 26.0195 68.9297 25.4316 68.9297 24.6973C68.9297 24.2363 69.0547 23.8203 69.3047 23.4492C69.5586 23.0781 69.9082 22.7969 70.3535 22.6055C69.9746 22.418 69.6758 22.1582 69.457 21.8262C69.2383 21.4941 69.1289 21.1172 69.1289 20.6953C69.1289 19.9766 69.3594 19.4062 69.8203 18.9844C70.2812 18.5625 70.8887 18.3516 71.6426 18.3516C72.3926 18.3516 72.998 18.5625 73.459 18.9844C73.9238 19.4062 74.1562 19.9766 74.1562 20.6953ZM73.2715 24.6738C73.2715 24.1973 73.1191 23.8086 72.8145 23.5078C72.5137 23.207 72.1191 23.0566 71.6309 23.0566C71.1426 23.0566 70.75 23.2051 70.4531 23.502C70.1602 23.7988 70.0137 24.1895 70.0137 24.6738C70.0137 25.1582 70.1562 25.5391 70.4414 25.8164C70.7305 26.0938 71.1309 26.2324 71.6426 26.2324C72.1504 26.2324 72.5488 26.0938 72.8379 25.8164C73.127 25.5352 73.2715 25.1543 73.2715 24.6738ZM71.6426 19.2422C71.2168 19.2422 70.8711 19.375 70.6055 19.6406C70.3438 19.9023 70.2129 20.2598 70.2129 20.7129C70.2129 21.1465 70.3418 21.498 70.5996 21.7676C70.8613 22.0332 71.209 22.166 71.6426 22.166C72.0762 22.166 72.4219 22.0332 72.6797 21.7676C72.9414 21.498 73.0723 21.1465 73.0723 20.7129C73.0723 20.2793 72.9375 19.9258 72.668 19.6523C72.3984 19.3789 72.0566 19.2422 71.6426 19.2422Z" fill="#5F5F5F"/>
<path d="M117.547 27H116.416L112.121 20.4258V27H110.99V18.4688H112.121L116.428 25.0723V18.4688H117.547V27ZM119.088 23.7715C119.088 23.1504 119.209 22.5918 119.451 22.0957C119.697 21.5996 120.037 21.2168 120.471 20.9473C120.908 20.6777 121.406 20.543 121.965 20.543C122.828 20.543 123.525 20.8418 124.057 21.4395C124.592 22.0371 124.859 22.832 124.859 23.8242V23.9004C124.859 24.5176 124.74 25.0723 124.502 25.5645C124.268 26.0527 123.93 26.4336 123.488 26.707C123.051 26.9805 122.547 27.1172 121.977 27.1172C121.117 27.1172 120.42 26.8184 119.885 26.2207C119.354 25.623 119.088 24.832 119.088 23.8477V23.7715ZM120.178 23.9004C120.178 24.6035 120.34 25.168 120.664 25.5938C120.992 26.0195 121.43 26.2324 121.977 26.2324C122.527 26.2324 122.965 26.0176 123.289 25.5879C123.613 25.1543 123.775 24.5488 123.775 23.7715C123.775 23.0762 123.609 22.5137 123.277 22.084C122.949 21.6504 122.512 21.4336 121.965 21.4336C121.43 21.4336 120.998 21.6465 120.67 22.0723C120.342 22.498 120.178 23.1074 120.178 23.9004ZM128.217 25.5293L129.787 20.6602H130.895L128.621 27H127.795L125.498 20.6602H126.605L128.217 25.5293ZM138.957 23.25C138.73 23.5195 138.459 23.7363 138.143 23.9004C137.83 24.0645 137.486 24.1465 137.111 24.1465C136.619 24.1465 136.189 24.0254 135.822 23.7832C135.459 23.541 135.178 23.2012 134.979 22.7637C134.779 22.3223 134.68 21.8359 134.68 21.3047C134.68 20.7344 134.787 20.2207 135.002 19.7637C135.221 19.3066 135.529 18.957 135.928 18.7148C136.326 18.4727 136.791 18.3516 137.322 18.3516C138.166 18.3516 138.83 18.668 139.314 19.3008C139.803 19.9297 140.047 20.7891 140.047 21.8789V22.1953C140.047 23.8555 139.719 25.0684 139.062 25.834C138.406 26.5957 137.416 26.9863 136.092 27.0059H135.881V26.0918H136.109C137.004 26.0762 137.691 25.8438 138.172 25.3945C138.652 24.9414 138.914 24.2266 138.957 23.25ZM137.287 23.25C137.65 23.25 137.984 23.1387 138.289 22.916C138.598 22.6934 138.822 22.418 138.963 22.0898V21.6562C138.963 20.9453 138.809 20.3672 138.5 19.9219C138.191 19.4766 137.801 19.2539 137.328 19.2539C136.852 19.2539 136.469 19.4375 136.18 19.8047C135.891 20.168 135.746 20.6484 135.746 21.2461C135.746 21.8281 135.885 22.3086 136.162 22.6875C136.443 23.0625 136.818 23.25 137.287 23.25ZM146.885 23.8184H144.025V22.9336H146.885V23.8184ZM157.648 27H156.518L152.223 20.4258V27H151.092V18.4688H152.223L156.529 25.0723V18.4688H157.648V27ZM159.189 23.7715C159.189 23.1504 159.311 22.5918 159.553 22.0957C159.799 21.5996 160.139 21.2168 160.572 20.9473C161.01 20.6777 161.508 20.543 162.066 20.543C162.93 20.543 163.627 20.8418 164.158 21.4395C164.693 22.0371 164.961 22.832 164.961 23.8242V23.9004C164.961 24.5176 164.842 25.0723 164.604 25.5645C164.369 26.0527 164.031 26.4336 163.59 26.707C163.152 26.9805 162.648 27.1172 162.078 27.1172C161.219 27.1172 160.521 26.8184 159.986 26.2207C159.455 25.623 159.189 24.832 159.189 23.8477V23.7715ZM160.279 23.9004C160.279 24.6035 160.441 25.168 160.766 25.5938C161.094 26.0195 161.531 26.2324 162.078 26.2324C162.629 26.2324 163.066 26.0176 163.391 25.5879C163.715 25.1543 163.877 24.5488 163.877 23.7715C163.877 23.0762 163.711 22.5137 163.379 22.084C163.051 21.6504 162.613 21.4336 162.066 21.4336C161.531 21.4336 161.1 21.6465 160.771 22.0723C160.443 22.498 160.279 23.1074 160.279 23.9004ZM168.318 25.5293L169.889 20.6602H170.996L168.723 27H167.896L165.6 20.6602H166.707L168.318 25.5293ZM178.467 27H177.377V19.7754L175.191 20.5781V19.5938L178.297 18.4277H178.467V27ZM185.896 18.4629V19.3828H185.697C184.854 19.3984 184.182 19.6484 183.682 20.1328C183.182 20.6172 182.893 21.2988 182.814 22.1777C183.264 21.6621 183.877 21.4043 184.654 21.4043C185.396 21.4043 185.988 21.666 186.43 22.1895C186.875 22.7129 187.098 23.3887 187.098 24.2168C187.098 25.0957 186.857 25.7988 186.377 26.3262C185.9 26.8535 185.26 27.1172 184.455 27.1172C183.639 27.1172 182.977 26.8047 182.469 26.1797C181.961 25.5508 181.707 24.7422 181.707 23.7539V23.3379C181.707 21.7676 182.041 20.5684 182.709 19.7402C183.381 18.9082 184.379 18.4824 185.703 18.4629H185.896ZM184.473 22.3066C184.102 22.3066 183.76 22.418 183.447 22.6406C183.135 22.8633 182.918 23.1426 182.797 23.4785V23.877C182.797 24.5801 182.955 25.1465 183.271 25.5762C183.588 26.0059 183.982 26.2207 184.455 26.2207C184.943 26.2207 185.326 26.041 185.604 25.6816C185.885 25.3223 186.025 24.8516 186.025 24.2695C186.025 23.6836 185.883 23.2109 185.598 22.8516C185.316 22.4883 184.941 22.3066 184.473 22.3066Z" fill="#5F5F5F"/>
<path d="M258.547 27H257.416L253.121 20.4258V27H251.99V18.4688H253.121L257.428 25.0723V18.4688H258.547V27ZM260.088 23.7715C260.088 23.1504 260.209 22.5918 260.451 22.0957C260.697 21.5996 261.037 21.2168 261.471 20.9473C261.908 20.6777 262.406 20.543 262.965 20.543C263.828 20.543 264.525 20.8418 265.057 21.4395C265.592 22.0371 265.859 22.832 265.859 23.8242V23.9004C265.859 24.5176 265.74 25.0723 265.502 25.5645C265.268 26.0527 264.93 26.4336 264.488 26.707C264.051 26.9805 263.547 27.1172 262.977 27.1172C262.117 27.1172 261.42 26.8184 260.885 26.2207C260.354 25.623 260.088 24.832 260.088 23.8477V23.7715ZM261.178 23.9004C261.178 24.6035 261.34 25.168 261.664 25.5938C261.992 26.0195 262.43 26.2324 262.977 26.2324C263.527 26.2324 263.965 26.0176 264.289 25.5879C264.613 25.1543 264.775 24.5488 264.775 23.7715C264.775 23.0762 264.609 22.5137 264.277 22.084C263.949 21.6504 263.512 21.4336 262.965 21.4336C262.43 21.4336 261.998 21.6465 261.67 22.0723C261.342 22.498 261.178 23.1074 261.178 23.9004ZM269.217 25.5293L270.787 20.6602H271.895L269.621 27H268.795L266.498 20.6602H267.605L269.217 25.5293ZM279.365 27H278.275V19.7754L276.09 20.5781V19.5938L279.195 18.4277H279.365V27ZM286.795 18.4629V19.3828H286.596C285.752 19.3984 285.08 19.6484 284.58 20.1328C284.08 20.6172 283.791 21.2988 283.713 22.1777C284.162 21.6621 284.775 21.4043 285.553 21.4043C286.295 21.4043 286.887 21.666 287.328 22.1895C287.773 22.7129 287.996 23.3887 287.996 24.2168C287.996 25.0957 287.756 25.7988 287.275 26.3262C286.799 26.8535 286.158 27.1172 285.354 27.1172C284.537 27.1172 283.875 26.8047 283.367 26.1797C282.859 25.5508 282.605 24.7422 282.605 23.7539V23.3379C282.605 21.7676 282.939 20.5684 283.607 19.7402C284.279 18.9082 285.277 18.4824 286.602 18.4629H286.795ZM285.371 22.3066C285 22.3066 284.658 22.418 284.346 22.6406C284.033 22.8633 283.816 23.1426 283.695 23.4785V23.877C283.695 24.5801 283.854 25.1465 284.17 25.5762C284.486 26.0059 284.881 26.2207 285.354 26.2207C285.842 26.2207 286.225 26.041 286.502 25.6816C286.783 25.3223 286.924 24.8516 286.924 24.2695C286.924 23.6836 286.781 23.2109 286.496 22.8516C286.215 22.4883 285.84 22.3066 285.371 22.3066ZM294.623 23.8184H291.764V22.9336H294.623V23.8184ZM305.387 27H304.256L299.961 20.4258V27H298.83V18.4688H299.961L304.268 25.0723V18.4688H305.387V27ZM306.928 23.7715C306.928 23.1504 307.049 22.5918 307.291 22.0957C307.537 21.5996 307.877 21.2168 308.311 20.9473C308.748 20.6777 309.246 20.543 309.805 20.543C310.668 20.543 311.365 20.8418 311.896 21.4395C312.432 22.0371 312.699 22.832 312.699 23.8242V23.9004C312.699 24.5176 312.58 25.0723 312.342 25.5645C312.107 26.0527 311.77 26.4336 311.328 26.707C310.891 26.9805 310.387 27.1172 309.816 27.1172C308.957 27.1172 308.26 26.8184 307.725 26.2207C307.193 25.623 306.928 24.832 306.928 23.8477V23.7715ZM308.018 23.9004C308.018 24.6035 308.18 25.168 308.504 25.5938C308.832 26.0195 309.27 26.2324 309.816 26.2324C310.367 26.2324 310.805 26.0176 311.129 25.5879C311.453 25.1543 311.615 24.5488 311.615 23.7715C311.615 23.0762 311.449 22.5137 311.117 22.084C310.789 21.6504 310.352 21.4336 309.805 21.4336C309.27 21.4336 308.838 21.6465 308.51 22.0723C308.182 22.498 308.018 23.1074 308.018 23.9004ZM316.057 25.5293L317.627 20.6602H318.734L316.461 27H315.635L313.338 20.6602H314.445L316.057 25.5293ZM328.232 27H322.643V26.2207L325.596 22.9395C326.033 22.4434 326.334 22.041 326.498 21.7324C326.666 21.4199 326.75 21.0977 326.75 20.7656C326.75 20.3203 326.615 19.9551 326.346 19.6699C326.076 19.3848 325.717 19.2422 325.268 19.2422C324.729 19.2422 324.309 19.3965 324.008 19.7051C323.711 20.0098 323.562 20.4355 323.562 20.9824H322.479C322.479 20.1973 322.73 19.5625 323.234 19.0781C323.742 18.5938 324.42 18.3516 325.268 18.3516C326.061 18.3516 326.688 18.5605 327.148 18.9785C327.609 19.3926 327.84 19.9453 327.84 20.6367C327.84 21.4766 327.305 22.4766 326.234 23.6367L323.949 26.1152H328.232V27ZM334.971 27H329.381V26.2207L332.334 22.9395C332.771 22.4434 333.072 22.041 333.236 21.7324C333.404 21.4199 333.488 21.0977 333.488 20.7656C333.488 20.3203 333.354 19.9551 333.084 19.6699C332.814 19.3848 332.455 19.2422 332.006 19.2422C331.467 19.2422 331.047 19.3965 330.746 19.7051C330.449 20.0098 330.301 20.4355 330.301 20.9824H329.217C329.217 20.1973 329.469 19.5625 329.973 19.0781C330.48 18.5938 331.158 18.3516 332.006 18.3516C332.799 18.3516 333.426 18.5605 333.887 18.9785C334.348 19.3926 334.578 19.9453 334.578 20.6367C334.578 21.4766 334.043 22.4766 332.973 23.6367L330.688 26.1152H334.971V27Z" fill="#5F5F5F"/>
<path d="M373.547 27H372.416L368.121 20.4258V27H366.99V18.4688H368.121L372.428 25.0723V18.4688H373.547V27ZM375.088 23.7715C375.088 23.1504 375.209 22.5918 375.451 22.0957C375.697 21.5996 376.037 21.2168 376.471 20.9473C376.908 20.6777 377.406 20.543 377.965 20.543C378.828 20.543 379.525 20.8418 380.057 21.4395C380.592 22.0371 380.859 22.832 380.859 23.8242V23.9004C380.859 24.5176 380.74 25.0723 380.502 25.5645C380.268 26.0527 379.93 26.4336 379.488 26.707C379.051 26.9805 378.547 27.1172 377.977 27.1172C377.117 27.1172 376.42 26.8184 375.885 26.2207C375.354 25.623 375.088 24.832 375.088 23.8477V23.7715ZM376.178 23.9004C376.178 24.6035 376.34 25.168 376.664 25.5938C376.992 26.0195 377.43 26.2324 377.977 26.2324C378.527 26.2324 378.965 26.0176 379.289 25.5879C379.613 25.1543 379.775 24.5488 379.775 23.7715C379.775 23.0762 379.609 22.5137 379.277 22.084C378.949 21.6504 378.512 21.4336 377.965 21.4336C377.43 21.4336 376.998 21.6465 376.67 22.0723C376.342 22.498 376.178 23.1074 376.178 23.9004ZM384.217 25.5293L385.787 20.6602H386.895L384.621 27H383.795L381.498 20.6602H382.605L384.217 25.5293ZM396.393 27H390.803V26.2207L393.756 22.9395C394.193 22.4434 394.494 22.041 394.658 21.7324C394.826 21.4199 394.91 21.0977 394.91 20.7656C394.91 20.3203 394.775 19.9551 394.506 19.6699C394.236 19.3848 393.877 19.2422 393.428 19.2422C392.889 19.2422 392.469 19.3965 392.168 19.7051C391.871 20.0098 391.723 20.4355 391.723 20.9824H390.639C390.639 20.1973 390.891 19.5625 391.395 19.0781C391.902 18.5938 392.58 18.3516 393.428 18.3516C394.221 18.3516 394.848 18.5605 395.309 18.9785C395.77 19.3926 396 19.9453 396 20.6367C396 21.4766 395.465 22.4766 394.395 23.6367L392.109 26.1152H396.393V27ZM399.117 22.207H399.932C400.443 22.1992 400.846 22.0645 401.139 21.8027C401.432 21.541 401.578 21.1875 401.578 20.7422C401.578 19.7422 401.08 19.2422 400.084 19.2422C399.615 19.2422 399.24 19.377 398.959 19.6465C398.682 19.9121 398.543 20.2656 398.543 20.707H397.459C397.459 20.0312 397.705 19.4707 398.197 19.0254C398.693 18.5762 399.322 18.3516 400.084 18.3516C400.889 18.3516 401.52 18.5645 401.977 18.9902C402.434 19.416 402.662 20.0078 402.662 20.7656C402.662 21.1367 402.541 21.4961 402.299 21.8438C402.061 22.1914 401.734 22.4512 401.32 22.623C401.789 22.7715 402.15 23.0176 402.404 23.3613C402.662 23.7051 402.791 24.125 402.791 24.6211C402.791 25.3867 402.541 25.9941 402.041 26.4434C401.541 26.8926 400.891 27.1172 400.09 27.1172C399.289 27.1172 398.637 26.9004 398.133 26.4668C397.633 26.0332 397.383 25.4609 397.383 24.75H398.473C398.473 25.1992 398.619 25.5586 398.912 25.8281C399.205 26.0977 399.598 26.2324 400.09 26.2324C400.613 26.2324 401.014 26.0957 401.291 25.8223C401.568 25.5488 401.707 25.1562 401.707 24.6445C401.707 24.1484 401.555 23.7676 401.25 23.502C400.945 23.2363 400.506 23.0996 399.932 23.0918H399.117V22.207ZM409.623 23.8184H406.764V22.9336H409.623V23.8184ZM420.387 27H419.256L414.961 20.4258V27H413.83V18.4688H414.961L419.268 25.0723V18.4688H420.387V27ZM421.928 23.7715C421.928 23.1504 422.049 22.5918 422.291 22.0957C422.537 21.5996 422.877 21.2168 423.311 20.9473C423.748 20.6777 424.246 20.543 424.805 20.543C425.668 20.543 426.365 20.8418 426.896 21.4395C427.432 22.0371 427.699 22.832 427.699 23.8242V23.9004C427.699 24.5176 427.58 25.0723 427.342 25.5645C427.107 26.0527 426.77 26.4336 426.328 26.707C425.891 26.9805 425.387 27.1172 424.816 27.1172C423.957 27.1172 423.26 26.8184 422.725 26.2207C422.193 25.623 421.928 24.832 421.928 23.8477V23.7715ZM423.018 23.9004C423.018 24.6035 423.18 25.168 423.504 25.5938C423.832 26.0195 424.27 26.2324 424.816 26.2324C425.367 26.2324 425.805 26.0176 426.129 25.5879C426.453 25.1543 426.615 24.5488 426.615 23.7715C426.615 23.0762 426.449 22.5137 426.117 22.084C425.789 21.6504 425.352 21.4336 424.805 21.4336C424.27 21.4336 423.838 21.6465 423.51 22.0723C423.182 22.498 423.018 23.1074 423.018 23.9004ZM431.057 25.5293L432.627 20.6602H433.734L431.461 27H430.635L428.338 20.6602H429.445L431.057 25.5293ZM439.219 22.207H440.033C440.545 22.1992 440.947 22.0645 441.24 21.8027C441.533 21.541 441.68 21.1875 441.68 20.7422C441.68 19.7422 441.182 19.2422 440.186 19.2422C439.717 19.2422 439.342 19.377 439.061 19.6465C438.783 19.9121 438.645 20.2656 438.645 20.707H437.561C437.561 20.0312 437.807 19.4707 438.299 19.0254C438.795 18.5762 439.424 18.3516 440.186 18.3516C440.99 18.3516 441.621 18.5645 442.078 18.9902C442.535 19.416 442.764 20.0078 442.764 20.7656C442.764 21.1367 442.643 21.4961 442.4 21.8438C442.162 22.1914 441.836 22.4512 441.422 22.623C441.891 22.7715 442.252 23.0176 442.506 23.3613C442.764 23.7051 442.893 24.125 442.893 24.6211C442.893 25.3867 442.643 25.9941 442.143 26.4434C441.643 26.8926 440.992 27.1172 440.191 27.1172C439.391 27.1172 438.738 26.9004 438.234 26.4668C437.734 26.0332 437.484 25.4609 437.484 24.75H438.574C438.574 25.1992 438.721 25.5586 439.014 25.8281C439.307 26.0977 439.699 26.2324 440.191 26.2324C440.715 26.2324 441.115 26.0957 441.393 25.8223C441.67 25.5488 441.809 25.1562 441.809 24.6445C441.809 24.1484 441.656 23.7676 441.352 23.502C441.047 23.2363 440.607 23.0996 440.033 23.0918H439.219V22.207ZM449.73 23.3613C449.73 24.6309 449.514 25.5742 449.08 26.1914C448.646 26.8086 447.969 27.1172 447.047 27.1172C446.137 27.1172 445.463 26.8164 445.025 26.2148C444.588 25.6094 444.361 24.707 444.346 23.5078V22.0605C444.346 20.8066 444.562 19.875 444.996 19.2656C445.43 18.6562 446.109 18.3516 447.035 18.3516C447.953 18.3516 448.629 18.6465 449.062 19.2363C449.496 19.8223 449.719 20.7285 449.73 21.9551V23.3613ZM448.646 21.8789C448.646 20.9609 448.518 20.293 448.26 19.875C448.002 19.4531 447.594 19.2422 447.035 19.2422C446.48 19.2422 446.076 19.4512 445.822 19.8691C445.568 20.2871 445.438 20.9297 445.43 21.7969V23.5312C445.43 24.4531 445.562 25.1348 445.828 25.5762C446.098 26.0137 446.504 26.2324 447.047 26.2324C447.582 26.2324 447.979 26.0254 448.236 25.6113C448.498 25.1973 448.635 24.5449 448.646 23.6543V21.8789Z" fill="#5F5F5F"/>
<rect x="4" width="1" height="13" fill="#5F5F5F"/>
<rect x="149" width="1" height="13" fill="#5F5F5F"/>
<rect x="295" width="1" height="13" fill="#5F5F5F"/>
<rect x="443" width="1" height="13" fill="#5F5F5F"/>
</svg>
