<svg width="1053" height="260" viewBox="0 0 1053 260" fill="none" xmlns="http://www.w3.org/2000/svg">
<g filter="url(#filter0_d)">
<rect x="16" y="16" width="1021" height="228" rx="10" fill="white"/>
<rect x="16.5" y="16.5" width="1020" height="227" rx="9.5" stroke="#DEDEDE"/>
</g>
<path d="M127.168 73H125.764V67.06L123.304 73H122.704L120.256 67.06V73H118.852V64.996H120.832L123.004 70.264L125.188 64.996H127.168V73ZM133.636 73H132.376V72.376C131.928 72.888 131.304 73.144 130.504 73.144C129.976 73.144 129.508 72.976 129.1 72.64C128.692 72.296 128.488 71.824 128.488 71.224C128.488 70.608 128.688 70.14 129.088 69.82C129.496 69.5 129.968 69.34 130.504 69.34C131.328 69.34 131.952 69.588 132.376 70.084V69.22C132.376 68.884 132.252 68.62 132.004 68.428C131.756 68.236 131.428 68.14 131.02 68.14C130.372 68.14 129.8 68.384 129.304 68.872L128.788 67.996C129.444 67.372 130.256 67.06 131.224 67.06C131.936 67.06 132.516 67.228 132.964 67.564C133.412 67.9 133.636 68.432 133.636 69.16V73ZM130.996 72.28C131.628 72.28 132.088 72.08 132.376 71.68V70.804C132.088 70.404 131.628 70.204 130.996 70.204C130.636 70.204 130.34 70.3 130.108 70.492C129.876 70.684 129.76 70.936 129.76 71.248C129.76 71.56 129.876 71.812 130.108 72.004C130.34 72.188 130.636 72.28 130.996 72.28ZM135.893 66.496C135.685 66.496 135.501 66.42 135.341 66.268C135.189 66.116 135.113 65.932 135.113 65.716C135.113 65.5 135.189 65.316 135.341 65.164C135.501 65.012 135.685 64.936 135.893 64.936C136.109 64.936 136.293 65.012 136.445 65.164C136.597 65.316 136.673 65.5 136.673 65.716C136.673 65.932 136.597 66.116 136.445 66.268C136.293 66.42 136.109 66.496 135.893 66.496ZM136.529 73H135.269V67.204H136.529V73ZM139.424 73H138.164V64.996H139.424V73ZM143.698 73.144C142.818 73.144 142.098 72.86 141.538 72.292C140.978 71.716 140.698 70.984 140.698 70.096C140.698 69.216 140.978 68.492 141.538 67.924C142.098 67.348 142.818 67.06 143.698 67.06C144.666 67.06 145.406 67.404 145.918 68.092L145.09 68.86C144.77 68.404 144.326 68.176 143.758 68.176C143.23 68.176 142.806 68.356 142.486 68.716C142.166 69.068 142.006 69.528 142.006 70.096C142.006 70.664 142.166 71.128 142.486 71.488C142.806 71.848 143.23 72.028 143.758 72.028C144.31 72.028 144.754 71.8 145.09 71.344L145.918 72.112C145.406 72.8 144.666 73.144 143.698 73.144ZM152.207 73H150.947V69.352C150.947 68.928 150.843 68.628 150.635 68.452C150.435 68.268 150.147 68.176 149.771 68.176C149.475 68.176 149.195 68.252 148.931 68.404C148.667 68.556 148.451 68.74 148.283 68.956V73H147.023V64.996H148.283V67.996C148.499 67.74 148.787 67.52 149.147 67.336C149.515 67.152 149.911 67.06 150.335 67.06C151.583 67.06 152.207 67.672 152.207 68.896V73ZM154.467 66.496C154.259 66.496 154.075 66.42 153.915 66.268C153.763 66.116 153.687 65.932 153.687 65.716C153.687 65.5 153.763 65.316 153.915 65.164C154.075 65.012 154.259 64.936 154.467 64.936C154.683 64.936 154.867 65.012 155.019 65.164C155.171 65.316 155.247 65.5 155.247 65.716C155.247 65.932 155.171 66.116 155.019 66.268C154.867 66.42 154.683 66.496 154.467 66.496ZM155.103 73H153.843V67.204H155.103V73ZM165.102 73H163.842V69.22C163.842 68.524 163.526 68.176 162.894 68.176C162.63 68.176 162.374 68.252 162.126 68.404C161.878 68.556 161.686 68.736 161.55 68.944V73H160.29V69.22C160.29 68.524 159.97 68.176 159.33 68.176C159.074 68.176 158.822 68.252 158.574 68.404C158.334 68.556 158.142 68.74 157.998 68.956V73H156.738V67.204H157.998V67.996C158.142 67.78 158.39 67.572 158.742 67.372C159.102 67.164 159.482 67.06 159.882 67.06C160.722 67.06 161.25 67.416 161.466 68.128C161.65 67.84 161.922 67.592 162.282 67.384C162.642 67.168 163.026 67.06 163.434 67.06C164.546 67.06 165.102 67.644 165.102 68.812V73ZM169.854 73.144C169.086 73.144 168.466 72.828 167.994 72.196V75.208H166.734V67.204H167.994V67.996C168.458 67.372 169.078 67.06 169.854 67.06C170.614 67.06 171.23 67.332 171.702 67.876C172.182 68.42 172.422 69.16 172.422 70.096C172.422 71.032 172.182 71.776 171.702 72.328C171.23 72.872 170.614 73.144 169.854 73.144ZM169.482 72.028C169.978 72.028 170.374 71.848 170.67 71.488C170.966 71.128 171.114 70.664 171.114 70.096C171.114 69.528 170.966 69.068 170.67 68.716C170.374 68.356 169.978 68.176 169.482 68.176C169.194 68.176 168.91 68.252 168.63 68.404C168.35 68.556 168.138 68.74 167.994 68.956V71.248C168.138 71.464 168.35 71.648 168.63 71.8C168.91 71.952 169.194 72.028 169.482 72.028Z" fill="#0969F9"/>
<path d="M192.164 73H190.76V66.232H188.336V64.996H194.588V66.232H192.164V73ZM201.633 73H200.313L198.969 68.752L197.625 73H196.305L194.505 67.204H195.813L197.037 71.416L198.417 67.204H199.521L200.901 71.416L202.125 67.204H203.433L201.633 73ZM204.932 66.496C204.724 66.496 204.54 66.42 204.38 66.268C204.228 66.116 204.152 65.932 204.152 65.716C204.152 65.5 204.228 65.316 204.38 65.164C204.54 65.012 204.724 64.936 204.932 64.936C205.148 64.936 205.332 65.012 205.484 65.164C205.636 65.316 205.712 65.5 205.712 65.716C205.712 65.932 205.636 66.116 205.484 66.268C205.332 66.42 205.148 66.496 204.932 66.496ZM205.568 73H204.308V67.204H205.568V73ZM208.943 73.144C208.455 73.144 208.083 73.016 207.827 72.76C207.579 72.504 207.455 72.136 207.455 71.656V68.308H206.495V67.204H207.455V65.62H208.715V67.204H209.891V68.308H208.715V71.344C208.715 71.552 208.763 71.72 208.859 71.848C208.955 71.968 209.091 72.028 209.267 72.028C209.523 72.028 209.711 71.96 209.831 71.824L210.131 72.772C209.867 73.02 209.471 73.144 208.943 73.144ZM212.775 73.144C212.287 73.144 211.915 73.016 211.659 72.76C211.411 72.504 211.287 72.136 211.287 71.656V68.308H210.327V67.204H211.287V65.62H212.547V67.204H213.723V68.308H212.547V71.344C212.547 71.552 212.595 71.72 212.691 71.848C212.787 71.968 212.923 72.028 213.099 72.028C213.355 72.028 213.543 71.96 213.663 71.824L213.963 72.772C213.699 73.02 213.303 73.144 212.775 73.144ZM217.543 73.144C216.663 73.144 215.935 72.864 215.359 72.304C214.791 71.736 214.507 71 214.507 70.096C214.507 69.248 214.783 68.532 215.335 67.948C215.895 67.356 216.599 67.06 217.447 67.06C218.303 67.06 218.991 67.356 219.511 67.948C220.039 68.54 220.303 69.296 220.303 70.216V70.516H215.827C215.875 70.972 216.063 71.352 216.391 71.656C216.719 71.96 217.147 72.112 217.675 72.112C217.971 72.112 218.267 72.056 218.563 71.944C218.867 71.832 219.119 71.676 219.319 71.476L219.895 72.304C219.311 72.864 218.527 73.144 217.543 73.144ZM219.079 69.628C219.063 69.228 218.915 68.872 218.635 68.56C218.363 68.248 217.967 68.092 217.447 68.092C216.951 68.092 216.563 68.248 216.283 68.56C216.003 68.864 215.847 69.22 215.815 69.628H219.079ZM222.806 73H221.546V67.204H222.806V68.056C223.03 67.768 223.31 67.532 223.646 67.348C223.982 67.164 224.33 67.072 224.69 67.072V68.32C224.578 68.296 224.446 68.284 224.294 68.284C224.03 68.284 223.746 68.364 223.442 68.524C223.146 68.676 222.934 68.852 222.806 69.052V73Z" fill="#6DC7C7"/>
<path d="M72.164 73H70.76V66.232H68.336V64.996H74.588V66.232H72.164V73ZM76.3658 66.496C76.1578 66.496 75.9738 66.42 75.8138 66.268C75.6618 66.116 75.5858 65.932 75.5858 65.716C75.5858 65.5 75.6618 65.316 75.8138 65.164C75.9738 65.012 76.1578 64.936 76.3658 64.936C76.5818 64.936 76.7658 65.012 76.9178 65.164C77.0698 65.316 77.1458 65.5 77.1458 65.716C77.1458 65.932 77.0698 66.116 76.9178 66.268C76.7658 66.42 76.5818 66.496 76.3658 66.496ZM77.0018 73H75.7418V67.204H77.0018V73ZM84.0603 73H82.4763L80.7003 70.612L79.8963 71.44V73H78.6363V64.996H79.8963V70L82.4523 67.204H84.0123L81.6003 69.832L84.0603 73ZM87.6445 73H86.2405V66.232H83.8165V64.996H90.0685V66.232H87.6445V73ZM92.5726 73.144C91.6766 73.144 90.9566 72.852 90.4126 72.268C89.8686 71.676 89.5966 70.952 89.5966 70.096C89.5966 69.24 89.8686 68.52 90.4126 67.936C90.9566 67.352 91.6766 67.06 92.5726 67.06C93.4766 67.06 94.2006 67.352 94.7446 67.936C95.2886 68.52 95.5606 69.24 95.5606 70.096C95.5606 70.96 95.2886 71.684 94.7446 72.268C94.2006 72.852 93.4766 73.144 92.5726 73.144ZM92.5726 72.028C93.0926 72.028 93.5006 71.844 93.7966 71.476C94.1006 71.1 94.2526 70.64 94.2526 70.096C94.2526 69.56 94.1006 69.108 93.7966 68.74C93.5006 68.364 93.0926 68.176 92.5726 68.176C92.0606 68.176 91.6526 68.364 91.3486 68.74C91.0526 69.108 90.9046 69.56 90.9046 70.096C90.9046 70.64 91.0526 71.1 91.3486 71.476C91.6526 71.844 92.0606 72.028 92.5726 72.028ZM102.26 73H100.676L98.8995 70.612L98.0955 71.44V73H96.8355V64.996H98.0955V70L100.652 67.204H102.212L99.7995 69.832L102.26 73Z" fill="#5609F9"/>
<path d="M73 217L283.3 128.435C284.395 127.973 285.62 127.918 286.753 128.277L416.079 169.329C417.2 169.685 418.411 169.634 419.498 169.186L600.846 94.4118C602.88 93.5731 605.223 94.1626 606.619 95.864L689.44 196.869C691.102 198.896 694.048 199.295 696.19 197.783L775.449 141.814C776.25 141.248 777.2 140.931 778.181 140.901L965.042 135.218C966.279 135.181 967.459 134.685 968.352 133.828L1004 99.6133" stroke="#0969F9" stroke-width="4"/>
<path d="M68 141.23L326.721 202.849C327.141 202.949 327.573 202.994 328.005 202.984L474.585 199.286C475.048 199.275 475.506 199.199 475.948 199.061L614.158 155.966C614.64 155.816 615.142 155.739 615.647 155.739H891.589C892.79 155.739 893.951 155.307 894.859 154.522L1010 55" stroke="#6DC7C7" stroke-width="4"/>
<path d="M73 181.076L432.966 225.85C433.757 225.949 434.56 225.857 435.308 225.582L731.282 116.794C732.653 116.29 734.176 116.411 735.45 117.124L895.022 206.47C895.768 206.887 896.609 207.107 897.464 207.107H1004" stroke="#5609F9" stroke-width="4"/>
<path d="M76.032 51.64C75.008 52.6747 73.7013 53.192 72.112 53.192C70.5227 53.192 69.216 52.6747 68.192 51.64C67.168 50.5947 66.656 49.272 66.656 47.672C66.656 46.072 67.168 44.7547 68.192 43.72C69.216 42.6747 70.5227 42.152 72.112 42.152C73.7013 42.152 75.008 42.6747 76.032 43.72C77.056 44.7547 77.568 46.072 77.568 47.672C77.568 49.272 77.056 50.5947 76.032 51.64ZM72.112 51.528C73.168 51.528 74.0213 51.1653 74.672 50.44C75.3227 49.704 75.648 48.7813 75.648 47.672C75.648 46.552 75.3227 45.6293 74.672 44.904C74.0213 44.1787 73.168 43.816 72.112 43.816C71.0453 43.816 70.1867 44.1787 69.536 44.904C68.896 45.6293 68.576 46.552 68.576 47.672C68.576 48.792 68.896 49.7147 69.536 50.44C70.1867 51.1653 71.0453 51.528 72.112 51.528ZM83.1624 53H81.3544L78.2024 45.272H79.9944L82.2504 51.064L84.5064 45.272H86.3144L83.1624 53ZM90.9373 53.192C89.7639 53.192 88.7933 52.8187 88.0253 52.072C87.2679 51.3147 86.8893 50.3333 86.8893 49.128C86.8893 47.9973 87.2573 47.0427 87.9933 46.264C88.7399 45.4747 89.6786 45.08 90.8093 45.08C91.9506 45.08 92.8679 45.4747 93.5613 46.264C94.2653 47.0533 94.6173 48.0613 94.6173 49.288V49.688H88.6493C88.7133 50.296 88.9639 50.8027 89.4013 51.208C89.8386 51.6133 90.4093 51.816 91.1133 51.816C91.5079 51.816 91.9026 51.7413 92.2973 51.592C92.7026 51.4427 93.0386 51.2347 93.3053 50.968L94.0733 52.072C93.2946 52.8187 92.2493 53.192 90.9373 53.192ZM92.9853 48.504C92.9639 47.9707 92.7666 47.496 92.3933 47.08C92.0306 46.664 91.5026 46.456 90.8093 46.456C90.1479 46.456 89.6306 46.664 89.2573 47.08C88.8839 47.4853 88.6759 47.96 88.6332 48.504H92.9853ZM97.9555 53H96.2755V45.272H97.9555V46.408C98.2542 46.024 98.6275 45.7093 99.0755 45.464C99.5235 45.2187 99.9875 45.096 100.468 45.096V46.76C100.318 46.728 100.142 46.712 99.9395 46.712C99.5875 46.712 99.2088 46.8187 98.8035 47.032C98.4088 47.2347 98.1262 47.4693 97.9555 47.736V53ZM110.396 53H108.524V43.976H105.292V42.328H113.628V43.976H110.396V53ZM115.998 44.328C115.721 44.328 115.475 44.2267 115.262 44.024C115.059 43.8213 114.958 43.576 114.958 43.288C114.958 43 115.059 42.7547 115.262 42.552C115.475 42.3493 115.721 42.248 115.998 42.248C116.286 42.248 116.531 42.3493 116.734 42.552C116.937 42.7547 117.038 43 117.038 43.288C117.038 43.576 116.937 43.8213 116.734 44.024C116.531 44.2267 116.286 44.328 115.998 44.328ZM116.846 53H115.166V45.272H116.846V53ZM130.178 53H128.498V47.96C128.498 47.032 128.076 46.568 127.234 46.568C126.882 46.568 126.54 46.6693 126.21 46.872C125.879 47.0747 125.623 47.3147 125.442 47.592V53H123.762V47.96C123.762 47.032 123.335 46.568 122.482 46.568C122.14 46.568 121.804 46.6693 121.474 46.872C121.154 47.0747 120.898 47.32 120.706 47.608V53H119.026V45.272H120.706V46.328C120.898 46.04 121.228 45.7627 121.698 45.496C122.178 45.2187 122.684 45.08 123.218 45.08C124.338 45.08 125.042 45.5547 125.33 46.504C125.575 46.12 125.938 45.7893 126.418 45.512C126.898 45.224 127.41 45.08 127.954 45.08C129.436 45.08 130.178 45.8587 130.178 47.416V53ZM135.922 53.192C134.748 53.192 133.778 52.8187 133.01 52.072C132.252 51.3147 131.874 50.3333 131.874 49.128C131.874 47.9973 132.242 47.0427 132.978 46.264C133.724 45.4747 134.663 45.08 135.794 45.08C136.935 45.08 137.852 45.4747 138.546 46.264C139.25 47.0533 139.602 48.0613 139.602 49.288V49.688H133.634C133.698 50.296 133.948 50.8027 134.386 51.208C134.823 51.6133 135.394 51.816 136.098 51.816C136.492 51.816 136.887 51.7413 137.282 51.592C137.687 51.4427 138.023 51.2347 138.29 50.968L139.058 52.072C138.279 52.8187 137.234 53.192 135.922 53.192ZM137.97 48.504C137.948 47.9707 137.751 47.496 137.378 47.08C137.015 46.664 136.487 46.456 135.794 46.456C135.132 46.456 134.615 46.664 134.242 47.08C133.868 47.4853 133.66 47.96 133.618 48.504H137.97Z" fill="#1F82F7"/>
<defs>
<filter id="filter0_d" x="0" y="0" width="1053" height="260" filterUnits="userSpaceOnUse" color-interpolation-filters="sRGB">
<feFlood flood-opacity="0" result="BackgroundImageFix"/>
<feColorMatrix in="SourceAlpha" type="matrix" values="0 0 0 0 0 0 0 0 0 0 0 0 0 0 0 0 0 0 127 0" result="hardAlpha"/>
<feMorphology radius="4" operator="erode" in="SourceAlpha" result="effect1_dropShadow"/>
<feOffset/>
<feGaussianBlur stdDeviation="10"/>
<feColorMatrix type="matrix" values="0 0 0 0 0 0 0 0 0 0 0 0 0 0 0 0 0 0 0.18 0"/>
<feBlend mode="normal" in2="BackgroundImageFix" result="effect1_dropShadow"/>
<feBlend mode="normal" in="SourceGraphic" in2="effect1_dropShadow" result="shape"/>
</filter>
</defs>
</svg>
