<svg width="133" height="45" viewBox="0 0 133 45" fill="none" xmlns="http://www.w3.org/2000/svg">
<rect width="45" height="45" rx="22.5" fill="url(#paint0_linear)"/>
<path d="M63.404 30C66.088 30 67.65 28.394 67.65 26.04C67.65 24.28 66.352 22.674 64.79 22.432C66.132 22.146 67.364 20.914 67.364 19.066C67.364 16.866 65.802 15.326 63.25 15.326H56.716V30H63.404ZM62.942 21.684H58.542V16.954H62.942C64.592 16.954 65.472 18.01 65.472 19.33C65.472 20.672 64.592 21.684 62.942 21.684ZM63.03 28.372H58.542V23.312H63.03C64.834 23.312 65.758 24.5 65.758 25.842C65.758 27.404 64.746 28.372 63.03 28.372ZM78.7799 30V22.696C78.7799 20.122 76.9099 19.11 74.6659 19.11C72.9279 19.11 71.5639 19.682 70.4199 20.87L71.1899 22.014C72.1359 21.002 73.1699 20.54 74.4459 20.54C75.9859 20.54 77.1299 21.354 77.1299 22.784V24.698C76.2719 23.708 75.0619 23.246 73.6099 23.246C71.8059 23.246 69.8919 24.368 69.8919 26.744C69.8919 29.054 71.8059 30.264 73.6099 30.264C75.0399 30.264 76.2499 29.758 77.1299 28.79V30H78.7799ZM74.2039 29.076C72.6639 29.076 71.5859 28.108 71.5859 26.766C71.5859 25.402 72.6639 24.434 74.2039 24.434C75.3699 24.434 76.4919 24.874 77.1299 25.754V27.756C76.4919 28.636 75.3699 29.076 74.2039 29.076ZM90.9095 30V22.542C90.9095 20.232 89.7435 19.11 87.5215 19.11C85.9375 19.11 84.4855 20.034 83.7375 20.914V19.374H82.0875V30H83.7375V22.234C84.3535 21.376 85.5855 20.584 86.8835 20.584C88.3135 20.584 89.2595 21.178 89.2595 23.048V30H90.9095ZM102.499 30V22.696C102.499 20.122 100.629 19.11 98.3847 19.11C96.6467 19.11 95.2827 19.682 94.1387 20.87L94.9087 22.014C95.8547 21.002 96.8887 20.54 98.1647 20.54C99.7047 20.54 100.849 21.354 100.849 22.784V24.698C99.9907 23.708 98.7807 23.246 97.3287 23.246C95.5247 23.246 93.6107 24.368 93.6107 26.744C93.6107 29.054 95.5247 30.264 97.3287 30.264C98.7587 30.264 99.9687 29.758 100.849 28.79V30H102.499ZM97.9227 29.076C96.3827 29.076 95.3047 28.108 95.3047 26.766C95.3047 25.402 96.3827 24.434 97.9227 24.434C99.0887 24.434 100.211 24.874 100.849 25.754V27.756C100.211 28.636 99.0887 29.076 97.9227 29.076ZM107.456 27.118V22.3C108.028 21.376 109.326 20.584 110.624 20.584C112.78 20.584 114.056 22.344 114.056 24.698C114.056 27.052 112.78 28.79 110.624 28.79C109.326 28.79 108.028 28.042 107.456 27.118ZM107.456 30V28.416C108.248 29.494 109.546 30.264 111.042 30.264C113.814 30.264 115.772 28.152 115.772 24.698C115.772 21.31 113.814 19.11 111.042 19.11C109.59 19.11 108.314 19.814 107.456 20.98V15.326H105.806V30H107.456ZM123.103 30.264C126.337 30.264 128.361 27.756 128.361 24.676C128.361 21.596 126.337 19.11 123.103 19.11C119.869 19.11 117.845 21.596 117.845 24.676C117.845 27.756 119.869 30.264 123.103 30.264ZM123.103 28.79C120.837 28.79 119.561 26.854 119.561 24.676C119.561 22.52 120.837 20.584 123.103 20.584C125.369 20.584 126.623 22.52 126.623 24.676C126.623 26.854 125.369 28.79 123.103 28.79Z" fill="white"/>
<path d="M26.3188 35.9945C26.3188 35.9975 26.3163 36 26.3133 36H15C14.4477 36 14 35.5523 14 35V11C14 10.4477 14.4477 10 15 10H26.0347C27.1412 10.001 28.2175 10.4041 29.1013 11.1488C29.9852 11.8935 30.6288 12.9393 30.9353 14.1288C31.2417 15.3182 31.1943 16.5869 30.8002 17.7436C30.5991 18.3339 30.3133 18.8787 29.9571 19.3584C29.5029 19.9702 29.5865 20.9743 30.171 21.4632C30.8246 22.0099 31.3917 22.6822 31.844 23.4532C32.5992 24.7406 33.001 26.2471 33 27.7869V28.1051C33.0014 30.1267 32.309 32.0717 31.0658 33.5388C29.8238 35.0045 28.1266 35.8814 26.324 35.989C26.3211 35.9892 26.3188 35.9916 26.3188 35.9945V35.9945ZM15.3552 33.4839C15.3552 34.0362 15.803 34.4839 16.3552 34.4839H18.9825C19.9221 34.4839 20.4588 33.1666 19.9928 32.3506C19.7816 31.9809 19.5974 31.5908 19.4427 31.1839C19.0743 30.2126 18.8849 29.1682 18.8857 28.1132V27.7948C18.8841 25.8016 19.5564 23.8815 20.7677 22.4198C21.979 20.9581 23.6396 20.063 25.4163 19.9141C25.5974 19.899 25.7827 19.8916 25.9656 19.8924C26.0377 19.8924 26.1096 19.8938 26.1813 19.8968C27.15 19.8542 28.0662 19.3934 28.7376 18.6111C29.4089 17.8288 29.7832 16.7859 29.7818 15.7014C29.7786 13.3935 28.0977 11.5159 26.0345 11.5159H16.3552C15.803 11.5159 15.3552 11.9637 15.3552 12.5159V33.4839ZM25.9422 21.4077C25.8 21.4077 25.6568 21.4136 25.5157 21.4262C22.5546 21.6709 20.2375 24.468 20.2406 27.7943V28.1124C20.2437 31.6262 22.8018 34.4848 25.9427 34.4848C29.0864 34.4848 31.6444 31.6232 31.6444 28.1058V27.7869C31.6444 24.3621 29.2111 21.5517 26.1769 21.4133C26.1304 21.4147 26.0839 21.4154 26.0373 21.4155C26.0354 21.4155 26.0339 21.4139 26.0339 21.4121V21.4121C26.0339 21.4102 26.0323 21.4087 26.0305 21.4087C26.0072 21.4087 25.9834 21.4087 25.9605 21.4087L25.9422 21.4077Z" fill="white" stroke="white" stroke-width="0.3"/>
<defs>
<linearGradient id="paint0_linear" x1="-4.28208e-07" y1="46.0793" x2="54.5405" y2="26.2774" gradientUnits="userSpaceOnUse">
<stop stop-color="#265DE3"/>
<stop offset="1" stop-color="#AF71FF"/>
</linearGradient>
</defs>
</svg>
